<?xml version="1.0" encoding="UTF-8"?>
<svg width="33px" height="35px" viewBox="0 0 33 35" version="1.1" xmlns="http://www.w3.org/2000/svg" xmlns:xlink="http://www.w3.org/1999/xlink">
    <!-- Generator: sketchtool 49.3 (51167) - http://www.bohemiancoding.com/sketch -->
    <title>209E913D-AB15-4B72-B8CC-C4C2BC9EC1F5</title>
    <desc>Created with sketchtool.</desc>
    <defs></defs>
    <g id="Cases" stroke="none" stroke-width="1" fill="none" fill-rule="evenodd">
        <g id="Volition-[desktop]-:hover" transform="translate(-473.000000, -2342.000000)" fill-rule="nonzero">
            <g id="Technology" transform="translate(220.000000, 2341.000000)">
                <g id="tech-logos" transform="translate(252.000000, 0.000000)">
                    <g id="line-1">
                        <g id="angular-js">
                            <polygon id="polygon50" fill="#D4D7DC" points="3.7197908 28.1437351 17.4930014 35.7137651 31.3371429 28.0411918 33.9179157 6.63709685 17.4756145 0.989309927 1.13803002 6.73884987"></polygon>
                            <polygon id="polygon52" fill="#A6120D" points="17.4374818 33.9051298 29.8831612 27.0171415 32.2882867 7.87413705 17.4374818 2.8098"></polygon>
                            <polygon id="polygon54" fill="#DD1B16" points="17.4372843 33.9051298 17.4372843 2.80920727 2.97136271 7.9654184 5.18365133 27.1086203"></polygon>
                            <path d="M21.525385,19.363338 L17.4374818,21.2749119 L13.1288833,21.2749119 L11.1035041,26.3408295 L7.33627119,26.4105748 L17.4374818,3.93896223 L21.525385,19.363338 Z M21.1302276,18.4009322 L17.4645501,11.1440644 L14.4577976,18.2760625 L17.4372843,18.2760625 L21.1302276,18.4009322 Z" id="path56" fill="#FFFFFF"></path>
                            <polygon id="polygon58" fill="#CBD1DA" points="20.8761414 18.2815947 17.4449899 18.2815947 17.4372843 21.2703675 22.1817414 21.2749119 24.399167 26.4113651 28.0037927 26.4781468 17.4372843 3.93896223 17.4643525 11.1440644"></polygon>
                        </g>
                    </g>
                </g>
            </g>
        </g>
    </g>
</svg>