<?xml version="1.0" encoding="UTF-8"?>
<svg width="39px" height="29px" viewBox="0 0 39 29" version="1.1" xmlns="http://www.w3.org/2000/svg" xmlns:xlink="http://www.w3.org/1999/xlink">
    <!-- Generator: sketchtool 49.3 (51167) - http://www.bohemiancoding.com/sketch -->
    <title>D696D7AB-E681-4640-B845-642484D757B0</title>
    <desc>Created with sketchtool.</desc>
    <defs></defs>
    <g id="Cases" stroke="none" stroke-width="1" fill="none" fill-rule="evenodd">
        <g id="Volition-[desktop]-:hover" transform="translate(-796.000000, -2408.000000)" fill="#CD6799" fill-rule="nonzero">
            <g id="Technology" transform="translate(220.000000, 2341.000000)">
                <g id="tech-logos" transform="translate(252.000000, 0.000000)">
                    <g id="line-2" transform="translate(0.000000, 66.000000)">
                        <g id="sass" transform="translate(324.000005, 1.000000)">
                            <path d="M33.0221363,16.5669905 C31.6869907,16.5739808 30.5266023,16.8955342 29.5549518,17.370874 C29.198447,16.6648546 28.8419421,16.0357284 28.7790295,15.5743691 C28.7091266,15.0361167 28.6252431,14.707573 28.7091266,14.0644662 C28.7930101,13.4213594 29.1704858,12.5056312 29.1634955,12.4357283 C29.1565052,12.3658254 29.079612,12.0372817 28.31068,12.0302914 C27.5417479,12.0233011 26.8776702,12.1770875 26.800777,12.379806 C26.7238838,12.5825244 26.5770877,13.0438837 26.4792236,13.5192235 C26.3464081,14.2182526 24.9413595,16.7137866 24.137476,18.0209711 C23.8788352,17.5106798 23.6551459,17.0633012 23.6062139,16.7067963 C23.536311,16.1685439 23.4524275,15.8400002 23.536311,15.1968934 C23.6201945,14.5537866 23.9976702,13.6380584 23.9906799,13.5681555 C23.9836896,13.4982526 23.9067964,13.1697089 23.1378644,13.1627186 C22.3689323,13.1557283 21.7048546,13.3095147 21.6279614,13.5122332 C21.5510682,13.7149516 21.4671847,14.1902914 21.306408,14.6516507 C21.1456313,15.1130099 19.2792235,19.2792235 18.7899031,20.3557284 C18.5382527,20.9079614 18.3215536,21.3483498 18.1677672,21.6489323 C18.1677672,21.6489323 18.1677672,21.6489323 18.1677672,21.6489323 C18.1677672,21.6489323 18.1607769,21.6699032 18.1398061,21.7048546 C18.0069905,21.9634954 17.9300973,22.1033012 17.9300973,22.1033012 C17.9300973,22.1033012 17.9300973,22.1033012 17.9300973,22.1102915 C17.8252429,22.2990294 17.7133983,22.4737867 17.6574759,22.4737867 C17.6155342,22.4737867 17.538641,21.9704857 17.6714565,21.2854372 C17.9510682,19.8384468 18.6151459,17.587573 18.6081556,17.5106798 C18.6081556,17.4687381 18.7339808,17.0772818 18.1747575,16.8745633 C17.6295148,16.6718449 17.4337866,17.0073789 17.3848546,17.0073789 C17.3359225,17.0073789 17.3009711,17.1262138 17.3009711,17.1262138 C17.3009711,17.1262138 17.9091264,14.5957283 16.1405827,14.5957283 C15.0361167,14.5957283 13.5122332,15.8050487 12.7572817,16.8955342 C12.2819419,17.154175 11.2683497,17.706408 10.1848545,18.3005828 C9.77242731,18.5312624 9.34601953,18.761942 8.94757293,18.978641 C8.91961176,18.9506798 8.8916506,18.9157284 8.86368943,18.8877672 C6.72466028,16.601942 2.76815537,14.9871847 2.93592237,11.9184468 C2.99883499,10.8000001 3.38330101,7.86407777 10.5343691,4.29902918 C16.4201944,1.39805827 21.1036896,2.20194178 21.9145634,3.98446607 C23.0749517,6.52893212 19.4050488,11.2543691 13.3234953,11.9394176 C11.0027186,12.1980584 9.78640789,11.3033011 9.47883507,10.9677671 C9.15728167,10.6182526 9.10834963,10.5972817 8.98951468,10.6671846 C8.79378652,10.772039 8.91961176,11.0866021 8.98951468,11.2683497 C9.17126225,11.7436895 9.91922342,12.5825244 11.1844662,12.9949516 C12.3029128,13.3584468 15.0221361,13.5611652 18.3145633,12.2889322 C21.9984469,10.8629128 24.8784469,6.89941756 24.0326217,3.57902917 C23.1867964,0.20970874 17.5945633,-0.901747584 12.3029128,0.978640789 C9.15728167,2.0970874 5.74601949,3.85864082 3.29242723,6.15145639 C0.377475733,8.87767001 -0.0838834962,11.2473788 0.10485437,12.2400002 C0.782912631,15.763107 5.64116512,18.0559226 7.58446611,19.7545634 C7.48660204,19.8104857 7.39572825,19.8594177 7.31883504,19.9013595 C6.34718455,20.3836896 2.64233013,22.3200003 1.71961167,24.3681556 C0.67106797,26.6889324 1.88737866,28.3526217 2.69126217,28.576311 C5.18679618,29.2683499 7.75223311,28.024078 9.1293205,25.9689324 C10.5064079,23.9137867 10.3386409,21.2434954 9.70252439,20.0201944 C9.6955341,20.0062138 9.68854381,19.9922333 9.67456323,19.9782527 C9.92621372,19.8314566 10.1848545,19.6776701 10.436505,19.530874 C10.9328157,19.2372818 11.4221361,18.9646604 11.8415535,18.7409711 C11.6038836,19.3910682 11.4291264,20.1669905 11.3452429,21.2854372 C11.2403885,22.5996119 11.7786409,24.305243 12.4846603,24.976311 C12.7992235,25.2699032 13.1697089,25.2768935 13.4073788,25.2768935 C14.2322332,25.2768935 14.6027186,24.591845 15.0151458,23.7809712 C15.5184468,22.7883498 15.9728157,21.6349517 15.9728157,21.6349517 C15.9728157,21.6349517 15.4066021,24.7526217 16.9444662,24.7526217 C17.5036895,24.7526217 18.0699031,24.0256314 18.3215536,23.6551459 C18.3215536,23.6621362 18.3215536,23.6621362 18.3215536,23.6621362 C18.3215536,23.6621362 18.3355342,23.6411653 18.3634954,23.5922333 C18.4194177,23.5013595 18.4543692,23.4454372 18.4543692,23.4454372 C18.4543692,23.4454372 18.4543692,23.4384469 18.4543692,23.4314566 C18.6780585,23.0400003 19.1813595,22.1522333 19.9293206,20.6772818 C20.8939808,18.7759226 21.8236896,16.3992235 21.8236896,16.3992235 C21.8236896,16.3992235 21.9075731,16.9794177 22.194175,17.9440779 C22.361942,18.5102915 22.7114566,19.1324274 22.9910682,19.7335925 C22.7673789,20.0481556 22.6275731,20.2229129 22.6275731,20.2229129 C22.6275731,20.2229129 22.6275731,20.2229129 22.6345634,20.2299032 C22.4528158,20.4675731 22.2570877,20.7262139 22.0403886,20.9778643 C21.2784469,21.8866022 20.369709,22.9281556 20.2438837,23.2287382 C20.0970876,23.585243 20.1320391,23.8438838 20.4116507,24.0535925 C20.6143692,24.2073789 20.9778643,24.2283498 21.3483498,24.2073789 C22.0333983,24.1584469 22.5157284,23.9906799 22.7533983,23.8858255 C23.1238838,23.75301 23.5572818,23.5502916 23.9627187,23.249709 C24.7106799,22.697476 25.1650489,21.9075731 25.1231071,20.8660197 C25.1021362,20.2928158 24.9133984,19.7196119 24.6827188,19.1813595 C24.7526217,19.0834954 24.8155343,18.9856313 24.8854372,18.8877672 C26.0667964,17.1611653 26.9825246,15.2667963 26.9825246,15.2667963 C26.9825246,15.2667963 27.0664081,15.8469905 27.35301,16.8116507 C27.4928159,17.3009711 27.7794178,17.8322332 28.0310683,18.3495148 C26.919612,19.2512624 26.2345634,20.2998061 25.9899032,20.9848546 C25.5495149,22.2570877 25.8920392,22.8302915 26.5421363,22.9631071 C26.8357285,23.0260197 27.255146,22.8862139 27.5627188,22.7533983 C27.9541751,22.6275731 28.4155343,22.4108741 28.8559227,22.0893207 C29.6038839,21.5370876 30.3238839,20.7681556 30.2819421,19.7266022 C30.2609713,19.2512624 30.135146,18.7829129 29.9603887,18.3285439 C30.9040781,17.9370876 32.1203887,17.7203886 33.6722334,17.9021361 C36.9996121,18.2935925 37.6566995,20.369709 37.5308743,21.2434954 C37.405049,22.1172818 36.7060199,22.5926216 36.4753403,22.7394178 C36.2446606,22.8862139 36.1677674,22.9351459 36.1887383,23.0400003 C36.2166995,23.1937867 36.3285441,23.1867964 36.5242723,23.1588352 C36.7968937,23.1099032 38.2718451,22.4528158 38.3347578,20.8450488 C38.4396121,18.7899031 36.4823306,16.5460196 33.0221363,16.5669905 Z M7.3537865,25.2209712 C6.24932047,26.4233013 4.71145637,26.8776702 4.04737869,26.4932042 C3.33436897,26.080777 3.61398063,24.305243 4.97009715,23.03301 C5.79495153,22.2570877 6.85747581,21.5370876 7.56349524,21.0966993 C7.72427194,20.9988352 7.96194185,20.8590294 8.24854379,20.6842721 C8.29747583,20.6563109 8.325437,20.6423304 8.325437,20.6423304 C8.38135933,20.6073789 8.43728166,20.5724274 8.49320399,20.537476 C8.98951468,22.3549517 8.51417486,23.9557285 7.3537865,25.2209712 Z M15.3926216,19.7545634 C15.0081555,20.6912624 14.204272,23.0889323 13.7149516,22.9561168 C13.2955341,22.8442721 13.0368934,21.0267964 13.6310681,19.2302915 C13.9316507,18.3285439 14.5677672,17.2520391 14.9382526,16.8326216 C15.5394177,16.1615536 16.2034953,15.9378643 16.364272,16.2104856 C16.5669905,16.5669905 15.6302915,19.1673789 15.3926216,19.7545634 Z M22.026408,22.9281556 C21.8656313,23.0120391 21.7118449,23.0679615 21.641942,23.0260197 C21.59301,22.9980585 21.7118449,22.8862139 21.7118449,22.8862139 C21.7118449,22.8862139 22.5436896,21.9914566 22.8722333,21.5860197 C23.0609712,21.3483498 23.2846605,21.0687381 23.5223304,20.754175 C23.5223304,20.7821362 23.5223304,20.8170876 23.5223304,20.8450488 C23.5223304,21.9145634 22.4877673,22.6345634 22.026408,22.9281556 Z M27.1433013,21.760777 C27.0244664,21.6768935 27.0454372,21.3972818 27.4438838,20.5234954 C27.5976702,20.1809711 27.9611654,19.6077672 28.5833013,19.0555342 C28.6532042,19.2792235 28.7021363,19.4959226 28.695146,19.698641 C28.6881557,21.0477673 27.7234955,21.5510682 27.1433013,21.760777 Z" id="Shape"></path>
                        </g>
                    </g>
                </g>
            </g>
        </g>
    </g>
</svg>