<?xml version="1.0" encoding="UTF-8"?>
<svg width="31px" height="31px" viewBox="0 0 31 31" version="1.1" xmlns="http://www.w3.org/2000/svg" xmlns:xlink="http://www.w3.org/1999/xlink">
    <!-- Generator: sketchtool 49.3 (51167) - http://www.bohemiancoding.com/sketch -->
    <title>36FFD16E-7CCA-4D00-9745-A8DAD5925B66</title>
    <desc>Created with sketchtool.</desc>
    <defs></defs>
    <g id="Cases" stroke="none" stroke-width="1" fill="none" fill-rule="evenodd">
        <g id="Volition-[desktop]-:hover" transform="translate(-543.000000, -2344.000000)" fill="#CC0000" fill-rule="nonzero">
            <g id="Technology" transform="translate(220.000000, 2341.000000)">
                <g id="tech-logos" transform="translate(252.000000, 0.000000)">
                    <g id="line-1">
                        <g id="tech-ruby-on-rails" transform="translate(71.000000, 3.000000)">
                            <path d="M23.9762659,28.3574895 L23.9762659,30.3013647 L27.587615,30.3013647 C28.3275551,30.3013647 29.5976014,29.7751223 29.6417769,28.3037913 L29.6417769,27.5520164 C29.6417769,26.2954783 28.5815643,25.5544429 27.587615,25.5544429 L25.7874624,25.5544429 L25.7874624,24.652313 L29.3546361,24.652313 L29.3546361,22.6976982 L25.9310329,22.6976982 C25.0475224,22.6976982 23.8658271,23.4065146 23.8658271,24.7274905 L23.8658271,25.404088 C23.8658271,26.7250639 25.0364785,27.4016614 25.9310329,27.4016614 C28.4159061,27.4124011 25.3346633,27.4016614 27.6317905,27.4016614 L27.6317905,28.3467499 L23.9762659,28.3574895 Z M4.62738619,27.8849453 C4.62738619,27.8849453 6.56006539,27.7238506 6.56006539,25.2966916 C6.56006539,22.8695324 4.21876259,22.644 4.21876259,22.644 L0,22.644 L0,30.3013647 L2.12042517,30.3013647 L2.12042517,28.4541463 L3.95370944,30.3013647 L7.09017169,30.3013647 L4.62738619,27.8849453 Z M3.81013899,26.3169576 L2.12042517,26.3169576 L2.12042517,24.5663959 L3.82118287,24.5663959 C3.82118287,24.5663959 4.29606976,24.7382302 4.29606976,25.4363069 C4.29606976,26.1343836 3.81013899,26.3169576 3.81013899,26.3169576 Z M11.794865,22.6976982 L9.64130823,22.6976982 C8.10620875,22.6976982 7.58714633,24.0508931 7.58714633,24.6952716 L7.58714633,30.3013647 L9.74070315,30.3013647 L9.74070315,28.9589095 L11.7617334,28.9589095 L11.7617334,30.3013647 L13.8490269,30.3013647 L13.8490269,24.6952716 C13.8490269,23.062846 12.3249713,22.6976982 11.794865,22.6976982 Z M11.7617334,26.7895018 L9.72965925,26.7895018 L9.72965925,24.9315438 C9.72965925,24.9315438 9.72965925,24.5126977 10.403336,24.5126977 L11.143276,24.5126977 C11.7396456,24.5126977 11.7506895,24.9315438 11.7506895,24.9315438 L11.7506895,26.7895018 L11.7617334,26.7895018 Z M14.9460525,22.644 L17.1879603,22.644 L17.1879603,30.2476666 L14.9460525,30.2476666 L14.9460525,22.644 Z M20.2692031,28.2823121 L23.2841827,28.2823121 L23.2841827,30.2476666 L20.2692031,30.2476666 L18.0383392,30.2476666 L18.0383392,28.2823121 L18.0383392,22.644 L20.2692031,22.644 L20.2692031,28.2823121 Z" id="Shape"></path>
                            <path d="M0.944005662,18.3075429 L11.5977838,18.3075429 C11.5977838,18.3075429 9.56142882,9.2718 16.3043265,5.61291429 C17.7742781,4.91785714 22.4538491,2.32122857 30.1137808,7.82922857 C30.3565251,7.63251429 30.5857836,7.47514286 30.5857836,7.47514286 C30.5857836,7.47514286 23.5731701,0.668828571 15.7648946,1.42945714 C11.8405282,1.77042857 7.01261352,5.24571429 4.18059652,9.83571426 C1.34857952,14.4257143 0.944005662,18.3075429 0.944005662,18.3075429 Z" id="Shape"></path>
                            <path d="M0.944005662,18.3075429 L11.5977838,18.3075429 C11.5977838,18.3075429 9.56142882,9.2718 16.3043265,5.61291429 C17.7742781,4.91785714 22.4538491,2.32122857 30.1137808,7.82922857 C30.3565251,7.63251429 30.5857836,7.47514286 30.5857836,7.47514286 C30.5857836,7.47514286 23.5731701,0.668828571 15.7648946,1.42945714 C11.8405282,1.77042857 7.01261352,5.24571429 4.18059652,9.83571426 C1.34857952,14.4257143 0.944005662,18.3075429 0.944005662,18.3075429 Z" id="Shape"></path>
                            <path d="M0.944005662,18.3075429 L11.5977838,18.3075429 C11.5977838,18.3075429 9.56142882,9.2718 16.3043265,5.61291429 C17.7742781,4.91785714 22.4538491,2.32122857 30.1137808,7.82922857 C30.3565251,7.63251429 30.5857836,7.47514286 30.5857836,7.47514286 C30.5857836,7.47514286 23.5731701,0.668828571 15.7648946,1.42945714 C11.8270424,1.77042857 6.99912772,5.24571429 4.16711073,9.83571426 C1.33509372,14.4257143 0.944005662,18.3075429 0.944005662,18.3075429 Z M23.1416246,2.16385714 L23.1955678,1.2852 C23.0741956,1.21962857 22.7370507,1.06225714 21.8874457,0.8262 L21.8335025,1.69174286 C22.2785337,1.836 22.7100792,1.99337143 23.1416246,2.16385714 Z" id="Shape"></path>
                            <path d="M21.860474,4.94408571 L21.8065309,5.77028571 C22.2515621,5.7834 22.6965934,5.83585714 23.1416246,5.92765714 L23.1955678,5.11457143 C22.7370507,5.02277143 22.2920195,4.97031429 21.860474,4.94408571 Z M16.8707299,0.852428571 L17.0055878,0.852428571 L16.7358719,0.0524571429 C16.3178123,0.0524571429 15.8862668,0.0786857143 15.4412356,0.131142857 L15.6974656,0.904885713 C16.0885537,0.865542857 16.4796418,0.852428571 16.8707299,0.852428571 Z M17.518048,5.67848571 L17.8282213,6.58337143 C18.2193094,6.39977143 18.6103974,6.2424 19.0014854,6.12437143 L18.704798,5.25882857 C18.2462809,5.38997143 17.8551929,5.53422857 17.518048,5.67848571 Z M11.395497,2.22942857 L10.7886361,1.32454286 C10.4514913,1.49502857 10.1008606,1.67862857 9.73674414,1.88845714 L10.3570907,2.80645714 C10.7077214,2.59662857 11.0448663,2.39991429 11.395497,2.22942857 Z M14.160085,8.13085714 L14.8074032,9.07508574 C15.0366617,8.74722857 15.3063776,8.4456 15.6030651,8.14397143 L14.9962043,7.2522 C14.686031,7.5276 14.4028293,7.82922857 14.160085,8.13085714 Z M12.2046447,12.3536571 L13.2969941,13.1929714 C13.3509372,12.6815143 13.4453379,12.1700571 13.5801958,11.6586 L12.6092185,10.9110857 C12.4339032,11.3963143 12.312531,11.8815429 12.2046447,12.3536571 Z M6.29786637,6.12437143 L5.34037491,5.31128571 C4.98974423,5.63914286 4.65259936,5.967 4.34242606,6.29485714 L5.38083229,7.1604 C5.66403399,6.80631429 5.97420728,6.45222857 6.29786637,6.12437143 Z M2.22515621,11.9864571 L0.674289761,11.4356571 C0.418059652,11.9995714 0.134857952,12.6552857 0,13.0093714 L1.55086645,13.5601714 C1.72618179,13.1142857 2.00938349,12.4716857 2.22515621,11.9864571 Z M12.0023578,15.6846857 C12.0293293,16.3797429 12.0967583,16.9436571 12.1641873,17.3370857 L13.7824827,17.901 C13.6611105,17.3895429 13.5397384,16.8125143 13.4588236,16.1961429 L12.0023578,15.6846857 Z" id="Shape"></path>
                        </g>
                    </g>
                </g>
            </g>
        </g>
    </g>
</svg>