<?xml version="1.0" encoding="UTF-8"?>
<svg width="68px" height="14px" viewBox="0 0 68 14" version="1.1" xmlns="http://www.w3.org/2000/svg" xmlns:xlink="http://www.w3.org/1999/xlink">
    <!-- Generator: sketchtool 49.3 (51167) - http://www.bohemiancoding.com/sketch -->
    <title>055B43F7-A309-44DF-86F0-4DB4E475BBB0</title>
    <desc>Created with sketchtool.</desc>
    <defs></defs>
    <g id="Cases" stroke="none" stroke-width="1" fill="none" fill-rule="evenodd">
        <g id="Volition-[desktop]-:hover" transform="translate(-610.000000, -2352.000000)" fill="#009900" fill-rule="nonzero">
            <g id="Technology" transform="translate(220.000000, 2341.000000)">
                <g id="tech-logos" transform="translate(252.000000, 0.000000)">
                    <g id="line-1">
                        <g id="nginx" transform="translate(138.000000, 11.000000)">
                            <path d="M3.44769869,4.93902867 L3.44769869,12.4435423 C3.44769869,13.2388323 2.80298873,13.8835423 2.00769869,13.8835423 C1.21240865,13.8835423 0.567698688,13.2388323 0.567698688,12.4435423 L0.567698688,1.46227795 C0.567698688,0.179334977 2.11886567,-0.463127091 3.0259911,0.444102836 L11.5476981,8.96679155 L11.5476981,1.46227795 C11.5476981,0.666987912 12.1924081,0.022277952 12.9876981,0.022277952 C13.7829882,0.022277952 14.4276981,0.666987912 14.4276981,1.46227795 L14.4276981,12.4435423 C14.4276981,13.7264852 12.8765311,14.3689473 11.9694057,13.4617174 L3.44769869,4.93902867 Z" id="a"></path>
                            <path d="M19.656144,0.03644928 L19.260144,0.77444928 L16.200144,6.33644928 L15.804144,7.03844928 L16.200144,7.74044928 L19.260144,13.1224493 L19.674144,13.8604493 L20.520144,13.8604493 L26.784144,13.8604493 L27.684144,13.8604493 L28.080144,13.0504493 L30.366144,8.44244928 L31.392144,6.35444928 L29.070144,6.35444928 L23.220144,6.37244928 C22.4593736,6.3616896 21.7596355,7.05160282 21.7596355,7.81244928 C21.7596355,8.57329574 22.4593736,9.26320838 23.220144,9.25244928 L26.748144,9.23444928 L25.884144,10.9804493 L21.348144,10.9804493 L19.098144,7.02044928 L21.366144,2.91644928 L26.1914233,2.91644928 L27.3164233,5.22494899 L30.2144233,5.22494899 L28.3874233,0.84644928 L27.9914233,0.03644928 L27.0914233,0.03644928 L20.520144,0.03644928 L19.656144,0.03644928 Z" id="Shape"></path>
                            <path d="M34.2440824,0.01844928 C33.4901048,0.02788992 32.812674,0.722471616 32.8220824,1.47644928 L32.8220824,5.22880646 L35.7020824,5.22880646 L35.7020824,1.47644928 C35.7116383,0.710472384 35.0100593,0.008891712 34.2440824,0.01844928 Z" id="Shape"></path>
                            <path d="M40.3917915,4.96691642 L40.3917915,12.47143 C40.3917915,13.2667201 39.7470815,13.91143 38.9517915,13.91143 C38.1565014,13.91143 37.5117915,13.2667201 37.5117915,12.47143 L37.5117915,1.4901657 C37.5117915,0.207222726 39.0629585,-0.435239342 39.9700839,0.471990584 L48.4917909,8.9946793 L48.4917909,1.4901657 C48.4917909,0.694875661 49.1365009,0.0501657005 49.9317909,0.0501657005 C50.727081,0.0501657005 51.3717909,0.694875661 51.3717909,1.4901657 L51.3717909,12.47143 C51.3717909,13.754373 49.8206239,14.3968351 48.9134985,13.4896051 L40.3917915,4.96691642 Z" id="a" transform="translate(44.441791, 6.980798) scale(-1, 1) translate(-44.441791, -6.980798) "></path>
                            <path d="M53.3884635,2.50615401 C52.8251212,1.94478806 52.823519,1.0330319 53.384885,0.469689622 C53.9462509,-0.0936526586 54.8580071,-0.0952547964 55.4213494,0.466111147 L66.4141999,11.4203962 C66.9775422,11.9817621 66.9791443,12.8935183 66.4177784,13.4568606 C65.8564125,14.0202029 64.9446563,14.021805 64.381314,13.4604391 L53.3884635,2.50615401 Z" id="b"></path>
                            <path d="M53.9217415,2.50615401 C53.3583992,1.94478806 53.3567971,1.0330319 53.9181631,0.469689622 C54.479529,-0.0936526586 55.3912852,-0.0952547964 55.9546274,0.466111147 L66.947478,11.4203962 C67.5108203,11.9817621 67.5124224,12.8935183 66.9510565,13.4568606 C66.3896905,14.0202029 65.4779344,14.021805 64.9145921,13.4604391 L53.9217415,2.50615401 Z" id="b" transform="translate(60.434610, 6.963275) scale(-1, 1) translate(-60.434610, -6.963275) "></path>
                            <path d="M34.2440824,13.869993 C33.4901048,13.8605524 32.812674,13.1659707 32.8220824,12.411993 L32.8220824,6.38451994 L35.7020824,6.38451994 L35.7020824,12.411993 C35.7116383,13.1779699 35.0100593,13.8795506 34.2440824,13.869993 Z" id="Shape"></path>
                        </g>
                    </g>
                </g>
            </g>
        </g>
    </g>
</svg>