<?xml version="1.0" encoding="UTF-8"?>
<svg width="80px" height="26px" viewBox="0 0 80 26" version="1.1" xmlns="http://www.w3.org/2000/svg" xmlns:xlink="http://www.w3.org/1999/xlink">
    <!-- Generator: sketchtool 49.3 (51167) - http://www.bohemiancoding.com/sketch -->
    <title>D9020377-730B-41FC-9C53-FF1DD9CA5B8B</title>
    <desc>Created with sketchtool.</desc>
    <defs></defs>
    <g id="Cases" stroke="none" stroke-width="1" fill="none" fill-rule="evenodd">
        <g id="Volition-[desktop]-:hover" transform="translate(-713.000000, -2346.000000)">
            <g id="Technology" transform="translate(220.000000, 2341.000000)">
                <g id="tech-logos" transform="translate(252.000000, 0.000000)">
                    <g id="line-1">
                        <g id="postgre-sql" transform="translate(241.000000, 5.000000)">
                            <g id="icon" fill-rule="nonzero">
                                <path d="M18.7207439,24.1719335 C18.3466471,24.7045826 17.8822398,25.0912267 17.321893,25.3640073 C16.900267,25.5692577 16.4821787,25.6929749 15.8610717,25.8260767 C14.1434856,26.1941825 12.9759933,25.5602903 12.3747121,24.2989097 C12.2919869,24.125367 12.2255412,23.9546335 12.1570653,23.7527315 C12.147293,23.7239175 12.0637293,23.4688225 12.0485836,23.42795 C11.7985471,22.7530662 11.7009542,21.8707128 11.6407357,20.3705073 C11.6344007,20.2124846 11.6299006,20.0677851 11.6221546,19.7901956 C11.6165075,19.5878238 11.6155485,19.5539716 11.6129382,19.4676538 C11.6114048,19.4169467 11.6098478,19.367956 11.6082584,19.3205832 C11.305142,19.4531987 10.9864577,19.5470745 10.6555559,19.6036671 C9.92596722,19.7284454 9.23614512,19.6667012 8.55251877,19.4957411 C8.03038892,19.3651714 7.52977894,19.1163333 7.21377331,18.7284557 C6.16976118,19.5916495 4.94248377,19.5012864 3.92971151,18.5169038 C3.15756784,17.7664045 2.4850951,16.5021495 1.86171062,14.8064519 C0.943730343,12.3094105 0.11525627,8.61186731 0.0453917082,7.21475105 C-0.0733929696,4.83991172 0.468081855,3.06311272 1.63082665,1.88847587 C2.63019454,0.878886873 3.98605049,0.406280455 5.56891045,0.353844561 C6.70551973,0.316191751 7.89423293,0.494952132 9.07105432,0.81406428 C9.38375928,0.898858755 9.67695891,0.988837366 9.94634055,1.07996605 C10.8660881,0.53441435 11.9557838,0.257015977 13.2029901,0.277509623 C13.8676287,0.28825534 14.4892853,0.345477682 15.0705778,0.448083067 C15.2949767,0.379076306 15.5740615,0.30691236 15.8609325,0.245609842 C16.6199851,0.0834051355 17.4340784,-0.00927780307 18.2710637,0.000716529485 C19.3578685,0.013693926 20.4084336,0.199828879 21.3901936,0.597232871 C22.5627213,1.07185717 23.5893045,1.83042862 24.4226155,2.89520786 C25.2540803,3.95757731 25.2223692,6.01724185 24.5628024,8.57091558 C24.0234022,10.659335 23.0953196,12.8896666 21.9048076,14.8955893 C22.2523937,14.8858796 22.6845989,14.8318913 23.2059669,14.7243359 C23.4408643,14.6758437 23.653079,14.6527532 23.8512854,14.6595379 C24.1533859,14.6698788 24.433582,14.7458492 24.6858107,14.9375188 C25.0393326,15.2061614 25.2073629,15.6232009 25.1669955,16.0447955 C25.1420806,16.3050049 25.0474771,16.5291067 24.9078089,16.739775 C24.5729192,17.2449053 23.8813436,17.7601126 23.094542,18.1251896 C22.3320201,18.4794378 21.1355029,18.6770573 20.1653611,18.6329175 L19.9429484,18.6143524 C19.928565,18.7353327 19.9118968,18.877454 19.9030295,18.9530206 C19.837515,21.4712772 19.4699879,23.10514 18.7207439,24.1719335 Z" id="Shape" fill="#000000"></path>
                                <path d="M23.4263326,15.7902663 C20.4978882,16.3943285 20.296573,15.4028304 20.296573,15.4028304 C23.3885496,10.814845 24.6810891,4.99108177 23.5656465,3.5657487 C20.5226306,-0.322290728 15.2550168,1.5165013 15.1671088,1.56423945 L15.1388152,1.56930435 C14.5602521,1.44920215 13.9127598,1.37765314 13.1850441,1.36577682 C11.8599611,1.34406178 10.8548402,1.71315919 10.0921359,2.29154762 C10.0921359,2.29154762 0.695230468,-1.5796088 1.13226741,7.16025672 C1.22524036,9.01959944 3.79722051,21.2288641 6.8649788,17.541092 C7.98624315,16.1926057 9.06960806,15.0524208 9.06960806,15.0524208 C9.60771015,15.4098747 10.2518841,15.5922112 10.9272043,15.5267168 L10.979658,15.4821806 C10.9633572,15.6496134 10.970809,15.8133785 11.0006744,16.007242 C10.2103752,16.8902231 10.4426038,17.0452557 8.86276215,17.3704573 C7.26417452,17.6999087 8.20327708,18.2864476 8.81642121,18.4397336 C9.55973914,18.6256213 11.2794187,18.8889379 12.4413769,17.2623478 L12.3950359,17.4479444 C12.7046935,17.6959499 12.922135,19.0612028 12.885691,20.2987852 C12.849247,21.5364259 12.8249121,22.3861067 13.0689007,23.0497834 C13.3128892,23.7134601 13.5560627,25.2067328 15.632905,24.76172 C17.3683032,24.3898282 18.2675852,23.4260998 18.3926941,21.8185467 C18.4814754,20.6756837 18.6823831,20.8446302 18.6950745,19.8228592 L18.8562198,19.339132 C19.0420493,17.7899126 18.885736,17.2901174 19.9548959,17.5225789 L20.2147195,17.5454001 C21.0016422,17.5812037 22.0315636,17.4188358 22.6360334,17.1378793 C23.9376548,16.5338171 24.7096156,15.5252613 23.4262162,15.7902663 L23.4263326,15.7902663 Z" id="Shape" fill="#336791"></path>
                                <path d="M12.204426,16.6681673 C12.210029,16.4678536 12.3769574,16.3100093 12.5772711,16.3156122 C12.7775849,16.3212151 12.9354292,16.4881436 12.9298262,16.6884573 C12.846285,19.6751919 12.9645171,22.4296606 13.206331,23.0344699 C13.4157835,23.5580149 13.60324,23.8795893 13.9117943,24.1395 C14.337221,24.4978582 14.9230247,24.6257526 15.7566466,24.4471677 C17.3085251,24.1144661 17.8602421,23.5410052 18.1157112,22.059274 C18.2935952,21.0286142 18.6935123,17.7940722 18.7521218,17.0125889 C18.7671087,16.812758 18.9412529,16.6629123 19.1410838,16.6778992 C19.3409147,16.6928861 19.4907603,16.8670303 19.4757734,17.0668612 C19.4154235,17.8715501 19.0126533,21.1291683 18.8308331,22.1826342 C18.5249772,23.9566112 17.7501674,24.7619574 15.9087129,25.1567401 C14.8629773,25.3807656 14.0476371,25.2027582 13.4442759,24.6945168 C13.0206004,24.3376337 12.7830466,23.9301193 12.532537,23.3039486 C12.2368129,22.5643028 12.117352,19.7812053 12.204426,16.6681673 Z" id="Shape" fill="#FFFFFF"></path>
                                <path d="M10.2149155,1.8912878 C10.4004122,1.96710303 10.4893266,2.17893823 10.4135114,2.36443496 C10.3376961,2.54993169 10.125861,2.63884611 9.94036422,2.56303087 C9.9026039,2.54803276 9.88098863,2.53965023 9.85597085,2.53013365 C9.78350698,2.50256894 9.69887878,2.47169363 9.60306398,2.43832908 C9.32783235,2.34248816 9.01941711,2.24646258 8.68570667,2.15680067 C7.63357057,1.87411087 6.57698574,1.71798247 5.60028446,1.75330648 C4.35669887,1.79828281 3.34942491,2.15226685 2.64257422,2.86808868 C1.79487142,3.72655027 1.37395969,5.10809873 1.47387304,7.10563391 C1.49785016,7.58514624 1.69058222,8.7263174 1.96912906,9.96949242 C2.30887556,11.485806 2.73546716,12.99775 3.2029329,14.2693236 C3.75701444,15.7765046 4.3436591,16.8794006 4.9203404,17.4399139 C5.49464481,17.998117 5.97912783,17.9775479 6.56527872,17.2728854 C7.05942707,16.6783985 7.56826526,16.0968157 8.06364048,15.5518169 C8.23707194,15.3610121 8.39649755,15.1883399 8.53838656,15.0367803 C8.58815251,14.9836226 8.6322055,14.9368659 8.67010382,14.8968836 C8.68342949,14.8828251 8.69505043,14.8706006 8.7049114,14.8602567 C8.85591593,14.7026686 9.0856032,14.6978017 9.23027182,14.8364667 C9.37494043,14.9751317 9.37980735,15.204819 9.24114237,15.3494876 C9.23368167,15.3572713 9.21874718,15.3729372 9.19678244,15.3961098 C9.15990058,15.4350198 9.11687363,15.4806874 9.06814531,15.5327368 C8.9286221,15.6817693 8.77160328,15.8518348 8.60064147,16.0399225 C8.11203591,16.5774735 7.61009882,17.1511686 7.12326238,17.7368589 C6.26433853,18.7694453 5.28961952,18.8108278 4.41455096,17.9602928 C3.74012888,17.304779 3.11056024,16.1211857 2.52181728,14.5197206 C2.0422514,13.2152329 1.60724909,11.6734793 1.26100261,10.1281558 C0.974113112,8.84774692 0.775628207,7.672513 0.749094925,7.14188059 C0.639754748,4.95587793 1.12105686,3.37611154 2.12621272,2.35819855 C2.97915368,1.49443232 4.16067167,1.07921409 5.57405605,1.02809671 C6.63277892,0.989806249 7.75762847,1.15602193 8.87400647,1.45597235 C9.22544898,1.55039855 9.55052095,1.65161023 9.84170639,1.75300657 C9.94413757,1.78867507 10.0352111,1.82190187 10.1139793,1.85186469 C10.1621704,1.87019622 10.1961329,1.8836111 10.2149155,1.8912878 Z" id="Shape" fill="#FFFFFF"></path>
                                <path d="M15.2653589,1.87192238 C15.2529739,1.87580556 15.2423104,1.87888675 15.2299527,1.88183233 C15.2145644,1.88596869 15.2145644,1.88596869 15.1561405,1.89192182 C15.1291668,1.89266017 15.1291668,1.89266017 15.0762953,1.88589855 C15.0408258,1.8784496 15.0408258,1.8784496 14.9879559,1.85723073 C14.9234311,1.82293573 14.9234311,1.82293573 14.848859,1.74150373 C14.7871831,1.6295281 14.7871831,1.6295281 14.7808527,1.50866524 C14.796973,1.41026567 14.796973,1.41026567 14.8257824,1.3532196 C14.8761367,1.28036386 14.8761367,1.28036386 14.905852,1.25458886 C14.9690703,1.20909449 14.9690703,1.20909449 14.9848392,1.20239213 C15.0143036,1.18912708 15.0230875,1.18561133 15.0329093,1.18184979 C15.0679878,1.16841547 15.1209938,1.15011868 15.1835426,1.13007347 C15.3542643,1.07536168 15.5659262,1.01665489 15.8035351,0.961114016 C16.4958818,0.799278558 17.2551001,0.697227987 18.0414319,0.689923609 C19.070778,0.680361829 20.06396,0.835019513 20.9867701,1.18978132 C22.0896774,1.61377907 23.0508455,2.30900304 23.8309075,3.30575773 C25.1572731,5.00076977 23.5775865,11.1167806 20.5769751,15.5693919 C20.4649868,15.7355714 20.2394873,15.7795021 20.0733079,15.6675139 C19.9071284,15.5555257 19.8631977,15.3300262 19.9751859,15.1638467 C21.4111443,13.0330261 22.5358488,10.4988558 23.1370431,8.17123509 C23.6890058,6.03422256 23.7152428,4.33550575 23.2594132,3.75298419 C21.9604827,2.09322497 20.1470601,1.39607928 18.0481726,1.41557622 C17.3190272,1.42234938 16.611968,1.51738897 15.9687106,1.66774984 C15.7502302,1.71881943 15.5573387,1.77232006 15.4050103,1.82113729 C15.3724014,1.83158757 15.3438808,1.84114489 15.3220791,1.84877957 C15.3041472,1.85792576 15.2852101,1.86569824 15.2653589,1.87192238 Z M15.2924486,1.85953447 C15.2956087,1.85808947 15.2956087,1.85808947 15.3053435,1.85346362 C15.3186068,1.84804531 15.3186068,1.84804531 15.3806844,1.80336138 C15.4102218,1.77775138 15.4102218,1.77775138 15.4604841,1.70503039 C15.4892636,1.64804601 15.4892636,1.64804601 15.5053755,1.54970053 C15.4990476,1.42888795 15.4990476,1.42888795 15.4373957,1.31695496 C15.3628583,1.23556178 15.3628583,1.23556178 15.2983899,1.20129793 C15.2455872,1.18010637 15.2455872,1.18010637 15.2102065,1.17267703 C15.157545,1.16594307 15.157545,1.16594307 15.130868,1.1666781 C15.0740648,1.17246245 15.0740648,1.17246245 15.0616936,1.17592437 C15.0539402,1.17777248 15.0506962,1.17870981 15.0482498,1.17947687 C15.2394633,1.11952384 15.4430741,1.22593152 15.5030271,1.41714507 C15.556756,1.58850742 15.4768732,1.76982649 15.3220791,1.84877957 C15.309985,1.85301478 15.2999584,1.85665834 15.2924486,1.85953447 Z" id="Shape" fill="#FFFFFF"></path>
                                <path d="M20.1541825,15.9366734 C20.1418827,15.9402862 20.0226186,15.9738614 19.9884332,15.9843114 C19.9314927,16.0017174 19.8853733,16.0183886 19.8437035,16.0371187 C19.5781072,16.1565005 19.445463,16.3933306 19.4747346,16.9892478 C19.5043139,17.0117743 19.558595,17.0378073 19.6351869,17.0616122 C19.8323136,17.1228793 20.127352,17.1545633 20.4750167,17.1507425 C21.1863107,17.1429255 21.9944435,16.9902258 22.4627681,16.7728742 C22.8860648,16.5762902 23.2649803,16.3237223 23.4972683,16.105655 C23.4913611,16.1068329 23.4853924,16.1080444 23.4793625,16.1092898 C21.8616044,16.4432099 20.8469791,16.3518036 20.2942363,15.9518903 C20.275099,15.9380444 20.256772,15.9240301 20.2392349,15.9098801 C20.2131017,15.9188564 20.1849469,15.9276371 20.1541825,15.9366734 Z M20.7196136,15.3639522 C20.8575756,15.4637686 21.0872379,15.541103 21.4331869,15.5722691 C21.9040713,15.6146905 22.531681,15.5639185 23.3326247,15.3985964 C23.7351319,15.3154651 24.0246297,15.3253917 24.226539,15.479026 C24.373055,15.5905112 24.4413288,15.7603704 24.4240834,15.9394362 C24.4121301,16.0635513 24.3618319,16.1826198 24.2823778,16.3024507 C24.0331628,16.6783112 23.4444678,17.1170844 22.768347,17.4310829 C22.1974195,17.696053 21.2899975,17.8675137 20.4829914,17.8763826 C20.0659867,17.8809654 19.6999048,17.8416522 19.4198064,17.7545973 C19.0320426,17.6340799 18.771842,17.4110812 18.7518093,17.0603588 C18.7002084,16.1544343 18.9891287,15.6256166 19.5461913,15.3752247 C19.6188904,15.3425475 19.6924474,15.315958 19.7762913,15.290328 C19.7890798,15.2864187 19.8088753,15.2806277 19.830587,15.2743597 C19.8022696,15.233746 19.7665243,15.1860513 19.7219549,15.1293821 C19.7059546,15.109038 19.5548484,14.9201335 19.5051495,14.8562712 C19.4099538,14.7339464 19.3285881,14.622623 19.2501936,14.5049894 C19.090438,14.2652706 18.9549853,14.0158683 18.8407057,13.7388045 C18.8093388,13.6627745 18.1520705,12.4833151 17.9046695,11.9907708 C17.6415617,11.4669563 17.4251689,10.977711 17.2584984,10.5117952 C16.8391056,9.33941226 16.7578125,8.3905393 17.1463147,7.69876338 C17.5790131,6.92829086 18.5179853,6.61253005 19.9739719,6.76159203 C19.9373499,6.65287229 19.8917794,6.53188255 19.8385121,6.40388042 C19.5814034,5.78604416 19.1978754,5.11760643 18.7138133,4.49876446 C17.3728087,2.78437718 15.5277978,1.73091581 13.1583111,1.69206778 C11.907777,1.67156048 10.9130513,2.01531563 10.1337999,2.67002677 C9.47086029,3.22701509 8.97349064,4.00124234 8.62362835,4.94146619 C8.36609928,5.63355268 8.20164349,6.37859303 8.11317033,7.13033396 C8.08087258,7.40476231 8.06074475,7.66416004 8.05047923,7.9027951 C8.04365753,8.06137401 8.0420252,8.18796936 8.04323307,8.27688515 C8.04876735,8.49226308 7.89064905,8.658932 7.69032638,8.66420587 C7.49000371,8.66947973 7.32333479,8.51136143 7.31806093,8.31103876 C7.31622788,8.18454978 7.31803598,8.04432304 7.32546583,7.87160673 C7.33647713,7.61563502 7.35798639,7.3384342 7.39246059,7.0455129 C7.48725468,6.24006406 7.66390056,5.43979848 7.94350426,4.68838839 C8.33409601,3.63870775 8.89856758,2.76002672 9.66698721,2.11441622 C10.5818239,1.34578908 11.7469658,0.943141885 13.1702086,0.9664814 C15.7756192,1.00919743 17.8175366,2.17508812 19.2854046,4.05166212 C19.8109824,4.72357923 20.2270264,5.44868795 20.5084985,6.12506975 C20.6210419,6.39551332 20.7053074,6.64407968 20.7527217,6.83914796 C20.7767131,6.93785114 20.7913238,7.02277274 20.7951606,7.09404761 C20.7980776,7.14823484 20.795544,7.19799266 20.7829984,7.25015008 C20.7507671,7.38414889 20.6640227,7.50495374 20.4889174,7.54118717 L20.3580261,7.54415037 C18.8823128,7.3078559 18.0773335,7.52296842 17.7790459,8.05410603 C17.5216299,8.51246679 17.5870142,9.27564781 17.9417788,10.2673675 C18.0973792,10.7023373 18.3022989,11.165643 18.5531454,11.6650466 C18.7837232,12.124098 19.460882,13.339251 19.5115527,13.462071 C19.6068937,13.6932194 19.7197234,13.9009669 19.8540653,14.1025515 C19.9215837,14.2038653 19.9928037,14.3013075 20.0778468,14.4105864 C20.1238821,14.4697411 20.2733931,14.6566513 20.2923603,14.6807678 C20.4814314,14.9211684 20.5760614,15.0735971 20.6241064,15.2620373 C20.643209,15.2979626 20.6717913,15.3293524 20.7196136,15.3639522 Z M20.6323903,15.2981297 C20.6317808,15.2951294 20.6311506,15.2921385 20.6305,15.2891572 C20.6311339,15.2920589 20.6317614,15.295034 20.6323903,15.2981297 Z" id="Shape" fill="#FFFFFF"></path>
                                <path d="M11.4879739,15.287376 C11.6943107,15.2693553 11.8413045,15.3079377 12.071447,15.4032694 C12.7988207,15.7047954 13.1930654,16.7686224 12.7159239,17.4366048 C12.1339057,18.2515586 11.3777631,18.7040376 10.5123696,18.8520891 C9.89691134,18.9573817 9.30189107,18.9041034 8.70770164,18.7554164 C8.26494096,18.6447367 7.83250965,18.4081354 7.67019864,18.1071573 C7.52536917,17.8385957 7.59360953,17.5425239 7.84492914,17.337573 C8.03511498,17.1824767 8.33698577,17.0678921 8.76891986,16.9788595 C9.06517434,16.9178598 9.28802193,16.8646822 9.46207106,16.813405 C9.8170366,16.7088273 9.96016233,16.6230513 10.1194702,16.4436201 C10.1480869,16.4113887 10.5215706,15.939092 10.7095551,15.7290844 C10.9526348,15.4570888 11.2113167,15.3115382 11.4879739,15.287376 Z M8.49370932,17.8997328 C8.61028779,17.9635178 8.75401031,18.0189788 8.88377581,18.0514171 C9.38874698,18.1777785 9.8887571,18.2225496 10.3899975,18.1367974 C11.0717874,18.0201568 11.6579037,17.6694222 12.1253972,17.0148283 C12.3144342,16.7501828 12.1127487,16.2059561 11.7936418,16.0736733 C11.6650895,16.0204233 11.6077171,16.0053644 11.5511121,16.010308 C11.4722441,16.0171961 11.3778096,16.0703382 11.2505726,16.2127343 C11.0817931,16.4012674 10.7094004,16.8721851 10.6621332,16.925423 C10.4079394,17.2117258 10.1469024,17.3681667 9.66715234,17.5095076 C9.47079762,17.5673564 9.22964196,17.6249027 8.91534605,17.6896172 C8.67973231,17.7381832 8.50787579,17.7919582 8.40018438,17.8426329 C8.42654304,17.8607051 8.45794916,17.8801669 8.49370932,17.8997328 Z" id="Shape" fill="#FFFFFF"></path>
                                <path d="M10.6676179,15.0048849 C10.7406234,14.7423698 10.7535843,14.7061065 11.0268627,13.9695723 C11.0729249,13.845626 11.1248666,13.7217339 11.19907,13.5549849 C11.1853937,13.5857181 11.3415199,13.2381497 11.3839525,13.1403556 C11.6342727,12.5634443 11.773877,12.0917131 11.838619,11.4810889 C11.9228668,10.6864935 11.8555825,9.73994747 11.6013199,8.56408244 C11.4079538,7.6700663 10.7444695,7.41386689 9.69286734,7.65643945 C9.26902518,7.75420692 8.82092952,7.93295527 8.44826258,8.14046307 C8.29101011,8.22802414 8.15906158,8.31466831 8.07129413,8.38605105 C8.0622718,8.39338906 8.0539845,8.4003551 8.0464821,8.40686404 C8.04777979,8.43506168 8.04952405,8.46834563 8.05174958,8.50770035 C8.05227713,8.51702918 8.06736048,8.77224141 8.07231165,8.86323341 C8.1279253,9.8852946 8.11478665,10.7817481 7.97794649,11.7602452 C7.7254949,13.5655039 9.0316443,15.139418 10.6321007,15.1408522 C10.642915,15.0964104 10.6547616,15.0511139 10.6676179,15.0048849 Z M7.25925611,11.65974 C7.3884784,10.7357157 7.40099024,9.88202987 7.34769965,8.9026619 C7.34286051,8.8137286 7.32784088,8.55959453 7.32722324,8.54867266 C7.32043746,8.42867749 7.31750835,8.35672122 7.31788518,8.29905854 C7.31982176,8.01002397 7.59983262,7.78228646 8.09522765,7.5064414 C8.52510025,7.26708043 9.03635872,7.06313601 9.52975736,6.94932399 C10.1469955,6.80694598 10.7127548,6.8072125 11.1850963,6.9896036 C11.7628617,7.21270332 12.1552167,7.69225353 12.3106069,8.41069068 C12.5804079,9.65841443 12.6531388,10.6815832 12.5602581,11.5576014 C12.4868457,12.2500015 12.3270739,12.7898799 12.0496708,13.4292089 C12.0050581,13.5320276 11.8466408,13.8846965 11.8620714,13.850021 C11.7935235,14.0040609 11.7468407,14.1154096 11.7071586,14.2221878 C11.3107857,15.2904842 11.235075,15.5627264 11.2868981,15.9005235 C11.3172857,16.0985982 11.1813485,16.2838034 10.9832738,16.314191 C10.7851991,16.3445786 10.5999938,16.2086414 10.5696062,16.0105667 C10.562287,15.9628581 10.5570644,15.9146485 10.5538856,15.8657586 C8.54315994,15.8167651 6.95078478,13.8655909 7.25925611,11.65974 Z" id="Shape" fill="#FFFFFF"></path>
                                <path d="M10.6421368,7.99179323 C11.0086825,8.04280913 11.2979252,8.20444931 11.2678683,8.42024533 C11.2362557,8.64698758 10.8742745,8.89228368 10.5494128,8.8469743 C10.222115,8.80159083 9.8922487,8.45520207 9.92370867,8.23246989 L9.93840261,8.12843879 L9.96781101,8.12843879 C10.0727681,7.99345985 10.3430127,7.95004036 10.6421368,7.99179323 Z" id="Shape" fill="#FFFFFF"></path>
                                <path d="M18.8104795,8.54505934 C18.5171763,8.58593612 18.1868763,8.36221556 18.1597496,8.16967586 C18.1370464,8.00255662 18.3985983,7.85642406 18.7340561,7.80968124 C19.0695444,7.76293417 19.3612207,7.8320313 19.3845739,7.99903416 C19.4105213,8.18526834 19.1071821,8.50392586 18.8104795,8.54505934 Z" id="Shape" fill="#FFFFFF"></path>
                                <path d="M20.0530795,7.20542201 C20.0422825,7.00532101 20.1957437,6.8343544 20.3958447,6.8235574 C20.5959457,6.81276041 20.7669123,6.96622162 20.7777093,7.16632262 C20.7991786,7.56421456 20.7742869,7.91066228 20.7053953,8.38405945 C20.6986683,8.4302846 20.6914656,8.47835227 20.6827328,8.53556147 C20.6793373,8.55780509 20.6758528,8.58050849 20.6711886,8.61080906 C20.6654042,8.64836501 20.6622727,8.66869854 20.659631,8.68588464 C20.5867612,9.15995662 20.5565067,9.4208329 20.5458746,9.75420649 C20.5351227,10.0851626 20.5576017,10.3491042 20.6402058,11.0369264 C20.7395461,11.8641059 20.766725,12.2760084 20.7237868,12.7847643 C20.6656627,13.4734504 20.4612716,14.095017 20.0660802,14.6852236 C19.9545869,14.8517355 19.7292191,14.896337 19.5627072,14.7848437 C19.3961952,14.6733503 19.3515938,14.4479826 19.4630871,14.2814706 C19.7869517,13.7977885 19.9525202,13.294284 20.0006737,12.7237347 C20.0381609,12.2795661 20.0133074,11.9029054 19.9196992,11.1234558 C19.8324757,10.3971693 19.8081853,10.1119597 19.8205664,9.73085886 C19.8323517,9.36132529 19.8653864,9.07647533 19.9423709,8.57563427 C19.9450315,8.55832526 19.948183,8.53786221 19.9539524,8.50040324 C19.9585745,8.470377 19.9620173,8.4479451 19.9653586,8.42605594 C19.9738569,8.37038315 19.9808218,8.32390264 19.9872756,8.27955431 C20.0498406,7.84963193 20.071542,7.54758776 20.0530795,7.20542201 Z" id="Shape" fill="#FFFFFF"></path>
                            </g>
                            <path d="M28.561377,16.2 L27.7057617,16.2 L27.7057617,8.96835938 L30.0357422,8.96835938 C30.3902361,8.96835938 30.7108872,9.00541955 30.9977051,9.07954102 C31.2845229,9.15366248 31.5391102,9.26645432 31.7614746,9.41791992 C31.983839,9.56938552 32.1562494,9.77241084 32.2787109,10.027002 C32.4011725,10.2815931 32.4624023,10.5780745 32.4624023,10.9164551 C32.4624023,11.1968276 32.4366214,11.4473866 32.3850586,11.6681396 C32.3334958,11.8888927 32.2448737,12.0959463 32.1191895,12.2893066 C31.9935052,12.482667 31.8291514,12.6429925 31.626123,12.7702881 C31.4230947,12.8975836 31.1628678,12.997485 30.8454346,13.0699951 C30.5280013,13.1425052 30.1598165,13.1787598 29.7408691,13.1787598 C29.4089339,13.1787598 29.0157738,13.1578127 28.561377,13.115918 L28.561377,16.2 Z M29.8230469,12.4391602 C30.1388688,12.4391602 30.4095692,12.4085452 30.6351563,12.3473145 C30.8607433,12.2860837 31.0339594,12.210352 31.1548096,12.1201172 C31.2756598,12.0298824 31.3707272,11.9122566 31.4400146,11.7672363 C31.5093021,11.6222161 31.5520019,11.4892828 31.5681152,11.3684326 C31.5842286,11.2475824 31.5922852,11.1017587 31.5922852,10.930957 C31.5922852,10.5216776 31.454518,10.2203623 31.1789795,10.027002 C30.903441,9.83364161 30.528811,9.73696289 30.0550781,9.73696289 L28.561377,9.73696289 L28.561377,12.4294922 C29.1833527,12.4359375 29.6039052,12.4391602 29.8230469,12.4391602 Z M33.8835938,13.5606445 C33.8835938,14.1890656 34.0229722,14.6926006 34.3017334,15.0712646 C34.5804946,15.4499287 34.9873508,15.6392578 35.5223145,15.6392578 C36.0508327,15.6392578 36.4496324,15.4507343 36.7187256,15.0736816 C36.9878187,14.696629 37.1223633,14.1890657 37.1223633,13.5509766 C37.1223633,12.9032194 36.98943,12.3932392 36.7235596,12.0210205 C36.4576891,11.6488018 36.0524441,11.4626953 35.5078125,11.4626953 C34.9792942,11.4626953 34.5764662,11.6528301 34.2993164,12.0331055 C34.0221666,12.4133808 33.8835938,12.9225554 33.8835938,13.5606445 Z M37.9586426,13.5461426 C37.9586426,14.367924 37.7395041,15.0342015 37.3012207,15.5449951 C36.8629373,16.0557887 36.2570839,16.3111816 35.4836426,16.3111816 C34.7392053,16.3111816 34.1470481,16.0533717 33.7071533,15.5377441 C33.2672585,15.0221166 33.0473145,14.3598673 33.0473145,13.5509766 C33.0473145,12.7259724 33.2680642,12.0588893 33.7095703,11.549707 C34.1510764,11.0405248 34.7569297,10.7859375 35.5271484,10.7859375 C36.2844764,10.7859375 36.8790506,11.0413305 37.3108887,11.552124 C37.7427268,12.0629176 37.9586426,12.7275838 37.9586426,13.5461426 Z M40.6801758,16.3111816 C40.3192365,16.3111816 39.9865005,16.2725102 39.681958,16.195166 C39.3774155,16.1178219 39.1300791,16.0179205 38.9399414,15.895459 L39.0414551,15.2138672 C39.5796414,15.500685 40.1081517,15.6440918 40.627002,15.6440918 C41.413334,15.6440918 41.8177733,15.3669461 41.840332,14.8126465 C41.840332,14.5773914 41.7565438,14.3920905 41.5889648,14.2567383 C41.4213859,14.121386 41.0926782,13.9699227 40.602832,13.8023438 L40.2016113,13.6621582 C39.7375465,13.5074699 39.4064219,13.3157238 39.2082275,13.0869141 C39.0100332,12.8581043 38.9093262,12.5729021 38.9061035,12.2312988 C38.9061035,11.8155741 39.0728743,11.4707533 39.4064209,11.1968262 C39.7399675,10.922899 40.1967744,10.7859375 40.7768555,10.7859375 C41.3762725,10.7859375 41.9225073,10.901952 42.4155762,11.1339844 L42.1787109,11.7527344 C41.6791967,11.5464833 41.2119162,11.4433594 40.7768555,11.4433594 C40.4384749,11.4433594 40.173414,11.5102288 39.981665,11.6439697 C39.789916,11.7777106 39.694043,11.9654285 39.694043,12.2071289 C39.694043,12.4133799 39.7633294,12.5712885 39.9019043,12.6808594 C40.0404792,12.7904302 40.3176249,12.9161126 40.7333496,13.0579102 C40.8396978,13.0965822 40.9734367,13.141699 41.1345703,13.1932617 C41.6695339,13.367286 42.0481922,13.5727283 42.2705566,13.8095947 C42.492921,14.0464611 42.6041016,14.3663066 42.6041016,14.7691406 C42.5976562,15.2589868 42.4220232,15.6384508 42.0771973,15.9075439 C41.7323713,16.1766371 41.2667022,16.3111816 40.6801758,16.3111816 Z M45.3981445,16.2966797 C44.8760716,16.2966797 44.5054698,16.169386 44.2863281,15.9147949 C44.0671864,15.6602038 43.9511719,15.2493192 43.9382813,14.6821289 L43.9382813,11.4965332 L43.1503418,11.4965332 L43.1841797,10.9647949 L43.9334473,10.8971191 L44.2089844,9.68378906 L44.7407227,9.66445313 L44.7407227,10.8971191 L46.2150879,10.8971191 L46.2150879,11.4965332 L44.7407227,11.4965332 L44.7407227,14.5371094 C44.7407227,14.9399434 44.8019525,15.2235343 44.9244141,15.3878906 C45.0468756,15.5522469 45.2563462,15.6344238 45.552832,15.6344238 C45.6591802,15.6344238 45.8895978,15.6086428 46.2440918,15.5570801 L46.2779297,16.195166 C45.8944317,16.2628421 45.6011729,16.2966797 45.3981445,16.2966797 Z M49.1976563,15.5087402 C49.4715834,15.5087402 49.7116689,15.4604009 49.9179199,15.3637207 C50.124171,15.2670405 50.2853022,15.1333016 50.4013184,14.9625 C50.5173346,14.7916984 50.6035398,14.6015635 50.6599365,14.3920898 C50.7163333,14.1826161 50.7445313,13.9538098 50.7445313,13.7056641 L50.7445313,13.3141113 C50.7445313,13.0562975 50.7155276,12.818629 50.6575195,12.6010986 C50.5995114,12.3835682 50.5100836,12.1885995 50.3892334,12.0161865 C50.2683832,11.8437736 50.107252,11.709229 49.905835,11.6125488 C49.7044179,11.5158687 49.469972,11.4675293 49.2024902,11.4675293 C48.9801258,11.4675293 48.7779062,11.5094234 48.5958252,11.5932129 C48.4137442,11.6770024 48.2638922,11.7873772 48.1462646,11.9243408 C48.0286371,12.0613044 47.9287358,12.2208243 47.8465576,12.4029053 C47.7643795,12.5849863 47.7055666,12.7694815 47.6701172,12.9563965 C47.6346678,13.1433115 47.6169434,13.331835 47.6169434,13.5219727 C47.6169434,13.7088877 47.6362791,13.8941885 47.6749512,14.0778809 C47.7136232,14.2615732 47.7748531,14.4404288 47.8586426,14.6144531 C47.9424321,14.7884774 48.0439447,14.9407464 48.1631836,15.0712646 C48.2824225,15.2017829 48.4314688,15.3073238 48.6103271,15.3878906 C48.7891855,15.4684574 48.9849599,15.5087402 49.1976563,15.5087402 Z M47.9553223,18.6266602 L47.8828125,17.8967285 L48.8689453,17.8967285 C49.1428725,17.8967285 49.3813466,17.8773928 49.584375,17.8387207 C49.7874034,17.8000486 49.9565911,17.7364018 50.0919434,17.6477783 C50.2272956,17.5591548 50.3368648,17.4608648 50.4206543,17.3529053 C50.5044438,17.2449457 50.5680906,17.1047616 50.6115967,16.9323486 C50.6551028,16.7599357 50.6841064,16.5891366 50.6986084,16.4199463 C50.7131104,16.250756 50.7203613,16.0437024 50.7203613,15.7987793 L50.7203613,15.3298828 C50.527001,15.6070326 50.3030286,15.8205315 50.0484375,15.9703857 C49.7938464,16.12024 49.4699727,16.195166 49.0768066,16.195166 C48.7738754,16.195166 48.4943128,16.1427984 48.2381104,16.0380615 C47.9819079,15.9333247 47.7659921,15.7939462 47.5903564,15.6199219 C47.4147208,15.4458976 47.2648688,15.2444836 47.1407959,15.0156738 C47.016723,14.7868641 46.9264895,14.5500012 46.8700928,14.3050781 C46.813696,14.060155 46.785498,13.8136243 46.785498,13.5654785 C46.785498,13.1787578 46.8330318,12.8210466 46.9281006,12.492334 C47.0231694,12.1636214 47.1641592,11.8703626 47.3510742,11.6125488 C47.5379892,11.354735 47.7837143,11.1525154 48.0882568,11.0058838 C48.3927994,10.8592522 48.7416484,10.7859375 49.1348145,10.7859375 C49.4828631,10.7859375 49.7865954,10.8528069 50.0460205,10.9865479 C50.3054456,11.1202888 50.5382802,11.325731 50.7445313,11.6028809 L50.7445313,10.8971191 L51.5324707,10.8971191 L51.5324707,15.8181152 C51.5324707,16.0437023 51.5268311,16.241088 51.5155518,16.4102783 C51.5042724,16.5794686 51.4768801,16.7671865 51.433374,16.9734375 C51.3898679,17.1796885 51.3310551,17.3569329 51.2569336,17.5051758 C51.1828121,17.6534187 51.0788825,17.8024651 50.9451416,17.9523193 C50.8114007,18.1021736 50.6518808,18.223022 50.4665771,18.3148682 C50.2812735,18.4067143 50.0516615,18.4816403 49.7777344,18.5396484 C49.5038072,18.5976565 49.1944353,18.6266602 48.8496094,18.6266602 L47.9553223,18.6266602 Z M55.2546387,10.8487793 C55.3996589,10.8487793 55.5317865,10.8584472 55.6510254,10.8777832 L55.6220215,11.6222168 C55.4737786,11.5964354 55.3448736,11.5835449 55.2353027,11.5835449 C54.7841286,11.5835449 54.4175551,11.7406478 54.1355713,12.0548584 C53.8535875,12.369069 53.7125977,12.7582008 53.7125977,13.2222656 L53.7125977,16.2 L52.9053223,16.2 C52.9020996,12.9451009 52.9004883,11.1774916 52.9004883,10.8971191 L53.5724121,10.8971191 L53.6497559,11.8494141 C53.8334482,11.5497055 54.0670884,11.3080087 54.3506836,11.1243164 C54.6342788,10.9406241 54.9355941,10.8487793 55.2546387,10.8487793 Z M59.5375488,11.878418 C59.3022937,11.5948228 58.97842,11.4530273 58.565918,11.4530273 C58.1534159,11.4530273 57.8166517,11.5988511 57.5556152,11.8905029 C57.2945788,12.1821548 57.1415041,12.5809545 57.0963867,13.0869141 L59.8952637,13.0869141 C59.8952637,12.5616185 59.7760266,12.1587905 59.5375488,11.878418 Z M58.7254395,16.3111816 C57.9552208,16.3111816 57.3485618,16.0662622 56.9054443,15.576416 C56.4623269,15.0865698 56.2407715,14.416264 56.2407715,13.5654785 C56.2407715,12.7436971 56.455076,12.0774195 56.8836914,11.566626 C57.3123068,11.0558324 57.876266,10.7956055 58.5755859,10.7859375 C59.2330111,10.7859375 59.7542705,11.0107155 60.1393799,11.4602783 C60.5244892,11.9098411 60.717041,12.5100548 60.717041,13.2609375 C60.717041,13.2996096 60.7162354,13.3705073 60.714624,13.4736328 C60.7130127,13.5767583 60.712207,13.6508787 60.712207,13.6959961 L57.0722168,13.6959961 C57.0818848,14.2986358 57.2373764,14.7683333 57.5386963,15.1051025 C57.8400162,15.4418718 58.2452611,15.6102539 58.7544434,15.6102539 C59.3151884,15.6102539 59.8775362,15.4620132 60.4415039,15.1655273 L60.5671875,15.8181152 C60.0290012,16.1468278 59.4150913,16.3111816 58.7254395,16.3111816 Z" id="PostgreSQL" fill="#000000"></path>
                            <path d="M61.8530273,15.0205078 C62.5974647,15.3878925 63.3950641,15.571582 64.2458496,15.571582 C65.2932181,15.571582 65.8168945,15.0946337 65.8168945,14.1407227 C65.8168945,13.8313461 65.733912,13.5807871 65.5679443,13.3890381 C65.4019767,13.1972891 65.0998557,13.0466314 64.6615723,12.9370605 L63.2403809,12.5793457 C62.1543403,12.3054186 61.6113281,11.7253462 61.6113281,10.8391113 C61.6113281,10.1591275 61.8449684,9.65398114 62.3122559,9.32365723 C62.7795434,8.99333331 63.4256795,8.82817383 64.2506836,8.82817383 C64.6825217,8.82817383 65.086961,8.87490188 65.4640137,8.96835938 C65.8410663,9.06181687 66.1568835,9.18749921 66.4114746,9.34541016 L66.1697754,10.027002 C65.9538563,9.90776308 65.6678485,9.80141648 65.3117432,9.70795898 C64.9556379,9.61450149 64.5955096,9.56777344 64.2313477,9.56777344 C63.0647403,9.56777344 62.4814453,9.97221275 62.4814453,10.7811035 C62.4814453,11.0550307 62.5708731,11.2749748 62.7497314,11.4409424 C62.9285898,11.60691 63.1968732,11.733398 63.5545898,11.8204102 L64.9129395,12.1491211 C65.4930205,12.287696 65.9329087,12.5092514 66.2326172,12.8137939 C66.5323257,13.1183365 66.6821777,13.5509738 66.6821777,14.1117187 C66.6821777,14.8400427 66.459011,15.3886944 66.0126709,15.7576904 C65.5663308,16.1266864 64.9596718,16.3111816 64.1926758,16.3111816 C63.6190401,16.3111816 63.1090598,16.2523688 62.6627197,16.1347412 C62.2163796,16.0171137 61.8626966,15.8777352 61.6016602,15.7166016 L61.8530273,15.0205078 Z M73.2032227,18.4719727 C73.0485344,18.3172844 72.7923358,18.0022729 72.4346191,17.5269287 C72.0769025,17.0515845 71.8094247,16.6302264 71.6321777,16.2628418 C71.432372,16.2918458 71.2261241,16.3063477 71.0134277,16.3063477 C70.2915491,16.3063477 69.673611,16.1524674 69.1595947,15.8447021 C68.6455785,15.5369369 68.2604749,15.1083279 68.0042725,14.5588623 C67.74807,14.0093967 67.6199707,13.3640662 67.6199707,12.6228516 C67.6199707,11.4788029 67.9180634,10.5764681 68.5142578,9.91582031 C69.1104522,9.25517248 69.9451118,8.92485352 71.0182617,8.92485352 C72.0752983,8.92485352 72.902707,9.25758945 73.5005127,9.92307129 C74.0983184,10.5885531 74.3972168,11.4900822 74.3972168,12.6276855 C74.3972168,13.4559123 74.228029,14.1689179 73.8896484,14.7667236 C73.5512678,15.3645294 73.0662629,15.7923327 72.4346191,16.0501465 C72.4861819,16.1403813 72.5570796,16.2588127 72.6473145,16.4054443 C72.7375493,16.5520759 72.9010974,16.7905501 73.1379639,17.120874 C73.3748303,17.4511979 73.5867178,17.7082022 73.7736328,17.8918945 L73.2032227,18.4719727 Z M69.1426758,14.7933105 C69.5648459,15.3153835 70.1884236,15.576416 71.0134277,15.576416 C71.8384319,15.576416 72.4595926,15.3153835 72.8769287,14.7933105 C73.2942648,14.2712376 73.5029297,13.5493698 73.5029297,12.6276855 C73.5029297,11.6866652 73.2926535,10.9567409 72.8720947,10.4378906 C72.451536,9.91904037 71.8335978,9.65961914 71.0182617,9.65961914 C70.2029256,9.65961914 69.5809592,9.91904037 69.1523438,10.4378906 C68.7237283,10.9567409 68.5094238,11.6866652 68.5094238,12.6276855 C68.5094238,13.5461472 68.7205057,14.268015 69.1426758,14.7933105 Z M75.7797363,16.2 L75.7797363,9.05053711 L76.6208496,9.05053711 L76.6208496,15.4555664 L79.7677734,15.4555664 L79.7387695,16.2 L75.7797363,16.2 Z" id="Combined-Shape" fill="#336791"></path>
                        </g>
                    </g>
                </g>
            </g>
        </g>
    </g>
</svg>