<?xml version="1.0" encoding="UTF-8"?>
<svg width="107px" height="20px" viewBox="0 0 107 20" version="1.1" xmlns="http://www.w3.org/2000/svg" xmlns:xlink="http://www.w3.org/1999/xlink">
    <!-- Generator: sketchtool 49.3 (51167) - http://www.bohemiancoding.com/sketch -->
    <title>3FBB2366-AB4F-463C-89C7-029E59020CC6</title>
    <desc>Created with sketchtool.</desc>
    <defs></defs>
    <g id="Cases" stroke="none" stroke-width="1" fill="none" fill-rule="evenodd">
        <g id="Volition-[desktop]-:hover" transform="translate(-829.000000, -2349.000000)" fill="#28334C">
            <g id="Technology" transform="translate(220.000000, 2341.000000)">
                <g id="tech-logos" transform="translate(252.000000, 0.000000)">
                    <g id="line-1">
                        <g id="coffeescript" transform="translate(357.000000, 8.000000)">
                            <g id="Group">
                                <path d="M9.07192227,1.21896673 C9.07192227,1.21896673 8.87275133,1.08251233 8.533686,1.02880792 C7.97628664,0.940514354 7.10753444,0.950137979 6.82889167,1.37980822 C6.64097572,1.66958845 6.91048851,1.89274476 7.11493784,2.01242866 C7.54529159,2.26433939 8.3705948,2.16814584 8.83085056,2.04463772 C9.21335349,1.94199218 9.60116897,1.84279003 10.0336098,1.55705103 C10.5921476,1.18798362 11.518427,0.66324562 11.4931165,0.661421052 C11.913718,0.415414932 13.1639865,-0.0201133392 14.7738002,0.0395150969 C15.3722958,0.0616797164 15.8460606,0.0826564257 16.3738236,0.215391809 C16.8090345,0.324846481 17.2963843,0.556966473 17.6876149,0.95096447 C18.0138163,1.27946047 18.0831336,1.70528748 18.0457371,2.00203212 C17.9859634,2.47645863 17.6204682,2.81559536 17.007439,3.04300641 C16.0770613,3.38816422 15.1071052,3.31621412 14.5222324,3.29926505 C12.8447597,3.15710791 12.4609666,2.02412492 13.840937,1.85168383 C14.5191208,3.25993979 18.1372646,2.1612315 16.3669363,1.2941036 C15.338694,0.821656945 13.285397,1.36916323 13.285397,1.36916323 C12.602394,1.62885361 11.7669211,2.0286087 10.916611,2.51650595 C10.916611,2.51650595 10.4305514,2.84083651 9.55204694,2.98662338 C9.28067477,3.03165527 8.99563419,3.04770759 8.6525579,3.04677977 C8.42767805,3.04617029 8.12396009,3.02444667 7.86652954,2.96687146 C5.61302565,2.46290247 6.11612326,1.28337747 6.11612326,1.28337747 C6.11612326,1.28337747 6.11612326,0.693614972 7.36339399,0.500598967 C8.1111341,0.384890297 8.63438142,0.431494423 8.94436817,0.537738631 C9.14413488,0.606202635 9.21113361,0.672970179 9.2919791,0.757944583 C9.48661162,0.962529126 9.07843393,1.2212684 9.07186915,1.21901681 L9.07192227,1.21896673 Z M1.39985449,5.3044463 C1.61915997,6.53932947 1.88640733,7.69983238 2.26864464,8.8511348 C1.92069598,9.05553689 1.4228502,9.42905702 0.917665522,10.0867944 C-0.00470539324,11.2877484 -0.161349452,13.157853 0.163019108,13.9040236 C0.457113775,14.580589 0.478151436,15.3439572 2.17548544,16.2416058 C3.49940854,16.9418129 4.93500884,16.2467104 5.29614777,16.0887265 C4.93125212,16.1132009 3.22850691,15.6201619 2.38510312,14.440171 C1.92059732,13.7902754 1.72987711,13.0877003 1.67037665,12.4205295 C1.57487235,11.3497021 1.89826947,10.4740648 2.57377421,9.78647437 C2.58176503,9.77834068 2.5892189,9.77110297 2.59712055,9.76312145 C2.84257511,10.3940338 3.12769158,11.0273918 3.46420309,11.67391 L3.4541973,11.6736771 L5.94881465,15.2979292 C6.44447471,16.283817 6.59307406,16.8132912 6.70346107,17.292415 C6.7161607,17.2903846 7.15206719,18.3287308 9.10841032,18.9415915 C9.97211561,19.2121711 11.1152605,19.4515777 12.6778306,19.3940068 C17.6898333,19.2094187 18.0970016,17.2223826 18.2958424,17.2923761 C18.4582506,16.4445731 18.6994817,15.774025 19.0295802,15.2121357 L21.2306417,12.0381637 L21.6715446,11.1794909 C22.4317692,9.7311721 22.9909521,7.75015707 23.3134992,6.31837583 C23.4310278,5.79670466 23.5303344,5.28551504 23.4317867,5.38994245 C22.9141555,5.93847747 22.2667465,6.61644037 18.9206807,7.13694693 C17.4075552,7.37232785 15.3107713,7.72406963 12.4052289,7.66316011 C2.17479329,7.44964683 1.39916234,5.30519709 1.39916234,5.30519709 L1.39985449,5.3044463 Z M5.29622367,16.1586872 C5.42761798,16.1328181 5.46897231,16.0468131 5.40383677,16.0487183 C5.38970086,16.0491441 5.35126159,16.0926707 5.29622367,16.1586872 Z M3.0770995,1.7445976 C3.0770995,1.7445976 1.84030206,2.60241632 3.16095037,3.39590931 C4.48159867,4.1894023 6.49403844,4.46817301 6.49403844,4.46817301 C8.17397766,4.85342472 11.4772017,4.99935523 14.8161335,4.87563399 C15.5597754,4.84808029 19.940838,4.43544724 21.4192422,3.65325105 C22.6186242,3.0187284 22.7441519,2.66697497 22.2787354,2.00193934 C24.7213278,3.17769874 22.9110037,4.16401363 22.2368119,4.4896408 C21.8412553,4.69574323 21.1319931,4.91092191 20.1824524,5.13301454 C18.0694652,5.74071216 15.6121495,5.90802893 13.05492,5.9479365 C10.2807112,5.98687744 7.38378276,5.81844652 4.10366831,5.00432426 C2.93119057,4.60796597 1.46982445,4.3360277 1.23174673,3.2243611 C1.28778265,2.46763121 2.2043591,2.11172398 3.07648856,1.74463642 L3.0770995,1.7445976 Z" id="Shape"></path>
                            </g>
                            <path d="M45.4070298,15.7182902 C45.5290352,16.8025958 45.2680785,17.761591 44.5011398,17.9734424 C44.1095053,18.0816257 43.5369708,17.6315855 43.5348626,17.2165892 C43.5307372,16.4060381 44.7014699,15.9060505 45.4069956,15.7183586 L45.4070298,15.7182902 Z M59.0389112,6.2630386 C58.9880908,6.26281068 58.938051,6.2636084 58.8890197,6.26523803 C56.8444654,6.5252489 55.8383136,7.66785629 55.2200812,9.29258236 C54.7078088,10.6389044 54.1723341,11.9877336 54.8577344,14.0345671 C55.1724574,14.9743829 57.2902081,15.5765583 58.6775558,15.0231121 C59.7806875,14.5830902 60.6225091,13.7973596 61.1011406,13.1623752 C61.1533753,13.4517193 61.2307586,13.7554452 61.338257,14.0764246 C61.65298,15.0162404 63.7692492,15.6414357 65.0674802,14.8951352 C66.2884464,14.1932905 66.2200705,13.5893828 66.4413806,12.7943987 C65.8384303,13.9256215 63.6998477,14.0667608 63.4821843,12.979743 C63.3638142,12.3883368 63.2907089,11.8538308 63.5727186,11.497011 C64.9502657,11.5240821 65.7669022,10.8440322 66.5470716,10.1378114 C67.0278911,9.52160754 67.6762659,9.09954572 67.3623976,7.35753212 C67.2035831,6.47615498 66.153853,6.28120381 65.3694671,6.30717526 C63.3249128,6.56718614 62.3188749,7.70990748 61.7006426,9.33463356 C61.3520621,10.2507571 60.9931112,11.1682481 61.0150371,12.3057957 C60.4320639,12.9771562 59.8426178,13.6393542 58.9645569,13.8955361 C57.8929921,14.095604 57.129119,13.909364 56.9413131,12.9997202 C56.8682352,12.4006901 56.8103732,11.8119163 57.0923783,11.454994 C58.4699254,11.4820663 59.286562,10.8020152 60.0667313,10.0957944 C60.5475509,9.47959053 61.1958231,9.05763127 60.8819434,7.31562908 C60.7330548,6.48932874 59.8012504,6.26633204 59.0389841,6.26308418 L59.0389112,6.2630386 Z M59.2815773,7.17655243 C60.1276839,7.18684301 59.8117529,8.4183733 59.4475827,9.1845256 C58.5771799,10.4427567 57.833113,10.7637817 57.1224592,10.8372858 C57.5059228,9.05723241 58.1495112,7.16276329 59.2815432,7.17655243 L59.2815773,7.17655243 Z M65.7620202,7.21838255 C66.6081267,7.22867312 66.2922983,8.46020341 65.9281395,9.22635572 C65.0577253,10.4845868 64.3136698,10.8056118 63.6030159,10.8791159 C63.9864682,9.09906253 64.6299655,7.2045934 65.761986,7.21838255 L65.7620202,7.21838255 Z M54.8273413,2.03001691 C53.8582948,2.01891722 52.8229009,2.57098449 52.4536709,3.26990046 C52.194697,2.10158372 50.782791,2.06876327 50.7882611,2.04665506 C50.7882611,2.04665506 48.7846184,1.89164682 47.9270703,3.9251698 C46.8818188,6.40391125 47.1126787,8.9835072 46.6031983,8.94920528 L45.1167056,9.21777454 C45.1431636,9.19337345 45.1694382,9.17635354 45.1927179,9.17201167 C45.1793026,8.15372312 45.0050944,7.31936582 44.6250837,6.86614736 C44.0094497,6.13207476 43.2090182,6.01936843 41.7833801,6.40437051 C41.2137744,6.55819356 40.7483964,6.98974825 40.3366593,7.36254522 C39.7479654,7.89561537 39.1735847,9.06601758 39.0019612,9.5608314 C38.3884125,11.8893737 38.6389419,11.7233342 38.4681617,12.4004838 C38.4669993,12.4065807 38.4661788,12.4143083 38.4650733,12.4205806 C38.1650512,12.7626996 36.91784,14.0239962 35.0340831,13.7563044 C32.8599564,13.447382 33.4034311,10.0493033 33.4034311,10.0493033 C33.3444329,9.77124123 34.0971619,3.15609784 36.8459313,2.94413245 C37.8862939,2.86391381 38.1717406,3.76166927 37.9928236,4.41615229 C37.8136103,5.07191165 37.2509561,5.63016694 37.2509561,5.63016694 C37.2509561,5.79429196 38.0582366,6.1654821 38.7180757,6.03340259 C39.2629635,5.92432703 40.1070188,3.19124307 38.2348858,2.3880538 C37.6498385,2.13705715 37.0765975,2.04901175 36.5649176,2.04652742 C35.4391877,2.04105735 34.6113033,2.44987704 34.6113033,2.44987704 C34.6113033,2.44987704 32.4122194,2.95225779 31.0341025,7.60223135 C30.6419894,8.92530561 30.4909469,10.2006307 30.500417,11.2642183 C30.5147235,12.8711666 30.9776924,14.0790274 32.182237,14.9052366 C33.9699257,16.1315589 37.6754453,14.8124562 38.5660418,13.1892287 C38.7351469,14.8030146 40.8624474,15.9385109 42.8045518,14.6052942 C43.4839692,14.1815913 44.0296206,13.6638374 44.3826683,13.012135 C44.9011744,12.0548492 45.0575729,10.7038775 45.1366041,9.85749747 C45.1237414,9.85353166 45.1117939,9.84904164 45.1004127,9.84417214 L46.7099821,9.51717564 L45.556936,15.0655406 C45.5875878,14.9022132 41.9692509,15.6190779 42.6103892,18.0581271 C42.816782,18.8432993 43.6785922,19.49311 44.4680493,19.5872409 C45.3376202,19.690933 46.505652,19.1498058 46.838073,18.4295224 C47.6603506,20.1076957 50.7878087,19.8322546 51.471454,17.6649883 L53.7774323,7.11435427 L55.2934406,7.09251044 L55.5069559,6.52456856 L53.8628566,6.50272473 C54.032919,5.00871064 54.3438243,3.6173744 55.3574405,3.61931172 C56.0487212,3.62920344 56.0911598,4.26047283 56.0406984,4.6022841 L56.7666684,4.6022841 C56.7473181,4.04540773 56.8870101,3.2983551 56.1901682,2.5708352 C55.8242658,2.19607812 55.3348765,2.03579354 54.8273219,2.02998159 L54.8273413,2.03001691 Z M51.1456393,3.6052844 C51.3885676,3.6052844 51.6589602,3.72449784 51.941216,4.05624646 C51.941216,4.05624646 51.734094,5.11513891 51.4647498,6.48085696 L49.654497,6.48085696 L50.0835674,4.38388113 C50.0835674,4.38388113 50.5248086,3.60526161 51.1456051,3.60526161 L51.1456393,3.6052844 Z M49.5205713,7.13621747 L51.3356104,7.13621747 C50.9207964,9.23285143 50.3742448,11.9673189 49.9054139,14.2049212 L47.9964718,14.5856612 L49.5205713,7.13621747 Z M49.8304966,14.5595644 C49.5772778,15.7601317 49.3550104,16.773463 49.2081959,17.3592169 C49.0945619,17.8125265 48.4085736,18.2295285 47.9087113,18.1300871 C47.6588657,18.0803778 47.3113564,17.9344066 47.3932708,17.5339743 L47.9200162,14.9593926 L49.8304966,14.5595644 Z M43.3034442,7.32949343 C43.8695286,7.32465014 43.84154,8.30118379 43.7848222,8.2721696 C43.7848222,8.2721696 42.5489272,9.23733005 43.742118,10.128918 C43.7776963,11.0464318 43.4805345,12.5697108 42.4824054,13.4710195 C42.144503,13.7761471 41.2613253,13.8776512 41.051867,13.1652082 C41.0235468,13.0688825 40.7891325,12.1121163 41.1510463,10.6134185 C41.3158209,9.93108364 41.555262,8.69216876 42.2262236,8.01011885 C42.7195901,7.50858139 43.0645239,7.33162448 43.303532,7.32957321 L43.3034442,7.32949343 Z M106.622975,3.75058325 L104.167481,3.99086767 L103.697739,6.52476571 L102.993125,6.54660954 L102.907718,7.18007835 L103.548275,7.18007835 L102.483844,12.79454 C102.412533,13.1156676 102.32316,13.4183222 102.41662,13.9080192 C102.542135,14.5656361 103.213781,15.246706 103.868583,15.2623185 C104.682131,15.2817874 105.445218,14.3433574 105.747553,13.6676778 C105.360375,13.8630279 104.588467,13.7994952 104.679954,13.3181743 L105.854311,7.13630636 L106.815152,7.11446367 L106.964622,6.54652179 L106.089194,6.54651951 L106.622975,3.75058325 Z M97.7192892,8.38145713 L96.7157471,13.361846 C96.5928527,13.9717137 97.7259559,14.0710183 98.4452023,13.2307807 C99.1106596,12.4534261 99.2857932,11.9736892 99.6195589,10.1944335 C99.8070001,9.04286891 99.8412337,8.05244355 99.0857594,7.6824158 C98.6264213,7.45741341 98.0261034,7.82033005 97.7192664,8.38142294 L97.7192892,8.38145713 Z M95.7762732,5.73827156 L94.3376436,12.8159781 C94.0380431,13.2657208 93.6825794,13.6669964 93.1712642,13.711247 C92.375904,13.765036 91.9970215,13.3714528 92.3385365,12.2040135 L93.4915826,6.48094813 L91.2069148,6.45910544 L89.9257778,13.4928235 C89.7771286,14.3090042 90.4512924,15.1235894 91.7407029,15.1529911 C92.7921652,15.0932032 93.677907,14.5409923 94.0040602,14.1700187 L94.0666185,14.1494854 L92.9791677,19.499902 L95.5840627,18.8445871 L96.3740782,14.7160484 C96.9609717,15.2924461 97.6668392,15.3821553 98.4238747,15.2621441 C100.004954,14.7877519 101.093157,13.7546828 101.648028,12.1166234 C102.247252,8.79537653 102.370488,7.22535119 100.900713,6.48096523 C99.8764872,5.96219704 98.6965009,6.4062725 98.0182117,6.98336877 L98.1676701,5.78200367 L95.7762732,5.73827156 Z M94.177416,4.12448564 C94.177416,4.87246134 93.584722,5.47878491 92.853544,5.47878491 C92.122423,5.47878491 91.529672,4.87243855 91.529672,4.12448564 C91.529672,3.37652133 92.122366,2.77018636 92.853544,2.77018636 C93.5846651,2.77018523 94.177416,3.37653272 94.177416,4.12448564 Z M81.2418295,6.17211684 C81.0192886,6.17203024 80.7935569,6.1899755 80.616429,6.24070702 C79.8699576,6.45451856 79.2342096,6.75946381 78.6413903,7.49677287 C78.0798871,8.13720463 77.6343496,8.86657069 77.4137004,9.76856317 C77.0839917,10.7526068 76.9427612,11.5113517 76.890579,11.9420061 C76.8596958,12.78654 76.9081356,13.3475873 77.1040942,13.8424011 C77.4892102,14.8148322 78.0459727,14.9506154 78.6948602,15.1530538 C80.1777063,15.2879025 81.3748549,14.8949004 81.7094411,14.5622401 C82.1904657,14.3554371 82.6023851,13.9785604 83.3389535,13.2199067 L83.4025841,13.1883409 L83.007998,15.1093627 L85.3994462,15.0656762 L86.7873636,8.42511972 C86.8827207,7.96885853 87.6017096,7.77881903 88.0470762,7.87902395 C88.2600444,7.92692927 88.5594626,8.09944516 88.5924084,8.61374612 C88.6147867,8.96312434 88.9786413,8.86432112 89.157376,8.90568856 C89.5578424,8.99837555 90.1011575,8.61845267 90.1822628,8.20668141 C90.3171799,7.52171413 90.2598581,6.62195526 89.0506183,6.45922054 C88.4117592,6.52027341 87.696547,6.78455322 87.0008219,7.48588514 L87.2356932,6.50291276 L84.7801996,6.48106779 L83.6338771,12.0616833 L83.4029602,12.2805547 C83.0012744,12.7941947 82.423361,13.2740342 81.5667246,13.7003809 C80.9797286,13.9540442 80.3600033,13.9847906 79.687754,13.6566932 C79.260997,13.4104829 79.2661594,12.461368 79.4635607,11.1992623 C79.6441529,10.3836286 79.8250642,9.56826842 80.2001974,8.8947655 C80.4103736,8.35441331 80.6985668,7.91381021 81.022247,7.51858593 C81.734143,6.87237641 82.1958059,7.3558968 82.0866437,8.07483553 C82.0069527,8.59968917 81.6770833,9.17536892 82.732329,8.95940355 C84.0574546,7.89385583 82.7181502,6.44202969 82.0879315,6.25616112 C81.9748981,6.2228233 81.6128783,6.17232995 81.2419617,6.17217041 L81.2418295,6.17211684 Z M74.7415577,5.57020353 C74.424772,5.96530245 75.7961082,5.63392875 76.1456574,5.38484777 C76.7939524,4.92289998 76.8782143,4.06849714 76.508027,3.2996098 C76.0386149,2.32473997 75.0214203,2.01038163 73.8809098,2.00217651 C72.2352151,1.95586436 71.1344766,2.65255697 70.4536802,3.71670298 C69.9799034,4.25947112 69.9280175,5.00479156 70.0333506,5.61333734 C70.2438915,6.82997307 71.2483909,7.76250681 72.0636599,8.66415742 C72.7987353,9.47715863 73.7257648,10.730706 73.6324317,11.7765158 C73.5377208,12.5393405 73.2891047,13.4373672 72.5523313,14.0036339 C72.0074549,14.4223681 70.7310244,14.6571026 69.9403707,13.4012419 C69.5808273,12.8301547 69.8044622,12.136857 70.06004,11.608539 C70.3156406,11.0802095 71.1520378,10.668142 71.6766749,10.6982046 C71.9511473,10.7139288 71.6544619,10.2181372 71.1784423,9.95680439 C70.7757423,9.73571082 70.1448489,9.69601859 69.5327476,9.97224823 C68.6578434,10.3670737 67.8799874,11.0110154 67.9172523,12.6598782 C67.9488135,14.0569124 68.701,14.5774811 69.7743426,15.1775939 C71.5644244,15.7846696 72.7664733,15.4363284 73.881001,14.945902 C75.0809986,14.1141202 76.4778049,13.096789 76.3342154,11.2542855 C76.3801686,8.82386308 75.150742,8.37018878 74.3490342,7.51640132 C72.7685246,6.41269984 71.5221453,4.86295936 72.7335389,3.34603934 C73.2728199,2.67075864 74.9857281,2.71988675 75.1643032,3.46960604 C75.3327815,4.17703482 75.269764,4.9114265 74.7415577,5.5702286 L74.7415577,5.57020353 Z" id="Shape"></path>
                        </g>
                    </g>
                </g>
            </g>
        </g>
    </g>
</svg>