<?xml version="1.0" encoding="UTF-8"?>
<svg width="83px" height="31px" viewBox="0 0 83 31" version="1.1" xmlns="http://www.w3.org/2000/svg" xmlns:xlink="http://www.w3.org/1999/xlink">
    <!-- Generator: sketchtool 49.3 (51167) - http://www.bohemiancoding.com/sketch -->
    <title>0D1FC972-75BB-4978-B8F8-44267FFC92D8</title>
    <desc>Created with sketchtool.</desc>
    <defs></defs>
    <g id="Cases" stroke="none" stroke-width="1" fill="none" fill-rule="evenodd">
        <g id="Volition-[desktop]-:hover" transform="translate(-472.000000, -2407.000000)">
            <g id="Technology" transform="translate(220.000000, 2341.000000)">
                <g id="tech-logos" transform="translate(252.000000, 0.000000)">
                    <g id="line-2" transform="translate(0.000000, 66.000000)">
                        <g id="amazon-s3" transform="translate(0.900001, 0.000000)">
                            <g id="sign" fill-rule="nonzero">
                                <polyline id="Shape" fill="#8C3123" points="2.03578841 5.29932781 0 6.31741943 0 24.1858455 2.03578841 25.1980145 2.04802841 25.1833068 2.04802841 5.31334458 2.03578841 5.29932781"></polyline>
                                <polyline id="Shape" fill="#E05243" points="12.9309679 22.6045164 2.03578841 25.1980145 2.03578841 5.29932781 12.9309679 7.83626526 12.9309679 22.6045164"></polyline>
                                <polyline id="Shape" fill="#8C3123" points="8.01305429 18.5441925 12.634444 19.1325022 12.6634647 19.065577 12.6894253 11.487635 12.634444 11.4284092 8.01305429 12.0082298 8.01305429 18.5441925"></polyline>
                                <polyline id="Shape" fill="#8C3123" points="12.634444 22.6336358 23.2330009 25.2035422 23.2496829 25.1769893 23.2493867 5.31709555 23.2326061 5.29932781 12.634444 7.86538461 12.634444 22.6336358"></polyline>
                                <polyline id="Shape" fill="#E05243" points="17.257117 18.5441925 12.634444 19.1325022 12.634444 11.4284092 17.257117 12.0082298 17.257117 18.5441925"></polyline>
                                <polyline id="Shape" fill="#5E1F18" points="17.257117 8.84744721 12.634444 9.68993431 8.01305429 8.84744721 12.6286202 7.63766139 17.257117 8.84744721"></polyline>
                                <polyline id="Shape" fill="#F2B0A9" points="17.257117 21.6964861 12.634444 20.8484712 8.01305429 21.6964861 12.6288176 22.9849435 17.257117 21.6964861"></polyline>
                                <polyline id="Shape" fill="#8C3123" points="8.01305429 8.84744721 12.634444 7.70379687 12.671855 7.69224784 12.671855 0.0308961294 12.634444 0 8.01305429 2.31108971 8.01305429 8.84744721"></polyline>
                                <polyline id="Shape" fill="#E05243" points="17.257117 8.84744721 12.634444 7.70379687 12.634444 0 17.257117 2.31108971 17.257117 8.84744721"></polyline>
                                <polyline id="Shape" fill="#8C3123" points="12.634444 30.5435384 8.01256075 28.2332384 8.01256075 21.6969796 12.634444 22.8402351 12.702455 22.9175248 12.6839963 30.4101817 12.634444 30.5435384"></polyline>
                                <path d="M12.634444,30.5435384 L17.2567222,28.2332384 L17.2567222,21.6969796 L12.634444,22.8402351 L12.634444,30.5435384 M23.2330009,5.29932781 L25.2696777,6.31741943 L25.2696777,24.1858455 L23.2330009,25.2035422 L23.2330009,5.29932781" id="Shape" fill="#E05243"></path>
                            </g>
                            <path d="M60.3661575,7.06402631 L60.3661575,5.91679876 C60.3641071,5.83903571 60.3940969,5.76384576 60.4491028,5.70883987 C60.5041087,5.65383398 60.5792986,5.62384416 60.6570617,5.62589463 L65.7999189,5.62534834 C65.964628,5.62534834 66.0965591,5.74498778 66.0968323,5.91488672 L66.0965591,6.89931721 C66.0951934,7.06429946 65.9561603,7.27981435 65.7092333,7.62152427 L63.0454802,11.4251299 C64.034281,11.4019122 65.0804433,11.5499592 65.9788317,12.0550124 C66.1815086,12.1686426 66.2355922,12.3374489 66.2514349,12.5029775 L66.2514349,13.7272332 C66.2514349,13.8960395 66.067059,14.0910682 65.8728498,13.9894566 C64.2899489,13.1604481 62.1891567,13.0694894 60.4390884,13.9995631 C60.2601756,14.0951654 60.0730682,13.9025951 60.0730682,13.7337888 L60.0730682,12.5698991 C60.0730682,12.3836112 60.076346,12.065119 60.2642728,11.7810436 L63.3508612,7.35329154 L60.6633441,7.35301839 C60.4991813,7.35301839 60.3675233,7.23556414 60.3664307,7.06402631 L60.3661575,7.06402631 Z M41.9613499,14.2306475 L40.3964769,14.2306475 C40.2476104,14.2210873 40.1287904,14.1090961 40.1167719,13.9665121 L40.1178645,5.93591922 C40.1178645,5.77558051 40.2530734,5.64692714 40.4196946,5.64692714 L41.8766736,5.64665399 C42.0293641,5.65430217 42.151735,5.76957123 42.1612953,5.91625246 L42.1612953,6.96487307 L42.1907954,6.96487307 C42.5704731,5.95094244 43.2861245,5.4775745 44.2497957,5.4775745 C45.22849,5.4775745 45.8417105,5.95094244 46.2801153,6.96487307 C46.659793,5.95094244 47.5213062,5.4775745 48.4415466,5.4775745 C49.0987441,5.4775745 49.8143956,5.74799242 50.2525273,6.35629617 C50.7491129,7.03206783 50.646955,8.01240108 50.646955,8.87418749 L50.6458624,13.9416555 C50.6458624,14.1022673 50.5106535,14.2309207 50.3440323,14.2309207 L48.7813445,14.2309207 C48.6242836,14.2208142 48.5002738,14.096258 48.5002738,13.9424749 L48.5002738,9.68516811 C48.5002738,9.34728228 48.5292276,8.50243114 48.4560235,8.18148057 C48.3391156,7.64064473 47.988938,7.4885005 47.5360563,7.4885005 C47.1563786,7.4885005 46.7619509,7.74198316 46.601339,8.14761004 C46.440454,8.55323693 46.4552041,9.22900858 46.4552041,9.68544126 L46.4552041,13.9416555 C46.4552041,14.1022673 46.3199951,14.2309207 46.1536471,14.2309207 L44.5906862,14.2309207 C44.4336252,14.2208142 44.3098886,14.096258 44.3098886,13.9424749 L44.3082497,9.68516811 C44.3082497,8.78978432 44.4543846,7.47156524 43.3445785,7.47156524 C42.2197492,7.47156524 42.2637263,8.75591379 42.2637263,9.68516811 L42.2629068,13.9416555 C42.2629068,14.1022673 42.127971,14.2309207 41.9613499,14.2309207 L41.9613499,14.2306475 Z M69.8747619,5.4775745 C72.178504,5.4775745 73.4246117,7.47156524 73.4246117,10.0063918 C73.4246117,12.4565421 72.0482118,14.4000002 69.8747619,14.4000002 C67.6144504,14.4000002 66.3828197,12.4060094 66.3828197,9.92198865 C66.3828197,7.42075945 67.6292005,5.47784765 69.8747619,5.47784765 L69.8747619,5.4775745 Z M69.8892388,7.32351826 C68.7444696,7.32351826 68.672085,8.89494685 68.672085,9.87500695 C68.672085,10.8550671 68.6576081,12.7438953 69.8747619,12.7438953 C71.0774387,12.7438953 71.1353464,11.2606939 71.1353464,10.2301012 C71.1353464,9.55405639 71.1066657,8.74280262 70.9037157,8.10090149 C70.7294464,7.54313039 70.3820003,7.32351826 69.8892388,7.32351826 Z M76.7586735,14.2306475 L75.2000829,14.2306475 C75.0432951,14.2208142 74.9192853,14.096258 74.9192853,13.9424749 L74.9165538,5.90915058 C74.9299381,5.76219619 75.0596841,5.64692714 75.2172913,5.64692714 L76.6685341,5.64665399 C76.8051089,5.65348273 76.9179196,5.74689983 76.9466002,5.87145596 L76.9466002,7.09980888 L76.9761004,7.09980888 C77.414232,6.00147508 78.0274525,5.4775745 79.1083047,5.4775745 C79.8092061,5.4775745 80.4959038,5.73105716 80.9340354,6.42403723 C81.3429401,7.06593836 81.3429401,8.14761004 81.3429401,8.92499328 L81.3429401,13.9777112 C81.3254585,14.1202952 81.1978978,14.2309207 81.0432952,14.2309207 L79.4745981,14.2309207 C79.3298289,14.2213605 79.212921,14.1151053 79.1959857,13.9777112 L79.1959857,9.6177002 C79.1959857,8.73897853 79.2984167,7.45462998 78.2175645,7.45462998 C77.8373405,7.45462998 77.4871629,7.70811263 77.3120742,8.09680425 C77.0930083,8.58683431 77.0635082,9.07686436 77.0635082,9.6177002 L77.0635082,13.9416555 C77.0607767,14.1022673 76.9255677,14.2309207 76.7586735,14.2309207 L76.7586735,14.2306475 Z M58.021443,14.2107076 C57.9176462,14.3035784 57.7685066,14.3098609 57.6515986,14.2473097 C57.1320685,13.8151873 57.0389245,13.6155151 56.7548491,13.2044252 C55.8957942,14.0795959 55.2877636,14.3418194 54.175226,14.3418194 C52.8580995,14.3418194 51.8335161,13.5289267 51.8335161,11.9031414 C51.8335161,10.6329966 52.5213063,9.76929813 53.5019127,9.34591653 C54.3508611,8.97334073 55.5366027,8.90559967 56.4437319,8.80398809 L56.4437319,8.60076493 C56.4437319,8.22818912 56.4732321,7.78787226 56.2536199,7.46610225 C56.0635079,7.17820277 55.6974877,7.05965592 55.3754446,7.05965592 C54.7786131,7.05965592 54.2481569,7.36558327 54.1178646,7.99928991 C54.0908229,8.14023501 53.9878455,8.27954121 53.846081,8.2866431 L52.3295554,8.12275345 C52.2014483,8.09379961 52.0591375,7.99109543 52.0960127,7.7957936 C52.4445513,5.95585913 54.1061192,5.40000007 55.5950567,5.40000007 C56.356051,5.40000007 57.3514074,5.60322323 57.9515167,6.1790222 C58.712511,6.89030328 58.6393069,7.83867805 58.6393069,8.87172915 L58.6393069,11.3093145 C58.6393069,12.0424476 58.9441417,12.3642176 59.2301291,12.7594648 C59.3298287,12.9015025 59.3525001,13.0708551 59.2246661,13.174925 C58.9050813,13.4426115 58.3374768,13.9361925 58.0249939,14.2142586 L58.021443,14.2107076 Z M56.4437319,10.3959029 L56.4440051,10.3959029 L56.4440051,10.0571976 C55.3120739,10.0571976 54.116772,10.2997543 54.116772,11.6321771 C54.116772,12.3095877 54.4680422,12.7668398 55.0678783,12.7668398 C55.5071026,12.7668398 55.9023498,12.4961487 56.151462,12.0555587 C56.458482,11.5136303 56.4437319,11.0058455 56.4437319,10.3959029 Z M37.6882004,14.2107076 C37.5844036,14.3035784 37.4349909,14.3098609 37.3183561,14.2473097 C36.7985528,13.8151873 36.7054088,13.6155151 36.4213334,13.2044252 C35.5625517,14.0795959 34.9542479,14.3418194 33.8419835,14.3418194 C32.5245839,14.3418194 31.5000004,13.5289267 31.5000004,11.9031414 C31.5000004,10.6329966 32.1877906,9.76929813 33.1686702,9.34591653 C34.0176186,8.97334073 35.2033602,8.90559967 36.1104894,8.80398809 L36.1104894,8.60076493 C36.1104894,8.22818912 36.1397164,7.78787226 35.9203774,7.46610225 C35.7299923,7.17820277 35.363972,7.05965592 35.042202,7.05965592 C34.4453705,7.05965592 33.9146412,7.36558327 33.784349,7.99928991 C33.7573072,8.14023501 33.654603,8.27954121 33.5125653,8.2866431 L31.9963129,8.12275345 C31.8682058,8.09379961 31.725895,7.99109543 31.7627701,7.7957936 C32.1113088,5.95585913 33.7726035,5.40000007 35.2618142,5.40000007 C36.0228084,5.40000007 37.0181649,5.60322323 37.6182742,6.1790222 C38.3792684,6.89030328 38.3060644,7.83867805 38.3060644,8.87172915 L38.3060644,11.3093145 C38.3060644,12.0424476 38.610626,12.3642176 38.8966134,12.7594648 C38.9965861,12.9015025 39.0189844,13.0708551 38.8916967,13.174925 C38.5721119,13.4426115 38.0039611,13.9361925 37.6917514,14.2142586 L37.6882004,14.2107076 Z M36.1104894,10.3959029 L36.1104894,10.0571976 C34.9788314,10.0571976 33.7835295,10.2997543 33.7835295,11.6321771 C33.7835295,12.3095877 34.1345265,12.7668398 34.7346358,12.7668398 C35.17386,12.7668398 35.5691072,12.4961487 35.8179464,12.0555587 C36.1252395,11.5136303 36.1104894,11.0058455 36.1104894,10.3959029 Z" id="amazon" fill="#000000" fill-rule="nonzero" opacity="0.900000036"></path>
                            <path d="M35.4943685,23.7657757 C35.4943685,23.3286077 35.3760542,22.993718 35.139422,22.7610965 C34.9027898,22.5284751 34.475655,22.301873 33.8580048,22.0812837 C33.2403547,21.8606944 32.7681,21.629079 32.4412267,21.3864307 C32.1143535,21.1437825 31.8697035,20.8670473 31.7072695,20.5562168 C31.5448355,20.2453864 31.4636198,19.8894408 31.4636198,19.4883692 C31.4636198,18.7945155 31.6952351,18.2229971 32.1584727,17.773797 C32.6217103,17.3245969 33.2283219,17.1000002 33.9783257,17.1000002 C34.4916973,17.1000002 34.9489119,17.2153065 35.3499835,17.4459227 C35.751055,17.6765388 36.0598754,17.9963886 36.2764541,18.4054815 C36.4930327,18.8145745 36.6013204,19.2637678 36.6013204,19.7530751 L35.4943685,19.7530751 C35.4943685,19.2116285 35.3640222,18.7925151 35.1033257,18.4957222 C34.8426292,18.1989292 34.467633,18.050535 33.9783257,18.050535 C33.5331363,18.050535 33.18822,18.1748653 32.9435663,18.4235296 C32.6989127,18.672194 32.5765877,19.021121 32.5765877,19.4703211 C32.5765877,19.8393069 32.7089393,20.1481274 32.9736465,20.3967917 C33.2383537,20.645456 33.6474406,20.8680474 34.2009193,21.0645725 C35.0632231,21.3493332 35.6798613,21.7002656 36.0508525,22.11738 C36.4218436,22.5344943 36.6073364,23.0799434 36.6073364,23.7537436 C36.6073364,24.4636402 36.3767238,25.0321506 35.9154915,25.4592918 C35.4542592,25.8864329 34.8265917,26.1000003 34.0324701,26.1000003 C33.5231092,26.1000003 33.0528599,25.9887046 32.621708,25.7661099 C32.1905561,25.5435152 31.8516558,25.2306841 31.6049968,24.8276073 C31.3583378,24.4245304 31.2350102,23.9623024 31.2350102,23.4409094 L32.341962,23.4409094 C32.341962,23.9823559 32.4933643,24.4034747 32.7961733,24.7042784 C33.0989823,25.005082 33.5110771,25.1554816 34.0324701,25.1554816 C34.5177666,25.1554816 34.8827362,25.0311513 35.1273899,24.7824869 C35.3720435,24.5338226 35.4943685,24.1949222 35.4943685,23.7657757 Z M39.1701707,21.0585564 L39.8499835,21.0585564 C40.2871515,21.0585564 40.6240465,20.9241995 40.8606787,20.6554815 C41.0973109,20.3867636 41.2156253,20.0197887 41.2156253,19.5545457 C41.2156253,18.5278026 40.8185704,18.0144387 40.0244488,18.0144387 C39.6434308,18.0144387 39.344637,18.1528063 39.1280584,18.4295457 C38.9114798,18.706285 38.8031921,19.0692493 38.8031921,19.5184494 L37.7443685,19.5184494 C37.7443685,18.8165743 37.9579359,18.2380373 38.3850771,17.7828211 C38.8122183,17.3276049 39.35867,17.1000002 40.0244488,17.1000002 C40.7142918,17.1000002 41.2617462,17.3155729 41.6668285,17.7467248 C42.0719107,18.1778767 42.2744488,18.788499 42.2744488,19.5786099 C42.2744488,19.9836921 42.1691691,20.3616964 41.9586065,20.7126339 C41.748044,21.0635715 41.4743168,21.3212561 41.1374167,21.4856955 C41.963624,21.7905098 42.3767215,22.4743265 42.3767215,23.5371661 C42.3767215,24.3192556 42.1591435,24.9419098 41.7239809,25.4051474 C41.2888183,25.868385 40.7203079,26.1000003 40.0184327,26.1000003 C39.324579,26.1000003 38.7640899,25.880417 38.3369487,25.4412436 C37.9098076,25.0020703 37.6962402,24.4115013 37.6962402,23.669519 L38.7610798,23.669519 C38.7610798,24.134762 38.8733781,24.5047449 39.0979782,24.7794789 C39.3225782,25.0542129 39.6293933,25.1915779 40.0184327,25.1915779 C40.4154935,25.1915779 40.7313326,25.0572209 40.9659595,24.788503 C41.2005863,24.5197851 41.317898,24.1106982 41.317898,23.5612302 C41.317898,22.4983907 40.8145608,21.9669789 39.8078712,21.9669789 L39.1701707,21.9669789 L39.1701707,21.0585564 Z" id="S3" fill="#000000" opacity="0.900000036"></path>
                        </g>
                    </g>
                </g>
            </g>
        </g>
    </g>
</svg>