<?xml version="1.0" encoding="UTF-8"?>
<svg width="60px" height="60px" viewBox="0 0 60 60" version="1.1" xmlns="http://www.w3.org/2000/svg" xmlns:xlink="http://www.w3.org/1999/xlink">
    <!-- Generator: Sketch 49.2 (51160) - http://www.bohemiancoding.com/sketch -->
    <title>tech-back-end</title>
    <desc>Created with Sketch.</desc>
    <defs></defs>
    <g id="Home" stroke="none" stroke-width="1" fill="none" fill-rule="evenodd">
        <g id="1-Home-[Opt-1]-[desktop]" transform="translate(-690.000000, -2041.000000)" fill="#5397E4" fill-rule="nonzero">
            <g id="Technologies" transform="translate(0.000000, 1704.000000)">
                <g id="T2" transform="translate(530.000000, 292.000000)">
                    <g id="tech-back-end" transform="translate(160.000000, 45.000000)">
                        <rect id="Rectangle-path" x="3.6" y="8.4" width="2.4" height="2.4"></rect>
                        <rect id="Rectangle-path" x="8.4" y="8.4" width="2.4" height="2.4"></rect>
                        <rect id="Rectangle-path" x="3.6" y="3.6" width="2.4" height="2.4"></rect>
                        <rect id="Rectangle-path" x="8.4" y="3.6" width="2.4" height="2.4"></rect>
                        <rect id="Rectangle-path" x="12" y="8.4" width="2.4" height="2.4"></rect>
                        <rect id="Rectangle-path" x="12" y="3.6" width="2.4" height="2.4"></rect>
                        <rect id="Rectangle-path" x="15.6" y="8.4" width="2.4" height="2.4"></rect>
                        <rect id="Rectangle-path" x="15.6" y="3.6" width="2.4" height="2.4"></rect>
                        <rect id="Rectangle-path" x="20.4" y="8.4" width="2.4" height="2.4"></rect>
                        <rect id="Rectangle-path" x="20.4" y="3.6" width="2.4" height="2.4"></rect>
                        <path d="M38.6181818,3.6 L29.7818182,3.6 C29.2388727,3.6 28.8,4.048 28.8,4.6 L28.8,8.6 C28.8,9.152 29.2388727,9.6 29.7818182,9.6 L38.6181818,9.6 C39.1611273,9.6 39.6,9.152 39.6,8.6 L39.6,4.6 C39.6,4.048 39.1611273,3.6 38.6181818,3.6 Z M37.6363636,7.6 L30.7636364,7.6 L30.7636364,5.6 L37.6363636,5.6 L37.6363636,7.6 Z" id="Shape"></path>
                        <rect id="Rectangle-path" x="3.6" y="20.4" width="2.4" height="2.4"></rect>
                        <rect id="Rectangle-path" x="8.4" y="20.4" width="2.4" height="2.4"></rect>
                        <rect id="Rectangle-path" x="3.6" y="15.6" width="2.4" height="2.4"></rect>
                        <rect id="Rectangle-path" x="8.4" y="15.6" width="2.4" height="2.4"></rect>
                        <rect id="Rectangle-path" x="12" y="20.4" width="2.4" height="2.4"></rect>
                        <rect id="Rectangle-path" x="12" y="15.6" width="2.4" height="2.4"></rect>
                        <rect id="Rectangle-path" x="15.6" y="20.4" width="2.4" height="2.4"></rect>
                        <rect id="Rectangle-path" x="15.6" y="15.6" width="2.4" height="2.4"></rect>
                        <rect id="Rectangle-path" x="20.4" y="20.4" width="2.4" height="2.4"></rect>
                        <rect id="Rectangle-path" x="20.4" y="15.6" width="2.4" height="2.4"></rect>
                        <path d="M38.6181818,15.6 L29.7818182,15.6 C29.2388727,15.6 28.8,16.048 28.8,16.6 L28.8,20.6 C28.8,21.152 29.2388727,21.6 29.7818182,21.6 L38.6181818,21.6 C39.1611273,21.6 39.6,21.152 39.6,20.6 L39.6,16.6 C39.6,16.048 39.1611273,15.6 38.6181818,15.6 Z M37.6363636,19.6 L30.7636364,19.6 L30.7636364,17.6 L37.6363636,17.6 L37.6363636,19.6 Z" id="Shape"></path>
                        <rect id="Rectangle-path" x="3.6" y="32.4" width="2.4" height="2.4"></rect>
                        <rect id="Rectangle-path" x="8.4" y="32.4" width="2.4" height="2.4"></rect>
                        <rect id="Rectangle-path" x="3.6" y="27.6" width="2.4" height="2.4"></rect>
                        <rect id="Rectangle-path" x="8.4" y="27.6" width="2.4" height="2.4"></rect>
                        <rect id="Rectangle-path" x="12" y="32.4" width="2.4" height="2.4"></rect>
                        <rect id="Rectangle-path" x="12" y="27.6" width="2.4" height="2.4"></rect>
                        <rect id="Rectangle-path" x="15.6" y="32.4" width="2.4" height="2.4"></rect>
                        <rect id="Rectangle-path" x="15.6" y="27.6" width="2.4" height="2.4"></rect>
                        <rect id="Rectangle-path" x="20.4" y="32.4" width="2.4" height="2.4"></rect>
                        <rect id="Rectangle-path" x="20.4" y="27.6" width="2.4" height="2.4"></rect>
                        <path d="M45,37.2 C40.699275,37.2 37.2,40.699275 37.2,45 C37.2,49.300725 40.699275,52.8 45,52.8 C49.300725,52.8 52.8,49.300725 52.8,45 C52.8,40.699275 49.300725,37.2 45,37.2 Z M45,50.85 C41.773725,50.85 39.15,48.226275 39.15,45 C39.15,41.773725 41.773725,39.15 45,39.15 C48.226275,39.15 50.85,41.773725 50.85,45 C50.85,48.226275 48.226275,50.85 45,50.85 Z" id="Shape"></path>
                        <path d="M59,42 L56.613,42 C56.334,40.908 55.906,39.873 55.336,38.907 L57.021,37.221 C57.412,36.83 57.412,36.198 57.021,35.807 L54.193,32.979 C53.802,32.588 53.17,32.588 52.779,32.979 L51.093,34.664 C50.127,34.093 49.092,33.666 48,33.386 L48,31 C48,30.448 47.553,30 47,30 L44,30 L44,27 C44,26.229 43.699,25.532 43.22,25 C43.7,24.468 44,23.771 44,23 L44,15 C44,14.229 43.699,13.532 43.22,13 C43.7,12.468 44,11.771 44,11 L44,3 C44,1.346 42.654,0 41,0 L3,0 C1.346,0 0,1.346 0,3 L0,11 C0,11.771 0.301,12.468 0.78,13 C0.301,13.532 0,14.229 0,15 L0,23 C0,23.771 0.301,24.468 0.78,25 C0.301,25.532 0,26.229 0,27 L0,35 C0,36.654 1.346,38 3,38 L33.757,38 L34.664,38.907 C34.094,39.873 33.666,40.908 33.387,42 L31,42 C30.447,42 30,42.448 30,43 L30,47 C30,47.552 30.447,48 31,48 L33.387,48 C33.666,49.092 34.094,50.127 34.664,51.093 L32.979,52.779 C32.588,53.17 32.588,53.802 32.979,54.193 L35.807,57.021 C36.198,57.412 36.83,57.412 37.221,57.021 L38.907,55.336 C39.873,55.907 40.908,56.334 42,56.614 L42,59 C42,59.552 42.447,60 43,60 L47,60 C47.553,60 48,59.552 48,59 L48,56.613 C49.092,56.333 50.127,55.906 51.093,55.335 L52.779,57.02 C53.17,57.411 53.802,57.411 54.193,57.02 L57.021,54.192 C57.412,53.801 57.412,53.169 57.021,52.778 L55.336,51.092 C55.906,50.126 56.334,49.091 56.613,47.999 L59,47.999 C59.553,47.999 60,47.551 60,46.999 L60,42.999 C60,42.448 59.553,42 59,42 Z M2,3 C2,2.449 2.448,2 3,2 L41,2 C41.552,2 42,2.449 42,3 L42,11 C42,11.551 41.552,12 41,12 L3,12 C2.448,12 2,11.551 2,11 L2,3 Z M2,15 C2,14.449 2.448,14 3,14 L41,14 C41.552,14 42,14.449 42,15 L42,23 C42,23.551 41.552,24 41,24 L3,24 C2.448,24 2,23.551 2,23 L2,15 Z M32.979,35.808 C32.919,35.867 32.87,35.932 32.829,36 L3,36 C2.448,36 2,35.551 2,35 L2,27 C2,26.449 2.448,26 3,26 L41,26 C41.552,26 42,26.449 42,27 L42,31 L42,33.387 C40.908,33.667 39.873,34.094 38.907,34.665 L38.242,34 L39,34 C39.553,34 40,33.552 40,33 L40,29 C40,28.448 39.553,28 39,28 L30,28 C29.447,28 29,28.448 29,29 L29,33 C29,33.552 29.447,34 30,34 L34.787,34 L32.979,35.808 Z M38,30 L38,32 L31,32 L31,30 L38,30 Z M58,46 L55.81,46 C55.328,46 54.914,46.344 54.827,46.819 C54.57,48.214 54.036,49.507 53.238,50.665 C52.965,51.062 53.013,51.598 53.354,51.939 L54.9,53.485 L53.486,54.899 L51.939,53.353 C51.597,53.012 51.061,52.963 50.665,53.237 C49.508,54.034 48.214,54.569 46.82,54.826 C46.345,54.914 46,55.327 46,55.81 L46,58 L44,58 L44,55.81 C44,55.328 43.655,54.914 43.181,54.827 C41.787,54.57 40.493,54.035 39.336,53.238 C38.94,52.965 38.403,53.013 38.062,53.354 L36.515,54.9 L35.101,53.486 L36.647,51.94 C36.988,51.599 37.037,51.063 36.763,50.666 C35.965,49.508 35.431,48.215 35.174,46.82 C35.087,46.344 34.673,46 34.19,46 L32,46 L32,44 L34.19,44 C34.672,44 35.086,43.656 35.173,43.181 C35.43,41.786 35.964,40.493 36.762,39.335 C37.035,38.938 36.987,38.402 36.646,38.061 L35.1,36.515 L36.514,35.101 L38.061,36.647 C38.403,36.988 38.939,37.037 39.335,36.763 C40.492,35.966 41.786,35.431 43.18,35.174 C43.655,35.086 44,34.673 44,34.19 L44,32 L46,32 L46,34.19 C46,34.672 46.345,35.086 46.819,35.173 C48.213,35.43 49.507,35.965 50.664,36.762 C51.06,37.035 51.597,36.987 51.938,36.646 L53.485,35.1 L54.899,36.514 L53.353,38.06 C53.012,38.401 52.963,38.937 53.237,39.334 C54.035,40.492 54.569,41.785 54.826,43.18 C54.913,43.656 55.327,44 55.81,44 L58,44 L58,46 Z" id="Shape"></path>
                        <rect id="Rectangle-path" x="54" y="28.8" width="2.4" height="2.4"></rect>
                        <rect id="Rectangle-path" x="54" y="25.2" width="2.4" height="2.4"></rect>
                        <rect id="Rectangle-path" x="54" y="21.6" width="2.4" height="2.4"></rect>
                        <rect id="Rectangle-path" x="54" y="16.8" width="2.4" height="2.4"></rect>
                        <rect id="Rectangle-path" x="54" y="13.2" width="2.4" height="2.4"></rect>
                        <rect id="Rectangle-path" x="54" y="9.6" width="2.4" height="2.4"></rect>
                        <rect id="Rectangle-path" x="54" y="4.8" width="2.4" height="2.4"></rect>
                        <rect id="Rectangle-path" x="50.4" y="4.8" width="2.4" height="2.4"></rect>
                        <rect id="Rectangle-path" x="45.6" y="4.8" width="2.4" height="2.4"></rect>
                        <rect id="Rectangle-path" x="28.8" y="51.6" width="2.4" height="2.4"></rect>
                        <rect id="Rectangle-path" x="25.2" y="51.6" width="2.4" height="2.4"></rect>
                        <rect id="Rectangle-path" x="21.6" y="51.6" width="2.4" height="2.4"></rect>
                        <rect id="Rectangle-path" x="16.8" y="51.6" width="2.4" height="2.4"></rect>
                        <rect id="Rectangle-path" x="13.2" y="51.6" width="2.4" height="2.4"></rect>
                        <rect id="Rectangle-path" x="9.6" y="51.6" width="2.4" height="2.4"></rect>
                        <rect id="Rectangle-path" x="9.6" y="48" width="2.4" height="2.4"></rect>
                        <rect id="Rectangle-path" x="9.6" y="44.4" width="2.4" height="2.4"></rect>
                        <rect id="Rectangle-path" x="9.6" y="39.6" width="2.4" height="2.4"></rect>
                    </g>
                </g>
            </g>
        </g>
    </g>
</svg>