<?xml version="1.0" encoding="UTF-8"?>
<svg width="60px" height="60px" viewBox="0 0 60 60" version="1.1" xmlns="http://www.w3.org/2000/svg" xmlns:xlink="http://www.w3.org/1999/xlink">
    <!-- Generator: Sketch 49.2 (51160) - http://www.bohemiancoding.com/sketch -->
    <title>tech-integrations</title>
    <desc>Created with Sketch.</desc>
    <defs></defs>
    <g id="Home" stroke="none" stroke-width="1" fill="none" fill-rule="evenodd" opacity="0.800000012">
        <g id="1-Home-[Opt-1]-[desktop]" transform="translate(-280.000000, -2477.000000)" fill="#3986E0" fill-rule="nonzero">
            <g id="Technologies" transform="translate(0.000000, 1704.000000)">
                <g id="T1" transform="translate(120.000000, 729.000000)">
                    <g id="tech-integrations" transform="translate(160.000000, 44.000000)">
                        <path d="M56.0470588,47 C55.3493647,47 54.6674824,47.192 54.0705882,47.545 L54.0705882,43 C54.0705882,42.447 53.6278588,42 53.0823529,42 L46.6143529,42 C46.9632,41.396 47.1529412,40.706 47.1529412,40 C47.1529412,37.794 45.3800471,36 43.2,36 C41.0199529,36 39.2470588,37.794 39.2470588,40 C39.2470588,40.706 39.4368,41.396 39.7856471,42 L33.3176471,42 C32.7721412,42 32.3294118,42.447 32.3294118,43 L32.3294118,47.545 C31.7325176,47.192 31.0506353,47 30.3529412,47 C28.1728941,47 26.4,48.794 26.4,51 C26.4,53.206 28.1728941,55 30.3529412,55 C31.0506353,55 31.7325176,54.808 32.3294118,54.455 L32.3294118,59 C32.3294118,59.553 32.7721412,60 33.3176471,60 L53.0823529,60 C53.6278588,60 54.0705882,59.553 54.0705882,59 L54.0705882,54.455 C54.6674824,54.808 55.3493647,55 56.0470588,55 C58.2271059,55 60,53.206 60,51 C60,48.794 58.2271059,47 56.0470588,47 Z M56.0470588,53 C55.4896941,53 54.9698824,52.763 54.5854588,52.33 C54.3986824,52.12 54.1318588,52 53.8512,52 L53.0823529,52 C52.5368471,52 52.0941176,52.447 52.0941176,53 L52.0941176,58 L34.3058824,58 L34.3058824,53 C34.3058824,52.447 33.8631529,52 33.3176471,52 L32.5488,52 C32.2691294,52 32.0023059,52.12 31.8145412,52.33 C31.4301176,52.763 30.9103059,53 30.3529412,53 C29.2629176,53 28.3764706,52.103 28.3764706,51 C28.3764706,49.897 29.2629176,49 30.3529412,49 C30.9103059,49 31.4301176,49.237 31.8145412,49.67 C32.0013176,49.88 32.2681412,50 32.5488,50 L33.3176471,50 C33.8631529,50 34.3058824,49.553 34.3058824,49 L34.3058824,44 L41.2235294,44 C41.7690353,44 42.2117647,43.553 42.2117647,43 L42.2117647,42.222 C42.2117647,41.939 42.0931765,41.669 41.8856471,41.48 C41.4587294,41.09 41.2235294,40.564 41.2235294,40 C41.2235294,38.897 42.1099765,38 43.2,38 C44.2900235,38 45.1764706,38.897 45.1764706,40 C45.1764706,40.564 44.9412706,41.09 44.5143529,41.479 C44.3068235,41.669 44.1882353,41.938 44.1882353,42.222 L44.1882353,43 C44.1882353,43.553 44.6309647,44 45.1764706,44 L52.0941176,44 L52.0941176,49 C52.0941176,49.553 52.5368471,50 53.0823529,50 L53.8512,50 C54.1308706,50 54.3976941,49.88 54.5854588,49.67 C54.9698824,49.237 55.4896941,49 56.0470588,49 C57.1370824,49 58.0235294,49.897 58.0235294,51 C58.0235294,52.103 57.1370824,53 56.0470588,53 Z" id="Shape"></path>
                        <path d="M59,0 L1,0 C0.448,0 0,0.455127273 0,1.01818182 L0,32.5818182 C0,33.1448727 0.448,33.6 1,33.6 L20,33.6 C20.552,33.6 21,33.1448727 21,32.5818182 L21,26.4727273 C21,25.9096727 20.552,25.4545455 20,25.4545455 L19.222,25.4545455 C18.939,25.4545455 18.669,25.5767273 18.479,25.7905455 C18.09,26.2314182 17.564,26.4727273 17,26.4727273 C15.897,26.4727273 15,25.5594182 15,24.4363636 C15,23.3133091 15.897,22.4 17,22.4 C17.564,22.4 18.09,22.6413091 18.479,23.0821818 C18.668,23.296 18.938,23.4181818 19.222,23.4181818 L20,23.4181818 C20.552,23.4181818 21,22.9630545 21,22.4 L21,17.3090909 L28,17.3090909 C28.552,17.3090909 29,16.8539636 29,16.2909091 L29,15.4987636 C29,15.2106182 28.88,14.9357091 28.67,14.7432727 C28.238,14.3461818 28,13.8106182 28,13.2363636 C28,12.1133091 28.897,11.2 30,11.2 C31.103,11.2 32,12.1133091 32,13.2363636 C32,13.8106182 31.762,14.3461818 31.33,14.7422545 C31.12,14.9357091 31,15.2096 31,15.4987636 L31,16.2909091 C31,16.8539636 31.448,17.3090909 32,17.3090909 L39,17.3090909 L39,22.4 C39,22.9630545 39.448,23.4181818 40,23.4181818 L40.778,23.4181818 C41.061,23.4181818 41.331,23.296 41.521,23.0821818 C41.91,22.6413091 42.436,22.4 43,22.4 C44.103,22.4 45,23.3133091 45,24.4363636 C45,25.5594182 44.103,26.4727273 43,26.4727273 C42.436,26.4727273 41.91,26.2314182 41.521,25.7905455 C41.332,25.5767273 41.062,25.4545455 40.778,25.4545455 L40,25.4545455 C39.448,25.4545455 39,25.9096727 39,26.4727273 L39,32.5818182 C39,33.1448727 39.448,33.6 40,33.6 L59,33.6 C59.552,33.6 60,33.1448727 60,32.5818182 L60,1.01818182 C60,0.455127273 59.552,0 59,0 Z M58,31.5636364 L41,31.5636364 L41,27.9541818 C41.604,28.3136 42.294,28.5090909 43,28.5090909 C45.206,28.5090909 47,26.6824727 47,24.4363636 C47,22.1902545 45.206,20.3636364 43,20.3636364 C42.294,20.3636364 41.604,20.5591273 41,20.9185455 L41,16.2909091 C41,15.7278545 40.552,15.2727273 40,15.2727273 L33.455,15.2727273 C33.808,14.6577455 34,13.9552 34,13.2363636 C34,10.9902545 32.206,9.16363636 30,9.16363636 C27.794,9.16363636 26,10.9902545 26,13.2363636 C26,13.9552 26.192,14.6577455 26.545,15.2727273 L20,15.2727273 C19.448,15.2727273 19,15.7278545 19,16.2909091 L19,20.9185455 C18.396,20.5591273 17.706,20.3636364 17,20.3636364 C14.794,20.3636364 13,22.1902545 13,24.4363636 C13,26.6824727 14.794,28.5090909 17,28.5090909 C17.706,28.5090909 18.396,28.3136 19,27.9541818 L19,31.5636364 L2,31.5636364 L2,2.03636364 L58,2.03636364 L58,31.5636364 Z" id="Shape"></path>
                        <path d="M29.5209688,20.6977558 C29.1222435,20.3007481 28.4777565,20.3007481 28.0790312,20.6977558 L24,24.7592162 L25.4419375,26.1949424 L27.7802422,23.8667103 L27.7802422,33.6 L29.8197578,33.6 L29.8197578,23.8667103 L32.1580625,26.1949424 L33.6,24.7592162 L29.5209688,20.6977558 Z" id="Shape"></path>
                        <rect id="Rectangle-path" x="27.6" y="34.8" width="2.4" height="2.4"></rect>
                        <rect id="Rectangle-path" x="27.6" y="39.6" width="2.4" height="2.4"></rect>
                        <rect id="Rectangle-path" x="27.6" y="43.2" width="2.4" height="2.4"></rect>
                        <rect id="Rectangle-path" x="6" y="34.8" width="2.4" height="2.4"></rect>
                        <rect id="Rectangle-path" x="6" y="39.6" width="2.4" height="2.4"></rect>
                        <rect id="Rectangle-path" x="6" y="43.2" width="2.4" height="2.4"></rect>
                        <rect id="Rectangle-path" x="6" y="46.8" width="2.4" height="2.4"></rect>
                        <rect id="Rectangle-path" x="6" y="51.6" width="2.4" height="2.4"></rect>
                        <rect id="Rectangle-path" x="9.6" y="51.6" width="2.4" height="2.4"></rect>
                        <rect id="Rectangle-path" x="14.4" y="51.6" width="2.4" height="2.4"></rect>
                        <rect id="Rectangle-path" x="18" y="51.6" width="2.4" height="2.4"></rect>
                        <rect id="Rectangle-path" x="21.6" y="51.6" width="2.4" height="2.4"></rect>
                    </g>
                </g>
            </g>
        </g>
    </g>
</svg>