<?xml version="1.0" encoding="UTF-8"?>
<svg width="60px" height="60px" viewBox="0 0 60 60" version="1.1" xmlns="http://www.w3.org/2000/svg" xmlns:xlink="http://www.w3.org/1999/xlink">
    <!-- Generator: Sketch 49.2 (51160) - http://www.bohemiancoding.com/sketch -->
    <title>tech-mobile</title>
    <desc>Created with Sketch.</desc>
    <defs></defs>
    <g id="Home" stroke="none" stroke-width="1" fill="none" fill-rule="evenodd" opacity="0.800000012">
        <g id="1-Home-[Opt-1]-[desktop]" transform="translate(-690.000000, -2477.000000)" fill="#3986E0" fill-rule="nonzero">
            <g id="Technologies" transform="translate(0.000000, 1704.000000)">
                <g id="T2" transform="translate(530.000000, 729.000000)">
                    <g id="tech-mobile" transform="translate(160.000000, 44.000000)">
                        <path d="M39.0215,24 L39.0215,5 C39.0215,2.243 36.7785,0 34.0215,0 L5.0215,0 C2.2645,0 0.0215,2.243 0.0215,5 L0.0215,55 C0.0215,57.757 2.2645,60 5.0215,60 L34.0215,60 C36.7785,60 39.0215,57.757 39.0215,55 L39.0215,41 L37.0215,41 L37.0215,51 L35.0215,51 L35.0215,42 C35.0215,41.447 34.5735,41 34.0215,41 L22.0215,41 C21.4695,41 21.0215,41.447 21.0215,42 L21.0215,51 L19.0215,51 L19.0215,42 C19.0215,41.447 18.5735,41 18.0215,41 L5.0215,41 C4.4695,41 4.0215,41.447 4.0215,42 L4.0215,51 L2.0215,51 L2.0215,9 L37.0215,9 L37.0215,24 L39.0215,24 Z M23.0215,43 L33.0215,43 L33.0215,51 L23.0215,51 L23.0215,43 Z M6.0215,43 L17.0215,43 L17.0215,51 L6.0215,51 L6.0215,43 Z M5.0215,53 L18.0215,53 L22.0215,53 L34.0215,53 L37.0215,53 L37.0215,55 C37.0215,56.654 35.6755,58 34.0215,58 L5.0215,58 C3.3675,58 2.0215,56.654 2.0215,55 L2.0215,53 L5.0215,53 Z M2.0215,7 L2.0215,5 C2.0215,3.346 3.3675,2 5.0215,2 L34.0215,2 C35.6755,2 37.0215,3.346 37.0215,5 L37.0215,7 L2.0215,7 Z" id="Shape"></path>
                        <path d="M18.0215,11 L5.0215,11 C4.4695,11 4.0215,11.447 4.0215,12 L4.0215,23 C4.0215,23.553 4.4695,24 5.0215,24 L18.0215,24 C18.5735,24 19.0215,23.553 19.0215,23 L19.0215,12 C19.0215,11.447 18.5735,11 18.0215,11 Z M17.0215,22 L6.0215,22 L6.0215,13 L17.0215,13 L17.0215,22 Z" id="Shape"></path>
                        <path d="M57.0215,51.058 C56.3855,50.407 55.5015,50 54.5215,50 C53.5415,50 52.6575,50.407 52.0215,51.058 C51.3855,50.407 50.5015,50 49.5215,50 C48.9825,50 48.4775,50.133 48.0215,50.351 L48.0215,40.5 C48.0215,39.109 47.1995,37.915 46.0215,37.351 L46.0215,27 C46.0215,26.447 45.5735,26 45.0215,26 L18.0215,26 C17.4695,26 17.0215,26.447 17.0215,27 L17.0215,38 C17.0215,38.553 17.4695,39 18.0215,39 L41.3725,39 C41.1545,39.456 41.0215,39.961 41.0215,40.5 L41.0215,60 L43.0215,60 L43.0215,40.5 C43.0215,39.673 43.6945,39 44.5215,39 C45.3485,39 46.0215,39.673 46.0215,40.5 L46.0215,53.5 L46.0215,60 L48.0215,60 L48.0215,53.5 C48.0215,52.673 48.6945,52 49.5215,52 C50.3485,52 51.0215,52.673 51.0215,53.5 L51.0215,60 L53.0215,60 L53.0215,53.5 C53.0215,52.673 53.6945,52 54.5215,52 C55.3485,52 56.0215,52.673 56.0215,53.5 L56.0215,60 L58.0215,60 L58.0215,53.5 C58.0215,52.673 58.6945,52 59.5215,52 L59.5215,50 C58.5415,50 57.6575,50.407 57.0215,51.058 Z M44.0215,37 L19.0215,37 L19.0215,28 L44.0215,28 L44.0215,37 Z" id="Shape"></path>
                        <rect id="Rectangle-path" x="12.0215" y="31" width="2" height="2"></rect>
                        <rect id="Rectangle-path" x="8.0215" y="31" width="2" height="2"></rect>
                        <rect id="Rectangle-path" x="4.0215" y="31" width="2" height="2"></rect>
                        <rect id="Rectangle-path" x="21.0215" y="12" width="14" height="2"></rect>
                        <rect id="Rectangle-path" x="21.0215" y="16" width="14" height="2"></rect>
                        <rect id="Rectangle-path" x="21.0215" y="20" width="14" height="2"></rect>
                        <path d="M52.7285,29.707 L51.3145,28.293 L48.3145,31.293 C47.9235,31.684 47.9235,32.316 48.3145,32.707 L51.3145,35.707 L52.7285,34.293 L50.4355,32 L52.7285,29.707 Z" id="Shape"></path>
                        <path d="M59.7285,29.707 L58.3145,28.293 L55.3145,31.293 C54.9235,31.684 54.9235,32.316 55.3145,32.707 L58.3145,35.707 L59.7285,34.293 L57.4355,32 L59.7285,29.707 Z" id="Shape"></path>
                        <rect id="Rectangle-path" x="32.0215" y="31" width="10" height="2"></rect>
                        <rect id="Rectangle-path" x="27.0215" y="31" width="3" height="2"></rect>
                        <rect id="Rectangle-path" x="23.0215" y="31" width="2" height="2"></rect>
                    </g>
                </g>
            </g>
        </g>
    </g>
</svg>