<?xml version="1.0" encoding="UTF-8"?>
<svg width="60px" height="60px" viewBox="0 0 60 60" version="1.1" xmlns="http://www.w3.org/2000/svg" xmlns:xlink="http://www.w3.org/1999/xlink">
    <!-- Generator: Sketch 49.2 (51160) - http://www.bohemiancoding.com/sketch -->
    <title>tech-front-end</title>
    <desc>Created with Sketch.</desc>
    <defs></defs>
    <g id="Home" stroke="none" stroke-width="1" fill="none" fill-rule="evenodd" opacity="0.800000012">
        <g id="1-Home-[Opt-1]-[desktop]" transform="translate(-280.000000, -2040.000000)" fill="#287CDD" fill-rule="nonzero">
            <g id="Technologies" transform="translate(0.000000, 1704.000000)">
                <g id="T1" transform="translate(120.000000, 292.000000)">
                    <g id="tech-front-end" transform="translate(160.000000, 44.000000)">
                        <path d="M55,0 L5,0 C2.243,0 0,2.243 0,5 L0,57 C0,58.654 1.346,60 3,60 L57,60 C58.654,60 60,58.654 60,57 L60,5 C60,2.243 57.757,0 55,0 Z M16,57 C16,57.552 15.552,58 15,58 L3,58 C2.448,58 2,57.552 2,57 L2,56 L16,56 L16,57 Z M16,54 L2,54 L2,37 L16,37 L16,54 Z M16,35 L2,35 L2,34 C2,33.448 2.448,33 3,33 L15,33 C15.552,33 16,33.448 16,34 L16,35 Z M17.829,58.001 L17.829,58 C17.859,57.914 17.876,57.822 17.899,57.733 C17.913,57.676 17.932,57.622 17.943,57.564 C17.978,57.381 18,57.193 18,57 L18,56 L31,56 L31,57 C31,57.193 31.022,57.381 31.057,57.564 C31.068,57.622 31.087,57.676 31.101,57.733 C31.124,57.823 31.14,57.915 31.171,58.001 L17.829,58.001 Z M18.35,54 L18,54 L18,47 L21.461,47 L18.35,54 Z M23.649,47 L31,47 L31,54 L20.539,54 L23.649,47 Z M31,41 L31,45 L18,45 L18,40 L31.184,40 C31.072,40.314 31,40.648 31,41 Z M35,58 L34,58 C33.448,58 33,57.552 33,57 L33,55 L33,41 C33,40.448 33.448,40 34,40 L35,40 L35,58 Z M54,58 L37,58 L37,40 L54,40 L54,58 Z M58,57 C58,57.552 57.552,58 57,58 L56,58 L56,40 L57,40 C57.306,40 57.6,40.146 57.797,40.401 C57.932,40.572 58,40.773 58,41 L58,57 Z M58,38 L18,38 L18,36 L18,34 C18,32.346 16.654,31 15,31 L3,31 C2.648,31 2.314,31.072 2,31.184 L2,5 C2,3.346 3.346,2 5,2 L55,2 C56.654,2 58,3.346 58,5 L58,38 Z M24.9361084,21.4610167 L30.0532655,16.3438596 L31.4081958,17.69879 L26.2910387,22.8159471 L24.9361084,21.4610167 Z M32.612768,19.5084068 L37.7299251,14.3912497 L39.0848555,15.74618 L33.9676984,20.8633371 L32.612768,19.5084068 Z M27.4854411,25.6341067 L30.8971305,22.2224174 L32.2542648,23.5795517 L28.8425754,26.991241 L27.4854411,25.6341067 Z M31.7451943,13.9284096 L35.1653269,10.5082769 L36.5224463,11.8653963 L33.1023136,15.2855289 L31.7451943,13.9284096 Z" id="Shape"></path>
                    </g>
                </g>
            </g>
        </g>
    </g>
</svg>