<?xml version="1.0" encoding="UTF-8"?>
<svg width="60px" height="60px" viewBox="0 0 60 60" version="1.1" xmlns="http://www.w3.org/2000/svg" xmlns:xlink="http://www.w3.org/1999/xlink">
    <!-- Generator: Sketch 49.2 (51160) - http://www.bohemiancoding.com/sketch -->
    <title>tech-data-bases</title>
    <desc>Created with Sketch.</desc>
    <defs></defs>
    <g id="Home" stroke="none" stroke-width="1" fill="none" fill-rule="evenodd" opacity="0.800000012">
        <g id="1-Home-[Opt-1]-[desktop]" transform="translate(-1100.000000, -2041.000000)" fill="#3986E0" fill-rule="nonzero">
            <g id="Technologies" transform="translate(0.000000, 1704.000000)">
                <g id="T3" transform="translate(940.000000, 292.000000)">
                    <g id="tech-data-bases" transform="translate(160.000000, 45.000000)">
                        <rect id="Rectangle-path" x="21" y="20" width="2" height="2"></rect>
                        <rect id="Rectangle-path" x="17" y="20" width="2" height="2"></rect>
                        <rect id="Rectangle-path" x="13" y="20" width="2" height="2"></rect>
                        <path d="M59,30 L56,30 L56,11 C56,8.243 53.757,6 51,6 L27.535,6 L23.832,0.445 C23.646,0.167 23.334,0 23,0 L9,0 C8.666,0 8.354,0.167 8.168,0.445 L4.426,6.058 C1.942,6.347 0,8.44 0,11 L0,45 C0,47.757 2.243,50 5,50 L37.014,50 C39.181,54.037 42.426,57.489 46.496,59.863 C46.651,59.954 46.826,60 47,60 C47.174,60 47.349,59.954 47.504,59.863 C55.212,55.367 60,47.03 60,38.107 L60,31 C60,30.447 59.553,30 59,30 Z M9.535,2 L22.465,2 L25.132,6 L6.868,6 L9.535,2 Z M5,8 L27,8 L51,8 C52.654,8 54,9.346 54,11 L54,15 L34.48,15 L30.781,10.375 C30.591,10.138 30.304,10 30,10 L2.184,10 C2.598,8.839 3.698,8 5,8 Z M5,48 C3.346,48 2,46.654 2,45 L2,12 L29.52,12 L33.219,16.625 C33.409,16.862 33.696,17 34,17 L54,17 L54,30 L35,30 C34.447,30 34,30.447 34,31 L34,38.107 C34,38.604 34.02,39.102 34.05,39.598 C34.06,39.765 34.075,39.931 34.088,40.098 C34.115,40.43 34.148,40.761 34.188,41.092 C34.211,41.279 34.233,41.465 34.26,41.651 C34.311,42.004 34.371,42.356 34.437,42.707 C34.462,42.843 34.483,42.98 34.51,43.115 C34.606,43.588 34.719,44.057 34.842,44.524 C34.877,44.656 34.917,44.786 34.954,44.917 C35.058,45.286 35.169,45.652 35.29,46.016 C35.329,46.135 35.37,46.253 35.411,46.372 C35.562,46.806 35.723,47.235 35.897,47.66 C35.909,47.69 35.92,47.72 35.933,47.749 C35.966,47.833 35.996,47.918 36.031,48 L5,48 Z M58,38.107 C58,46.126 53.801,53.629 47,57.834 C43.205,55.488 40.222,52.113 38.325,48.195 C38.283,48.109 38.244,48.022 38.204,47.936 C38.048,47.603 37.899,47.266 37.759,46.925 C37.707,46.798 37.656,46.67 37.606,46.542 C37.49,46.246 37.38,45.947 37.276,45.646 C37.217,45.475 37.159,45.303 37.104,45.13 C37.021,44.869 36.944,44.606 36.87,44.342 C36.812,44.136 36.755,43.93 36.703,43.723 C36.643,43.484 36.59,43.244 36.538,43.003 C36.489,42.777 36.439,42.551 36.397,42.324 C36.353,42.086 36.317,41.846 36.28,41.606 C36.245,41.38 36.208,41.155 36.179,40.928 C36.145,40.654 36.122,40.378 36.098,40.102 C36.081,39.91 36.059,39.718 36.047,39.525 C36.017,39.055 36,38.582 36,38.107 L36,32 L55,32 L58,32 L58,38.107 Z" id="Shape"></path>
                        <path d="M53.293,39.293 L46,46.586 L42.707,43.293 L41.293,44.707 L45.293,48.707 C45.488,48.902 45.744,49 46,49 C46.256,49 46.512,48.902 46.707,48.707 L54.707,40.707 L53.293,39.293 Z" id="Shape"></path>
                        <rect id="Rectangle-path" x="38" y="34" width="2" height="2"></rect>
                        <rect id="Rectangle-path" x="42" y="34" width="2" height="2"></rect>
                        <rect id="Rectangle-path" x="46" y="34" width="2" height="2"></rect>
                        <rect id="Rectangle-path" x="50" y="34" width="2" height="2"></rect>
                        <rect id="Rectangle-path" x="54" y="34" width="2" height="2"></rect>
                        <path d="M18,14 C10.71,14 5,17.075 5,21 L5,27 L5,33 L5,39 C5,42.925 10.71,46 18,46 C25.29,46 31,42.925 31,39 L31,33 L31,27 L31,21 C31,17.075 25.29,14 18,14 Z M29,39 C29,41.365 24.482,44 18,44 C11.518,44 7,41.365 7,39 L7,36.768 C9.282,38.722 13.309,40 18,40 C22.691,40 26.718,38.722 29,36.768 L29,39 Z M29,33 C29,35.365 24.482,38 18,38 C11.518,38 7,35.365 7,33 L7,30.768 C9.282,32.722 13.309,34 18,34 C22.691,34 26.718,32.722 29,30.768 L29,33 Z M29,27 C29,29.365 24.482,32 18,32 C11.518,32 7,29.365 7,27 L7,24.768 C9.282,26.722 13.309,28 18,28 C22.691,28 26.718,26.722 29,24.768 L29,27 Z M18,26 C11.518,26 7,23.365 7,21 C7,18.635 11.518,16 18,16 C24.482,16 29,18.635 29,21 C29,23.365 24.482,26 18,26 Z" id="Shape"></path>
                    </g>
                </g>
            </g>
        </g>
    </g>
</svg>