<?xml version="1.0" encoding="UTF-8"?>
<svg width="50px" height="40px" viewBox="0 0 50 40" version="1.1" xmlns="http://www.w3.org/2000/svg" xmlns:xlink="http://www.w3.org/1999/xlink">
    <!-- Generator: sketchtool 49.3 (51167) - http://www.bohemiancoding.com/sketch -->
    <title>4F7CB2F8-6944-4CE3-9B50-53803FB70299</title>
    <desc>Created with sketchtool.</desc>
    <defs></defs>
    <g id="Cases" stroke="none" stroke-width="1" fill="none" fill-rule="evenodd" opacity="0.18">
        <g id="Volition-[mobile]" transform="translate(-316.000000, -4365.000000)" fill="#9EC4F0" fill-rule="nonzero">
            <g id="Hear-from..." transform="translate(0.000000, 3729.000000)">
                <g id="testimonial" transform="translate(10.000000, 390.000000)">
                    <g id="left-quote-2" transform="translate(306.000000, 246.000000)">
                        <path d="M28.4615385,22.05 L28.4615385,0 L50,0 L50,22.365 C50,37.485 36.1538462,39.375 36.1538462,39.375 L34.3076923,34.965 C34.3076923,34.965 40.4615385,34.02 41.6923077,28.98 C42.9230769,25.2 40.4615385,22.05 40.4615385,22.05 L28.4615385,22.05 Z" id="Shape"></path>
                        <path d="M0,22.05 L0,0 L21.5384615,0 L21.5384615,22.365 C21.5384615,37.485 7.69230769,39.375 7.69230769,39.375 L5.84615385,34.965 C5.84615385,34.965 12,34.02 13.2307692,28.98 C14.4615385,25.2 12,22.05 12,22.05 L0,22.05 Z" id="Shape"></path>
                    </g>
                </g>
            </g>
        </g>
    </g>
</svg>