<?xml version="1.0" encoding="UTF-8"?>
<svg width="15px" height="21px" viewBox="0 0 15 21" version="1.1" xmlns="http://www.w3.org/2000/svg" xmlns:xlink="http://www.w3.org/1999/xlink">
    <!-- Generator: sketchtool 49.3 (51167) - http://www.bohemiancoding.com/sketch -->
    <title>81E2CDC5-15D5-4C45-B263-AA2B00D35B14</title>
    <desc>Created with sketchtool.</desc>
    <defs></defs>
    <g id="Cases" stroke="none" stroke-width="1" fill="none" fill-rule="evenodd">
        <g id="Volition" transform="translate(-1000.000000, -744.000000)" fill="#B4BCC8">
            <g id="stat" transform="translate(0.000000, 700.000000)">
                <g id="location" transform="translate(1000.000000, 40.000000)">
                    <path d="M6.71875,24.10937 C6.04166687,23.1197892 5.16927063,21.8697922 4.1015625,20.3593789 C2.79947937,18.4843834 1.94010437,17.2213658 1.5234375,16.5703254 C0.924479365,15.6328277 0.520833135,14.8450689 0.3125,14.2070498 C0.104166865,13.5690307 0,12.833355 0,12.0000238 C0,10.6458602 0.338541865,9.39586319 1.015625,8.25003278 C1.69270813,7.10420238 2.60416687,6.19274582 3.75,5.5156643 C4.89583313,4.83858278 6.14583313,4.50004172 7.5,4.50004172 C8.85416687,4.50004172 10.1041669,4.83858278 11.25,5.5156643 C12.3958331,6.19274582 13.3072919,7.10420238 13.984375,8.25003278 C14.6614581,9.39586319 15,10.6458602 15,12.0000238 C15,12.833355 14.8958331,13.5690307 14.6875,14.2070498 C14.4791669,14.8450689 14.0755206,15.6328277 13.4765625,16.5703254 C13.0598956,17.2213658 12.2005206,18.4843834 10.8984375,20.3593789 L8.28125,24.10937 C8.09895813,24.3697862 7.83854187,24.499994 7.5,24.499994 C7.16145813,24.499994 6.90104187,24.3697862 6.71875,24.10937 Z M7.49998212,15.1250164 C8.35935507,15.1250164 9.0950302,14.8190277 9.70700811,14.2070498 C10.318986,13.5950719 10.6249747,12.8593968 10.6249747,12.0000238 C10.6249747,11.1406509 10.318986,10.4049758 9.70700811,9.79299785 C9.0950302,9.18101995 8.35935507,8.87503129 7.49998212,8.87503129 C6.64060917,8.87503129 5.90493404,9.18101995 5.29295613,9.79299785 C4.68097822,10.4049758 4.37498957,11.1406509 4.37498957,12.0000238 C4.37498957,12.8593968 4.68097822,13.5950719 5.29295613,14.2070498 C5.90493404,14.8190277 6.64060917,15.1250164 7.49998212,15.1250164 Z" id="map-marker-alt"></path>
                </g>
            </g>
        </g>
    </g>
</svg>