<?xml version="1.0" encoding="UTF-8"?>
<svg width="17px" height="21px" viewBox="0 0 17 21" version="1.1" xmlns="http://www.w3.org/2000/svg" xmlns:xlink="http://www.w3.org/1999/xlink">
    <!-- Generator: sketchtool 49.3 (51167) - http://www.bohemiancoding.com/sketch -->
    <title>FBC48B59-72AC-4C0A-8D09-1A23E6B757FB</title>
    <desc>Created with sketchtool.</desc>
    <defs></defs>
    <g id="Cases" stroke="none" stroke-width="1" fill="none" fill-rule="evenodd">
        <g id="Volition" transform="translate(-664.000000, -744.000000)" fill="#B4BCC8">
            <g id="stat" transform="translate(0.000000, 700.000000)">
                <g id="timeline" transform="translate(664.000000, 40.000000)">
                    <path d="M16.8749598,16.3750134 C16.8749598,17.8593849 16.5103775,19.2200585 15.7812124,20.4570349 C15.0520472,21.6940113 14.0689771,22.6770815 12.8320007,23.4062466 C11.5950242,24.1354118 10.2343506,24.499994 8.74997914,24.499994 C7.26560768,24.499994 5.90493404,24.1354118 4.66795762,23.4062466 C3.4309812,22.6770815 2.44791103,21.6940113 1.7187459,20.4570349 C0.989580775,19.2200585 0.62499851,17.8593849 0.62499851,16.3750134 C0.62499851,15.0468916 0.924477161,13.8034052 1.52343387,12.6445536 C2.12239057,11.485702 2.94921172,10.528673 4.0038967,9.77346665 C5.05858169,9.01826032 6.2239433,8.54951143 7.49998212,8.36722 L7.49998212,7.00003576 L6.40623473,7.00003576 C6.2760269,7.00003576 6.16534969,6.95446276 6.07420427,6.86331734 C5.98305885,6.77217192 5.93748584,6.6614947 5.93748584,6.53128688 L5.93748584,4.96879061 C5.93748584,4.83858278 5.98305885,4.72790556 6.07420427,4.63676015 C6.16534969,4.54561473 6.2760269,4.50004172 6.40623473,4.50004172 L11.0937236,4.50004172 C11.2239314,4.50004172 11.3346086,4.54561473 11.425754,4.63676015 C11.5168994,4.72790556 11.5624724,4.83858278 11.5624724,4.96879061 L11.5624724,6.53128688 C11.5624724,6.6614947 11.5168994,6.77217192 11.425754,6.86331734 C11.3346086,6.95446276 11.2239314,7.00003576 11.0937236,7.00003576 L9.99997616,7.00003576 L9.99997616,8.3281576 C11.4583058,8.56253204 12.7603864,9.14846814 13.9062168,10.0859659 L14.9609018,9.03128092 C15.0650684,8.9271143 15.1822557,8.87503129 15.3124635,8.87503129 C15.4426713,8.87503129 15.5468379,8.9271143 15.6249627,9.03128092 L16.7577725,10.1250283 C16.8358974,10.2031531 16.8749598,10.3073197 16.8749598,10.4375276 C16.8749598,10.5677354 16.8358974,10.6849226 16.7577725,10.7890892 L15.5859003,11.9609614 C16.4452733,13.2890833 16.8749598,14.7604341 16.8749598,16.3750134 Z M9.99997616,17.7812601 L9.99997616,11.8437742 C9.99997616,11.7396076 9.95440315,11.6354416 9.86325773,11.531275 C9.77211232,11.4271083 9.6614351,11.3750253 9.53122728,11.3750253 L7.968731,11.3750253 C7.83852318,11.3750253 7.72784596,11.4271083 7.63670054,11.531275 C7.54555513,11.6354416 7.49998212,11.7396076 7.49998212,11.8437742 L7.49998212,17.7812601 C7.49998212,17.9114679 7.54555513,18.0221451 7.63670054,18.1132905 C7.72784596,18.2044359 7.83852318,18.2500089 7.968731,18.2500089 L9.53122728,18.2500089 C9.6614351,18.2500089 9.77211232,18.2044359 9.86325773,18.1132905 C9.95440315,18.0221451 9.99997616,17.9114679 9.99997616,17.7812601 Z" id="stopwatch"></path>
                </g>
            </g>
        </g>
    </g>
</svg>