<?xml version="1.0" encoding="UTF-8"?>
<svg width="25px" height="15px" viewBox="0 0 25 15" version="1.1" xmlns="http://www.w3.org/2000/svg" xmlns:xlink="http://www.w3.org/1999/xlink">
    <!-- Generator: sketchtool 49.3 (51167) - http://www.bohemiancoding.com/sketch -->
    <title>2D615655-5A31-489C-879C-F2604E8DF1F9</title>
    <desc>Created with sketchtool.</desc>
    <defs></defs>
    <g id="Cases" stroke="none" stroke-width="1" fill="none" fill-rule="evenodd">
        <g id="Volition" transform="translate(-271.000000, -747.000000)" fill="#B4BCC8">
            <g id="stat" transform="translate(0.000000, 700.000000)">
                <g id="team" transform="translate(271.000000, 40.000000)">
                    <path d="M12.4999702,7.00003576 C13.2551765,7.00003576 13.9452793,7.18232719 14.5702778,7.54690946 C15.1952763,7.91149172 15.690067,8.40628241 16.0546492,9.03128092 C16.4192315,9.65627943 16.6015229,10.3463821 16.6015229,11.1015885 C16.6015229,11.8567948 16.4192315,12.5468975 16.0546492,13.171896 C15.690067,13.7968946 15.1952763,14.2916852 14.5702778,14.6562675 C13.9452793,15.0208498 13.2551765,15.2031412 12.4999702,15.2031412 C11.7447639,15.2031412 11.0546611,15.0208498 10.4296626,14.6562675 C9.80466412,14.2916852 9.30987344,13.7968946 8.94529117,13.171896 C8.58070891,12.5468975 8.39841748,11.8567948 8.39841748,11.1015885 C8.39841748,10.3463821 8.58070891,9.65627943 8.94529117,9.03128092 C9.30987344,8.40628241 9.80466412,7.91149172 10.4296626,7.54690946 C11.0546611,7.18232719 11.7447639,7.00003576 12.4999702,7.00003576 Z M16.9140222,15.4765781 C17.5650625,15.6328277 18.0858944,15.9648581 18.4765184,16.4726694 C18.8671425,16.9804807 19.0624546,17.5599062 19.0624546,18.2109465 L19.0624546,20.5937534 C19.0624546,20.9843774 18.9257361,21.3164079 18.6522993,21.5898447 C18.3788624,21.8632816 18.046832,22 17.6562079,22 L7.34373249,22 C6.95310842,22 6.62107796,21.8632816 6.34764112,21.5898447 C6.07420427,21.3164079 5.93748584,20.9843774 5.93748584,20.5937534 L5.93748584,18.2109465 C5.93748584,17.5599062 6.13279788,16.9804807 6.52342195,16.4726694 C6.91404602,15.9648581 7.43487791,15.6328277 8.08591822,15.4765781 L9.6484145,15.085954 C10.4296626,15.6588695 11.328098,15.9713687 12.3437206,16.0234517 C13.437468,16.0755348 14.4400699,15.7630355 15.3515259,15.085954 L16.9140222,15.4765781 Z M20.6249508,16.2187638 C19.8697445,16.2187638 19.2252148,15.9518375 18.6913617,15.4179844 C18.1575086,14.8841314 17.8905823,14.2396016 17.8905823,13.4843953 C17.8905823,12.729189 18.1575086,12.0846593 18.6913617,11.5508062 C19.2252148,11.0169531 19.8697445,10.7500268 20.6249508,10.7500268 C21.3801572,10.7500268 22.0246869,11.0169531 22.55854,11.5508062 C23.0923931,12.0846593 23.3593193,12.729189 23.3593193,13.4843953 C23.3593193,14.2396016 23.0923931,14.8841314 22.55854,15.4179844 C22.0246869,15.9518375 21.3801572,16.2187638 20.6249508,16.2187638 Z M4.37498957,16.2187638 C3.61978324,16.2187638 2.97525352,15.9518375 2.44140043,15.4179844 C1.90754734,14.8841314 1.64062109,14.2396016 1.64062109,13.4843953 C1.64062109,12.729189 1.90754734,12.0846593 2.44140043,11.5508062 C2.97525352,11.0169531 3.61978324,10.7500268 4.37498957,10.7500268 C5.1301959,10.7500268 5.77472562,11.0169531 6.30857871,11.5508062 C6.8424318,12.0846593 7.10935805,12.729189 7.10935805,13.4843953 C7.10935805,14.2396016 6.8424318,14.8841314 6.30857871,15.4179844 C5.77472562,15.9518375 5.1301959,16.2187638 4.37498957,16.2187638 Z M5.31248733,18.2109465 L5.31248733,20.750003 L0.937497765,20.750003 C0.67708152,20.750003 0.455728279,20.6588576 0.273436848,20.4765661 C0.0911454173,20.2942747 0,20.0729215 0,19.8125052 L0,18.2109465 C0,17.7942807 0.130207824,17.4166778 0.390624069,17.0781367 C0.651040313,16.7395957 0.989580775,16.5182424 1.40624665,16.4140758 L2.46093163,16.140639 C2.92968052,16.47918 3.46353361,16.6810021 4.06249031,16.7461063 C4.66144702,16.8112105 5.24738312,16.7135545 5.82029862,16.4531382 C5.48175757,17.0000119 5.31248733,17.585948 5.31248733,18.2109465 Z M23.5936937,16.4140758 C24.0103596,16.5182424 24.3489001,16.7395957 24.6093163,17.0781367 C24.8697326,17.4166778 24.9999404,17.7942807 24.9999404,18.2109465 L24.9999404,19.8125052 C24.9999404,20.0729215 24.908795,20.2942747 24.7265035,20.4765661 C24.5442121,20.6588576 24.3228589,20.750003 24.0624426,20.750003 L19.6874531,20.750003 L19.6874531,18.2109465 C19.6874531,17.585948 19.5181828,16.9869913 19.1796418,16.4140758 C19.7004737,16.6744921 20.2473474,16.7916793 20.8202629,16.7656375 C21.4452614,16.7395957 22.0181769,16.531263 22.5390088,16.140639 L23.5936937,16.4140758 Z" id="users"></path>
                </g>
            </g>
        </g>
    </g>
</svg>