<?xml version="1.0" encoding="UTF-8"?>
<svg width="20px" height="20px" viewBox="0 0 20 20" version="1.1" xmlns="http://www.w3.org/2000/svg" xmlns:xlink="http://www.w3.org/1999/xlink">
    <!-- Generator: sketchtool 49.3 (51167) - http://www.bohemiancoding.com/sketch -->
    <title>E97C8E9A-D901-44E5-8579-47BDB2091FC6</title>
    <desc>Created with sketchtool.</desc>
    <defs></defs>
    <g id="Cases" stroke="none" stroke-width="1" fill="none" fill-rule="evenodd">
        <g id="Volition" transform="translate(-670.000000, -585.000000)" fill="#FFFFFF" fill-rule="nonzero">
            <g id="header">
                <g id="button" transform="translate(625.000000, 570.000000)">
                    <g id="text" transform="translate(45.000000, 15.000000)">
                        <path d="M14.3512659,9.56474016 L14.3705979,9.71322611 L14.1480746,9.75929377 L14.1184597,10.0755976 L14.384994,10.0755976 L14.7395505,10.0414582 L14.9225872,9.82387076 L14.7280336,9.74818817 L14.6215021,9.62561529 L14.4614992,9.3664847 L14.384994,9 L14.0843203,9.06128644 L14,9.19044042 L14,9.33604713 L14.1447841,9.43517487 L14.3512659,9.56474016 Z M14.5902419,10.2743494 L14.6062833,10.0760939 L14.4298277,10 L14.1830367,10.0571733 L14,10.3508546 L14,10.541295 L14.2134742,10.541295 L14.5902419,10.2743494 Z M9.31712649,10.0020566 L9.26283246,10.1419048 L9,10.1419048 L9,10.2776399 L9.0625204,10.2776399 C9.0625204,10.2776399 9.06622226,10.3064322 9.0715694,10.3442735 L9.23280621,10.3307 L9.33357922,10.2681796 L9.3599036,10.1419048 L9.49029153,10.1307993 L9.54170633,10.0246791 L9.42201268,10 L9.31712649,10.0020566 Z M9.01028296,10.1065315 L9,10.2393873 L9.19044042,10.2233459 L9.2101837,10.0900787 L9.09583719,10 L9.01028296,10.1065315 Z M19.9978893,9.89673204 C19.9950101,9.60428466 19.9802026,9.31389387 19.9526443,9.02802758 C19.8600977,8.07500284 19.6322273,7.16146467 19.290833,6.30509976 C19.2653313,6.24134541 19.2418861,6.17676842 19.2147391,6.11383671 C18.7598209,5.03906173 18.1210435,4.06053525 17.3391272,3.21609858 C17.2877124,3.16098191 17.2354749,3.10668788 17.1832375,3.05321649 C17.0355742,2.89979472 16.8837977,2.75007483 16.7266741,2.60652471 C14.948956,0.987986798 12.5879883,0 9.99997296,0 C7.39015771,0 5.01232603,1.00567349 3.22967208,2.6488905 C2.8142405,3.03182793 2.43253702,3.44972743 2.08620693,3.89724185 C0.779859688,5.58693784 0,7.70358233 0,9.99997296 C0,15.5145188 4.4862498,20.0003572 10.0003843,20.0003572 C13.8791168,20.0003572 17.2465805,17.7792379 18.9041937,14.5429847 C19.2587502,13.8511471 19.5347448,13.1136533 19.7206607,12.340786 C19.7679623,12.1445871 19.8086829,11.9475656 19.8440562,11.7480762 C19.9448292,11.1800454 19.9999459,10.5959733 19.9999459,9.99997296 C20.0003572,9.96542221 19.9983006,9.93128278 19.9978893,9.89673204 Z M18.0579959,10 C18.1340898,10.1476633 18.2052479,10.2977945 18.2731154,10.4499823 L18.1785122,10.4462805 L18,10.4709596 L18,10.0649883 L18.0579959,10 Z M16.3944543,10.4466918 L16.3960996,10 C16.5532232,10.166584 16.7045884,10.3381037 16.8493725,10.5157933 L16.669215,10.7839729 L16.0394866,10.7782144 L16,10.6470038 L16.3944543,10.4466918 Z M5.00041132,10.0686902 L5.20072338,10.0686902 L5.21799875,10 L5.54581952,10 L5.54581952,10.1431388 L5.4516276,10.2690022 L5,10.2690022 L5.00041132,10.0855542 L5.00041132,10.0686902 Z M5.32000572,10.0341394 C5.32000572,10.0341394 5.52031778,10 5.53759315,10 C5.55486852,10 5.53759315,10.1999007 5.53759315,10.1999007 L5.08596555,10.2282817 L5,10.1254521 L5.32000572,10.0341394 Z M18.9301917,7.63826767 L18.1984563,7.63826767 L17.7525871,7.30633372 L17.2832728,7.35199006 L17.2832728,7.63826767 L17.1347869,7.63826767 L16.9743727,7.52392115 L16.1616076,7.31785063 L16.1616076,6.79136308 L15.1316663,6.87157017 L14.8124832,7.04308994 L14.4036327,7.04308994 L14.2033207,7.02293534 L13.7068594,7.29851867 L13.7068594,7.81719117 L12.6921369,8.54933793 L12.7764571,8.86193991 L12.9821163,8.86193991 L12.9282336,9.15973443 L12.7834495,9.21279451 L12.7756345,9.99100892 L13.6525653,10.98969 L14.0342688,10.98969 L14.0573026,10.9288149 L14.7433817,10.9288149 L14.9412259,10.7457782 L15.3303331,10.7457782 L15.5438073,10.9596638 L16.1237663,11.0197162 L16.0468497,11.7909382 L16.690563,12.927411 L16.3516367,13.5752375 L16.3746705,13.8804357 L16.6416161,14.1465587 L16.6416161,14.8803508 L16.9920594,15.3517216 L16.9920594,15.9612955 L17.2947898,15.9612955 C15.6100296,18.0298157 13.0458707,19.3546723 10.1769248,19.3546723 C5.11688587,19.3550836 1,15.2377864 1,10.1773362 C1,8.90348307 1.2615985,7.68927115 1.73255807,6.58570388 L1.73255807,6.29942627 L2.06079016,5.90085874 C2.17472535,5.68573922 2.29688692,5.47596684 2.42727485,5.27154159 L2.44208231,5.43812554 L2.06120147,5.90085874 C1.94315309,6.12379332 1.83291976,6.35166371 1.73296939,6.58570388 L1.73296939,7.10807825 L2.11426155,7.29152626 L2.11426155,8.01750323 L2.47992361,8.64147325 L2.77730681,8.68712959 L2.81555942,8.47324402 L2.46470482,7.93194901 L2.39601465,7.40587277 L2.60167385,7.40587277 L2.68846203,7.94716779 L3.19561762,8.68712959 L3.06481837,8.92610558 L3.387292,9.41927634 L4.18812892,9.61753181 L4.18812892,9.48796652 L4.50854596,9.53362286 L4.4781084,9.76231589 L4.72983526,9.80838355 L5.11853115,9.9145037 L5.66764121,10.540119 L6.36893908,10.5931791 L6.43762926,11.165323 L5.95762068,11.5009588 L5.93499817,12.0118162 L5.866308,12.3244182 L6.56061346,13.193534 L6.61367353,13.4913285 C6.61367353,13.4913285 6.86540039,13.5596074 6.89624927,13.5596074 C6.92668684,13.5596074 7.46057812,13.9639334 7.46057812,13.9639334 L7.46057812,15.5347583 L7.65101854,15.5882297 L7.52145324,16.3129727 L7.84187028,16.7403326 L7.78264043,17.4584945 L8.20588706,18.2025695 L8.74923867,18.6772309 L9.29546951,18.6871025 L9.3489409,18.5114696 L8.94749414,18.1733659 L8.97052797,18.005548 L9.04250869,17.7998888 L9.05772747,17.5901164 L8.78625733,17.58189 L8.6492883,17.4099589 L8.87469078,17.1931941 L8.90512834,17.0294894 L8.65340148,16.9575087 L8.66820894,16.8053209 L9.02687859,16.7510268 L9.57228679,16.489017 L9.75532348,16.1533812 L10.3274674,15.4212344 L10.1974908,14.8486792 L10.3731237,14.5438923 L10.8991999,14.5599337 L11.2533451,14.2794146 L11.3676916,13.1746133 L11.7605007,12.6756841 L11.8291909,12.3552671 L11.4709325,12.2405093 L11.2344244,11.852636 L10.4261838,11.8444096 L9.78534972,11.6000865 L9.75491216,11.1431118 L9.54102659,10.7692233 L8.96147896,10.7605856 L8.62666579,10.2349207 L8.32928258,10.0897253 L8.3140638,10.2501395 L7.77276879,10.2822223 L7.57451332,10.0062277 L7.00977315,9.89146987 L6.54457204,10.429063 L5.81242529,10.3048449 L5.75936521,9.47974015 L5.22506261,9.38842746 L5.4393595,8.98369016 L5.37807306,8.75129526 L4.67595255,9.22060956 L4.23419658,9.16672685 L4.07666164,8.82163071 L4.17291014,8.46584029 L4.41641064,8.01709192 L4.97703762,7.73328222 L6.05962765,7.7328709 L6.05674842,8.06315958 L6.44585563,8.24413967 L6.41500675,7.67981083 L6.69552589,7.3976464 L7.26150001,7.02581457 L7.30016394,6.76421607 L7.86449279,6.17685339 L8.46460634,5.84450812 L8.41154626,5.80090837 L8.81792884,5.41838226 L8.9668261,5.45786883 L9.03510496,5.54342305 L9.18934936,5.3723146 L9.05813879,5.33159408 L8.88661902,5.27442082 L8.88661902,5.10989346 L8.97752038,5.03544483 L9.17783244,5.03544483 L9.26955645,5.07575403 L9.3489409,5.23616821 L9.44601204,5.22136075 L9.75532348,5.17364781 L9.79522136,5.03626747 L9.95563554,5.07657667 L9.95563554,5.22547393 L9.80673828,5.32789221 L9.82894947,5.49118562 L10.338573,5.64830925 C10.338573,5.64830925 10.3780595,5.64707529 10.4570327,5.64460738 L10.4648477,5.4237294 L10.060933,5.23987007 L10.0378992,5.13374993 L10.3731237,5.01940341 L10.3879312,4.69857506 L10.0374879,4.48510081 L10.0144541,3.94421711 L9.53403418,4.18031387 L9.35881254,4.18031387 L9.4048802,3.76858416 L8.75088394,3.61433975 L8.48023644,3.818765 L8.48023644,4.4423237 L7.99364677,4.5965681 L7.79868185,5.00295068 L7.58726419,5.0370901 L7.58726419,4.51718364 L7.12987813,4.45384061 L6.90118509,4.30494335 L6.80904977,3.96807358 L7.62716207,3.48929896 L8.02737488,3.36754871 L8.06768408,3.63655095 L8.29061865,3.62503403 L8.30789403,3.48971028 L8.54111156,3.45639349 L8.44486305,3.36754871 L8.42182922,3.22440991 L8.70851815,3.20014213 L8.88168319,3.01998467 L8.94584886,2.95335108 L9.54843032,2.87725718 L9.81496465,3.1034823 L9.11613468,3.47572545 L10.0054051,3.68549784 L10.1205742,3.38811463 L10.5092701,3.38811463 L10.6466505,3.12898404 L10.3718898,3.06029387 L10.3718898,2.7324731 L9.51017771,2.35076963 L8.9154113,2.4194598 L8.57977549,2.59509276 L8.60280932,3.02204126 L8.25195472,2.96856987 L8.19807201,2.7324731 L8.53411915,2.42727485 L7.92413396,2.39683729 L7.74891232,2.44989736 L7.67281841,2.65555656 L7.90151145,2.69422049 L7.8558551,2.92291352 L7.46715921,2.94594735 L7.40628409,3.09813516 L6.84236656,3.11376526 C6.84236656,3.11376526 6.82673646,2.79375955 6.80411395,2.79375955 C6.78149144,2.79375955 7.24628123,2.7859445 7.24628123,2.7859445 L7.58232837,2.45771241 L7.39888036,2.36598841 L7.15496855,2.60290781 L6.75023124,2.57987398 L6.50631943,2.24423816 L5.98764693,2.24423816 L5.44635191,2.64856415 L5.9424019,2.64856415 L5.98764693,2.79375955 L5.85890427,2.9134532 L6.40801433,2.92867198 L6.49192329,3.12692745 L5.87371173,3.10389362 L5.84368549,2.95129449 L5.4549896,2.86738554 L5.24891908,2.75303902 L4.78618588,2.75674089 C6.30107155,1.65317362 8.16393259,1 10.1773362,1 C12.4979946,1 14.6183409,1.86747051 16.2360562,3.29268877 L16.1270568,3.48765369 L15.7038102,3.653415 L15.525298,3.84714597 L15.5664298,4.07295977 L15.7848399,4.10339733 L15.9164618,4.43245205 L16.2932295,4.28067556 L16.3553385,4.72078625 L16.2418147,4.72078625 L15.9325032,4.67512991 L15.5894637,4.73271449 L15.2575297,5.20161746 L14.7828683,5.27606609 L14.7141781,5.68244867 L14.9144902,5.72975029 L14.8564943,5.99093747 L14.3851234,5.89633424 L13.9528278,5.99093747 L13.8611038,6.23155874 L13.9359637,6.73665773 L14.1897472,6.85552875 L14.6154617,6.85306084 L14.9029733,6.82714778 L14.9905841,6.59845475 L15.4397438,6.01479394 L15.7354817,6.07525775 L16.0266951,5.81201397 L16.0809892,6.01767317 L16.7975058,6.50097229 L16.709895,6.61860935 L16.3870101,6.60133398 L16.5112282,6.77737826 L16.709895,6.82097801 L16.9427012,6.72390686 L16.9377654,6.44338771 L17.0410063,6.3915616 L16.95792,6.30353946 L16.479968,6.03700513 L16.3541046,5.68285999 L16.7514382,5.68285999 L16.8785355,5.80872342 L17.2207525,6.10363872 L17.2351486,6.46025177 L17.5897051,6.83784206 L17.7217383,6.32040351 L17.9672953,6.18631371 L18.013363,6.60956035 L18.2531616,6.87280413 L18.7315249,6.86457776 C18.8240716,7.10273111 18.9071579,7.34499765 18.9799612,7.59220001 L18.9301917,7.63826767 Z M5,10.1143465 L5.24020995,10 L5.45738606,10.0518261 L5.38252611,10.3434509 L5.14807462,10.4178995 L5,10.1143465 Z M6.75435795,10.1089994 L6.75435795,10.2977945 L6.2056592,10.2977945 L6,10.2406213 L6.0514148,10.1089994 L6.31506989,10 L6.67538481,10 L6.67538481,10.1089994 L6.75435795,10.1089994 Z M7.3084888,10 L7.3084888,10.1830367 L7.17110845,10.2714701 L7,10.3031417 C7,10.3031417 7,10.0287923 7,10 L7.3084888,10 Z M7,10.2175874 L7,10 L7.18879515,10.1719311 L7,10.2175874 Z M6.42283532,10 L6.42283532,10.1781009 L6.29162475,10.3097228 L6,10.3097228 L6.04565634,10.109822 L6.18344801,10.0978938 L6.21182898,10.0292036 L6.42283532,10 Z M6.2459684,10 L6.54911006,10 L6.16041418,10.5433516 L6,10.4573861 L6.03455075,10.228693 L6.2459684,10 Z M7.37142052,10.1028296 L7.37142052,10.2805191 L7.07979577,10.2805191 L7,10.16535 L7,10 L7.02303383,10 L7.37142052,10.1028296 Z M7,10.0871995 L7.08308632,10 L7.22334589,10.0871995 L7.11105597,10.1797461 L7,10.0871995 Z M19,10.0337281 L19.0287923,10 C19.0407205,10.0518261 19.0534714,10.1036522 19.0649883,10.156301 L19,10.0337281 Z M2,10.3985675 L2,10.6848451 C2.09995037,10.4512163 2.2101837,10.2233459 2.32823208,10 L2,10.3985675 Z" id="website"></path>
                    </g>
                </g>
            </g>
        </g>
    </g>
</svg>