<?xml version="1.0" encoding="UTF-8"?>
<svg width="100px" height="100px" viewBox="0 0 100 100" version="1.1" xmlns="http://www.w3.org/2000/svg" xmlns:xlink="http://www.w3.org/1999/xlink">
    <!-- Generator: Sketch 49.3 (51167) - http://www.bohemiancoding.com/sketch -->
    <title>Icons / Social / facebook</title>
    <desc>Created with Sketch.</desc>
    <defs>
        <path d="M40.5025,29.0025 C40.5025,28.5825 40.5608333,27.6754167 40.6775,26.2870833 C40.8029167,24.8958333 41.3279167,23.4404167 42.27,21.9120833 C43.2033333,20.3895833 44.7170833,19.0216667 46.8229167,17.81125 C48.92,16.6066667 51.9504167,16 55.9054167,16 L67.0470833,16 L67.0470833,28.1420833 L58.8891667,28.1420833 C58.08125,28.1420833 57.32875,28.4454167 56.6491667,29.0433333 C55.9754167,29.64125 55.6283333,30.21 55.6283333,30.7379167 L55.6283333,38.2920833 L67.0441667,38.2920833 C66.9245833,39.7708333 66.7933333,41.20875 66.6416667,42.5970833 L66.1895833,46.26625 C66.00875,47.5058333 65.825,48.655 65.6441667,49.71375 L55.5466667,49.71375 L55.5466667,83.3779167 L40.5025,83.3779167 L40.5025,49.7108333 L33.1641667,49.7108333 L33.1641667,38.2920833 L40.5025,38.2920833 L40.5025,29.0025 Z" id="path-1"></path>
    </defs>
    <g id="Icons-/-Social-/-facebook" stroke="none" stroke-width="1" fill="none" fill-rule="evenodd">
        <mask id="mask-2" fill="white">
            <use xlink:href="#path-1"></use>
        </mask>
        <use id="Shape" fill="#8DBAED" fill-rule="nonzero" xlink:href="#path-1"></use>
    </g>
</svg>