<?xml version="1.0" encoding="UTF-8"?>
<svg width="100px" height="100px" viewBox="0 0 100 100" version="1.1" xmlns="http://www.w3.org/2000/svg" xmlns:xlink="http://www.w3.org/1999/xlink">
    <!-- Generator: Sketch 49.3 (51167) - http://www.bohemiancoding.com/sketch -->
    <title>Icons / Social / google+</title>
    <desc>Created with Sketch.</desc>
    <defs>
        <path d="M60.4658763,15 L43.8015464,15 C36.3757732,15 31.2354639,16.6280412 26.6089691,20.4498969 C22.9704124,23.5890722 20.7989691,28.1513402 20.7989691,32.654433 C20.7989691,39.5923711 26.0886598,46.9654639 35.8908247,46.9654639 C36.833299,46.9654639 37.8768041,46.8687629 38.7976289,46.7828866 L38.6619588,47.1126804 C38.2679381,48.0565979 37.8948454,48.9471134 37.8948454,50.3370103 C37.8948454,53.0431959 39.2003093,54.7123711 40.4624742,56.3252577 L40.6212371,56.5294845 L40.3390722,56.5489691 C36.2913402,56.8260825 28.7573196,57.3427835 23.2540206,60.7251546 C16.7541237,64.5895876 16.2489691,70.2112371 16.2489691,71.8414433 C16.2489691,78.3276289 22.2935052,84.874433 35.7984536,84.874433 C51.5015464,84.874433 59.7182474,76.2110309 59.7182474,67.6537113 C59.7196907,61.3241237 56.0082474,58.1993814 52.0687629,54.8819588 L48.745567,52.2970103 C47.7186598,51.4461856 46.4398969,50.3875258 46.4398969,48.4260825 C46.4398969,46.4978351 47.7186598,45.2248454 48.8473196,44.1019588 L48.9649485,43.9828866 C52.5537113,41.1561856 56.6209278,37.9513402 56.6209278,31.0191753 C56.6209278,24.0494845 52.2657732,20.447732 50.1715464,18.7164948 L55.7015464,18.7164948 C55.7693814,18.7164948 55.8372165,18.697732 55.8935052,18.6609278 L60.6571134,15.6660825 C60.7927835,15.5802062 60.8562887,15.4149485 60.8115464,15.2605155 C60.7689691,15.1060825 60.6260825,15 60.4658763,15 Z M40.2575258,81.0561856 C30.685567,81.0561856 24.2542268,76.585567 24.2542268,69.9312371 C24.2542268,65.5861856 26.8846392,62.4289691 32.0653608,60.5519588 C36.2141237,59.155567 41.5694845,59.0862887 41.6228866,59.0862887 C42.53,59.0862887 42.9860825,59.0862887 43.7106186,59.1772165 C50.4082474,63.9437113 53.6282474,66.4463918 53.6282474,71.2128866 C53.6275258,77.2848454 48.5038144,81.0561856 40.2575258,81.0561856 Z M40.1673196,44.4115464 C32.1339175,44.4115464 28.7998969,33.8516495 28.7998969,28.1975258 C28.7998969,25.3224742 29.4537113,23.1156701 30.798866,21.4493814 C32.2587629,19.6228866 34.7585567,18.4429897 37.1674227,18.4429897 C44.5434021,18.4429897 48.6221649,28.3570103 48.6221649,35.2090722 C48.6221649,36.2901031 48.6221649,39.5786598 46.3504124,41.8626804 C44.8226804,43.3875258 42.3380412,44.4115464 40.1673196,44.4115464 Z M83.8220619,47.6351546 C84.0219588,47.6351546 84.1828866,47.7960825 84.1828866,47.9959794 L84.1828866,51.8221649 C84.1828866,52.0220619 84.0212371,52.1829897 83.8220619,52.1829897 L75.0410309,52.1829897 L75.0410309,60.9907216 C75.0410309,61.1891753 74.8786598,61.3515464 74.6802062,61.3515464 L70.9030928,61.3515464 C70.7039175,61.3515464 70.542268,61.1891753 70.542268,60.9907216 L70.542268,52.184433 L61.8052577,52.184433 C61.6060825,52.184433 61.444433,52.0220619 61.444433,51.8236082 L61.444433,47.9959794 C61.444433,47.7968041 61.6060825,47.6351546 61.8052577,47.6351546 L70.542268,47.6351546 L70.542268,38.8851546 C70.542268,38.6859794 70.7039175,38.5243299 70.9030928,38.5243299 L74.6802062,38.5243299 C74.8786598,38.5243299 75.0410309,38.6859794 75.0410309,38.8851546 L75.0410309,47.6351546 L83.8220619,47.6351546 Z" id="path-1"></path>
    </defs>
    <g id="Icons-/-Social-/-google+" stroke="none" stroke-width="1" fill="none" fill-rule="evenodd">
        <mask id="mask-2" fill="white">
            <use xlink:href="#path-1"></use>
        </mask>
        <use id="Combined-Shape" fill="#8DBAED" fill-rule="nonzero" xlink:href="#path-1"></use>
    </g>
</svg>