<?xml version="1.0" encoding="UTF-8"?>
<svg width="100px" height="100px" viewBox="0 0 100 100" version="1.1" xmlns="http://www.w3.org/2000/svg" xmlns:xlink="http://www.w3.org/1999/xlink">
    <!-- Generator: Sketch 49.3 (51167) - http://www.bohemiancoding.com/sketch -->
    <title>Icons / Social / linkedin</title>
    <desc>Created with Sketch.</desc>
    <defs>
        <path d="M22.5851389,15.0588889 C27.2441667,15.0588889 31.1675,18.9822222 31.1675,23.64125 C31.1675,28.5454167 26.9988889,32.34625 22.5851389,32.2236111 C18.04875,32.34625 14.0027778,28.5454167 14.0027778,23.64125 C13.8801389,18.8595833 17.8036111,15.0588889 22.5851389,15.0588889 Z M27.3668056,84.9438889 L17.5583333,84.9438889 C16.2097222,84.9438889 15.10625,83.8404167 15.10625,82.4918056 L15.10625,39.58 C15.10625,38.2313889 16.0870833,37.1279167 17.4356944,37.1279167 L27.3666667,37.1279167 C28.7152778,37.1279167 29.81875,38.2313889 29.81875,39.58 L29.81875,82.6144444 C29.8188889,83.8404167 28.7154167,84.9438889 27.3668056,84.9438889 Z M84.99125,52.0856944 L85.11375,52.0856944 L85.11375,83.7177778 C85.11375,84.2081944 84.3780556,84.9438889 83.8876389,84.9438889 L71.6270833,84.9438889 C71.1366667,84.9438889 70.4009722,84.2081944 70.4009722,83.7177778 L70.4009722,57.3576389 C70.4009722,55.0281944 69.7879167,52.9438889 68.3166667,51.4726389 C66.7227778,49.87875 64.6384722,49.0205556 62.3090278,49.0205556 C57.7726389,49.1430556 54.3397222,52.9438889 54.3397222,57.4802778 L54.3397222,83.9631944 C54.3397222,84.4536111 53.6040278,84.9440278 53.1136111,84.9440278 L39.6270833,84.9440278 C39.1366667,84.9440278 38.4009722,84.4536111 38.4009722,83.9631944 L38.4009722,38.2313889 C38.4009722,37.6183333 39.1366667,37.1279167 39.6270833,37.1279167 L51.8876389,37.1279167 C52.3780556,37.1279167 53.11375,37.8636111 53.11375,38.3540278 L53.11375,43.2581944 L54.3398611,42.0320833 C56.9145833,38.23125 61.69625,35.9018056 66.6004167,35.9018056 L69.1751389,35.9018056 C78.2479167,35.9018056 84.99125,43.0129167 84.99125,52.0856944 Z" id="path-1"></path>
    </defs>
    <g id="Icons-/-Social-/-linkedin" stroke="none" stroke-width="1" fill="none" fill-rule="evenodd">
        <mask id="mask-2" fill="white">
            <use xlink:href="#path-1"></use>
        </mask>
        <use id="Combined-Shape" fill="#8DBAED" fill-rule="nonzero" xlink:href="#path-1"></use>
    </g>
</svg>