<?xml version="1.0" encoding="UTF-8"?>
<svg width="100px" height="100px" viewBox="0 0 100 100" version="1.1" xmlns="http://www.w3.org/2000/svg" xmlns:xlink="http://www.w3.org/1999/xlink">
    <!-- Generator: Sketch 49.3 (51167) - http://www.bohemiancoding.com/sketch -->
    <title>Icons / Social / twitter</title>
    <desc>Created with Sketch.</desc>
    <defs>
        <path d="M87.5312375,25.5188417 C85.8259312,26.2750299 84.0556912,26.871597 82.2392304,27.3034906 C84.2407618,25.4015119 85.7456529,23.0225414 86.594657,20.3671814 L86.594657,20.3671814 C86.836989,19.609122 86.0136216,18.9536092 85.3291038,19.3594919 L85.3291038,19.3594919 C82.8021143,20.8583949 80.0801364,21.9828528 77.2385831,22.7019894 C77.0737225,22.7437192 76.9036223,22.7648648 76.7329607,22.7648648 C76.215362,22.7648648 75.7121722,22.5726833 75.3163944,22.2238749 C72.2931389,19.5593456 68.4047862,18.0918803 64.3678531,18.0918803 C62.6210042,18.0918803 60.8573137,18.364153 59.1256223,18.9012131 C53.7602607,20.5653509 49.6204067,24.991138 48.3215445,30.4515612 C47.8342607,32.4996877 47.7023348,34.5496855 47.9291351,36.5444802 C47.955146,36.7737132 47.8467983,36.9337084 47.7799933,37.0087472 C47.6626634,37.1402988 47.4963058,37.2157118 47.3235858,37.2157118 C47.3043115,37.2157118 47.2844758,37.2147761 47.2648273,37.2129049 C35.5202393,36.1217559 24.9294885,30.4635374 17.4433944,21.280745 L17.4433944,21.280745 C17.0616513,20.8123612 16.3296028,20.8698098 16.0253311,21.3917124 L16.0253311,21.3917124 C14.5593628,23.9067257 13.7846489,26.7832721 13.7846489,29.7103434 C13.7846489,34.1961988 15.586888,38.4236292 18.7173684,41.5054561 C17.4009161,41.193325 16.126755,40.7017372 14.9431643,40.0443532 L14.9431643,40.0443532 C14.3705497,39.726234 13.6660092,40.1351107 13.6579626,40.7900621 L13.6579626,40.7900621 C13.5760001,47.4540987 17.477639,53.3838413 23.322425,56.0539845 C23.2047209,56.0567914 23.0870168,56.0581013 22.9691255,56.0581013 C22.04265,56.0581013 21.1045726,55.9686537 20.1812782,55.792191 L20.1812782,55.792191 C19.5364318,55.6690602 18.9946935,56.2807848 19.1949215,56.9059826 L19.1949215,56.9059826 C21.0920349,62.8288014 26.1916734,67.1945201 32.2943231,68.1857422 C27.2294906,71.5856884 21.3313729,73.3791323 15.1926072,73.3791323 L13.2788393,73.3780096 C12.689196,73.3780096 12.1904973,73.7623725 12.0402327,74.3334901 C11.8922137,74.8959997 12.1648606,75.4893857 12.6676761,75.7818682 C19.5850854,79.8075736 27.4753781,81.9352299 35.4889888,81.9352299 C42.5035179,81.9352299 49.0650079,80.5431776 54.9913821,77.7979957 C60.4242973,75.2812983 65.225278,71.6837439 69.2609012,67.1052596 C73.0203221,62.8402163 75.9601181,57.9166662 77.9983267,52.4715876 C79.9412867,47.2811916 80.9682505,41.7429228 80.9682505,36.4554068 L80.9682505,36.2035312 C80.9680634,35.3545271 81.352052,34.5556736 82.0219737,34.0118768 C84.5641206,31.9478444 86.7778563,29.5181619 88.601428,26.790383 L88.601428,26.790383 C89.0829108,26.0701236 88.3235415,25.1674135 87.5312375,25.5188417 L87.5312375,25.5188417 Z" id="path-1"></path>
    </defs>
    <g id="Icons-/-Social-/-twitter" stroke="none" stroke-width="1" fill="none" fill-rule="evenodd">
        <mask id="mask-2" fill="white">
            <use xlink:href="#path-1"></use>
        </mask>
        <use id="Shape" fill="#8DBAED" fill-rule="nonzero" xlink:href="#path-1"></use>
    </g>
</svg>