<?xml version="1.0" encoding="UTF-8"?>
<svg width="100px" height="100px" viewBox="0 0 100 100" version="1.1" xmlns="http://www.w3.org/2000/svg" xmlns:xlink="http://www.w3.org/1999/xlink">
    <!-- Generator: Sketch 49.3 (51167) - http://www.bohemiancoding.com/sketch -->
    <title>Icons / Social / youtube</title>
    <desc>Created with Sketch.</desc>
    <defs>
        <path d="M82.1863736,50.3578022 C81.3626374,46.7789011 78.4351648,44.1389011 74.9116484,43.7459341 C66.5696703,42.8140659 58.1221978,42.8096703 49.716044,42.8140659 C41.3063736,42.8096703 32.8606593,42.8140659 24.516044,43.7459341 C20.9942857,44.1397802 18.0685714,46.7797802 17.2457143,50.3578022 C16.072967,55.4540659 16.0589011,61.0171429 16.0589011,66.2646154 C16.0589011,71.5120879 16.0589011,77.0742857 17.2316484,82.1705495 C18.0545055,85.7485714 20.9802198,88.3885714 24.5037363,88.7824176 C32.8465934,89.7151648 41.2923077,89.7186813 49.7010989,89.7151648 C58.1107692,89.7195604 66.5547253,89.7151648 74.9002198,88.7824176 C78.421978,88.3885714 81.3494505,85.7485714 82.1723077,82.1705495 C83.3441758,77.0742857 83.3503297,71.5120879 83.3503297,66.2646154 C83.3494505,61.0162637 83.3582418,55.4540659 82.1863736,50.3578022 Z M35.2527473,54.3076923 L30.3824176,54.3076923 L30.3824176,80.1872527 L25.8584615,80.1872527 L25.8584615,54.3076923 L21.0769231,54.3076923 L21.0769231,50.0685714 L35.2527473,50.0685714 L35.2527473,54.3076923 Z M47.5402198,80.1881319 L43.4707692,80.1881319 L43.4707692,77.7397802 C41.8540659,79.592967 40.3191209,80.4967033 38.8237363,80.4967033 C37.512967,80.4967033 36.610989,79.9657143 36.203956,78.829011 C35.9824176,78.1503297 35.8452747,77.076044 35.8452747,75.4918681 L35.8452747,57.7459341 L39.9112088,57.7459341 L39.9112088,74.269011 C39.9112088,75.221978 39.9112088,75.7169231 39.9481319,75.8505495 C40.0457143,76.4817582 40.3542857,76.8017582 40.8993407,76.8017582 C41.7151648,76.8017582 42.5679121,76.1731868 43.4698901,74.8975824 L43.4698901,57.7459341 L47.5393407,57.7459341 L47.5402198,80.1881319 L47.5402198,80.1881319 Z M62.989011,73.4523077 C62.989011,75.5279121 62.8492308,77.0232967 62.5775824,77.9745055 C62.0342857,79.643956 60.9468132,80.4967033 59.3292308,80.4967033 C57.8821978,80.4967033 56.4861538,79.6931868 55.1261538,78.0140659 L55.1261538,80.189011 L51.0602198,80.189011 L51.0602198,50.0685714 L55.1261538,50.0685714 L55.1261538,59.9050549 C56.4395604,58.2883516 57.8338462,57.4707692 59.3292308,57.4707692 C60.9468132,57.4707692 62.0351648,58.3226374 62.5775824,60.0026374 C62.850989,60.9054945 62.989011,62.3894505 62.989011,64.5142857 L62.989011,73.4523077 Z M78.3358242,69.7081319 L70.2030769,69.7081319 L70.2030769,73.6861538 C70.2030769,75.7635165 70.8826374,76.8008791 72.2804396,76.8008791 C73.2817582,76.8008791 73.8646154,76.2567033 74.0967033,75.1701099 C74.1345055,74.9494505 74.1881319,74.0457143 74.1881319,72.4149451 L78.3367033,72.4149451 L78.3367033,73.0083516 C78.3367033,74.3191209 78.2865934,75.221978 78.2496703,75.6281319 C78.1134066,76.5283516 77.7934066,77.3450549 77.3002198,78.0641758 C76.1740659,79.6940659 74.5054945,80.4975824 72.3815385,80.4975824 C70.2540659,80.4975824 68.6347253,79.7318681 67.4593407,78.1995604 C66.5969231,77.076044 66.1538462,75.3072527 66.1538462,72.9221978 L66.1538462,65.061978 C66.1538462,62.6628571 66.5468132,60.9081319 67.410989,59.7740659 C68.5854945,58.2382418 70.203956,57.4734066 72.2813187,57.4734066 C74.3217582,57.4734066 75.9393407,58.2382418 77.0786813,59.7740659 C77.9305495,60.9081319 78.3375824,62.6628571 78.3375824,65.061978 L78.3375824,69.7081319 L78.3358242,69.7081319 Z M72.2443956,61.1323077 C73.5894505,61.1323077 74.269011,62.1705495 74.2698901,64.2452747 L74.2698901,66.3217582 L70.203956,66.3217582 L70.203956,64.2452747 C70.203956,62.1705495 70.8852747,61.1323077 72.2443956,61.1323077 Z M57.1534066,61.1323077 C58.3261538,61.1323077 58.9221978,62.1705495 58.9221978,64.1942857 L58.9221978,73.7731868 C58.9221978,75.7995604 58.3261538,76.8017582 57.1534066,76.8017582 C56.4835165,76.8017582 55.803956,76.48 55.1252747,75.7995604 L55.1252747,62.1213187 C55.8048352,61.4487912 56.4835165,61.1323077 57.1534066,61.1323077 Z M59.4250549,40.7454945 C58.101978,40.7454945 57.1903297,40.2092308 56.7771429,39.0602198 C56.5503297,38.3736264 56.4131868,37.2896703 56.4131868,35.6879121 L56.4131868,17.7538462 L60.5098901,17.7538462 L60.5098901,34.4518681 C60.5098901,35.4145055 60.5098901,35.9147253 60.56,36.0492308 C60.6496703,36.6865934 60.9731868,37.0118681 61.5235165,37.0118681 C62.3454945,37.0118681 63.2087912,36.3753846 64.1195604,35.0883516 L64.1195604,17.7538462 L68.2294505,17.7538462 L68.2294505,40.4342857 L64.1195604,40.4342857 L64.1195604,37.9604396 C62.4835165,39.8347253 60.923956,40.7454945 59.4250549,40.7454945 Z M30.8140659,28.1081319 C30.4008791,25.9243956 29.4883516,22.7243956 28.0263736,18.48 C27.0654945,15.6562637 26.0659341,12.8210989 25.1050549,10 L29.9006593,10 L33.1358242,21.9516484 L36.2452747,10 L40.8536264,10 L35.3714286,28.1081319 L35.3714286,40.4342857 L30.8140659,40.4342857 L30.8140659,28.1081319 Z M46.9617582,40.7454945 C49.0206593,40.7454945 50.6206593,39.970989 51.7556044,38.4237363 C52.618022,37.2887912 53.0312088,35.5006593 53.0312088,33.0901099 L53.0312088,25.1481319 C53.0312088,22.7235165 52.6189011,20.9512088 51.7556044,19.8057143 C50.6206593,18.2540659 49.0215385,17.4795604 46.9617582,17.4795604 C44.9134066,17.4795604 43.3142857,18.2540659 42.1767033,19.8057143 C41.3037363,20.9512088 40.8905495,22.7235165 40.8905495,25.1481319 L40.8905495,33.0901099 C40.8905495,35.5006593 41.3037363,37.2887912 42.1767033,38.4237363 C43.3134066,39.970989 44.9134066,40.7454945 46.9617582,40.7454945 Z M45.0004396,24.3243956 C45.0004396,22.2259341 45.6369231,21.1797802 46.9617582,21.1797802 C48.2865934,21.1797802 48.9213187,22.2250549 48.9213187,24.3243956 L48.9213187,33.8646154 C48.9213187,35.9630769 48.2865934,37.0127473 46.9617582,37.0127473 C45.6369231,37.0127473 45.0004396,35.9630769 45.0004396,33.8646154 L45.0004396,24.3243956 Z" id="path-1"></path>
    </defs>
    <g id="Icons-/-Social-/-youtube" stroke="none" stroke-width="1" fill="none" fill-rule="evenodd">
        <mask id="mask-2" fill="white">
            <use xlink:href="#path-1"></use>
        </mask>
        <use id="Combined-Shape" fill="#8DBAED" fill-rule="nonzero" xlink:href="#path-1"></use>
    </g>
</svg>