<?xml version="1.0" encoding="UTF-8"?>
<svg width="57px" height="30px" viewBox="0 0 57 30" version="1.1" xmlns="http://www.w3.org/2000/svg" xmlns:xlink="http://www.w3.org/1999/xlink">
    <!-- Generator: Sketch 49 (51002) - http://www.bohemiancoding.com/sketch -->
    <title>aws</title>
    <desc>Created with Sketch.</desc>
    <defs></defs>
    <g id="Home" stroke="none" stroke-width="1" fill="none" fill-rule="evenodd">
        <g id="1-Home-[Opt-1]-[desktop]" transform="translate(-945.000000, -2247.000000)">
            <g id="Technologies" transform="translate(0.000000, 1704.000000)">
                <g id="T2" transform="translate(755.000000, 304.000000)">
                    <g id="body" transform="translate(0.000000, 80.000000)">
                        <g id="tech-logos" transform="translate(50.000000, 156.000000)">
                            <g id="logos">
                                <g id="aws" transform="translate(140.000000, 2.000000)">
                                    <g id="g10" transform="translate(28.698017, 15.612608) scale(-1, 1) rotate(-180.000000) translate(-28.698017, -15.612608) translate(0.000000, 0.453012)">
                                        <g id="g12">
                                            <polyline id="path14" fill="#F68D11" fill-rule="nonzero" points="22.5899597 19.4182367 17.8663991 20.9512554 17.8663991 27.5943364 22.59574 26.2316531 22.5899597 19.4182367"></polyline>
                                            <polyline id="path16" fill="#F68D11" fill-rule="nonzero" points="23.8218655 26.2316531 28.5512064 27.5943364 28.5347413 20.9558544 23.8218655 19.4182367 23.8218655 26.2316531"></polyline>
                                            <polyline id="path18" fill="#F68D11" fill-rule="nonzero" points="27.5878221 28.3136628 23.1800764 29.6383613 18.8297834 28.3136628 23.1863822 27.1780366 27.5878221 28.3136628"></polyline>
                                            <polyline id="path20" fill="#F68D11" fill-rule="nonzero" points="34.5008924 19.4182367 29.7773318 20.9512554 29.7773318 27.5943364 34.5066728 26.2316531 34.5008924 19.4182367"></polyline>
                                            <polyline id="path22" fill="#F68D11" fill-rule="nonzero" points="35.7327982 26.2316531 40.4621391 27.5943364 40.445674 20.9558544 35.7327982 19.4182367 35.7327982 26.2316531"></polyline>
                                            <polyline id="path24" fill="#F68D11" fill-rule="nonzero" points="39.4987549 28.3136628 35.0910091 29.6383613 30.7407161 28.3136628 35.0973149 27.1780366 39.4987549 28.3136628"></polyline>
                                            <polyline id="path26" fill="#F68D11" fill-rule="nonzero" points="4.72934094 16.5225347 1.9264411e-15 17.885218 1.9264411e-15 11.242137 4.72359566 9.70911835 4.72934094 16.5225347"></polyline>
                                            <polyline id="path28" fill="#F68D11" fill-rule="nonzero" points="5.95546636 16.5225347 10.6848073 17.885218 10.6683947 11.2465998 5.95546636 9.70911835 5.95546636 16.5225347"></polyline>
                                            <polyline id="path30" fill="#F68D11" fill-rule="nonzero" points="9.72142304 18.6045445 5.31365977 19.9292429 0.963384265 18.6045445 5.32003562 17.4689183 9.72142304 18.6045445"></polyline>
                                            <polyline id="path32" fill="#F68D11" fill-rule="nonzero" points="16.6345284 9.70911835 11.9109327 11.242137 11.9109327 17.885218 16.6402737 16.5225347 16.6345284 9.70911835"></polyline>
                                            <polyline id="path34" fill="#F68D11" fill-rule="nonzero" points="17.8663991 16.5225347 22.59574 17.885218 22.5792749 11.2465998 17.8663991 9.70911835 17.8663991 16.5225347"></polyline>
                                            <polyline id="path36" fill="#F68D11" fill-rule="nonzero" points="21.6323558 18.6045445 17.2245925 19.9292429 12.874317 18.6045445 17.2309683 17.4689183 21.6323558 18.6045445"></polyline>
                                            <polyline id="path38" fill="#F68D11" fill-rule="nonzero" points="10.679062 0 5.95546636 1.53301869 5.95546636 8.17609967 10.6848073 6.81341639 10.679062 0"></polyline>
                                            <polyline id="path40" fill="#F68D11" fill-rule="nonzero" points="11.9109327 6.81341639 16.6402737 8.17609967 16.6238611 1.53747636 11.9109327 0 11.9109327 6.81341639"></polyline>
                                            <polyline id="path42" fill="#F68D11" fill-rule="nonzero" points="15.6768894 8.8954261 11.2691261 10.2201246 6.91885063 8.8954261 11.275502 7.75978289 15.6768894 8.8954261"></polyline>
                                            <path d="M35.0719917,12.3838983 L34.8206001,13.9259164 L34.4338436,13.9259164 C33.7376786,13.9259164 33.2252315,13.8256236 32.8964869,13.6250349 C32.5677423,13.4244461 32.2937925,13.1047626 32.0746295,12.6659748 C31.3397886,13.5059401 30.3664613,13.9259164 29.1546185,13.9259164 C28.7291843,13.9259164 28.3392088,13.8600992 27.9846803,13.7284629 C27.6301518,13.5968265 27.3271957,13.4119116 27.0758027,13.1737125 C26.8244098,12.9355134 26.6310335,12.6503056 26.4956681,12.3180805 C26.3603027,11.9858554 26.292621,11.6128914 26.292621,11.1991771 C26.292621,10.5723374 26.4731055,10.048934 26.83408,9.62895139 C27.1950544,9.20896875 27.6527116,8.87048036 28.2070653,8.61347606 C28.7614189,8.35647176 29.3641083,8.17469096 30.0151515,8.0681282 C30.6661948,7.96156544 31.2817759,7.90201656 31.8619134,7.88947976 C31.8490215,7.14980885 31.6910975,6.64521041 31.3881368,6.37566932 C31.0851761,6.10612822 30.5920666,5.9713597 29.9087935,5.9713597 C29.083709,5.9713597 28.2328534,6.22836014 27.3562012,6.74236874 L27.1241473,5.20035065 C28.0781512,4.58604769 29.1868419,4.27890082 30.4502525,4.27890082 C31.6363115,4.27890082 32.4968359,4.5985843 33.0318516,5.23796085 C33.5668673,5.8773374 33.8343712,6.96175391 33.8343712,8.49124292 L33.8343712,10.597414 C33.8343712,10.9484442 33.8472629,11.2399203 33.8730468,11.4718511 C33.8988307,11.7037818 33.9471748,11.8855626 34.0180805,12.0171989 C34.0889862,12.1488353 34.1888973,12.2428598 34.3178167,12.2992754 C34.4467362,12.355691 34.6207748,12.3838983 34.8399379,12.3838983 L35.0719917,12.3838983 Z M31.8812513,11.368423 L31.8812513,9.18703157 C29.5091334,9.27478913 28.3230922,9.91415609 28.3230922,11.1051516 C28.3230922,11.9827273 28.7936411,12.4215085 29.7347531,12.4215085 C30.5856215,12.4215085 31.3011137,12.0704835 31.8812513,11.368423 Z M49.0338985,4.46695181 L46.1912388,13.7378654 L44.2187811,13.7378654 L42.2269855,7.15608091 L40.2351899,13.7378654 L38.2627322,13.7378654 L35.4394103,4.46695181 L37.5859085,4.46695181 L39.3456502,11.5376689 L41.2987701,4.71141809 L43.1552009,4.71141809 L45.1083208,11.5376689 L46.8874004,4.46695181 L49.0338985,4.46695181 Z M53.1141787,13.9259164 C51.7347406,13.9259164 50.6518334,13.668916 49.8654248,13.1549074 L50.0781408,11.4060332 C50.3617636,11.6316955 50.7775226,11.8448178 51.3254303,12.0454066 C51.8733379,12.2459953 52.443798,12.3462881 53.0368274,12.3462881 C53.616965,12.3462881 54.0520616,12.2459953 54.3421304,12.0454066 C54.6321991,11.8448178 54.7772313,11.5752808 54.7772313,11.2367873 C54.7772313,10.8732203 54.6676514,10.6068174 54.4484884,10.4375706 C54.2293253,10.2683239 53.9424838,10.1272871 53.5879553,10.0144559 C53.2334268,9.90162475 52.8305596,9.77939283 52.3793415,9.64775648 C51.9281234,9.51612014 51.4704663,9.30613197 51.0063562,9.01778568 C50.6711657,8.80466016 50.4229994,8.54765972 50.2618501,8.24677663 C50.1007008,7.94589355 50.0201274,7.56979534 50.0201274,7.11847072 C50.0201274,6.72983007 50.091032,6.36000016 50.2328434,6.00896989 C50.3746548,5.65793963 50.5905916,5.35706106 50.8806604,5.10632516 C51.1707292,4.85558926 51.5381441,4.65500354 51.9829162,4.504562 C52.4276883,4.35412046 52.9594731,4.27890082 53.5782864,4.27890082 C54.609642,4.27890082 55.5185105,4.49202314 56.3049192,4.91827417 L56.0922032,6.61073305 C55.3702542,6.02150368 54.5580739,5.72689341 53.6556377,5.72689341 C53.114176,5.72689341 52.6855253,5.82405212 52.3696726,6.01837244 C52.05382,6.21269277 51.895896,6.51043719 51.895896,6.91161463 C51.895896,7.13727694 51.9635777,7.34726511 52.0989431,7.54158544 C52.2343085,7.73590576 52.5082583,7.8957475 52.9208005,8.02111545 L54.1004076,8.37841233 C54.4098143,8.46616989 54.7224393,8.5758652 55.0382919,8.70750155 C55.3541446,8.8391379 55.640986,9.01151625 55.8988249,9.22464177 C56.1566638,9.43776728 56.3693777,9.70417018 56.536973,10.0238585 C56.7045683,10.3435467 56.7883647,10.7290474 56.7883647,11.180372 C56.7883647,11.4812551 56.7400206,11.7915361 56.6433311,12.1112244 C56.5466415,12.4309127 56.362934,12.725523 56.0922032,12.995064 C55.8214723,13.2646051 55.4476115,13.4871299 54.9706095,13.662645 C54.4936076,13.8381602 53.8748035,13.9259164 53.1141787,13.9259164 Z" id="aws" fill="#2E3841" transform="translate(41.540493, 9.102409) scale(1, -1) translate(-41.540493, -9.102409) "></path>
                                        </g>
                                    </g>
                                </g>
                            </g>
                        </g>
                    </g>
                </g>
            </g>
        </g>
    </g>
</svg>