<?xml version="1.0" encoding="UTF-8"?>
<svg width="76px" height="16px" viewBox="0 0 76 16" version="1.1" xmlns="http://www.w3.org/2000/svg" xmlns:xlink="http://www.w3.org/1999/xlink">
    <!-- Generator: Sketch 49 (51002) - http://www.bohemiancoding.com/sketch -->
    <title>capybara</title>
    <desc>Created with Sketch.</desc>
    <defs></defs>
    <g id="Home" stroke="none" stroke-width="1" fill="none" fill-rule="evenodd">
        <g id="1-Home-[Opt-1]-[desktop]" transform="translate(-1069.000000, -2998.000000)" fill="#6B3B79">
            <g id="Technologies" transform="translate(0.000000, 1704.000000)">
                <g id="T6" transform="translate(755.000000, 1048.000000)">
                    <g id="body" transform="translate(0.000000, 80.000000)">
                        <g id="tech-logos" transform="translate(50.000000, 156.000000)">
                            <g id="logos">
                                <g id="capybara" transform="translate(264.000000, 10.000000)">
                                    <path d="M8.88888889,4.17094017 C8.79772034,3.81766205 8.67236547,3.49287897 8.51282051,3.1965812 C8.35327556,2.90028342 8.1481494,2.64387573 7.8974359,2.42735043 C7.64672239,2.21082513 7.35327803,2.04273564 7.01709402,1.92307692 C6.68091,1.80341821 6.29060051,1.74358974 5.84615385,1.74358974 C5.19657795,1.74358974 4.63533,1.87464256 4.16239316,2.13675214 C3.68945632,2.39886171 3.30484479,2.74928556 3.00854701,3.18803419 C2.71224923,3.62678282 2.49287821,4.12535333 2.35042735,4.68376068 C2.2079765,5.24216803 2.13675214,5.81196291 2.13675214,6.39316239 C2.13675214,6.97436188 2.2079765,7.54415675 2.35042735,8.1025641 C2.49287821,8.66097145 2.71224923,9.15954197 3.00854701,9.5982906 C3.30484479,10.0370392 3.68945632,10.3874631 4.16239316,10.6495726 C4.63533,10.9116822 5.19657795,11.042735 5.84615385,11.042735 C6.32478872,11.042735 6.74643692,10.9601148 7.11111111,10.7948718 C7.4757853,10.6296288 7.78917248,10.4017109 8.05128205,10.1111111 C8.31339162,9.82051137 8.51851778,9.48148342 8.66666667,9.09401709 C8.81481556,8.70655077 8.91168068,8.29060051 8.95726496,7.84615385 L11.042735,7.84615385 C10.9971508,8.57550222 10.8404572,9.24216222 10.5726496,9.84615385 C10.304842,10.4501455 9.94302222,10.9715078 9.48717949,11.4102564 C9.03133675,11.849005 8.49572957,12.188033 7.88034188,12.4273504 C7.26495419,12.6666679 6.58689829,12.7863248 5.84615385,12.7863248 C4.93446838,12.7863248 4.11681274,12.6182353 3.39316239,12.2820513 C2.66951205,11.9458673 2.05698256,11.4871824 1.55555556,10.9059829 C1.05412855,10.3247834 0.669517009,9.64672752 0.401709402,8.87179487 C0.133901795,8.09686222 1.86517468e-14,7.27065966 1.86517468e-14,6.39316239 C1.86517468e-14,5.5270612 0.133901795,4.70655658 0.401709402,3.93162393 C0.669517009,3.15669128 1.05412855,2.47863538 1.55555556,1.8974359 C2.05698256,1.31623641 2.66951205,0.854702564 3.39316239,0.512820513 C4.11681274,0.170938462 4.93446838,0 5.84615385,0 C6.52991795,0 7.17378615,0.0940161538 7.77777778,0.282051282 C8.3817694,0.47008641 8.91452761,0.743587949 9.37606838,1.1025641 C9.83760915,1.46154026 10.2108248,1.89743333 10.4957265,2.41025641 C10.7806282,2.92307949 10.9572646,3.50996821 11.025641,4.17094017 L8.88888889,4.17094017 Z M20.1196581,10.5299145 C20.1196581,10.769232 20.1509968,10.9401704 20.2136752,11.042735 C20.2763536,11.1452997 20.3988595,11.1965812 20.5811966,11.1965812 L20.7863248,11.1965812 C20.8660973,11.1965812 20.9572644,11.1851853 21.0598291,11.1623932 L21.0598291,12.5128205 C20.9914526,12.5356126 20.9031344,12.5612534 20.7948718,12.5897436 C20.6866091,12.6182338 20.5754991,12.6438745 20.4615385,12.6666667 C20.3475778,12.6894588 20.2336188,12.7065526 20.1196581,12.7179487 C20.0056974,12.7293448 19.9088323,12.7350427 19.8290598,12.7350427 C19.4301974,12.7350427 19.0997164,12.6552715 18.8376068,12.4957265 C18.5754973,12.3361815 18.4045588,12.0569821 18.3247863,11.6581197 C17.93732,12.0341899 17.4615413,12.3076915 16.8974359,12.4786325 C16.3333305,12.6495735 15.7891764,12.7350427 15.2649573,12.7350427 C14.8660949,12.7350427 14.4843323,12.6809122 14.1196581,12.5726496 C13.7549839,12.4643869 13.4330498,12.3048444 13.1538462,12.0940171 C12.8746425,11.8831898 12.6524225,11.6153862 12.4871795,11.2905983 C12.3219365,10.9658103 12.2393162,10.5868968 12.2393162,10.1538462 C12.2393162,9.60683487 12.3390303,9.16239487 12.5384615,8.82051282 C12.7378927,8.47863077 12.9999984,8.21082718 13.3247863,8.01709402 C13.6495743,7.82336085 14.014243,7.68376111 14.4188034,7.5982906 C14.8233638,7.51282009 15.2307672,7.44729368 15.6410256,7.4017094 C15.9943038,7.33333299 16.3304827,7.28490043 16.6495726,7.25641026 C16.9686626,7.22792009 17.250711,7.17948752 17.4957265,7.11111111 C17.740742,7.0427347 17.9344722,6.93732265 18.0769231,6.79487179 C18.2193739,6.65242094 18.2905983,6.43874786 18.2905983,6.15384615 C18.2905983,5.90313265 18.2307698,5.6980065 18.1111111,5.53846154 C17.9914524,5.37891658 17.8433057,5.25641068 17.6666667,5.17094017 C17.4900276,5.08546966 17.2934484,5.02849017 17.0769231,5 C16.8603978,4.97150983 16.6552716,4.95726496 16.4615385,4.95726496 C15.9145272,4.95726496 15.4643892,5.07122393 15.1111111,5.2991453 C14.757833,5.52706667 14.5584048,5.88033949 14.5128205,6.35897436 L12.5641026,6.35897436 C12.5982908,5.78917094 12.7350415,5.3162412 12.974359,4.94017094 C13.2136764,4.56410068 13.5185167,4.2621094 13.8888889,4.03418803 C14.2592611,3.80626667 14.6780603,3.6467241 15.1452991,3.55555556 C15.6125379,3.46438701 16.0911656,3.41880342 16.5811966,3.41880342 C17.0142472,3.41880342 17.4415933,3.46438701 17.8632479,3.55555556 C18.2849024,3.6467241 18.663816,3.79487077 19,4 C19.336184,4.20512923 19.6068366,4.47008385 19.8119658,4.79487179 C20.017095,5.11965974 20.1196581,5.51566718 20.1196581,5.98290598 L20.1196581,10.5299145 Z M18.1709402,8.06837607 C17.8746424,8.26210923 17.5099737,8.37891718 17.0769231,8.41880342 C16.6438725,8.45868966 16.2108284,8.51851812 15.7777778,8.5982906 C15.5726485,8.6324788 15.3732203,8.68091137 15.1794872,8.74358974 C14.985754,8.80626812 14.8148156,8.89173735 14.6666667,9 C14.5185178,9.10826265 14.4017098,9.25071137 14.3162393,9.42735043 C14.2307688,9.60398949 14.1880342,9.81766256 14.1880342,10.0683761 C14.1880342,10.2849014 14.2507116,10.4672357 14.3760684,10.6153846 C14.5014251,10.7635335 14.6524208,10.8803415 14.8290598,10.965812 C15.0056989,11.0512825 15.1994291,11.1111109 15.4102564,11.1452991 C15.6210837,11.1794874 15.811965,11.1965812 15.982906,11.1965812 C16.1994313,11.1965812 16.4330472,11.1680915 16.6837607,11.1111111 C16.9344742,11.0541308 17.1709391,10.9572656 17.3931624,10.8205128 C17.6153857,10.68376 17.8005691,10.5099726 17.9487179,10.2991453 C18.0968668,10.088318 18.1709402,9.82906137 18.1709402,9.52136752 L18.1709402,8.06837607 Z M22.2735043,3.65811966 L24.1196581,3.65811966 L24.1196581,4.85470085 L24.1538462,4.85470085 C24.4273518,4.34187778 24.8091144,3.97436009 25.2991453,3.75213675 C25.7891762,3.52991342 26.3190855,3.41880342 26.8888889,3.41880342 C27.5840491,3.41880342 28.1908806,3.54130932 28.7094017,3.78632479 C29.2279228,4.03134026 29.6581179,4.36751923 30,4.79487179 C30.3418821,5.22222436 30.5982897,5.72079487 30.7692308,6.29059829 C30.9401718,6.86040171 31.025641,7.47008222 31.025641,8.11965812 C31.025641,8.71225368 30.9487187,9.2877465 30.7948718,9.84615385 C30.6410249,10.4045612 30.407409,10.8974338 30.0940171,11.3247863 C29.7806252,11.7521389 29.3846178,12.0940158 28.9059829,12.3504274 C28.427348,12.6068389 27.8632511,12.7350427 27.2136752,12.7350427 C26.9287735,12.7350427 26.6438761,12.709402 26.3589744,12.6581197 C26.0740726,12.6068374 25.8005711,12.5242171 25.5384615,12.4102564 C25.276352,12.2962957 25.0341891,12.150998 24.8119658,11.974359 C24.5897425,11.7977199 24.4045591,11.5897448 24.2564103,11.3504274 L24.2222222,11.3504274 L24.2222222,15.7606838 L22.2735043,15.7606838 L22.2735043,3.65811966 Z M29.0769231,8.08547009 C29.0769231,7.68660769 29.0256415,7.29914718 28.9230769,6.92307692 C28.8205123,6.54700667 28.6666677,6.21367667 28.4615385,5.92307692 C28.2564092,5.63247718 28.0000015,5.39886128 27.6923077,5.22222222 C27.3846138,5.04558316 27.031341,4.95726496 26.6324786,4.95726496 C25.8119617,4.95726496 25.1937343,5.24216239 24.7777778,5.81196581 C24.3618213,6.38176923 24.1538462,7.13959641 24.1538462,8.08547009 C24.1538462,8.52991675 24.2079767,8.94301803 24.3162393,9.32478632 C24.424502,9.70655462 24.5868935,10.0341867 24.8034188,10.3076923 C25.0199441,10.5811979 25.2792008,10.79772 25.5811966,10.957265 C25.8831924,11.1168099 26.2336162,11.1965812 26.6324786,11.1965812 C27.0769253,11.1965812 27.4529899,11.105414 27.7606838,10.9230769 C28.0683776,10.7407398 28.3219363,10.504275 28.5213675,10.2136752 C28.7207987,9.92307547 28.8632474,9.59259444 28.9487179,9.22222222 C29.0341885,8.85185 29.0769231,8.47293641 29.0769231,8.08547009 Z M31.6923077,3.65811966 L33.8290598,3.65811966 L36.1367521,10.2564103 L36.1709402,10.2564103 L38.4102564,3.65811966 L40.4444444,3.65811966 L37.008547,12.974359 C36.8490021,13.3732214 36.6923085,13.7549839 36.5384615,14.1196581 C36.3846146,14.4843323 36.1965823,14.8062664 35.974359,15.0854701 C35.7521356,15.3646738 35.4757851,15.5868938 35.1452991,15.7521368 C34.8148132,15.9173797 34.393165,16 33.8803419,16 C33.4244991,16 32.9743612,15.9658123 32.5299145,15.8974359 L32.5299145,14.2564103 C32.6894595,14.2792024 32.8433041,14.3048432 32.991453,14.3333333 C33.1396019,14.3618235 33.2934465,14.3760684 33.4529915,14.3760684 C33.6809128,14.3760684 33.8689451,14.3475786 34.017094,14.2905983 C34.1652429,14.2336179 34.2877488,14.1509977 34.3846154,14.042735 C34.481482,13.9344724 34.5641022,13.8062685 34.6324786,13.6581197 C34.700855,13.5099708 34.7635325,13.3390323 34.8205128,13.1452991 L35.042735,12.4615385 L31.6923077,3.65811966 Z M41.5897436,0.290598291 L43.5384615,0.290598291 L43.5384615,4.8034188 L43.5726496,4.8034188 C43.7094024,4.5868935 43.8746429,4.39316325 44.0683761,4.22222222 C44.2621092,4.0512812 44.4757823,3.9059835 44.7094017,3.78632479 C44.9430211,3.66666607 45.1880329,3.57549889 45.4444444,3.51282051 C45.700856,3.45014214 45.9544147,3.41880342 46.2051282,3.41880342 C46.9002884,3.41880342 47.5071199,3.54130932 48.025641,3.78632479 C48.5441621,4.03134026 48.9743573,4.36751923 49.3162393,4.79487179 C49.6581214,5.22222436 49.9145291,5.72079487 50.0854701,6.29059829 C50.2564111,6.86040171 50.3418803,7.47008222 50.3418803,8.11965812 C50.3418803,8.71225368 50.264958,9.2877465 50.1111111,9.84615385 C49.9572642,10.4045612 49.7236483,10.8974338 49.4102564,11.3247863 C49.0968645,11.7521389 48.7008571,12.0940158 48.2222222,12.3504274 C47.7435874,12.6068389 47.1794904,12.7350427 46.5299145,12.7350427 C46.2336168,12.7350427 45.9344744,12.7150999 45.6324786,12.6752137 C45.3304828,12.6353274 45.0427364,12.5584051 44.7692308,12.4444444 C44.4957251,12.3304838 44.2478644,12.1823371 44.025641,12 C43.8034177,11.8176629 43.6182344,11.5783491 43.4700855,11.2820513 L43.4358974,11.2820513 L43.4358974,12.4957265 L41.5897436,12.4957265 L41.5897436,0.290598291 Z M48.3931624,8.08547009 C48.3931624,7.68660769 48.3418809,7.29914718 48.2393162,6.92307692 C48.1367516,6.54700667 47.982907,6.21367667 47.7777778,5.92307692 C47.5726485,5.63247718 47.3162409,5.39886128 47.008547,5.22222222 C46.7008532,5.04558316 46.3475803,4.95726496 45.9487179,4.95726496 C45.128201,4.95726496 44.5099736,5.24216239 44.0940171,5.81196581 C43.6780606,6.38176923 43.4700855,7.13959641 43.4700855,8.08547009 C43.4700855,8.52991675 43.524216,8.94301803 43.6324786,9.32478632 C43.7407413,9.70655462 43.9031328,10.0341867 44.1196581,10.3076923 C44.3361834,10.5811979 44.5954401,10.79772 44.8974359,10.957265 C45.1994317,11.1168099 45.5498556,11.1965812 45.9487179,11.1965812 C46.3931646,11.1965812 46.7692292,11.105414 47.0769231,10.9230769 C47.3846169,10.7407398 47.6381756,10.504275 47.8376068,10.2136752 C48.037038,9.92307547 48.1794868,9.59259444 48.2649573,9.22222222 C48.3504278,8.85185 48.3931624,8.47293641 48.3931624,8.08547009 Z M59.3846154,10.5299145 C59.3846154,10.769232 59.4159541,10.9401704 59.4786325,11.042735 C59.5413109,11.1452997 59.6638168,11.1965812 59.8461538,11.1965812 L60.0512821,11.1965812 C60.1310545,11.1965812 60.2222217,11.1851853 60.3247863,11.1623932 L60.3247863,12.5128205 C60.2564099,12.5356126 60.1680917,12.5612534 60.0598291,12.5897436 C59.9515664,12.6182338 59.8404564,12.6438745 59.7264957,12.6666667 C59.612535,12.6894588 59.4985761,12.7065526 59.3846154,12.7179487 C59.2706547,12.7293448 59.1737896,12.7350427 59.0940171,12.7350427 C58.6951547,12.7350427 58.3646737,12.6552715 58.1025641,12.4957265 C57.8404545,12.3361815 57.6695161,12.0569821 57.5897436,11.6581197 C57.2022773,12.0341899 56.7264985,12.3076915 56.1623932,12.4786325 C55.5982878,12.6495735 55.0541337,12.7350427 54.5299145,12.7350427 C54.1310521,12.7350427 53.7492896,12.6809122 53.3846154,12.5726496 C53.0199412,12.4643869 52.6980071,12.3048444 52.4188034,12.0940171 C52.1395997,11.8831898 51.9173797,11.6153862 51.7521368,11.2905983 C51.5868938,10.9658103 51.5042735,10.5868968 51.5042735,10.1538462 C51.5042735,9.60683487 51.6039876,9.16239487 51.8034188,8.82051282 C52.00285,8.47863077 52.2649556,8.21082718 52.5897436,8.01709402 C52.9145315,7.82336085 53.2792003,7.68376111 53.6837607,7.5982906 C54.0883211,7.51282009 54.4957244,7.44729368 54.9059829,7.4017094 C55.259261,7.33333299 55.59544,7.28490043 55.9145299,7.25641026 C56.2336198,7.22792009 56.5156683,7.17948752 56.7606838,7.11111111 C57.0056992,7.0427347 57.1994295,6.93732265 57.3418803,6.79487179 C57.4843312,6.65242094 57.5555556,6.43874786 57.5555556,6.15384615 C57.5555556,5.90313265 57.4957271,5.6980065 57.3760684,5.53846154 C57.2564097,5.37891658 57.108263,5.25641068 56.9316239,5.17094017 C56.7549849,5.08546966 56.5584056,5.02849017 56.3418803,5 C56.125355,4.97150983 55.9202289,4.95726496 55.7264957,4.95726496 C55.1794844,4.95726496 54.7293465,5.07122393 54.3760684,5.2991453 C54.0227903,5.52706667 53.8233621,5.88033949 53.7777778,6.35897436 L51.8290598,6.35897436 C51.863248,5.78917094 51.9999988,5.3162412 52.2393162,4.94017094 C52.4786337,4.56410068 52.7834739,4.2621094 53.1538462,4.03418803 C53.5242184,3.80626667 53.9430176,3.6467241 54.4102564,3.55555556 C54.8774952,3.46438701 55.3561229,3.41880342 55.8461538,3.41880342 C56.2792044,3.41880342 56.7065506,3.46438701 57.1282051,3.55555556 C57.5498597,3.6467241 57.9287732,3.79487077 58.2649573,4 C58.6011413,4.20512923 58.8717938,4.47008385 59.0769231,4.79487179 C59.2820523,5.11965974 59.3846154,5.51566718 59.3846154,5.98290598 L59.3846154,10.5299145 Z M57.4358974,8.06837607 C57.1395997,8.26210923 56.7749309,8.37891718 56.3418803,8.41880342 C55.9088297,8.45868966 55.4757856,8.51851812 55.042735,8.5982906 C54.8376058,8.6324788 54.6381776,8.68091137 54.4444444,8.74358974 C54.2507113,8.80626812 54.0797728,8.89173735 53.9316239,9 C53.783475,9.10826265 53.6666671,9.25071137 53.5811966,9.42735043 C53.4957261,9.60398949 53.4529915,9.81766256 53.4529915,10.0683761 C53.4529915,10.2849014 53.5156689,10.4672357 53.6410256,10.6153846 C53.7663824,10.7635335 53.917378,10.8803415 54.0940171,10.965812 C54.2706562,11.0512825 54.4643864,11.1111109 54.6752137,11.1452991 C54.8860409,11.1794874 55.0769222,11.1965812 55.2478632,11.1965812 C55.4643885,11.1965812 55.6980044,11.1680915 55.9487179,11.1111111 C56.1994315,11.0541308 56.4358963,10.9572656 56.6581197,10.8205128 C56.880343,10.68376 57.0655263,10.5099726 57.2136752,10.2991453 C57.3618241,10.088318 57.4358974,9.82906137 57.4358974,9.52136752 L57.4358974,8.06837607 Z M61.4871795,3.65811966 L63.3162393,3.65811966 L63.3162393,5.36752137 L63.3504274,5.36752137 C63.4074077,5.12820393 63.5185177,4.89458803 63.6837607,4.66666667 C63.8490037,4.4387453 64.0484319,4.23077017 64.2820513,4.04273504 C64.5156707,3.85469991 64.7749274,3.70370427 65.0598291,3.58974359 C65.3447308,3.47578291 65.6353262,3.41880342 65.9316239,3.41880342 C66.1595453,3.41880342 66.3162389,3.42450137 66.4017094,3.43589744 C66.4871799,3.4472935 66.5754981,3.4586894 66.6666667,3.47008547 L66.6666667,5.35042735 C66.5299138,5.32763521 66.3903141,5.30769239 66.2478632,5.29059829 C66.1054124,5.27350419 65.9658126,5.26495726 65.8290598,5.26495726 C65.4985738,5.26495726 65.1880356,5.33048368 64.8974359,5.46153846 C64.6068362,5.59259325 64.3532774,5.7863235 64.1367521,6.04273504 C63.9202268,6.29914658 63.7492884,6.61538274 63.6239316,6.99145299 C63.4985749,7.36752325 63.4358974,7.80056735 63.4358974,8.29059829 L63.4358974,12.4957265 L61.4871795,12.4957265 L61.4871795,3.65811966 Z M74.9059829,10.5299145 C74.9059829,10.769232 74.9373216,10.9401704 75,11.042735 C75.0626784,11.1452997 75.1851843,11.1965812 75.3675214,11.1965812 L75.5726496,11.1965812 C75.6524221,11.1965812 75.7435892,11.1851853 75.8461538,11.1623932 L75.8461538,12.5128205 C75.7777774,12.5356126 75.6894592,12.5612534 75.5811966,12.5897436 C75.4729339,12.6182338 75.3618239,12.6438745 75.2478632,12.6666667 C75.1339026,12.6894588 75.0199436,12.7065526 74.9059829,12.7179487 C74.7920222,12.7293448 74.6951571,12.7350427 74.6153846,12.7350427 C74.2165222,12.7350427 73.8860412,12.6552715 73.6239316,12.4957265 C73.3618221,12.3361815 73.1908836,12.0569821 73.1111111,11.6581197 C72.7236448,12.0341899 72.2478661,12.3076915 71.6837607,12.4786325 C71.1196553,12.6495735 70.5755012,12.7350427 70.0512821,12.7350427 C69.6524197,12.7350427 69.2706571,12.6809122 68.9059829,12.5726496 C68.5413087,12.4643869 68.2193746,12.3048444 67.9401709,12.0940171 C67.6609673,11.8831898 67.4387473,11.6153862 67.2735043,11.2905983 C67.1082613,10.9658103 67.025641,10.5868968 67.025641,10.1538462 C67.025641,9.60683487 67.1253551,9.16239487 67.3247863,8.82051282 C67.5242175,8.47863077 67.7863232,8.21082718 68.1111111,8.01709402 C68.4358991,7.82336085 68.8005678,7.68376111 69.2051282,7.5982906 C69.6096886,7.51282009 70.017092,7.44729368 70.4273504,7.4017094 C70.7806285,7.33333299 71.1168075,7.28490043 71.4358974,7.25641026 C71.7549874,7.22792009 72.0370358,7.17948752 72.2820513,7.11111111 C72.5270668,7.0427347 72.720797,6.93732265 72.8632479,6.79487179 C73.0056987,6.65242094 73.0769231,6.43874786 73.0769231,6.15384615 C73.0769231,5.90313265 73.0170946,5.6980065 72.8974359,5.53846154 C72.7777772,5.37891658 72.6296305,5.25641068 72.4529915,5.17094017 C72.2763524,5.08546966 72.0797732,5.02849017 71.8632479,5 C71.6467226,4.97150983 71.4415964,4.95726496 71.2478632,4.95726496 C70.700852,4.95726496 70.250714,5.07122393 69.8974359,5.2991453 C69.5441578,5.52706667 69.3447296,5.88033949 69.2991453,6.35897436 L67.3504274,6.35897436 C67.3846156,5.78917094 67.5213663,5.3162412 67.7606838,4.94017094 C68.0000012,4.56410068 68.3048415,4.2621094 68.6752137,4.03418803 C69.0455859,3.80626667 69.4643851,3.6467241 69.9316239,3.55555556 C70.3988627,3.46438701 70.8774904,3.41880342 71.3675214,3.41880342 C71.800572,3.41880342 72.2279181,3.46438701 72.6495726,3.55555556 C73.0712272,3.6467241 73.4501408,3.79487077 73.7863248,4 C74.1225088,4.20512923 74.3931614,4.47008385 74.5982906,4.79487179 C74.8034198,5.11965974 74.9059829,5.51566718 74.9059829,5.98290598 L74.9059829,10.5299145 Z M72.957265,8.06837607 C72.6609672,8.26210923 72.2962985,8.37891718 71.8632479,8.41880342 C71.4301973,8.45868966 70.9971532,8.51851812 70.5641026,8.5982906 C70.3589733,8.6324788 70.1595451,8.68091137 69.965812,8.74358974 C69.7720788,8.80626812 69.6011403,8.89173735 69.4529915,9 C69.3048426,9.10826265 69.1880346,9.25071137 69.1025641,9.42735043 C69.0170936,9.60398949 68.974359,9.81766256 68.974359,10.0683761 C68.974359,10.2849014 69.0370364,10.4672357 69.1623932,10.6153846 C69.2877499,10.7635335 69.4387456,10.8803415 69.6153846,10.965812 C69.7920237,11.0512825 69.9857539,11.1111109 70.1965812,11.1452991 C70.4074085,11.1794874 70.5982897,11.1965812 70.7692308,11.1965812 C70.9857561,11.1965812 71.219372,11.1680915 71.4700855,11.1111111 C71.720799,11.0541308 71.9572638,10.9572656 72.1794872,10.8205128 C72.4017105,10.68376 72.5868938,10.5099726 72.7350427,10.2991453 C72.8831916,10.088318 72.957265,9.82906137 72.957265,9.52136752 L72.957265,8.06837607 Z" id="Capybara"></path>
                                </g>
                            </g>
                        </g>
                    </g>
                </g>
            </g>
        </g>
    </g>
</svg>