<?xml version="1.0" encoding="UTF-8"?>
<svg width="26px" height="37px" viewBox="0 0 26 37" version="1.1" xmlns="http://www.w3.org/2000/svg" xmlns:xlink="http://www.w3.org/1999/xlink">
    <!-- Generator: Sketch 49 (51002) - http://www.bohemiancoding.com/sketch -->
    <title>css3</title>
    <desc>Created with Sketch.</desc>
    <defs></defs>
    <g id="Home" stroke="none" stroke-width="1" fill="none" fill-rule="evenodd">
        <g id="1-Home-[Opt-1]-[desktop]" transform="translate(-254.000000, -2243.000000)" fill-rule="nonzero">
            <g id="Technologies" transform="translate(0.000000, 1704.000000)">
                <g id="T1" transform="translate(140.000000, 303.793750)">
                    <g id="descr" transform="translate(0.000000, 80.000000)">
                        <g id="tech-logos" transform="translate(50.000000, 156.000000)">
                            <g id="logos" transform="translate(0.966343, 0.000000)">
                                <g id="css3" transform="translate(63.033657, 0.000000)">
                                    <path d="M19.9380143,1.34089311 L17.8269264,1.34089311 L20.0223278,3.72313539 L20.0223278,4.85709264 L15.5003515,4.85709264 L15.5003515,3.52945368 L17.6953254,3.52945368 L15.5003515,1.14712589 L15.5003515,0.011543943 L19.9380143,0.011543943 L19.9380143,1.34089311 Z M14.6040285,1.34089311 L12.4929406,1.34089311 L14.6882565,3.72313539 L14.6882565,4.85709264 L10.1662803,4.85709264 L10.1662803,3.52945368 L12.3615107,3.52945368 L10.1662803,1.14712589 L10.1662803,0.011543943 L14.6040285,0.011543943 L14.6040285,1.34089311 Z M9.32220428,1.39485036 L7.04419952,1.39485036 L7.04419952,3.47387173 L9.32220428,3.47387173 L9.32220428,4.85709264 L5.42514014,4.85709264 L5.42514014,0.011543943 L9.32220428,0.011543943 L9.32220428,1.39485036 Z" id="Shape" fill="#131313"></path>
                                    <polygon id="Shape" fill="#1572B6" points="2.32093112 33.031924 0.00607125891 7.06916865 25.4412257 7.06916865 23.124228 33.027734 12.7080855 35.9154299"></polygon>
                                    <polygon id="Shape" fill="#33A9DC" points="12.7238195 33.708228 21.14038 31.3748124 23.1205511 9.19205701 12.7238195 9.19205701"></polygon>
                                    <g id="Group" transform="translate(4.703088, 12.142518)">
                                        <polygon id="Shape" fill="#FFFFFF" points="8.02064608 6.45571496 12.2341853 6.45571496 12.5251781 3.19502138 8.02064608 3.19502138 8.02064608 0.0106888361 8.03167696 0.0106888361 16.0052067 0.0106888361 15.9288456 0.865026128 15.1462518 9.63979097 8.02064608 9.63979097"></polygon>
                                        <polygon id="Shape" fill="#EBEBEB" points="8.03971496 14.7252827 8.02577672 14.7292162 4.47947743 13.7715819 4.25270309 11.2320855 2.5295772 11.2320855 1.05639905 11.2320855 1.5024228 16.231639 8.02500713 18.0424133 8.03971496 18.0383088"></polygon>
                                        <polygon id="Shape" fill="#FFFFFF" points="11.9635439 9.50502613 11.580114 13.7694442 8.02868409 14.728019 8.02868409 18.0408741 14.5564846 16.231639 14.6043705 15.6937767 15.1583088 9.50502613"></polygon>
                                        <polygon id="Shape" fill="#EBEBEB" points="8.03167696 0.0106888361 8.03167696 1.98838005 8.03167696 3.18715439 8.03167696 3.19502138 0.350422803 3.19502138 0.340247031 3.19502138 0.276370546 2.47929691 0.131258907 0.865026128 0.0551543943 0.0106888361"></polygon>
                                        <polygon id="Shape" fill="#EBEBEB" points="8.02064608 6.45605701 8.02064608 8.43383373 8.02064608 9.63243705 8.02064608 9.64030404 4.52941568 9.64030404 4.5192399 9.64030404 4.45544893 8.92466508 4.31025178 7.3103943 4.23414727 6.45605701"></polygon>
                                    </g>
                                </g>
                            </g>
                        </g>
                    </g>
                </g>
            </g>
        </g>
    </g>
</svg>