<?xml version="1.0" encoding="UTF-8"?>
<svg width="62px" height="25px" viewBox="0 0 62 25" version="1.1" xmlns="http://www.w3.org/2000/svg" xmlns:xlink="http://www.w3.org/1999/xlink">
    <!-- Generator: Sketch 49 (51002) - http://www.bohemiancoding.com/sketch -->
    <title>ember-js</title>
    <desc>Created with Sketch.</desc>
    <defs></defs>
    <g id="Home" stroke="none" stroke-width="1" fill="none" fill-rule="evenodd">
        <g id="1-Home-[Opt-1]-[desktop]" transform="translate(-431.000000, -2247.000000)" fill="#E14C31">
            <g id="Technologies" transform="translate(0.000000, 1704.000000)">
                <g id="T1" transform="translate(140.000000, 303.793750)">
                    <g id="descr" transform="translate(0.000000, 80.000000)">
                        <g id="tech-logos" transform="translate(50.000000, 156.000000)">
                            <g id="logos" transform="translate(0.966343, 0.000000)">
                                <g id="ember-js" transform="translate(240.033657, 4.000000)">
                                    <path d="M42.7564363,17.5161736 C42.7564363,17.5161736 42.4706189,16.5079988 43.5359381,14.5692011 C44.6012574,12.6304035 45.432726,13.6902795 45.432726,13.6902795 C45.432726,13.6902795 46.3421449,14.6726037 45.302809,16.1460899 C44.2634732,17.6195761 42.7564363,17.5161736 42.7564363,17.5161736 M34.5716666,18.9121079 C33.350447,22.0917361 30.3883399,20.7992043 30.3883399,20.7992043 C30.3883399,20.7992043 30.0505558,19.6617764 31.0119414,16.4821482 C31.9733271,13.30252 34.2338825,14.5433505 34.2338825,14.5433505 C34.2338825,14.5433505 35.7928862,15.7324797 34.5716666,18.9121079 M32.363078,5.59903055 C32.363078,5.59903055 34.2078991,0.816662942 34.6496168,3.14322015 C35.0913346,5.46977737 30.7780909,12.3977477 30.7780909,12.3977477 C30.8300577,10.8467096 32.363078,5.59903055 32.363078,5.59903055 M5.98993141,17.5161736 C6.0678816,14.439948 8.09458646,13.0957149 8.79613815,13.7678314 C9.49768983,14.439948 9.23785587,15.8875835 7.91270269,16.7923558 C6.58754951,17.697128 5.98993141,17.5161736 5.98993141,17.5161736 M61.8802155,17.0056752 C61.7762819,15.9715464 60.8408797,16.3561005 60.8408797,16.3561005 C60.8408797,16.3561005 59.3338427,17.5180348 58.0086895,17.3886783 C56.6835363,17.2593217 57.0992707,14.311522 57.0992707,14.311522 C57.0992707,14.311522 57.385088,11.610234 56.6055862,11.3837824 C55.8260843,11.1573308 54.8646987,12.0877469 54.8646987,12.0877469 C54.8646987,12.0877469 53.6694625,13.4060259 53.0978277,15.0863172 L52.9419274,15.1380185 C52.9419274,15.1380185 53.1238111,12.1909426 52.915944,11.5188261 C52.7600436,11.1827679 51.3309568,11.2086185 51.0971063,11.8031831 C50.8632557,12.3977477 49.7199863,16.5338494 49.6420361,18.265842 C49.6420361,18.265842 47.4074641,20.1529384 45.4587094,20.4631461 C43.5099547,20.7733537 43.0422536,19.5583738 43.0422536,19.5583738 C43.0422536,19.5583738 48.3428663,18.0848876 48.1609826,13.871234 C47.9790988,9.65758035 43.886714,11.2155465 43.4233781,11.561945 C42.9753204,11.8969692 40.5833929,13.3325067 39.8856868,17.3070937 C39.8617821,17.4426544 39.8203126,18.0331863 39.8203126,18.0331863 C39.8203126,18.0331863 37.7676243,19.40327 36.6243549,19.7651789 C36.6243549,19.7651789 39.8203126,14.4140973 35.9228032,11.9841376 C34.1559323,10.9242615 32.7528289,13.1474162 32.7528289,13.1474162 C32.7528289,13.1474162 38.0274583,7.3051725 36.8582055,2.36770108 C36.3014333,0.0165340666 35.1200202,-0.236078345 34.0352654,0.144339609 C32.3890614,0.790812307 31.7654599,1.74728583 31.7654599,1.74728583 C31.7654599,1.74728583 29.6348215,4.82351147 29.1411369,9.39907399 C28.6474524,13.9746365 27.9199174,19.5066725 27.9199174,19.5066725 C27.9199174,19.5066725 26.9065649,20.4889967 25.9711627,20.540698 C25.0357604,20.5923992 25.4514948,17.77468 25.4514948,17.77468 C25.4514948,17.77468 26.1790298,13.4834744 26.1270631,12.7596566 C26.0750963,12.0358388 26.0231295,11.6480793 25.1656774,11.3895729 C24.3082254,11.1310666 23.3728231,12.2167933 23.3728231,12.2167933 C23.3728231,12.2167933 20.9044005,15.9392848 20.6965334,16.5079988 L20.5666164,16.7406545 L20.4366994,16.5855507 C20.4366994,16.5855507 22.1775869,11.5188261 20.5146496,11.4412742 C18.8517123,11.3637223 17.7604096,13.2508187 17.7604096,13.2508187 C17.7604096,13.2508187 15.8636218,16.4045963 15.7856716,16.7665052 L15.6557546,16.6114013 C15.6557546,16.6114013 16.4352565,12.9406111 16.2793561,12.0358388 C16.1234557,11.1310666 15.2660037,11.312021 15.2660037,11.312021 C15.2660037,11.312021 14.174701,11.1827679 13.8888837,11.880735 C13.6030663,12.5787022 12.5637305,17.205966 12.4338135,18.6794522 C12.4338135,18.6794522 9.70555699,20.6182499 7.91270269,20.6441005 C6.11984839,20.6699512 6.30173216,19.5130835 6.30173216,19.5130835 C6.30173216,19.5130835 12.8755313,17.273798 11.082677,12.8533393 C10.2771917,11.7159114 9.34178945,11.3588624 8.01663628,11.384713 C6.6914831,11.4105637 5.08581318,12.214415 4.02049396,14.5926735 C3.51194694,15.7277232 3.36560845,16.8034199 3.26167487,17.6187489 L3.26167487,17.6184387 C3.26167487,17.6184387 2.07173928,17.8522319 1.44813779,17.3352191 C0.824536291,16.8182064 0.484049874,17.3352191 0.484049874,17.3352191 C0.484049874,17.3352191 -0.595508248,18.6730412 0.469810974,19.0866514 C1.5351302,19.5001582 3.18819383,19.6741847 3.18819383,19.6741847 L3.18705056,19.6741847 C3.33972899,20.3980025 3.78414899,21.646795 5.08113617,22.6275681 C7.02989084,24.1010543 10.771188,22.5018306 10.771188,22.5018306 L12.3041044,21.6505175 C12.3041044,21.6505175 12.3559673,23.0523457 13.4732533,23.2566692 C14.5905393,23.4608892 15.0582404,23.2546011 17.0069951,18.5497854 C18.1502645,16.1456763 18.2281108,16.2751363 18.2281108,16.2751363 L18.3580277,16.249389 C18.3580277,16.249389 17.4745923,20.8509056 17.8123764,22.0917361 C18.1501606,23.3325666 19.6312141,23.20321 19.6312141,23.20321 C19.6312141,23.20321 20.4366994,23.3387708 21.0862843,21.0639148 C21.7358692,18.7890589 22.9830722,16.2619008 22.9830722,16.2619008 L23.1389726,16.2619008 C23.1389726,16.2619008 22.5933212,20.9864663 23.4247899,22.4858032 C24.2562586,23.9851401 26.4128804,22.9996104 26.4128804,22.9996104 C26.4128804,22.9996104 27.9199174,22.2484944 28.1537679,22.0158386 C28.1537679,22.0158386 29.9429845,23.5323403 32.4654526,23.2582202 C38.1054085,22.1539844 40.1114305,20.663747 40.1114305,20.663747 C40.1114305,20.663747 41.0805073,23.1065287 44.0815895,23.3327734 C47.5113977,23.5912798 49.3822022,21.4455736 49.3822022,21.4455736 C49.3822022,21.4455736 49.3562188,22.841508 50.551455,23.33267 C51.7466912,23.8238321 52.5521764,21.0444752 52.5521764,21.0444752 L54.5528979,15.538083 L54.7347817,15.538083 C54.7347817,15.538083 54.8387153,19.1252206 56.8134533,19.6939346 C58.7881914,20.2626485 61.3605476,18.3723467 61.3605476,18.3723467 C61.3605476,18.3723467 61.9841491,18.0395973 61.8802155,17.0056752" id="Fill-1"></path>
                                </g>
                            </g>
                        </g>
                    </g>
                </g>
            </g>
        </g>
    </g>
</svg>