<?xml version="1.0" encoding="UTF-8"?>
<svg width="18px" height="18px" viewBox="0 0 18 18" version="1.1" xmlns="http://www.w3.org/2000/svg" xmlns:xlink="http://www.w3.org/1999/xlink">
    <!-- Generator: Sketch 49 (51002) - http://www.bohemiancoding.com/sketch -->
    <title>facebook</title>
    <desc>Created with Sketch.</desc>
    <defs></defs>
    <g id="Home" stroke="none" stroke-width="1" fill="none" fill-rule="evenodd">
        <g id="1-Home-[Opt-1]-[desktop]" transform="translate(-995.000000, -2625.000000)" fill="#004F9C" fill-rule="nonzero">
            <g id="Technologies" transform="translate(0.000000, 1704.000000)">
                <g id="T4" transform="translate(755.000000, 676.000000)">
                    <g id="body" transform="translate(0.000000, 80.000000)">
                        <g id="tech-logos" transform="translate(50.000000, 156.000000)">
                            <g id="logos" transform="translate(0.000000, 6.000000)">
                                <g id="facebook" transform="translate(190.000000, 3.000000)">
                                    <path d="M17.0059277,0 L0.993479549,0 C0.445168939,0 0,0.444279787 0,0.993479549 L0,17.0059277 C0,17.5551274 0.445168939,18 0.993479549,18 L9.61410788,18 L9.61410788,11.029342 L7.26852401,11.029342 L7.26852401,8.31238886 L9.61410788,8.31238886 L9.61410788,6.30883225 C9.61410788,3.98429164 11.0334914,2.71784232 13.1075874,2.71784232 C14.1019561,2.71784232 14.9546532,2.79223474 15.2033195,2.8245406 L15.2033195,5.25429757 L13.764671,5.25489034 C12.6369295,5.25489034 12.4193835,5.7910492 12.4193835,6.57735625 L12.4193835,8.3114997 L15.1099585,8.3114997 L14.7581506,11.0281565 L12.4190871,11.0281565 L12.4190871,17.9991108 L17.0056313,17.9991108 C17.5545347,17.9991108 18,17.5536455 18,17.0059277 L18,0.992886781 C17.9997036,0.444279787 17.5548311,0 17.0059277,0 Z" id="Shape"></path>
                                </g>
                            </g>
                        </g>
                    </g>
                </g>
            </g>
        </g>
    </g>
</svg>