<?xml version="1.0" encoding="UTF-8"?>
<svg width="19px" height="20px" viewBox="0 0 19 20" version="1.1" xmlns="http://www.w3.org/2000/svg" xmlns:xlink="http://www.w3.org/1999/xlink">
    <!-- Generator: Sketch 49 (51002) - http://www.bohemiancoding.com/sketch -->
    <title>google</title>
    <desc>Created with Sketch.</desc>
    <defs>
        <path d="M18.582177,7.95382294 L9.61900927,7.95382294 L9.61900927,11.7097949 L14.7782961,11.7097949 C14.2973456,14.0959418 12.2860982,15.4657668 9.61900927,15.4657668 C6.47096987,15.4657668 3.93504924,12.9028683 3.93504924,9.72133915 C3.93504924,6.53980997 6.47096987,3.97691147 9.61900927,3.97691147 C10.9744151,3.97691147 12.1986527,4.46297843 13.1605536,5.25836072 L15.9588108,2.43033479 C14.2536228,0.92794601 12.0674844,0 9.61900927,0 C4.2848314,0 0,4.33041471 0,9.72133915 C0,15.1122636 4.2848314,19.4426783 9.61900927,19.4426783 C14.4285139,19.4426783 18.8007908,15.9076459 18.8007908,9.72133915 C18.8007908,9.14689638 18.7133453,8.52826571 18.582177,7.95382294 Z" id="path-1"></path>
        <path d="M18.582177,7.95382294 L9.61900927,7.95382294 L9.61900927,11.7097949 L14.7782961,11.7097949 C14.2973456,14.0959418 12.2860982,15.4657668 9.61900927,15.4657668 C6.47096987,15.4657668 3.93504924,12.9028683 3.93504924,9.72133915 C3.93504924,6.53980997 6.47096987,3.97691147 9.61900927,3.97691147 C10.9744151,3.97691147 12.1986527,4.46297843 13.1605536,5.25836072 L15.9588108,2.43033479 C14.2536228,0.92794601 12.0674844,0 9.61900927,0 C4.2848314,0 0,4.33041471 0,9.72133915 C0,15.1122636 4.2848314,19.4426783 9.61900927,19.4426783 C14.4285139,19.4426783 18.8007908,15.9076459 18.8007908,9.72133915 C18.8007908,9.14689638 18.7133453,8.52826571 18.582177,7.95382294 Z" id="path-3"></path>
        <path d="M18.582177,7.95382294 L9.61900927,7.95382294 L9.61900927,11.7097949 L14.7782961,11.7097949 C14.2973456,14.0959418 12.2860982,15.4657668 9.61900927,15.4657668 C6.47096987,15.4657668 3.93504924,12.9028683 3.93504924,9.72133915 C3.93504924,6.53980997 6.47096987,3.97691147 9.61900927,3.97691147 C10.9744151,3.97691147 12.1986527,4.46297843 13.1605536,5.25836072 L15.9588108,2.43033479 C14.2536228,0.92794601 12.0674844,0 9.61900927,0 C4.2848314,0 0,4.33041471 0,9.72133915 C0,15.1122636 4.2848314,19.4426783 9.61900927,19.4426783 C14.4285139,19.4426783 18.8007908,15.9076459 18.8007908,9.72133915 C18.8007908,9.14689638 18.7133453,8.52826571 18.582177,7.95382294 Z" id="path-5"></path>
        <path d="M18.582177,7.95382294 L9.61900927,7.95382294 L9.61900927,11.7097949 L14.7782961,11.7097949 C14.2973456,14.0959418 12.2860982,15.4657668 9.61900927,15.4657668 C6.47096987,15.4657668 3.93504924,12.9028683 3.93504924,9.72133915 C3.93504924,6.53980997 6.47096987,3.97691147 9.61900927,3.97691147 C10.9744151,3.97691147 12.1986527,4.46297843 13.1605536,5.25836072 L15.9588108,2.43033479 C14.2536228,0.92794601 12.0674844,0 9.61900927,0 C4.2848314,0 0,4.33041471 0,9.72133915 C0,15.1122636 4.2848314,19.4426783 9.61900927,19.4426783 C14.4285139,19.4426783 18.8007908,15.9076459 18.8007908,9.72133915 C18.8007908,9.14689638 18.7133453,8.52826571 18.582177,7.95382294 Z" id="path-7"></path>
    </defs>
    <g id="Home" stroke="none" stroke-width="1" fill="none" fill-rule="evenodd">
        <g id="1-Home-[Opt-1]-[desktop]" transform="translate(-1085.000000, -2624.000000)">
            <g id="Technologies" transform="translate(0.000000, 1704.000000)">
                <g id="T4" transform="translate(755.000000, 676.000000)">
                    <g id="body" transform="translate(0.000000, 80.000000)">
                        <g id="tech-logos" transform="translate(50.000000, 156.000000)">
                            <g id="logos" transform="translate(0.000000, 6.000000)">
                                <g id="google" transform="translate(280.000000, 2.000000)">
                                    <g id="Clipped">
                                        <mask id="mask-2" fill="white">
                                            <use xlink:href="#path-1"></use>
                                        </mask>
                                        <g id="a"></g>
                                        <polygon id="Shape" fill="#FBBC05" fill-rule="nonzero" mask="url(#mask-2)" points="-0.874455388 15.4657668 -0.874455388 3.97691147 6.55841541 9.72133915"></polygon>
                                    </g>
                                    <g id="Clipped">
                                        <mask id="mask-4" fill="white">
                                            <use xlink:href="#path-3"></use>
                                        </mask>
                                        <g id="a"></g>
                                        <polygon id="Shape" fill="#EA4335" fill-rule="nonzero" mask="url(#mask-4)" points="-0.874455388 3.97691147 6.55841541 9.72133915 9.61900927 7.02587693 20.1124739 5.30254863 20.1124739 -0.883758105 -0.874455388 -0.883758105"></polygon>
                                    </g>
                                    <g id="Clipped">
                                        <mask id="mask-6" fill="white">
                                            <use xlink:href="#path-5"></use>
                                        </mask>
                                        <g id="a"></g>
                                        <polygon id="Shape" fill="#34A853" fill-rule="nonzero" mask="url(#mask-6)" points="-0.874455388 15.4657668 12.2423754 5.30254863 15.6964742 5.74442768 20.1124739 -0.883758105 20.1124739 20.3264364 -0.874455388 20.3264364"></polygon>
                                    </g>
                                    <g id="Clipped">
                                        <mask id="mask-8" fill="white">
                                            <use xlink:href="#path-7"></use>
                                        </mask>
                                        <g id="a"></g>
                                        <polygon id="Shape" fill="#4285F4" fill-rule="nonzero" mask="url(#mask-8)" points="20.1124739 20.3264364 6.55841541 9.72133915 4.80950463 8.39570199 20.1124739 3.97691147"></polygon>
                                    </g>
                                </g>
                            </g>
                        </g>
                    </g>
                </g>
            </g>
        </g>
    </g>
</svg>