<?xml version="1.0" encoding="UTF-8"?>
<svg width="25px" height="30px" viewBox="0 0 25 30" version="1.1" xmlns="http://www.w3.org/2000/svg" xmlns:xlink="http://www.w3.org/1999/xlink">
    <!-- Generator: Sketch 49 (51002) - http://www.bohemiancoding.com/sketch -->
    <title>heroku</title>
    <desc>Created with Sketch.</desc>
    <defs></defs>
    <g id="Home" stroke="none" stroke-width="1" fill="none" fill-rule="evenodd">
        <g id="1-Home-[Opt-1]-[desktop]" transform="translate(-805.000000, -2247.000000)" fill-rule="nonzero">
            <g id="Technologies" transform="translate(0.000000, 1704.000000)">
                <g id="T2" transform="translate(755.000000, 304.000000)">
                    <g id="body" transform="translate(0.000000, 80.000000)">
                        <g id="tech-logos" transform="translate(50.000000, 156.000000)">
                            <g id="logos">
                                <g id="heroku" transform="translate(0.000000, 3.000000)">
                                    <g id="Group">
                                        <path d="M21.7518068,29.7424492 L2.91696365,29.7424492 C1.30588655,29.7424492 0,28.4726449 0,26.9060729 L0,2.83649904 C0,1.26991171 1.30588655,0 2.91696365,0 L21.7518068,0 C23.3626471,0 24.6690231,1.26991171 24.6690231,2.83649904 L24.6690231,26.9060729 C24.6690231,28.4726449 23.3626471,29.7424492 21.7518068,29.7424492 Z" id="Shape" fill="#6762A6"></path>
                                        <path d="M15.4597147,25.6500729 L15.4597147,13.8384185 C15.4597147,13.8384185 16.249708,11.0118848 5.72810222,14.9947332 C5.70885412,15.0452361 5.70885412,4.07247601 5.70885412,4.07247601 L9.14665338,4.05196162 L9.14665338,11.0823187 C9.14665338,11.0823187 18.772425,7.39553167 18.772425,13.8782648 L18.772425,25.6501037 L15.4597147,25.6501037 L15.4597147,25.6500729 Z M17.4186788,8.30685605 L13.7721505,8.30685605 C15.0847005,6.74627256 16.2729036,4.0724453 16.2729036,4.0724453 L20.0432734,4.0724453 C20.0432734,4.0724453 19.3978541,5.81489443 17.4186788,8.30685605 Z M5.77127229,25.6295586 L5.77127229,18.9031862 L9.23004077,22.2666718 L5.77127229,25.6295586 Z" id="Shape" fill="#FFFFFF"></path>
                                    </g>
                                </g>
                            </g>
                        </g>
                    </g>
                </g>
            </g>
        </g>
    </g>
</svg>