<?xml version="1.0" encoding="UTF-8"?>
<svg width="26px" height="37px" viewBox="0 0 26 37" version="1.1" xmlns="http://www.w3.org/2000/svg" xmlns:xlink="http://www.w3.org/1999/xlink">
    <!-- Generator: Sketch 49 (51002) - http://www.bohemiancoding.com/sketch -->
    <title>html5</title>
    <desc>Created with Sketch.</desc>
    <defs></defs>
    <g id="Home" stroke="none" stroke-width="1" fill="none" fill-rule="evenodd">
        <g id="1-Home-[Opt-1]-[desktop]" transform="translate(-191.000000, -2243.000000)" fill-rule="nonzero">
            <g id="Technologies" transform="translate(0.000000, 1704.000000)">
                <g id="T1" transform="translate(140.000000, 303.793750)">
                    <g id="descr" transform="translate(0.000000, 80.000000)">
                        <g id="tech-logos" transform="translate(50.000000, 156.000000)">
                            <g id="logos" transform="translate(0.966343, 0.000000)">
                                <g id="html5">
                                    <path d="M2.41875,0 L4.0359375,0 L4.0359375,1.603125 L5.5265625,1.603125 L5.5265625,0 L7.14375,0 L7.14375,4.8515625 L5.5265625,4.8515625 L5.5265625,3.234375 L4.05,3.234375 L4.05,4.8515625 L2.41875,4.8515625 M9.28125,1.6171875 L7.85390625,1.6171875 L7.85390625,0 L12.3328125,0 L12.3328125,1.6171875 L10.8984375,1.6171875 L10.8984375,4.8515625 L9.28125,4.8515625 M13.0429687,0 L14.7375,0 L15.778125,1.70859375 L16.81875,0 L18.5132813,0 L18.5132813,4.8515625 L16.8960938,4.8515625 L16.8960938,2.446875 L15.7640625,4.190625 L14.6320312,2.446875 L14.6320312,4.8515625 L13.0429687,4.8515625 M19.3148438,0 L20.9320313,0 L20.9320313,3.2484375 L23.2242188,3.2484375 L23.2242188,4.8515625 L19.3148438,4.8515625" id="Shape" fill="#000000"></path>
                                    <polyline id="Shape" fill="#E44D26" points="2.3625 33.1171875 0.0421875 7.0734375 25.5515625 7.0734375 23.23125 33.103125 12.7757812 36"></polyline>
                                    <polyline id="Shape" fill="#F16529" points="12.796875 33.7851562 12.796875 9.2109375 23.2242187 9.2109375 21.234375 31.4296875"></polyline>
                                    <path d="M4.78125,12.3960938 L12.796875,12.3960938 L12.796875,15.5882812 L8.2828125,15.5882812 L8.578125,18.8578125 L12.796875,18.8578125 L12.796875,22.0429687 L5.653125,22.0429687 M5.79375,23.6460937 L9,23.6460937 L9.225,26.1984375 L12.796875,27.1546875 L12.796875,30.4875 L6.24375,28.659375" id="Shape" fill="#EBEBEB"></path>
                                    <path d="M20.784375,12.3960938 L12.7828125,12.3960938 L12.7828125,15.5882812 L20.4890625,15.5882812 M20.2007812,18.8578125 L12.7828125,18.8578125 L12.7828125,22.05 L16.7203125,22.05 L16.3476562,26.1984375 L12.7828125,27.1546875 L12.7828125,30.4734375 L19.321875,28.659375" id="Shape" fill="#FFFFFF"></path>
                                </g>
                            </g>
                        </g>
                    </g>
                </g>
            </g>
        </g>
    </g>
</svg>