<?xml version="1.0" encoding="UTF-8"?>
<svg width="52px" height="29px" viewBox="0 0 52 29" version="1.1" xmlns="http://www.w3.org/2000/svg" xmlns:xlink="http://www.w3.org/1999/xlink">
    <!-- Generator: Sketch 49 (51002) - http://www.bohemiancoding.com/sketch -->
    <title>java</title>
    <desc>Created with Sketch.</desc>
    <defs></defs>
    <g id="Home" stroke="none" stroke-width="1" fill="none" fill-rule="evenodd">
        <g id="1-Home-[Opt-1]-[desktop]" transform="translate(-420.000000, -2991.000000)">
            <g id="Technologies" transform="translate(0.000000, 1704.000000)">
                <g id="T3" transform="translate(140.000000, 1047.793750)">
                    <g id="body" transform="translate(0.000000, 80.000000)">
                        <g id="tech-logos" transform="translate(50.000000, 156.000000)">
                            <g id="logos">
                                <g id="java" transform="translate(231.000000, 3.000000)">
                                    <g id="g10" transform="translate(25.333333, 14.765257) scale(-1, 1) rotate(-180.000000) translate(-25.333333, -14.765257) translate(0.000000, 0.098591)">
                                        <g id="Group-5">
                                            <path d="M13.4699137,29.1349332 C14.1251382,28.3905113 14.3414978,27.3256345 14.1533354,26.3653518 C13.9507129,25.2867695 13.3509792,24.3333396 12.6465903,23.5120951 C12.0817417,22.8509878 11.4328435,22.2665228 10.7564711,21.7237151 C9.96821353,21.0903794 9.1938738,20.4085337 8.69879524,19.5176799 C8.28017461,18.7939964 8.18256876,17.903323 8.46851774,17.1168831 C8.93576055,15.766897 10.0240658,14.7647767 10.6169309,13.4912525 C9.96116422,14.0688648 9.31949614,14.6673959 8.71958167,15.3005513 C8.09183147,15.9686916 7.49896631,16.6784893 7.10836217,17.5136196 C6.84338037,18.0982649 6.72480733,18.7801107 6.92706834,19.3993803 C7.12932935,20.032716 7.58265429,20.540719 8.03615998,21.0139175 C9.29852896,22.2735559 10.8538962,23.1990339 12.0884295,24.4794108 C12.7723934,25.1823557 13.3372421,26.0243388 13.5324538,26.9916545 C13.6929612,27.7014521 13.6161417,28.4321686 13.4699137,29.1349332" id="path156" fill="#E9232E" fill-rule="nonzero"></path>
                                            <path d="M13.4699137,29.1349332 C14.1251382,28.3905113 14.3414978,27.3256345 14.1533354,26.3653518 C13.9507129,25.2867695 13.3509792,24.3333396 12.6465903,23.5120951 C12.0817417,22.8509878 11.4328435,22.2665228 10.7564711,21.7237151 C9.96821353,21.0903794 9.1938738,20.4085337 8.69879524,19.5176799 C8.28017461,18.7939964 8.18256876,17.903323 8.46851774,17.1168831 C8.93576055,15.766897 10.0240658,14.7647767 10.6169309,13.4912525 C9.96116422,14.0688648 9.31949614,14.6673959 8.71958167,15.3005513 C8.09183147,15.9686916 7.49896631,16.6784893 7.10836217,17.5136196 C6.84338037,18.0982649 6.72480733,18.7801107 6.92706834,19.3993803 C7.12932935,20.032716 7.58265429,20.540719 8.03615998,21.0139175 C9.29852896,22.2735559 10.8538962,23.1990339 12.0884295,24.4794108 C12.7723934,25.1823557 13.3372421,26.0243388 13.5324538,26.9916545 C13.6929612,27.7014521 13.6161417,28.4321686 13.4699137,29.1349332 L13.4699137,29.1349332 Z" id="path158" stroke="#E9232E" stroke-width="0.5"></path>
                                            <path d="M12.4378222,21.20922 C13.7909285,22.2044876 15.3743123,22.837643 16.9784825,23.2969557 C15.7094257,22.4897772 14.3841552,21.752208 13.2889814,20.7152831 C12.8911472,20.3326127 12.5148224,19.8940386 12.3403971,19.3582639 C12.2077255,18.9615275 12.263397,18.5231336 12.4240851,18.147316 C12.7170834,17.479356 13.2119812,16.9365483 13.5886675,16.3241314 C13.9096823,15.8022426 13.9653538,15.1341023 13.7215199,14.5703758 C13.3515214,13.7422785 12.6263461,13.1368947 11.8729736,12.6568435 C11.775187,12.6011201 11.691499,12.4967063 11.572926,12.4828205 C12.0752346,12.9351001 12.465658,13.5752885 12.4519209,14.2643477 C12.4378222,14.7792034 12.1518733,15.2314831 11.8171214,15.600448 C11.1266503,16.4215122 10.5477031,17.4654702 10.6662761,18.571824 C10.7848491,19.6783582 11.5799753,20.5690316 12.4378222,21.20922" id="path160" fill="#E9232E" fill-rule="nonzero"></path>
                                            <path d="M12.4378222,21.20922 C13.7909285,22.2044876 15.3743123,22.837643 16.9784825,23.2969557 C15.7094257,22.4897772 14.3841552,21.752208 13.2889814,20.7152831 C12.8911472,20.3326127 12.5148224,19.8940386 12.3403971,19.3582639 C12.2077255,18.9615275 12.263397,18.5231336 12.4240851,18.147316 C12.7170834,17.479356 13.2119812,16.9365483 13.5886675,16.3241314 C13.9096823,15.8022426 13.9653538,15.1341023 13.7215199,14.5703758 C13.3515214,13.7422785 12.6263461,13.1368947 11.8729736,12.6568435 C11.775187,12.6011201 11.691499,12.4967063 11.572926,12.4828205 C12.0752346,12.9351001 12.465658,13.5752885 12.4519209,14.2643477 C12.4378222,14.7792034 12.1518733,15.2314831 11.8171214,15.600448 C11.1266503,16.4215122 10.5477031,17.4654702 10.6662761,18.571824 C10.7848491,19.6783582 11.5799753,20.5690316 12.4378222,21.20922 L12.4378222,21.20922 Z" id="path162" stroke="#E9232E" stroke-width="0.5"></path>
                                            <path d="M17.2367765,13.1644859 C17.5294133,13.5193847 17.9968368,13.6099128 18.4221453,13.6656362 C19.1617807,13.763017 19.9498575,13.5751082 20.5078376,13.0671051 C20.9682119,12.6566632 21.2263251,12.0162944 21.1285385,11.3970248 C21.0240641,10.6801941 20.5425419,10.081663 19.9988412,9.6293834 C19.0153719,8.84312379 17.8016251,8.38381113 16.5878783,8.07760269 C16.6578292,8.15424497 16.7344678,8.22367386 16.8250244,8.2793973 C17.7457729,8.77351457 18.6594721,9.35094651 19.336206,10.1583053 C19.7474158,10.6592753 20.0684306,11.3135298 19.9359397,11.9746371 C19.7965802,12.7399779 19.050257,13.2968516 18.2898351,13.338509 C17.926886,13.3733136 17.5854462,13.2340951 17.2367765,13.1644859" id="path164" fill="#3471C0" fill-rule="nonzero"></path>
                                            <path d="M17.2367765,13.1644859 C17.5294133,13.5193847 17.9968368,13.6099128 18.4221453,13.6656362 C19.1617807,13.763017 19.9498575,13.5751082 20.5078376,13.0671051 C20.9682119,12.6566632 21.2263251,12.0162944 21.1285385,11.3970248 C21.0240641,10.6801941 20.5425419,10.081663 19.9988412,9.6293834 C19.0153719,8.84312379 17.8016251,8.38381113 16.5878783,8.07760269 C16.6578292,8.15424497 16.7344678,8.22367386 16.8250244,8.2793973 C17.7457729,8.77351457 18.6594721,9.35094651 19.336206,10.1583053 C19.7474158,10.6592753 20.0684306,11.3135298 19.9359397,11.9746371 C19.7965802,12.7399779 19.050257,13.2968516 18.2898351,13.338509 C17.926886,13.3733136 17.5854462,13.2340951 17.2367765,13.1644859 L17.2367765,13.1644859 Z" id="path166" stroke="#3471C0" stroke-width="0.5"></path>
                                            <path d="M3.21587708,12.5315109 C4.49921324,13.0811712 5.89425387,13.4360701 7.29616305,13.4153316 C6.48006971,13.1787324 5.64318993,12.9769377 4.87589951,12.6150059 C4.69460569,12.5176251 4.48529537,12.427097 4.38064021,12.2391882 C4.32496872,12.093117 4.47824606,11.9957363 4.58976978,11.9470459 C5.0640619,11.752104 5.5873377,11.7241521 6.09651487,11.6754617 C7.88197889,11.5571621 9.67467298,11.6267713 11.4536299,11.7382182 C13.2108967,11.8494848 14.9549686,12.086084 16.691449,12.3645209 C16.3080749,12.1834648 15.91729,12.002589 15.5617517,11.7730228 C15.3802771,11.6476902 15.1572296,11.6128855 14.9549686,11.5641952 C12.8204733,11.0909967 10.6301258,10.9447452 8.45405762,10.9101209 C7.60994778,10.9030879 6.77324876,10.9169737 5.93618823,10.9726971 C5.00152185,11.0352733 4.05980617,11.1048825 3.14610698,11.3485148 C2.88094442,11.4249767 2.60204475,11.5084717 2.39273443,11.6963805 C2.28807927,11.7798755 2.28807927,11.9470459 2.37881656,12.0442463 C2.60891331,12.2810259 2.9299281,12.3922924 3.21587708,12.5315109" id="path168" fill="#3471C0" fill-rule="nonzero"></path>
                                            <path d="M3.21587708,12.5315109 C4.49921324,13.0811712 5.89425387,13.4360701 7.29616305,13.4153316 C6.48006971,13.1787324 5.64318993,12.9769377 4.87589951,12.6150059 C4.69460569,12.5176251 4.48529537,12.427097 4.38064021,12.2391882 C4.32496872,12.093117 4.47824606,11.9957363 4.58976978,11.9470459 C5.0640619,11.752104 5.5873377,11.7241521 6.09651487,11.6754617 C7.88197889,11.5571621 9.67467298,11.6267713 11.4536299,11.7382182 C13.2108967,11.8494848 14.9549686,12.086084 16.691449,12.3645209 C16.3080749,12.1834648 15.91729,12.002589 15.5617517,11.7730228 C15.3802771,11.6476902 15.1572296,11.6128855 14.9549686,11.5641952 C12.8204733,11.0909967 10.6301258,10.9447452 8.45405762,10.9101209 C7.60994778,10.9030879 6.77324876,10.9169737 5.93618823,10.9726971 C5.00152185,11.0352733 4.05980617,11.1048825 3.14610698,11.3485148 C2.88094442,11.4249767 2.60204475,11.5084717 2.39273443,11.6963805 C2.28807927,11.7798755 2.28807927,11.9470459 2.37881656,12.0442463 C2.60891331,12.2810259 2.9299281,12.3922924 3.21587708,12.5315109 L3.21587708,12.5315109 Z" id="path170" stroke="#3471C0" stroke-width="0.5"></path>
                                            <path d="M4.8625239,9.55959384 C5.2252923,9.84488345 5.65783081,10.0050207 6.09018857,10.1581249 C5.95082911,9.99113495 5.75543666,9.83099767 5.74151879,9.60143151 C5.73465023,9.45536034 5.85322326,9.34391345 5.97161554,9.27430423 C6.20171229,9.15600462 6.45982553,9.11416696 6.71811953,9.07954268 C8.05712717,8.94032424 9.41023343,8.86368196 10.7635204,8.95421001 C11.9978729,9.01678618 13.2257183,9.21876112 14.4465145,9.43444151 C14.7812664,9.12120001 15.1787391,8.90551963 15.5973597,8.71761079 C14.1253189,8.28625002 12.611886,8.03558469 11.0914038,7.91728508 C9.65460955,7.81990431 8.19684813,7.82675703 6.7667417,8.05668386 C6.20171229,8.16091736 5.62294576,8.27921697 5.10690002,8.54358774 C4.8975897,8.65503463 4.66044364,8.80110579 4.59754209,9.04473807 C4.55578848,9.2533854 4.70924656,9.44129423 4.8625239,9.55959384" id="path172" fill="#3471C0" fill-rule="nonzero"></path>
                                            <path d="M4.8625239,9.55959384 C5.2252923,9.84488345 5.65783081,10.0050207 6.09018857,10.1581249 C5.95082911,9.99113495 5.75543666,9.83099767 5.74151879,9.60143151 C5.73465023,9.45536034 5.85322326,9.34391345 5.97161554,9.27430423 C6.20171229,9.15600462 6.45982553,9.11416696 6.71811953,9.07954268 C8.05712717,8.94032424 9.41023343,8.86368196 10.7635204,8.95421001 C11.9978729,9.01678618 13.2257183,9.21876112 14.4465145,9.43444151 C14.7812664,9.12120001 15.1787391,8.90551963 15.5973597,8.71761079 C14.1253189,8.28625002 12.611886,8.03558469 11.0914038,7.91728508 C9.65460955,7.81990431 8.19684813,7.82675703 6.7667417,8.05668386 C6.20171229,8.16091736 5.62294576,8.27921697 5.10690002,8.54358774 C4.8975897,8.65503463 4.66044364,8.80110579 4.59754209,9.04473807 C4.55578848,9.2533854 4.70924656,9.44129423 4.8625239,9.55959384 L4.8625239,9.55959384 Z" id="path174" stroke="#3471C0" stroke-width="0.5"></path>
                                            <path d="M5.67229094,6.52636299 C5.99312497,6.78388105 6.39059768,6.91624677 6.78138258,7.02751332 C6.65576023,6.90939405 6.43253204,6.76314255 6.53031864,6.56134794 C6.71866178,6.31753533 7.06733156,6.28976377 7.34641199,6.22700727 C8.52509298,6.08111644 9.7178726,5.98373567 10.8967344,6.07426372 C11.7894664,6.12980683 12.6680997,6.28976377 13.5402261,6.44304833 C14.0421732,6.15054533 14.565449,5.90024067 15.1022812,5.67734689 C14.2795,5.30874262 13.3936366,5.0721434 12.5079539,4.90497307 C11.0153074,4.6406023 9.47367723,4.60579768 7.97398144,4.8423969 C7.31134618,4.96069651 6.63479305,5.1136204 6.03505934,5.44092801 C5.80478184,5.57293306 5.56076722,5.72621762 5.46316137,5.98373567 C5.38634195,6.18553028 5.51178354,6.40103033 5.67229094,6.52636299" id="path176" fill="#3471C0" fill-rule="nonzero"></path>
                                            <path d="M5.67229094,6.52636299 C5.99312497,6.78388105 6.39059768,6.91624677 6.78138258,7.02751332 C6.65576023,6.90939405 6.43253204,6.76314255 6.53031864,6.56134794 C6.71866178,6.31753533 7.06733156,6.28976377 7.34641199,6.22700727 C8.52509298,6.08111644 9.7178726,5.98373567 10.8967344,6.07426372 C11.7894664,6.12980683 12.6680997,6.28976377 13.5402261,6.44304833 C14.0421732,6.15054533 14.565449,5.90024067 15.1022812,5.67734689 C14.2795,5.30874262 13.3936366,5.0721434 12.5079539,4.90497307 C11.0153074,4.6406023 9.47367723,4.60579768 7.97398144,4.8423969 C7.31134618,4.96069651 6.63479305,5.1136204 6.03505934,5.44092801 C5.80478184,5.57293306 5.56076722,5.72621762 5.46316137,5.98373567 C5.38634195,6.18553028 5.51178354,6.40103033 5.67229094,6.52636299 L5.67229094,6.52636299 Z" id="path178" stroke="#3471C0" stroke-width="0.5"></path>
                                            <path d="M1.80059228,4.5571073 C2.44244111,4.77278768 3.10507637,4.94681074 3.7816295,4.96754923 C4.05366062,4.97458229 4.33256029,4.96069651 4.56970635,4.82147807 C3.76066232,4.77278768 2.95143753,4.57099307 2.22608148,4.20220847 C2.06575484,4.11168041 1.88428026,4.00726658 1.82155946,3.81935775 C1.82155946,3.60367736 2.06575484,3.53406814 2.22608148,3.46463925 C3.23756727,3.08882159 4.31864242,2.97052198 5.37893114,2.85907509 C8.5384686,2.59470432 11.7189732,2.66413321 14.8786915,2.94960315 C16.0714711,3.08178854 17.2711193,3.21397392 18.4290138,3.5411012 C18.7986508,3.66643386 19.2170907,3.79140586 19.461286,4.11871347 C19.6078756,4.31347502 19.5104505,4.5571073 19.363861,4.72409729 C19.6008263,4.59173157 19.9357589,4.42474157 19.8871368,4.10464736 C19.7963995,3.77066736 19.4542367,3.59664431 19.1753371,3.43668737 C18.2826051,2.98422743 17.2991358,2.75448093 16.322535,2.55286665 C13.4838316,1.99617322 10.5751773,1.87084055 7.6874902,1.95433555 C5.51124129,2.03115816 3.33517312,2.23980549 1.18675994,2.60840976 C0.80320511,2.69893782 0.370847352,2.77576043 0.0917669261,3.07475548 C-0.0895268998,3.28358314 0.0707997439,3.57590581 0.245044259,3.72882969 C0.68463208,4.13241891 1.24966149,4.35513235 1.80059228,4.5571073" id="path180" fill="#3471C0" fill-rule="nonzero"></path>
                                            <path d="M1.80059228,4.5571073 C2.44244111,4.77278768 3.10507637,4.94681074 3.7816295,4.96754923 C4.05366062,4.97458229 4.33256029,4.96069651 4.56970635,4.82147807 C3.76066232,4.77278768 2.95143753,4.57099307 2.22608148,4.20220847 C2.06575484,4.11168041 1.88428026,4.00726658 1.82155946,3.81935775 C1.82155946,3.60367736 2.06575484,3.53406814 2.22608148,3.46463925 C3.23756727,3.08882159 4.31864242,2.97052198 5.37893114,2.85907509 C8.5384686,2.59470432 11.7189732,2.66413321 14.8786915,2.94960315 C16.0714711,3.08178854 17.2711193,3.21397392 18.4290138,3.5411012 C18.7986508,3.66643386 19.2170907,3.79140586 19.461286,4.11871347 C19.6078756,4.31347502 19.5104505,4.5571073 19.363861,4.72409729 C19.6008263,4.59173157 19.9357589,4.42474157 19.8871368,4.10464736 C19.7963995,3.77066736 19.4542367,3.59664431 19.1753371,3.43668737 C18.2826051,2.98422743 17.2991358,2.75448093 16.322535,2.55286665 C13.4838316,1.99617322 10.5751773,1.87084055 7.6874902,1.95433555 C5.51124129,2.03115816 3.33517312,2.23980549 1.18675994,2.60840976 C0.80320511,2.69893782 0.370847352,2.77576043 0.0917669261,3.07475548 C-0.0895268998,3.28358314 0.0707997439,3.57590581 0.245044259,3.72882969 C0.68463208,4.13241891 1.24966149,4.35513235 1.80059228,4.5571073 L1.80059228,4.5571073 Z" id="path182" stroke="#3471C0" stroke-width="0.5"></path>
                                            <path d="M19.1834709,2.17668832 C19.8882213,2.4203206 20.6412323,2.67783865 21.1643274,3.23453209 C21.0735901,2.62914826 20.550495,2.21149293 20.0342685,1.94026944 C19.0441114,1.425053 17.934839,1.18863411 16.8331582,0.993872559 C14.5030897,0.624907618 12.1388591,0.534559898 9.77408634,0.576036895 C8.16286684,0.624907618 6.53772946,0.687483784 4.95434569,1.02164411 C4.57765942,1.12587761 4.1731374,1.19566717 3.84543481,1.41820028 C5.25421255,1.18160106 6.68431898,1.08403994 8.11424466,1.02849684 C10.4647381,0.958887614 12.8222808,1.04923533 15.1590372,1.34173833 C16.5121434,1.52946683 17.8721182,1.75921333 19.1834709,2.17668832" id="path184" fill="#3471C0" fill-rule="nonzero"></path>
                                            <path d="M19.1834709,2.17668832 C19.8882213,2.4203206 20.6412323,2.67783865 21.1643274,3.23453209 C21.0735901,2.62914826 20.550495,2.21149293 20.0342685,1.94026944 C19.0441114,1.425053 17.934839,1.18863411 16.8331582,0.993872559 C14.5030897,0.624907618 12.1388591,0.534559898 9.77408634,0.576036895 C8.16286684,0.624907618 6.53772946,0.687483784 4.95434569,1.02164411 C4.57765942,1.12587761 4.1731374,1.19566717 3.84543481,1.41820028 C5.25421255,1.18160106 6.68431898,1.08403994 8.11424466,1.02849684 C10.4647381,0.958887614 12.8222808,1.04923533 15.1590372,1.34173833 C16.5121434,1.52946683 17.8721182,1.75921333 19.1834709,2.17668832 Z" id="path186" stroke="#3471C0" stroke-width="0.5"></path>
                                        </g>
                                        <path d="M26.3947877,13.3506761 C26.4031702,16.1362761 26.3861846,18.9218761 26.4031702,21.7160593 C26.9820047,21.6991129 27.5608392,21.7160593 28.1396737,21.6991129 C28.1312912,18.5820668 28.1396737,15.4568776 28.1312912,12.3314682 C28.1143056,11.4566353 28.09732,10.5393263 27.6715766,9.75846915 C27.2032589,8.92567224 26.369199,8.33980931 25.4839616,8 C25.2029268,8.30591641 24.9477014,8.62877927 24.6666667,8.93425551 C25.3818273,9.35043388 26.0969879,9.94488008 26.2670647,10.8027665 C26.4289795,11.6437065 26.3778021,12.5011528 26.3947877,13.3506761 M26.3947877,13.3506761 C26.4031702,16.1362761 26.3861846,18.9218761 26.4031702,21.7160593 C26.9820047,21.6991129 27.5608392,21.7160593 28.1396737,21.6991129 C28.1312912,18.5820668 28.1396737,15.4568776 28.1312912,12.3314682 C28.1143056,11.4566353 28.09732,10.5393263 27.6715766,9.75846915 C27.2032589,8.92567224 26.369199,8.33980931 25.4839616,8 C25.2029268,8.30591641 24.9477014,8.62877927 24.6666667,8.93425551 C25.3818273,9.35043388 26.0969879,9.94488008 26.2670647,10.8027665 C26.4289795,11.6437065 26.3778021,12.5011528 26.3947877,13.3506761 Z M31.2700594,14.1422447 C30.8954935,14.0236196 30.5465162,13.7518162 30.444382,13.3611675 C30.325262,12.9280427 30.3592333,12.4185488 30.6400474,12.0532098 C30.9126997,11.6964541 31.4063855,11.6117218 31.8319083,11.6625612 C32.4277284,11.730567 32.9470029,12.0703763 33.4067175,12.4352752 C33.4067175,13.0724176 33.3981144,13.7007568 33.4067175,14.3378992 C32.6915569,14.3378992 31.9596313,14.3801553 31.2700594,14.1422447 L31.2700594,14.1422447 Z M29.1589899,18.0830643 C30.3080558,18.5758319 31.5850654,18.8306888 32.8362655,18.6948972 C33.4832631,18.618308 34.1558494,18.3801774 34.5727691,17.8621003 C34.9217463,17.4208323 35.0496899,16.8516958 35.0410868,16.2997257 L35.0410868,10.6008772 L33.7556948,10.6008772 C33.7131204,10.8814839 33.6707667,11.1697936 33.6365748,11.4587636 C33.1512715,11.0764781 32.6322176,10.7113592 32.0275737,10.5586211 C31.3380018,10.3801332 30.5807081,10.3970796 29.9081218,10.6605199 C29.3886266,10.8726806 28.9803101,11.3396983 28.8356014,11.8833052 C28.6227298,12.6731857 28.7334672,13.598858 29.295316,14.2360004 C29.7973844,14.8218634 30.5551193,15.1106132 31.3040306,15.246625 C31.9936025,15.3824167 32.70016,15.3824167 33.4067175,15.3824167 C33.3897319,15.9176603 33.4918662,16.5035233 33.1852428,16.9789042 C32.9383998,17.3442432 32.4872883,17.4886181 32.0703687,17.5139278 C31.1595426,17.5905169 30.257099,17.3611896 29.3972297,17.0638565 C29.3123017,17.4034457 29.2355355,17.743255 29.1589899,18.0830643 L29.1589899,18.0830643 Z M31.2700594,14.1422447 C30.8954935,14.0236196 30.5465162,13.7518162 30.444382,13.3611675 C30.325262,12.9280427 30.3592333,12.4185488 30.6400474,12.0532098 C30.9126997,11.6964541 31.4063855,11.6117218 31.8319083,11.6625612 C32.4277284,11.730567 32.9470029,12.0703763 33.4067175,12.4352752 C33.4067175,13.0724176 33.3981144,13.7007568 33.4067175,14.3378992 C32.6915569,14.3378992 31.9596313,14.3801553 31.2700594,14.1422447 L31.2700594,14.1422447 Z M29.1589899,18.0830643 C30.3080558,18.5758319 31.5850654,18.8306888 32.8362655,18.6948972 C33.4832631,18.618308 34.1558494,18.3801774 34.5727691,17.8621003 C34.9217463,17.4208323 35.0496899,16.8516958 35.0410868,16.2997257 L35.0410868,10.6008772 L33.7556948,10.6008772 C33.7131204,10.8814839 33.6707667,11.1697936 33.6365748,11.4587636 C33.1512715,11.0764781 32.6322176,10.7113592 32.0275737,10.5586211 C31.3380018,10.3801332 30.5807081,10.3970796 29.9081218,10.6605199 C29.3886266,10.8726806 28.9803101,11.3396983 28.8356014,11.8833052 C28.6227298,12.6731857 28.7334672,13.598858 29.295316,14.2360004 C29.7973844,14.8218634 30.5551193,15.1106132 31.3040306,15.246625 C31.9936025,15.3824167 32.70016,15.3824167 33.4067175,15.3824167 C33.3897319,15.9176603 33.4918662,16.5035233 33.1852428,16.9789042 C32.9383998,17.3442432 32.4872883,17.4886181 32.0703687,17.5139278 C31.1595426,17.5905169 30.257099,17.3611896 29.3972297,17.0638565 C29.3123017,17.4034457 29.2355355,17.743255 29.1589899,18.0830643 L29.1589899,18.0830643 Z M46.7000492,14.1290909 C46.3424689,14.0102457 46.0102567,13.7386623 45.8995193,13.36474 C45.78062,12.9318353 45.8145913,12.4219013 46.0870229,12.0484191 C46.367837,11.6833002 46.870126,11.6069311 47.3040313,11.6577705 C47.8916895,11.7427228 48.4277291,12.0655857 48.8706786,12.4560142 C48.8534724,13.0759902 48.8620755,13.7045493 48.8620755,14.3331085 C48.1385324,14.3331085 47.3980036,14.3753646 46.7000492,14.1290909 Z M44.6143479,18.0782737 C45.7720169,18.5710412 47.0490264,18.8340413 48.3088297,18.6901065 C48.9386211,18.6135173 49.5858393,18.38397 50.0025383,17.8914226 C50.3940899,17.4246249 50.5134304,16.8042089 50.5048273,16.2097626 C50.4962242,14.3331085 50.5134304,12.4645975 50.4880622,10.5877233 C50.0623189,10.6044497 49.6365755,10.57914 49.2110527,10.6044497 C49.1682578,10.8934196 49.1342866,11.1735862 49.0835503,11.4539729 C48.4875096,10.944259 47.772349,10.5280806 46.9636572,10.4602948 C46.2231284,10.3922889 45.3888479,10.4856044 44.8097928,11.0124849 C44.2053696,11.5728182 44.1036765,12.481544 44.2567676,13.2544781 C44.4014762,13.9677695 44.937957,14.5538525 45.5845134,14.8681321 C46.5974738,15.3606795 47.755584,15.3862093 48.8620755,15.377626 C48.8446487,15.8954831 48.9386211,16.4476732 48.674572,16.9146909 C48.4703034,17.2886132 48.0359569,17.4585178 47.6276403,17.5007739 C46.682843,17.6026727 45.7380457,17.3647622 44.8525877,17.0590658 C44.7758216,17.3986551 44.6908935,17.7384644 44.6143479,18.0782737 L44.6143479,18.0782737 Z M46.7000492,14.1290909 C46.3424689,14.0102457 46.0102567,13.7386623 45.8995193,13.36474 C45.78062,12.9318353 45.8145913,12.4219013 46.0870229,12.0484191 C46.367837,11.6833002 46.870126,11.6069311 47.3040313,11.6577705 C47.8916895,11.7427228 48.4277291,12.0655857 48.8706786,12.4560142 C48.8534724,13.0759902 48.8620755,13.7045493 48.8620755,14.3331085 C48.1385324,14.3331085 47.3980036,14.3753646 46.7000492,14.1290909 Z M44.6143479,18.0782737 C45.7720169,18.5710412 47.0490264,18.8340413 48.3088297,18.6901065 C48.9386211,18.6135173 49.5858393,18.38397 50.0025383,17.8914226 C50.3940899,17.4246249 50.5134304,16.8042089 50.5048273,16.2097626 C50.4962242,14.3331085 50.5134304,12.4645975 50.4880622,10.5877233 C50.0623189,10.6044497 49.6365755,10.57914 49.2110527,10.6044497 C49.1682578,10.8934196 49.1342866,11.1735862 49.0835503,11.4539729 C48.4875096,10.944259 47.772349,10.5280806 46.9636572,10.4602948 C46.2231284,10.3922889 45.3888479,10.4856044 44.8097928,11.0124849 C44.2053696,11.5728182 44.1036765,12.481544 44.2567676,13.2544781 C44.4014762,13.9677695 44.937957,14.5538525 45.5845134,14.8681321 C46.5974738,15.3606795 47.755584,15.3862093 48.8620755,15.377626 C48.8446487,15.8954831 48.9386211,16.4476732 48.674572,16.9146909 C48.4703034,17.2886132 48.0359569,17.4585178 47.6276403,17.5007739 C46.682843,17.6026727 45.7380457,17.3647622 44.8525877,17.0590658 C44.7758216,17.3986551 44.6908935,17.7384644 44.6143479,18.0782737 L44.6143479,18.0782737 Z M36.057232,18.4325165 L37.8446923,18.4325165 C38.1938901,17.31163 38.5342642,16.1988865 38.8836826,15.078 C39.08751,14.3902383 39.342956,13.7106197 39.4876647,13.0056914 C39.5644308,12.6914118 39.6323733,12.368549 39.7259045,12.0628526 C40.4584919,14.1265779 41.0201202,16.2585292 41.309758,18.4325165 L43.046041,18.4325165 C42.543752,15.6810295 41.7522664,12.9717985 40.5604056,10.4408354 L38.5174992,10.4408354 C37.7002043,13.1075902 36.8745269,15.7657617 36.057232,18.4325165 M36.057232,18.4325165 L37.8446923,18.4325165 C38.1938901,17.31163 38.5342642,16.1988865 38.8836826,15.078 C39.08751,14.3902383 39.342956,13.7106197 39.4876647,13.0056914 C39.5644308,12.6914118 39.6323733,12.368549 39.7259045,12.0628526 C40.4584919,14.1265779 41.0201202,16.2585292 41.309758,18.4325165 L43.046041,18.4325165 C42.543752,15.6810295 41.7522664,12.9717985 40.5604056,10.4408354 L38.5174992,10.4408354 C37.7002043,13.1075902 36.8745269,15.7657617 36.057232,18.4325165 L36.057232,18.4325165 Z" id="Combined-Shape" fill="#E9232E" fill-rule="nonzero"></path>
                                    </g>
                                </g>
                            </g>
                        </g>
                    </g>
                </g>
            </g>
        </g>
    </g>
</svg>