<?xml version="1.0" encoding="UTF-8"?>
<svg width="76px" height="18px" viewBox="0 0 76 18" version="1.1" xmlns="http://www.w3.org/2000/svg" xmlns:xlink="http://www.w3.org/1999/xlink">
    <!-- Generator: Sketch 49 (51002) - http://www.bohemiancoding.com/sketch -->
    <title>jquery</title>
    <desc>Created with Sketch.</desc>
    <defs></defs>
    <g id="Home" stroke="none" stroke-width="1" fill="none" fill-rule="evenodd">
        <g id="1-Home-[Opt-1]-[desktop]" transform="translate(-317.000000, -2257.000000)" fill-rule="nonzero">
            <g id="Technologies" transform="translate(0.000000, 1704.000000)">
                <g id="T1" transform="translate(140.000000, 303.793750)">
                    <g id="descr" transform="translate(0.000000, 80.000000)">
                        <g id="tech-logos" transform="translate(50.000000, 156.000000)">
                            <g id="logos" transform="translate(0.966343, 0.000000)">
                                <g id="jquery" transform="translate(126.033657, 14.000000)">
                                    <path d="M35.0082977,12.8266589 L35.5656718,10.6884703 L35.0082977,12.8270952 L35.0082977,12.8268043 L35.0082977,12.8266589 Z" id="Shape" fill="#131B28"></path>
                                    <path d="M46.7890605,2.97996757 L45.7507398,7.88986047 L46.7890605,2.97996757 L46.7890605,2.97996757 Z" id="Shape" fill="#131B28"></path>
                                    <path d="M44.1200266,2.97996757 L43.3317941,6.64784372 L44.1200266,2.9796767 L44.1200266,2.97996757 L44.1200266,2.97996757 Z" id="Shape" fill="#131B28"></path>
                                    <path d="M46.6112213,2.75905148 L44.3909783,2.75905148 C44.2677849,2.75905148 44.1454735,2.85846954 44.1191735,2.97954581 L43.3309555,6.64771283 L42.542723,10.3158798 C42.5166023,10.4369561 42.3944658,10.5360251 42.2712796,10.5360251 L40.9240971,10.5360251 L40.6997739,10.5360251 C39.1450544,10.5360251 39.3248744,9.45449615 39.6432789,7.97243858 C39.6464597,7.95753147 39.6496406,7.94296904 39.652807,7.92770125 L39.6877517,7.74093335 C39.6898626,7.72886223 39.692335,7.71678674 39.6942725,7.70578166 L39.7652231,7.32549766 L39.841292,6.91788638 C39.864414,6.79503289 39.8995351,6.61536658 39.9224806,6.50246522 L40.2807616,4.74139019 L40.639404,2.98031516 C40.6641135,2.85888258 40.5832776,2.7591082 40.46009,2.7591082 L38.1811457,2.7591082 C38.0579508,2.7591082 37.9359878,2.85888258 37.9107578,2.97996612 L37.4208036,5.31841896 L36.9308493,7.65658092 C36.9304156,7.65759897 36.930271,7.65906787 36.9301264,7.66012954 L36.8845909,7.87743884 C36.3201611,10.4693853 36.4698352,12.9410568 39.5372867,13.0184283 C39.5874142,13.0198826 39.6262425,13.0202462 39.6262425,13.0202462 L44.4412027,13.0202462 C44.5643976,13.0202462 44.6863606,12.9208267 44.7121256,12.7993883 L45.7504463,7.88993173 L46.788767,2.98003884 C46.8143599,2.8586048 46.734406,2.75918092 46.6112169,2.75918092 L46.6112213,2.75905148 Z" id="Shape" fill="#131B28"></path>
                                    <path d="M18.7034791,9.22306509 L19.0483425,7.68523312 L18.65406,9.44310857 L18.2756529,11.233707 L18.6072869,9.66402466 C18.6328784,9.54259062 18.6762971,9.34411082 18.7034776,9.223036 L18.7034791,9.22306509 Z" id="Shape" fill="#131B28"></path>
                                    <path d="M22.8313728,2.73316401 L20.3930961,2.73316401 C20.2697277,2.73316401 20.1467093,2.83222721 20.1191803,2.95294571 L19.8879749,3.97944201 L19.6567695,5.0063019 C19.629589,5.12702476 19.7081303,5.22608359 19.8315001,5.22608359 L22.2887174,5.22608359 C22.4119108,5.22608359 22.5343957,5.1270204 22.5608692,5.00593831 L22.7843104,3.97944201 L23.0077517,2.95365834 L23.0077517,2.95336747 C23.0340502,2.83228829 22.9548033,2.73322219 22.8314306,2.73322219 L22.8313728,2.73316401 Z" id="Shape" fill="#131B28"></path>
                                    <path d="M22.3007468,6.14783745 L22.3007468,6.14754658 L21.5855875,9.47554062 L22.3007468,6.14783745 L22.3007468,6.14783745 Z" id="Shape" fill="#131B28"></path>
                                    <path d="M22.1243535,5.92735766 L19.666847,5.92735766 C19.5436536,5.92735766 19.4204602,6.02642377 19.3932783,6.14750295 L19.0480534,7.68533492 L18.7031899,9.22316689 C18.6760094,9.34424607 18.6325906,9.54273169 18.6069991,9.66415556 L18.2753652,11.2338378 L17.9439047,12.8035201 C17.9181368,12.9245979 17.8651884,13.1202344 17.8256532,13.2377606 C17.8256532,13.2377606 17.3665967,14.6118616 16.5947746,14.5962419 C16.5619466,14.5955147 16.5300006,14.5952238 16.4984089,14.5944239 C16.1244116,14.5873121 15.8305576,14.5819892 15.8305576,14.5819892 L15.8299793,14.5819892 C15.7069622,14.5801713 15.583231,14.6767912 15.5544731,14.7971606 L15.2996136,15.8747919 L15.0451011,16.9520597 C15.0165095,17.0724248 15.0938146,17.1718414 15.2163039,17.1739793 C15.6540197,17.1793022 16.6342607,17.1903044 17.2277665,17.1903044 C19.1556591,17.1903044 20.1719451,16.1158726 20.8234438,13.0240217 L21.5858969,9.4755479 L22.3010563,6.14755385 C22.327002,6.02647758 22.2474009,5.92740856 22.1242002,5.92740856 L22.1243535,5.92735766 Z" id="Shape" fill="#131B28"></path>
                                    <path d="M57.0343336,13.0200877 C56.9111401,13.0200877 56.831192,12.9206682 56.8571305,12.7992298 L58.7057907,4.08911471" id="Shape" fill="#131B28"></path>
                                    <path d="M59.603604,12.7988807 L60.3512371,9.08126575 L59.603604,12.7988807 Z" id="Shape" fill="#131B28"></path>
                                    <path d="M56.8839654,12.9097024 C56.8689648,12.8489846 56.8777772,12.7002175 56.903908,12.5787791 L57.7812625,8.44434677 L56.8569614,12.7992589 C56.8310171,12.92069 56.9109695,13.0201168 57.0341644,13.0201168 L57.2586755,13.0201168 C57.1353043,13.0201168 56.8988042,12.970407 56.8839698,12.9096922 L56.8839654,12.9097024 Z" id="Shape" fill="#131B28"></path>
                                    <path d="M58.7360957,3.94638458 C58.711564,4.06355738 58.6801472,4.21161479 58.6593198,4.30962358 L57.7819652,8.44434677 L58.7062664,4.08914379 L58.7360942,3.9464064 L58.7360957,3.94638458 Z" id="Shape" fill="#131B28"></path>
                                    <path d="M67.3735867,5.0957591 L67.2717499,4.67251353 L67.17097,4.23897115 L67.1199634,4.0195385 C66.9203498,3.23945309 66.3343768,2.78922929 65.0620891,2.78922929 L63.0812785,2.78710593 L61.2570531,2.78498258 L61.1004968,2.78498258 L59.2044128,2.78498258 C59.0812194,2.78498258 58.959255,2.88404578 58.9338514,3.00547691 L58.9337068,3.00547691 L58.8429901,3.43688139 L58.7358586,3.94639913 L58.7060307,4.08913652 L57.7817296,8.4443395 L56.904375,12.5787718 C56.8782558,12.7002044 56.8694303,12.8489759 56.8844339,12.9096951 C56.8992538,12.9704099 57.1357655,13.0201197 57.2591252,13.0201197 L59.1109663,13.0201197 C59.2343361,13.0201197 59.3903618,12.9977503 59.4574202,12.9704099 C59.5246636,12.9430696 59.6240251,12.6994932 59.6485612,12.5780548 L59.9777227,10.9401634 L60.3072313,9.30256289 C60.3073759,9.30183571 60.3075205,9.30043953 60.3078096,9.29936331 L60.3517576,9.08135592 L60.7509849,7.19986054 L61.1036271,5.53811776 C61.1297506,5.41739635 61.2511758,5.3186851 61.3741884,5.31833606 L67.2009526,5.31550007 C67.3239696,5.3152092 67.4018096,5.21679028 67.3737458,5.09571837 L67.3735867,5.0957591 Z" id="Shape" fill="#131B28"></path>
                                    <path d="M74.8746419,1.268835 C74.7512735,1.26970761 74.5495431,1.27047842 74.426169,1.27047842 L72.5611707,1.27047842 C72.4377995,1.27047842 72.2798378,1.35427528 72.2102925,1.45670821 L68.0863026,7.53400958 C68.0165868,7.6366243 67.9371635,7.62135652 67.9098081,7.50063365 L67.6064115,6.16168434 C67.5790546,6.04060661 67.4555084,5.94190264 67.3323078,5.94190264 L64.6810578,5.94190264 C64.557688,5.94190264 64.484625,6.03919152 64.5183277,6.1584993 L65.7063225,10.3447066 C65.7402088,10.46401 65.7426812,10.6600101 65.7121493,10.7800232 L65.1943191,12.8060812 C65.1636093,12.9264492 65.2395018,13.0248013 65.362876,13.0248013 L67.9831848,13.0248013 C68.1063782,13.0248013 68.232391,12.9264478 68.2629273,12.8060812 L68.7809454,10.7800232 C68.8114803,10.6600116 68.8972566,10.480354 68.9715659,10.3812835 L75.6667059,1.44298058 C75.7410123,1.34391738 75.70077,1.26330991 75.5775766,1.26421161 L74.8747792,1.26882191 L74.8746419,1.268835 Z" id="Shape" fill="#131B28"></path>
                                    <path d="M53.8115402,6.51171636 L53.8113956,6.50922942 C53.7958716,6.64379771 53.6724945,6.7425075 53.5492924,6.7425075 L50.1879869,6.7425075 C50.0718521,6.7425075 50.0127213,6.66297189 50.0298402,6.56497473 C50.0308523,6.56213875 50.031286,6.55965181 50.033021,6.55716486 C50.033021,6.55716486 50.0318643,6.55745573 50.0309101,6.55818291 C50.031633,6.5542707 50.031633,6.55073663 50.0327174,6.54682442 C50.0327174,6.54682442 50.0390791,6.52303413 50.0480795,6.48930188 C50.3691154,5.63075417 51.0230432,5.06726543 52.2519844,5.06726543 C53.63553,5.06726543 53.9055998,5.74721869 53.8116197,6.51166982 L53.8115402,6.51171636 Z M52.825458,2.60910777 C48.5109054,2.60910777 47.4885469,5.24337584 46.9149793,7.90207702 C46.3413683,10.6119714 46.3907874,13.1457437 50.8553466,13.1457437 L51.0138404,13.1457437 C51.0279518,13.1454529 51.0424349,13.1454529 51.0565536,13.1454529 L51.1815124,13.1454529 L51.2273992,13.1454529 L51.3445924,13.1454529 C51.361889,13.145162 51.3791872,13.145162 51.3968352,13.145162 C51.4413123,13.145162 51.4863186,13.1448711 51.5313235,13.1448711 L51.5629182,13.1448711 C51.7395863,13.1445803 51.9189147,13.1437076 52.0985756,13.1430532 L52.1075833,13.1430532 C53.2867439,13.1384429 54.4692301,13.1295713 54.9482392,13.1256562 C55.0707271,13.1238383 55.1905632,13.0244624 55.2158077,12.9041002 L55.3965386,12.0153747 L55.4316626,11.8424522 L55.6473396,10.7825785 C55.6720491,10.661146 55.5913911,10.5617206 55.4680256,10.5617206 L51.4542093,10.5617206 C49.8578494,10.5617206 49.3837561,10.1349264 49.5584145,8.88048953 L55.9746505,8.88048953 L55.9740721,8.88121671 C55.9757059,8.88121671 55.9770795,8.88048953 55.978482,8.88048953 C56.0804952,8.87867159 56.1747413,8.80805697 56.2121598,8.71396621 C56.21923,8.69585952 56.2252302,8.67703875 56.2276838,8.65751117 L56.2269609,8.65823834 C57.1796875,5.04359148 56.9064657,2.60929684 52.8251717,2.60929684 L52.825458,2.60910777 Z" id="Shape" fill="#131B28"></path>
                                    <path d="M32.4332439,6.49790001 L32.3725284,6.71413309 C32.3725284,6.71486027 32.3723838,6.71486027 32.3723838,6.71486027 L31.8879093,8.44190346 L31.4036084,10.1686558 C31.3700748,10.2879577 31.2419337,10.3856015 31.1183861,10.3856015 L28.5540315,10.3856015 C26.6089333,10.3856015 26.1352738,8.85533215 26.6089333,6.59817759 C27.0824772,4.28953898 28.0110147,2.85438427 29.9254176,2.70909449 C32.5415335,2.5106045 33.0649301,4.36152941 32.4332395,6.49797273 L32.4332439,6.49790001 Z M34.1918278,10.2527464 C34.1918278,10.2527464 35.4008163,7.29997523 35.6754116,5.59431102 C36.049886,3.31112356 34.9134501,0 30.5238581,0 C26.1592792,0 24.2640627,3.16132529 23.54085,6.59795944 C22.8177529,10.059463 23.7651732,13.0952777 28.1049557,13.0704083 L31.5285773,13.0576245 L34.7283817,13.0459025 C34.8515751,13.0448844 34.9775879,12.9464829 35.0090061,12.8268188 L35.5663802,10.688194 C35.5974443,10.5681809 35.5220809,10.469474 35.3988933,10.4687613 L34.8646383,10.4655618 L34.3305713,10.4623622 C34.2257329,10.461635 34.1657302,10.3934783 34.1784392,10.3029361 C34.1807381,10.286611 34.1844395,10.269915 34.1915097,10.2525166 L34.1918278,10.2527464 Z" id="Shape" fill="#131B28"></path>
                                    <path d="M0.864399734,4.437083 C-0.340713887,6.17939689 -0.190692784,8.44615017 0.729909922,10.297395 C0.751797156,10.3417789 0.774739859,10.3854502 0.797331221,10.4291244 C0.811807043,10.4568197 0.825393669,10.4852246 0.840395779,10.512565 C0.848871336,10.5288901 0.858396577,10.5448749 0.867223474,10.560499 C0.882928266,10.5899685 0.898991628,10.6180201 0.915228492,10.6467799 C0.943821565,10.6975542 0.973120213,10.7479737 1.00312299,10.7983961 C1.01971408,10.8260899 1.03612879,10.8537851 1.05324906,10.8814803 C1.08642981,10.9354499 1.12049397,10.9887097 1.15526226,11.0419681 C1.16973808,11.0646923 1.18385388,11.0874166 1.1986796,11.1094296 C1.24668751,11.1815088 1.29575233,11.2532316 1.34640181,11.3238884 C1.34765969,11.3257064 1.34904048,11.3278006 1.35063091,11.3295604 C1.35858307,11.3409189 1.36740274,11.3519298 1.37551683,11.3632926 C1.41928841,11.4240075 1.46447113,11.484014 1.51018304,11.5433123 C1.52695487,11.5649706 1.54389296,11.5866302 1.56083685,11.6082884 C1.60160829,11.659774 1.64308386,11.7109046 1.68526646,11.762028 C1.70097125,11.7812022 1.71685822,11.8003735 1.73274229,11.8191928 C1.78939782,11.8863009 1.84711025,11.9530528 1.90605599,12.0183808 C1.90714038,12.0193989 1.90853273,12.0208678 1.90957952,12.0219295 C1.91205626,12.0247654 1.91417009,12.0265398 1.91628392,12.0293757 C1.97382141,12.0925775 2.03277004,12.1543584 2.09243148,12.2161436 C2.11096146,12.2353178 2.12984856,12.254492 2.14890916,12.2733113 C2.19515025,12.3201793 2.2420969,12.366339 2.28957563,12.4121409 C2.30881263,12.4306039 2.32787468,12.4494232 2.34711312,12.4671765 C2.41047304,12.527183 2.47454142,12.5861236 2.53984455,12.6436476 C2.54092894,12.6446656 2.54177765,12.6454655 2.54284468,12.6461345 C2.55396036,12.6560823 2.56543605,12.6653087 2.57637966,12.6748943 C2.63391715,12.7249589 2.692513,12.7746687 2.7514573,12.8236745 C2.77545981,12.8432036 2.79981799,12.8623778 2.8239969,12.8819053 C2.87217975,12.9206071 2.92089179,12.9589555 2.96995517,12.9965926 C2.9959009,13.0164766 3.02184518,13.036359 3.0479673,13.0562444 C3.10215042,13.0963656 3.15668778,13.1357785 3.21175287,13.1744817 C3.23187183,13.1890427 3.25128811,13.2032415 3.27140708,13.2170884 C3.27704588,13.2210006 3.28217864,13.2248983 3.28781744,13.2288105 C3.34006168,13.2650268 3.39353779,13.2998222 3.44684617,13.3346204 C3.46979032,13.3498911 3.49255808,13.3658643 3.51568006,13.3807772 C3.59757285,13.4329725 3.68070906,13.484458 3.76471278,13.5341677 C3.78747909,13.5473151 3.81060108,13.5600872 3.83354378,13.5732258 C3.8953176,13.6090872 3.95744421,13.6442389 4.02044845,13.6786809 C4.05451261,13.6971439 4.08945873,13.7145423 4.12387568,13.7322956 C4.16835138,13.7557296 4.21247575,13.7795184 4.25765847,13.8022427 C4.26788784,13.8072311 4.2784859,13.8121904 4.28854466,13.8171498 C4.30672474,13.8260213 4.32507977,13.8345482 4.34325841,13.8437804 C4.41332561,13.8775127 4.48392488,13.9105337 4.55523406,13.9424902 C4.57041546,13.9492384 4.58506189,13.9559866 4.600064,13.962729 C4.68178039,13.9985889 4.76419657,14.0330309 4.84733278,14.0660534 C4.8672768,14.0742123 4.88739721,14.0820324 4.90751762,14.0898408 C4.9844685,14.1196681 5.06248352,14.1491391 5.14084844,14.1768329 C5.15073514,14.1803815 5.16026472,14.1835811 5.17014708,14.1871151 C5.25610125,14.2172973 5.34294028,14.245346 5.43029837,14.2726863 C5.45112435,14.2787219 5.47212672,14.2854701 5.4931291,14.2915056 C5.5820834,14.3184911 5.66998513,14.350801 5.76175305,14.3678446 C11.589963,15.4369534 13.2829055,10.8448219 13.2829055,10.8448219 C11.8610594,12.7081379 9.33718853,13.1995635 6.94590188,12.6524362 C6.85536004,12.6318426 6.76746988,12.6034376 6.67904187,12.5771618 C6.65662546,12.5704137 6.63456472,12.56368 6.61250254,12.5569231 C6.52619703,12.5302939 6.44059131,12.5022438 6.35553212,12.4727728 C6.3438757,12.4685261 6.33205734,12.4642503 6.32023176,12.4599891 C6.24398646,12.4330036 6.16862023,12.4045986 6.09360967,12.3754839 C6.07242946,12.3669614 6.05124924,12.3587952 6.03007192,12.3502742 C5.9478249,12.317608 5.86611285,12.2835209 5.78544904,12.2480158 C5.76885794,12.240904 5.75297386,12.2334533 5.73655916,12.2263547 C5.66719609,12.1947545 5.59854003,12.1627995 5.53023677,12.1297769 C5.51047059,12.1201928 5.49070152,12.1109591 5.47058111,12.1010171 C5.41694018,12.0746934 5.36387759,12.0466244 5.31095959,12.0192825 C5.27553633,12.0005214 5.23953473,11.9827783 5.20440065,11.9631445 C5.13977128,11.9283855 5.07629859,11.8921722 5.01311507,11.8552316 C4.99171653,11.8431605 4.97002882,11.8315257 4.9484857,11.8190182 C4.86448198,11.7692794 4.78149035,11.7177953 4.69936623,11.6655841 C4.67666643,11.6510406 4.65454497,11.635479 4.63213434,11.6204992 C4.57256543,11.5818134 4.5132857,11.5424005 4.45487347,11.5019695 C4.43549912,11.4887349 4.41684769,11.4746277 4.39776251,11.4615385 C4.34137447,11.4213984 4.28556477,11.3808219 4.23018882,11.3396638 C4.20503108,11.3209026 4.18030709,11.3019961 4.15587228,11.2832349 C4.10512304,11.2441128 4.05466297,11.2046999 4.00463666,11.1642689 C3.9820453,11.1461622 3.95945394,11.1280526 3.93721536,11.109943 C3.87367761,11.0573944 3.81084543,11.004488 3.74889377,10.9501679 C3.7423701,10.9444959 3.7353028,10.9388094 3.72824418,10.9327695 C3.66117711,10.8734741 3.59534335,10.8127564 3.53022095,10.7516881 C3.51133529,10.7335814 3.49297882,10.7158252 3.47444739,10.6977171 C3.42626454,10.6515589 3.3787887,10.6050458 3.33219194,10.5574666 C3.31348412,10.5386473 3.29477486,10.5201843 3.27641983,10.501365 C3.21711841,10.4402953 3.1588739,10.3785115 3.1018627,10.3156733 C3.0990433,10.3124738 3.09604316,10.3096378 3.09322376,10.3064382 C3.03286109,10.2400397 2.97391245,10.1722233 2.91619423,10.1037015 C2.90048944,10.0848836 2.88530805,10.0667755 2.86977531,10.0483125 C2.82671075,9.99611725 2.78399898,9.94321229 2.74234557,9.88994809 C2.72673042,9.87075064 2.71111527,9.85111689 2.6956447,9.8313377 C2.64547381,9.76589185 2.59645959,9.70059144 2.54845746,9.63427298 C1.22083721,7.8126969 0.743895601,5.30030355 1.80500284,3.23701414" id="Shape" fill="#0868AC"></path>
                                    <path d="M4.60531243,2.96920537 C3.73378466,4.23075406 3.78107833,5.91950416 4.4609388,7.25372683 C4.57495542,7.47742074 4.70308929,7.69436645 4.84640166,7.90101535 C4.97700648,8.08919397 5.12173434,8.31325147 5.29504804,8.46450409 C5.35788166,8.53409775 5.42353758,8.60191419 5.49059887,8.66866605 C5.50753263,8.68606446 5.52483797,8.70275315 5.54213609,8.71979671 C5.60726283,8.78335335 5.67344793,8.84584541 5.74192325,8.90656461 C5.74474266,8.90868796 5.74721939,8.91152395 5.75003879,8.91367639 C5.75076172,8.91440357 5.75148464,8.91469444 5.75197189,8.91549433 C5.82768802,8.98224764 5.90586786,9.04651546 5.98530271,9.10970852 C6.00295939,9.12319036 6.02042523,9.1374052 6.03825108,9.15125209 C6.11785075,9.21267956 6.19904374,9.27303954 6.282339,9.33055917 C6.28481573,9.33237711 6.28692956,9.33410779 6.2894063,9.3358821 C6.3261178,9.3614467 6.36353488,9.38523699 6.40077412,9.40973555 C6.41859419,9.42145763 6.4355453,9.43388071 6.45354755,9.44488724 C6.51302681,9.48323415 6.57320875,9.52051647 6.63445194,9.55637788 C6.64310823,9.56170081 6.65156788,9.56632565 6.66004344,9.57128499 C6.71281686,9.60181911 6.76629296,9.63199983 6.81995414,9.66111596 C6.83866195,9.67176182 6.85772256,9.68099986 6.87678461,9.69094181 C6.9138489,9.7104694 6.95091319,9.73035476 6.98868161,9.74917262 C6.99432041,9.75200861 7.0001573,9.75449555 7.00561537,9.75699703 C7.0823913,9.79498762 7.15987281,9.83156167 7.23894619,9.86635705 C7.25587995,9.87381787 7.27336314,9.88055152 7.29048197,9.8876604 C7.35366693,9.9146459 7.41755892,9.94092168 7.48179647,9.96577656 C7.50897695,9.97607337 7.53650877,9.98601532 7.56368925,9.99595582 C7.62193376,10.017614 7.68035321,10.0374994 7.73930185,10.0573818 C7.7659517,10.0659043 7.79207527,10.0747803 7.81872512,10.0829479 C7.90255824,10.1092222 7.98533009,10.1422433 8.07270264,10.1568014 C12.5726128,10.9066944 13.611454,7.42174668 13.611454,7.42174668 C12.6749788,8.77845364 10.8614527,9.42569852 8.92618623,8.92045658 C8.84023206,8.89773233 8.75551843,8.87287745 8.67132675,8.84624535 C8.64555886,8.83843548 8.6203187,8.82992025 8.59472721,8.82139338 C8.53489661,8.80186289 8.47541734,8.78126926 8.41646871,8.7596096 C8.38946607,8.74966183 8.36246343,8.73972715 8.33598707,8.72943033 C8.27138951,8.70457546 8.20749753,8.67865599 8.14413761,8.65167049 C8.12684239,8.64420966 8.10936643,8.63747601 8.09242255,8.62965596 C8.01300072,8.59485913 7.93481075,8.55828799 7.85768926,8.51993963 C7.81797762,8.50041205 7.77897156,8.47981842 7.73996694,8.45957965 C7.71737557,8.44787212 7.69460782,8.43614568 7.67201501,8.42442796 C7.62189038,8.3970876 7.57211998,8.36868264 7.52304938,8.33992283 C7.51141031,8.33317464 7.49922326,8.32677549 7.48739768,8.31968261 C7.42650582,8.2838212 7.36649738,8.24689519 7.30701378,8.20890315 C7.28865875,8.19718107 7.2710093,8.18440314 7.25265282,8.17233056 C7.21347036,8.14676596 7.17428935,8.12084649 7.13581391,8.09457071 C7.05285988,8.03704963 6.97220184,7.9766882 6.89260796,7.91561268 C6.87425293,7.90105025 6.8558979,7.88685286 6.83789565,7.8722948 C5.99077379,7.19951149 5.31932237,6.28021549 5.00007931,5.23773586 C4.66551027,4.15657047 4.73765805,2.94291359 5.31729818,1.95802631" id="Shape" fill="#0868AC"></path>
                                    <path d="M7.75162047,1.87247841 C7.23783867,2.63303187 7.18736415,3.57756088 7.54388114,4.41759468 C7.91981587,5.30917073 8.69022108,6.00865595 9.58932114,6.34024824 C9.62638544,6.35410822 9.66344973,6.36652257 9.7010432,6.37930487 C9.71745357,6.38427875 9.73369332,6.38996527 9.75028586,6.39492025 C9.80323423,6.41160894 9.85582982,6.43113798 9.91054356,6.44143479 C12.3952319,6.92432334 13.0691413,5.15892888 13.2485709,4.89909433 C12.6582026,5.75409342 11.6660912,5.95931705 10.4488325,5.66213473 C10.3526836,5.63857422 10.2469922,5.60366977 10.1543134,5.57065598 C10.0354648,5.52804346 9.91835114,5.4794681 9.80456297,5.42449359 C9.58840881,5.3200711 9.38237559,5.19325159 9.19137918,5.04810725 C8.10207792,4.21679955 7.42542144,2.63082852 8.13619991,1.33921837" id="Shape" fill="#0868AC"></path>
                                </g>
                            </g>
                        </g>
                    </g>
                </g>
            </g>
        </g>
    </g>
</svg>