<?xml version="1.0" encoding="UTF-8"?>
<svg width="18px" height="18px" viewBox="0 0 18 18" version="1.1" xmlns="http://www.w3.org/2000/svg" xmlns:xlink="http://www.w3.org/1999/xlink">
    <!-- Generator: Sketch 49 (51002) - http://www.bohemiancoding.com/sketch -->
    <title>linkedin</title>
    <desc>Created with Sketch.</desc>
    <defs></defs>
    <g id="Home" stroke="none" stroke-width="1" fill="none" fill-rule="evenodd">
        <g id="1-Home-[Opt-1]-[desktop]" transform="translate(-951.000000, -2625.000000)">
            <g id="Technologies" transform="translate(0.000000, 1704.000000)">
                <g id="T4" transform="translate(755.000000, 676.000000)">
                    <g id="body" transform="translate(0.000000, 80.000000)">
                        <g id="tech-logos" transform="translate(50.000000, 156.000000)">
                            <g id="logos" transform="translate(0.000000, 6.000000)">
                                <g id="linkedin" transform="translate(146.000000, 3.000000)">
                                    <path d="M0.172856439,16.317506 C0.172856439,17.0115311 0.749741383,17.5744887 1.4613985,17.5744887 L16.3210393,17.5744887 C17.032673,17.5744887 17.6095814,17.0115311 17.6095814,16.317506 L17.6095814,1.28412446 C17.6095814,0.589864858 17.032673,0.0271417787 16.3210393,0.0271417787 L1.4613985,0.0271417787 C0.749741383,0.0271417787 0.172856439,0.589864858 0.172856439,1.28412446 L0.172856439,16.317506 L0.172856439,16.317506 Z" id="path14" fill="#006699" fill-rule="nonzero"></path>
                                    <path d="M5.45846743,2.49446072 L5.45846743,10.4180706 L2.82480619,10.4180706 L2.82480619,2.49446072 L5.45846743,2.49446072 L5.45846743,2.49446072 Z M4.14162509,11.4999057 C5.06003605,11.4999057 5.63166891,12.1083501 5.63166891,12.8687296 C5.61455275,13.6462254 5.06003605,14.237788 4.15904606,14.237788 C3.25814985,14.237788 2.66911947,13.6462254 2.66911947,12.8687296 C2.66911947,12.1083501 3.2406351,11.4999057 4.12446203,11.4999057 L4.14157819,11.4999057 L4.14162509,11.4999057 Z" id="path28" fill="#FFFFFF" transform="translate(4.150394, 8.366124) scale(1, -1) translate(-4.150394, -8.366124) "></path>
                                    <path d="M6.91575608,6.04493921 L9.54939388,6.04493921 L9.54939388,10.4698184 C9.54939388,10.706631 9.56651004,10.9432091 9.63605324,11.112495 C9.82644121,11.5856513 10.2597849,12.0756893 10.9873389,12.0756893 C11.9403339,12.0756893 12.3215553,11.3490732 12.3215553,10.2838853 L12.3215553,6.04493921 L14.9549821,6.04493921 L14.9549821,10.5882247 C14.9549821,13.022002 13.655678,14.1544822 11.9229364,14.1544822 C10.5021544,14.1544822 9.87842276,13.3603392 9.53187913,12.8194217 L9.54946422,12.8194217 L9.54946422,13.9685491 L6.91582642,13.9685491 C6.950387,13.2250512 6.91582642,6.04493921 6.91582642,6.04493921 L6.91575608,6.04493921 Z" id="path30" fill="#FFFFFF" transform="translate(10.935369, 10.099711) scale(1, -1) translate(-10.935369, -10.099711) "></path>
                                </g>
                            </g>
                        </g>
                    </g>
                </g>
            </g>
        </g>
    </g>
</svg>