<?xml version="1.0" encoding="UTF-8"?>
<svg width="82px" height="24px" viewBox="0 0 82 24" version="1.1" xmlns="http://www.w3.org/2000/svg" xmlns:xlink="http://www.w3.org/1999/xlink">
    <!-- Generator: Sketch 49 (51002) - http://www.bohemiancoding.com/sketch -->
    <title>mongodb</title>
    <desc>Created with Sketch.</desc>
    <defs>
        <path d="M1.89330226,0.013432089 L1.28948908,0.211702837 C1.28948908,0.211702837 1.36649486,3.24317279 0.264350904,3.45543937 C-0.462417588,4.29077177 0.376221901,39.1375768 3.01646611,3.57482684 C3.01646611,3.57482684 2.1127919,3.12472491 1.94173065,2.36036128 C1.77072985,1.59547788 1.89330226,0.013432089 1.89330226,0.013432089 L1.89330226,0.013432089 Z" id="path-1"></path>
        <linearGradient x1="-70.4431054%" y1="56.0454455%" x2="160.735797%" y2="44.1472733%" id="linearGradient-3">
            <stop stop-color="#929669" offset="0%"></stop>
            <stop stop-color="#929669" offset="23.0769%"></stop>
            <stop stop-color="#FDFCF1" offset="100%"></stop>
        </linearGradient>
        <path d="M0.929027063,0.00209907627 C0.929027063,0.00209907627 6.175799,3.42997058 4.94660861,10.5489578 C3.76284377,15.7210417 0.967983402,17.4213334 0.667658848,18.0704478 C0.337023723,18.5298456 0.00401050773,19.3440873 0.00401050773,19.3440873 L0.22718821,4.93314908 C0.22718821,4.93314908 -0.234443399,0.532885495 0.929027063,0.00209907627 L0.929027063,0.00209907627 Z" id="path-4"></path>
        <linearGradient x1="-16.6073557%" y1="99.2992429%" x2="78.1504823%" y2="2.53574843%" id="linearGradient-6">
            <stop stop-color="#45AA3A" offset="0%"></stop>
            <stop stop-color="#3D9439" offset="100%"></stop>
        </linearGradient>
        <path d="M4.67036725,0.0104553989 C4.67036725,0.0104553989 -0.251287532,3.34094976 0.0318831536,9.21726379 C0.315131187,15.0937577 3.79125993,17.9830862 4.46829006,18.5072556 C4.9059997,18.9700519 4.92409737,19.1483734 4.95795492,19.6049725 C5.26472853,18.9512602 5.21372052,9.84082937 5.2462278,8.77597798 C5.37234718,4.63078215 5.01478724,0.792931057 4.67036725,0.0104553989 L4.67036725,0.0104553989 Z" id="path-7"></path>
        <linearGradient x1="-9.62444561%" y1="43.9043949%" x2="152.344354%" y2="53.6889702%" id="linearGradient-9">
            <stop stop-color="#41A83B" offset="0%"></stop>
            <stop stop-color="#5EBC44" offset="100%"></stop>
        </linearGradient>
    </defs>
    <g id="Home" stroke="none" stroke-width="1" fill="none" fill-rule="evenodd">
        <g id="1-Home-[Opt-1]-[desktop]" transform="translate(-443.000000, -2622.000000)">
            <g id="Technologies" transform="translate(0.000000, 1704.000000)">
                <g id="T3" transform="translate(140.000000, 675.793750)">
                    <g id="body" transform="translate(0.000000, 80.000000)">
                        <g id="tech-logos" transform="translate(50.000000, 156.000000)">
                            <g id="logos" transform="translate(0.000000, 4.000000)">
                                <g id="mongodb" transform="translate(253.000000, 2.000000)">
                                    <g id="g10" transform="translate(40.975610, 12.141621) scale(-1, 1) rotate(-180.000000) translate(-40.975610, -12.141621) translate(0.000000, 0.434304)">
                                        <g id="g12" transform="translate(0.181380, 0.000000)">
                                            <g id="g14" transform="translate(3.688055, 0.559754)">
                                                <g id="g16-Clipped">
                                                    <mask id="mask-2" fill="white">
                                                        <use xlink:href="#path-1"></use>
                                                    </mask>
                                                    <g id="path20"></g>
                                                    <g id="g16" mask="url(#mask-2)" fill="url(#linearGradient-3)" fill-rule="nonzero">
                                                        <path d="M1.89330226,0.013432089 L1.28948908,0.211702837 C1.28948908,0.211702837 1.36649486,3.24317279 0.264350904,3.45543937 C-0.462417588,4.29077177 0.376221901,39.1375768 3.01646611,3.57482684 C3.01646611,3.57482684 2.1127919,3.12472491 1.94173065,2.36036128 C1.77072985,1.59547788 1.89330226,0.013432089 1.89330226,0.013432089" id="path30"></path>
                                                    </g>
                                                </g>
                                            </g>
                                            <g id="g32" transform="translate(4.977866, 3.498460)">
                                                <g id="g34-Clipped" transform="translate(0.000000, 0.000000)">
                                                    <mask id="mask-5" fill="white">
                                                        <use xlink:href="#path-4"></use>
                                                    </mask>
                                                    <g id="path38"></g>
                                                    <g id="g34" mask="url(#mask-5)" fill="url(#linearGradient-6)" fill-rule="nonzero">
                                                        <path d="M0.929027063,0.00209907627 C0.929027063,0.00209907627 6.175799,3.42997058 4.94660861,10.5489578 C3.76284377,15.7210417 0.967983402,17.4213334 0.667658848,18.0704478 C0.337023723,18.5298456 0.00401050773,19.3440873 0.00401050773,19.3440873 L0.22718821,4.93314908 C0.22718821,4.93314908 -0.234443399,0.532885495 0.929027063,0.00209907627" id="path46"></path>
                                                    </g>
                                                </g>
                                            </g>
                                            <g id="g48" transform="translate(-0.000000, 3.298548)">
                                                <g id="g50-Clipped">
                                                    <mask id="mask-8" fill="white">
                                                        <use xlink:href="#path-7"></use>
                                                    </mask>
                                                    <g id="path54"></g>
                                                    <g id="g50" mask="url(#mask-8)" fill="url(#linearGradient-9)" fill-rule="nonzero">
                                                        <path d="M4.67036725,0.0104553989 C4.67036725,0.0104553989 -0.251287532,3.34094976 0.0318831536,9.21726379 C0.315131187,15.0937577 3.79125993,17.9830862 4.46829006,18.5072556 C4.9059997,18.9700519 4.92409737,19.1483734 4.95795492,19.6049725 C5.26472853,18.9512602 5.21372052,9.84082937 5.2462278,8.77597798 C5.37234718,4.63078215 5.01478724,0.792931057 4.67036725,0.0104553989" id="path62"></path>
                                                    </g>
                                                </g>
                                            </g>
                                            <path d="M64.1401107,5.20582909 C64.4881582,4.9297106 65.1842534,4.81600064 65.7979216,4.81600064 C66.593574,4.81600064 67.3727008,4.9624162 68.1351004,5.64415619 C68.9140256,6.34274876 69.4446621,7.41447713 69.4446621,9.11958677 C69.4446621,10.759805 68.8146698,12.0914789 67.5218353,12.8709759 C66.7922856,13.3256158 65.8477002,13.5041373 64.770103,13.5041373 C64.4551068,13.5041373 64.1401107,13.4879644 63.9577233,13.4068401 C63.9079446,13.3743544 63.8083873,13.2444116 63.8083873,13.1792802 C63.7753358,12.8870688 63.7753358,10.6623479 63.7753358,9.3469867 C63.7753358,7.99913984 63.7753358,6.11534884 63.8083873,5.88780897 C63.825316,5.69303468 63.9244703,5.35202475 64.1401107,5.20582909 L64.1401107,5.20582909 Z M60.831341,14.2349956 C61.1130842,14.2349956 62.1838293,14.1863371 62.6814144,14.1863371 C63.6096757,14.1863371 64.2559922,14.2349956 65.9964316,14.2349956 C67.4553294,14.2349956 68.6822626,13.8452272 69.5607452,13.0982959 C70.6218167,12.1887761 71.1853031,10.9221535 71.1853031,9.3794724 C71.1853031,7.1870772 70.1742118,5.92043461 69.1631205,5.20582909 C68.1516261,4.45897775 66.8420643,4.0366636 64.9690161,4.0366636 C63.974249,4.0366636 62.2666594,4.0691493 60.8410146,4.08516225 L60.8214659,4.08516225 C60.7553631,4.21532497 60.9435949,4.72168214 61.0602826,4.73487634 C61.4456138,4.7781373 61.5500079,4.79281084 61.7289692,4.86589868 C62.0298581,4.98874462 62.1009992,5.14085768 62.1344537,5.67688179 C62.1838293,6.68353879 62.1675052,7.88528994 62.1675052,9.24952959 C62.1675052,10.2237809 62.1838293,12.1238847 62.1507779,12.7248002 C62.1009992,13.2281587 61.8859635,13.3579416 61.4546827,13.4555587 C61.2390424,13.5041373 60.9407735,13.5529358 60.5264215,13.6016744 C60.4931686,13.6990515 60.7485109,14.1376785 60.831341,14.2349956 L60.831341,14.2349956 Z" id="path64" fill="#7B8AA0" fill-rule="nonzero"></path>
                                            <path d="M75.575096,13.4391659 C75.5089932,13.422913 75.4259616,13.2604845 75.4259616,13.1792802 C75.4096374,12.5948574 75.3931117,11.0683292 75.3931117,10.0128537 C75.3931117,9.98036797 75.4424873,9.93164941 75.4759418,9.93164941 C75.6913806,9.91523663 76.2216141,9.89900377 76.669219,9.89900377 C77.2992113,9.89900377 77.6641877,9.98036797 77.8628992,10.0778251 C78.3933342,10.3374908 78.6418245,10.9059007 78.6418245,11.5229691 C78.6418245,12.9357874 77.6472589,13.4718115 76.1722385,13.4718115 C76.0726811,13.4718115 75.7907364,13.4718115 75.575096,13.4391659 Z M79.3381212,6.94342443 C79.3381212,8.37249554 78.2774527,9.18439825 76.3376971,9.18439825 C76.254867,9.18439825 75.6414004,9.20079103 75.492266,9.1681454 C75.4424873,9.15207247 75.3931117,9.11958677 75.3931117,9.08710107 C75.3931117,8.06387136 75.3761829,6.42373313 75.4259616,5.7743389 C75.4592145,5.49820042 75.6583292,5.10837197 75.9068194,4.99476197 C76.1722385,4.84848634 76.7685748,4.81600064 77.1831283,4.81600064 C78.3270299,4.81600064 79.3381212,5.44948186 79.3381212,6.94342443 L79.3381212,6.94342443 Z M72.5813226,14.2349956 C72.730457,14.2349956 73.1718144,14.1863371 74.2987872,14.1863371 C75.3598587,14.1863371 76.2216141,14.2186628 77.2494326,14.2186628 C78.5257415,14.2186628 80.2829081,13.7640229 80.2829081,11.8802319 C80.2829081,10.9546392 79.6200659,10.207548 78.7581091,9.85026522 C78.7083304,9.83403237 78.7083304,9.80154666 78.7581091,9.78529381 C79.9848407,9.47692951 81.0622364,8.72983829 81.0622364,7.30076717 C81.0622364,5.90420175 80.1837539,5.02716771 78.9072435,4.4749907 C78.1281167,4.13412071 77.1668041,4.02041075 76.1883611,4.02041075 C75.4424873,4.02041075 73.4436825,4.10163501 72.3328323,4.08516225 C72.2165477,4.13412071 72.4392417,4.65381201 72.538396,4.73487634 C72.803815,4.75102923 73.0083711,4.77000088 73.2903158,4.85122514 C73.6879405,4.94868225 73.7350993,5.07588627 73.7848779,5.66054898 C73.8183324,6.16384749 73.8183324,7.96649421 73.8183324,9.24952959 C73.8183324,11.0033578 73.8346566,12.1887761 73.8183324,12.7733589 C73.8014036,13.2281587 73.6357435,13.3743544 73.3207473,13.4555587 C73.0722571,13.5041373 72.6579051,13.5529358 72.3263832,13.6016744 C72.2431501,13.6828786 72.4984925,14.1700242 72.5813226,14.2349956 L72.5813226,14.2349956 Z" id="path66" fill="#7B8AA0" fill-rule="nonzero"></path>
                                            <path d="M13.2774005,4.04376047 C13.2497704,4.08750123 13.2205682,4.21666438 13.226715,4.372056 C13.2312696,4.49020401 13.2548893,4.56525098 13.2772595,4.59093968 C13.5898574,4.63991812 13.7378632,4.67294359 13.9135799,4.71956308 C14.2066694,4.79165135 14.3171095,4.94868225 14.3343608,5.32047863 C14.3824466,6.1963332 14.3852882,7.83865047 14.367654,8.99370217 L14.3678959,9.02774719 C14.369226,9.15159268 14.371201,9.32105811 14.2143075,9.44052554 C13.9844188,9.59077941 13.6977985,9.71502474 13.3351196,9.82293725 C13.1963238,9.86369931 13.1195598,9.93608745 13.123651,10.0207502 C13.1279839,10.1021144 13.2150664,10.2055889 13.396043,10.2401736 C13.8760142,10.289292 15.1346687,10.5865212 15.6284851,10.8125018 C15.6577074,10.7772973 15.7038383,10.7009109 15.6949306,10.5791645 C15.6912425,10.527947 15.6866677,10.4743706 15.6821937,10.418855 C15.6680864,10.2556468 15.6523466,10.0706482 15.6523466,9.88618941 C15.6523466,9.83185332 15.7116981,9.78037598 15.7746772,9.78037598 C15.8067209,9.78037598 15.8363262,9.79279051 15.8604094,9.81638013 C16.8016292,10.5470786 17.6434327,10.8079038 18.0768094,10.8079038 C18.7889466,10.8079038 19.3430819,10.4707122 19.7714202,9.77749724 C19.7965312,9.7407934 19.8302276,9.72142192 19.8679344,9.72142192 C19.9038274,9.72142192 19.9377656,9.73977385 19.9576771,9.76922089 C20.8232011,10.4196347 21.6809257,10.8079038 22.2542873,10.8079038 C23.6114108,10.8079038 24.4219768,9.80130677 24.4219768,8.11588846 C24.4219768,7.6315616 24.4169384,7.01769174 24.4127063,6.44458395 C24.4084741,5.94184519 24.405048,5.47049262 24.405048,5.14437613 C24.405048,5.06527094 24.511659,4.84598744 24.6726839,4.80210675 C24.8709924,4.70636888 25.1577739,4.65749039 25.5197273,4.59555765 L25.5336331,4.59329864 C25.5612431,4.49678111 25.5036047,4.12092652 25.4483846,4.04400037 C25.3587024,4.04470006 25.234155,4.05111724 25.0791761,4.05883384 C24.7974329,4.07320752 24.4112955,4.09249903 23.9616753,4.09249903 C23.0600164,4.09249903 22.5888321,4.07492676 22.1388088,4.04611944 C22.1049513,4.15763036 22.0930608,4.51731208 22.1343751,4.59227909 C22.3967711,4.64099765 22.5265584,4.67388318 22.6841573,4.72010284 C22.9711403,4.81390156 23.0537689,4.94282483 23.0704961,5.32047863 C23.0771467,5.58926035 23.1291422,7.95290019 23.0368401,8.5141532 C22.9517932,9.09575726 22.5092266,9.77655766 21.5416664,9.77655766 C21.182736,9.77655766 20.6027239,9.62866274 20.0498583,9.21328554 C20.0155372,9.18026007 19.995787,9.11606832 19.995787,9.07390687 L19.9967946,9.06311162 C20.06191,8.76012496 20.06191,8.40684043 20.06191,7.87223569 C20.06191,7.56760974 20.0599349,7.24431202 20.0582018,6.92335326 C20.0544331,6.27170003 20.0508861,5.65633083 20.06191,5.1914754 C20.06191,4.87457486 20.2552809,4.79898812 20.4108644,4.737915 C20.4953068,4.71932318 20.5624173,4.70333022 20.6295278,4.6874772 C20.7599197,4.65631091 20.8945438,4.62422503 21.094263,4.59251898 C21.12147,4.53004648 21.1238884,4.34348857 21.0864032,4.18393879 C21.0654438,4.09577758 21.0414614,4.05697466 21.0287648,4.04432023 C20.5273505,4.06133274 20.0127762,4.07624618 19.2704897,4.07624618 C19.0454982,4.07624618 18.6780228,4.0666504 18.3539173,4.05805418 C18.091219,4.05111724 17.842366,4.04432023 17.7009704,4.04376047 C17.6805148,4.07586635 17.6518568,4.17870109 17.6518568,4.32685589 C17.6518568,4.46451531 17.6773709,4.56159259 17.7035702,4.59149943 C17.7732402,4.6042938 17.839605,4.61592868 17.9029065,4.62710376 C18.0770512,4.65787022 18.227415,4.68411867 18.3717127,4.71932318 C18.6174017,4.7935905 18.7095829,4.92893094 18.7275395,5.23847472 C18.7754842,5.96119667 18.8129492,8.04302053 18.7097441,8.56443108 C18.534108,9.40110288 18.053351,9.82505632 17.2812174,9.82505632 C16.8284734,9.82505632 16.257107,9.60929127 15.7898728,9.26224399 C15.711557,9.20500918 15.6523466,9.06093258 15.6523466,8.9279511 C15.6523466,8.68008018 15.6515607,8.38483011 15.6505328,8.06832939 C15.6473889,7.02268955 15.6436807,5.72130224 15.669356,5.15805011 C15.6850958,4.98498627 15.7458781,4.77891696 16.0753242,4.70293039 C16.1471304,4.68301916 16.2716779,4.66232826 16.4159755,4.63873864 C16.4990273,4.62500469 16.5898784,4.61007126 16.6832285,4.59343858 C16.7167636,4.50395796 16.6962274,4.1530124 16.6387502,4.04376047 C16.4947749,4.04470006 16.3174863,4.05289645 16.1141395,4.06173257 C15.8034964,4.07530659 15.4172785,4.09249903 14.9769691,4.09249903 C14.4588881,4.09249903 14.0981036,4.07530659 13.8083998,4.06173257 C13.6141018,4.05267655 13.4455597,4.04454013 13.2774005,4.04376047 L13.2774005,4.04376047" id="path68" fill="#414044" fill-rule="nonzero"></path>
                                            <path d="M29.7229006,10.1174277 C29.4212057,10.1174277 29.1394625,10.0391021 28.9298681,9.89682473 C28.3542897,9.54993739 28.0612606,8.85736217 28.0612606,7.83998988 C28.0612606,5.93472832 29.0241856,4.6042938 30.4024701,4.6042938 C30.8091638,4.6042938 31.1406857,4.72010284 31.4161813,4.95851792 C31.8398038,5.30094723 32.0643116,6.00025948 32.0643116,6.97942858 C32.0643116,8.85642258 31.1233538,10.1174277 29.7229006,10.1174277 L29.7229006,10.1174277 L29.7229006,10.1174277 Z M29.9883197,3.8975848 C27.4977742,3.8975848 26.6104242,5.70772822 26.6104242,7.40142288 C26.6104242,8.58458221 27.0987388,9.50971509 28.0622683,10.1508529 C28.7470776,10.5679294 29.5646972,10.8079038 30.3033158,10.8079038 C32.203974,10.8079038 33.5316738,9.45387966 33.5316738,7.51497291 C33.5316738,6.19673302 33.0010373,5.15633087 31.9976042,4.50605703 C31.5163433,4.21354576 30.6813918,3.8975848 29.9883197,3.8975848 L29.9883197,3.8975848 L29.9883197,3.8975848 Z" id="path70" fill="#414044" fill-rule="nonzero"></path>
                                            <path d="M55.5136899,10.1174277 C55.2115919,10.1174277 54.9296471,10.0391021 54.7202543,9.89682473 C54.1448774,9.54993739 53.8518484,8.85758207 53.8518484,7.83998988 C53.8518484,5.93472832 54.8143702,4.6042938 56.1930578,4.6042938 C56.5997515,4.6042938 56.9312734,4.72010284 57.2067691,4.95867785 C57.63019,5.30094723 57.8548994,6.00009955 57.8548994,6.97918869 C57.8548994,8.85626265 56.9139416,10.1174277 55.5136899,10.1174277 L55.5136899,10.1174277 L55.5136899,10.1174277 Z M55.7789074,3.8975848 C53.2881604,3.8975848 52.4008104,5.70756829 52.4008104,7.40128294 C52.4008104,8.58474214 52.889528,9.50995498 53.8530576,10.1510728 C54.5376653,10.5680893 55.3552849,10.8079038 56.093702,10.8079038 C57.9945618,10.8079038 59.3222615,9.45365976 59.3222615,7.51513284 C59.3222615,6.19657309 58.791625,5.15617094 57.7881919,4.50629693 C57.306931,4.21354576 56.4721811,3.8975848 55.7789074,3.8975848 L55.7789074,3.8975848 L55.7789074,3.8975848 Z" id="path72" fill="#414044" fill-rule="nonzero"></path>
                                            <path d="M47.1792905,10.1822391 C46.4116511,10.1822391 45.9154768,9.5814835 45.9154768,8.65181262 C45.9154768,7.71356551 46.3421222,6.61802762 47.5442669,6.61802762 C47.7506367,6.61802762 48.1248836,6.70892762 48.310294,6.91149848 C48.5896188,7.16574659 48.7720063,7.69115538 48.7720063,8.24597122 C48.7720063,9.45849763 48.1764761,10.1822391 47.1792905,10.1822391 L47.1792905,10.1822391 Z M47.0801363,3.76788188 C46.7917425,3.76788188 46.5819466,3.68469849 46.456593,3.61496917 C45.8489709,3.22897903 45.5672277,2.84350867 45.5672277,2.39972396 C45.5672277,1.98116016 45.7312756,1.64865048 46.0835553,1.35299859 C46.5102008,0.994796223 47.0855777,0.82042096 47.8425358,0.82042096 C49.3310589,0.82042096 49.9985364,1.61366588 49.9985364,2.39972396 C49.9985364,2.94674324 49.7214285,3.31346185 49.151493,3.52079062 C48.7121509,3.67986061 47.9783691,3.76788188 47.0801363,3.76788188 L47.0801363,3.76788188 L47.0801363,3.76788188 Z M47.1792905,-7.10542736e-15 C46.2852899,-7.10542736e-15 45.6409888,0.18694893 45.090602,0.606529086 C44.5553302,1.01595891 44.3155059,1.62311372 44.3155059,2.04270107 C44.3155059,2.16326802 44.3443251,2.47509079 44.6087365,2.77299969 C44.764723,2.94846248 45.1254672,3.27675801 45.9590079,3.84478804 C45.9846026,3.85432384 46.0023375,3.87939281 46.0023375,3.90975944 C46.0023375,3.94366452 45.9803704,3.97107246 45.9501405,3.97746965 C45.2631143,4.23813494 45.0559383,4.66576675 44.9934631,4.89784462 C44.9924554,4.90612098 44.9896339,4.9194751 44.9866109,4.93360888 C44.9668607,5.02466881 44.9485212,5.11071094 45.0726655,5.19903208 C45.1687968,5.26706214 45.3233727,5.35780221 45.4870175,5.45346011 C45.7284541,5.59479791 46.002136,5.75496743 46.1536888,5.88367079 C46.1776713,5.90686058 46.1873449,5.9409056 46.1817019,5.97495062 C46.1758575,6.00939546 46.1557042,6.03758306 46.1260788,6.05209667 C45.1093446,6.39062769 44.5974506,7.13889841 44.5974506,8.27845692 C44.5974506,9.01415317 44.9398553,9.67910055 45.5365946,10.1031339 C45.9455052,10.423313 46.971913,10.8082836 47.6367706,10.8082836 L47.6754649,10.8079038 C48.3596696,10.7918109 48.7452024,10.6499133 49.2788619,10.4540795 C49.5686664,10.3477063 49.8429529,10.3046053 50.2266718,10.3046053 C50.7929797,10.3046053 51.0402608,10.482427 51.2524751,10.6866172 C51.264567,10.6613283 51.2935878,10.5810436 51.3064859,10.396205 C51.3199886,10.2076879 51.2679931,9.92837085 51.1224862,9.72899859 C51.0066047,9.57008852 50.7383642,9.45481924 50.4850372,9.45481924 C50.459644,9.45481924 50.4346539,9.45599873 50.4106715,9.45849763 C50.1498877,9.48386646 50.0273556,9.5215099 50.0261464,9.52212962 L49.9622605,9.50003934 C49.9421072,9.47091216 49.9552068,9.43842646 49.9717325,9.3974245 C49.9757632,9.38758883 49.9797938,9.37821296 49.9812046,9.37205567 C50.0144575,9.24061351 50.0735067,8.85680241 50.0735067,8.74926973 C50.0735067,7.55425562 49.5976872,7.03300501 49.0833748,6.6476146 C48.5926418,6.28067608 48.0190788,6.0599932 47.3725607,5.99236296 L47.3719561,5.99236296 C47.3588565,5.99236296 47.2975904,5.98690536 47.1740507,5.9761301 C47.0944451,5.96893327 46.9952909,5.96003718 46.980579,5.96003718 L46.9660686,5.95815801 C46.8536131,5.92661189 46.5621963,5.78933231 46.5621963,5.53374478 C46.5621963,5.32101839 46.694402,5.05753435 47.3245959,5.0103751 C47.4523678,5.0008393 47.5894103,4.99140345 47.7324988,4.98170771 C48.5646287,4.92431297 49.6037332,4.85278445 50.0928539,4.68839679 C50.7655712,4.44554366 51.1841554,3.84854638 51.1841554,3.1304224 C51.1841554,2.05791438 50.4145006,1.04953813 49.1256968,0.433403273 C48.5005412,0.141734427 47.8657121,-7.10542736e-15 47.1792905,-7.10542736e-15 L47.1792905,-7.10542736e-15 L47.1792905,-7.10542736e-15 Z" id="path74" fill="#414044" fill-rule="nonzero"></path>
                                            <path d="M43.0901849,4.61570878 C42.7256116,4.66442734 42.4601926,4.71316589 42.145398,4.8592616 C42.0956193,4.8917473 42.0291134,5.03794297 42.0291134,5.08666153 C41.9958604,5.59011997 41.9958604,7.0516568 41.9958604,8.00967521 C41.9958604,8.78925214 41.8634532,9.47123202 41.5319314,9.95865752 C41.1341051,10.5106946 40.5706187,10.8354717 39.8410691,10.8354717 C39.1947526,10.8354717 38.3325942,10.3969846 37.6199733,9.79608906 C37.603246,9.77983622 37.4938136,9.6769215 37.496232,9.83685113 C37.4986504,9.99654085 37.5236405,10.3216378 37.5385539,10.5263077 C37.5536689,10.7308977 37.4299276,10.8273352 37.4299276,10.8273352 C36.965797,10.6000153 35.6586536,10.2921907 35.175982,10.2426725 C34.8230976,10.1753622 34.7342215,9.83927006 35.1098791,9.72322113 L35.1098791,9.72314117 C35.1098791,9.7226014 35.1135067,9.72198168 35.115522,9.72134196 C35.508713,9.60413354 35.7735275,9.47886866 35.9712314,9.34964553 C36.1205674,9.23593557 36.1038401,9.07350705 36.1038401,8.94356423 C36.1203658,7.85560301 36.1203658,6.18273918 36.0705872,5.27345932 C36.0540615,4.91611658 35.9545041,4.78641366 35.6892866,4.72128232 L35.7134706,4.72931878 C35.5145575,4.68084012 35.3486958,4.64819448 35.1002055,4.61570878 C35.0171739,4.53464445 35.0171739,4.06367171 35.100004,3.96607466 C35.2658657,3.96607466 36.1114984,4.01495315 36.8075936,4.01495315 C37.7689062,4.01495315 38.2662898,3.96607466 38.5149816,3.96607466 C38.6143374,4.07992456 38.6475903,4.5184116 38.5812859,4.61570878 C38.2993412,4.63194163 38.1004281,4.66442734 37.901515,4.71316589 C37.6362975,4.7781373 37.5699931,4.90800015 37.5536689,5.20037149 C37.520416,5.96355564 37.520416,7.58744102 37.520416,8.69187499 C37.520416,9.00041921 37.603246,9.14659488 37.7028034,9.22781914 C38.0341237,9.52019048 38.5812859,9.71478484 39.0621438,9.71478484 C39.5260729,9.71478484 39.8410691,9.56868913 40.0732351,9.37399481 C40.3882313,9.11410918 40.5041128,8.74061354 40.5373657,8.46447506 C40.6036701,7.84724668 40.5869429,6.61318975 40.5869429,5.54138142 C40.5869429,4.95671871 40.5373657,4.81054304 40.3219269,4.74565159 C40.2223696,4.69683308 39.9571521,4.64819448 39.6421559,4.61570878 C39.5428001,4.5184116 39.5758516,4.06367171 39.6421559,3.96607466 C40.0732351,3.96607466 40.5706187,4.01495315 41.2997653,4.01495315 C42.2117023,4.01495315 42.7917145,3.96607466 43.0238805,3.96607466 C43.1232363,4.07992456 43.1562878,4.50223871 43.0901849,4.61570878" id="path76" fill="#414044" fill-rule="nonzero"></path>
                                        </g>
                                    </g>
                                </g>
                            </g>
                        </g>
                    </g>
                </g>
            </g>
        </g>
    </g>
</svg>