<?xml version="1.0" encoding="UTF-8"?>
<svg width="75px" height="17px" viewBox="0 0 75 17" version="1.1" xmlns="http://www.w3.org/2000/svg" xmlns:xlink="http://www.w3.org/1999/xlink">
    <!-- Generator: Sketch 49 (51002) - http://www.bohemiancoding.com/sketch -->
    <title>mysql</title>
    <desc>Created with Sketch.</desc>
    <defs></defs>
    <g id="Home" stroke="none" stroke-width="1" fill="none" fill-rule="evenodd">
        <g id="1-Home-[Opt-1]-[desktop]" transform="translate(-190.000000, -2625.000000)" fill-rule="nonzero">
            <g id="Technologies" transform="translate(0.000000, 1704.000000)">
                <g id="T3" transform="translate(140.000000, 675.793750)">
                    <g id="body" transform="translate(0.000000, 80.000000)">
                        <g id="tech-logos" transform="translate(50.000000, 156.000000)">
                            <g id="logos" transform="translate(0.000000, 4.000000)">
                                <g id="mysql" transform="translate(0.000000, 6.000000)">
                                    <path d="M0.150894001,12.0797964 L2.77557293,12.0797964 L2.77557293,1.98367904 L6.83892206,10.7851059 C7.31834935,11.8504432 7.9746315,12.227323 9.26162715,12.227323 C10.5488067,12.227323 11.1797246,11.8504432 11.6593563,10.7851059 L15.7225215,1.98367904 L15.7225215,12.0797964 L18.3474048,12.0797964 L18.3474048,2.00020362 C18.3474048,1.01689184 17.9434162,0.541461888 17.1107085,0.295783262 C15.1169474,-0.310648743 13.7792641,0.213757659 13.1734857,1.52497276 L9.1859636,10.2113248 L5.32460875,1.52497276 C4.7441741,0.213757659 3.38133096,-0.310648743 1.38758627,0.295783262 C0.554676138,0.541461888 0.150894001,1.01689184 0.150894001,2.00020362 L0.150894001,12.0797964 Z" id="Shape" fill="#00618A"></path>
                                    <path d="M20.5297154,3.86210516 L23.1536177,3.86210516 L23.1536177,9.42431704 C23.1290914,9.72653758 23.2531535,10.4357007 24.6910061,10.4577998 C25.424546,10.4689489 30.3524871,10.4577998 30.3984739,10.4577998 L30.3984739,3.83502875 L33.0285077,3.83502875 C33.0405665,3.83502875 33.0258507,12.8666051 33.0260551,12.9050297 C33.0405665,15.1324628 30.1887743,15.6162546 28.8743705,15.6536838 L20.586739,15.6536838 L20.586739,13.9337343 C20.6012504,13.9337343 28.8682389,13.935327 28.8890863,13.9333361 C30.5783332,13.7595294 30.3788529,12.9416625 30.3786485,12.6663193 L30.3786485,11.9957799 L24.7999437,11.9957799 C22.204451,11.9724862 20.5515847,10.8691224 20.5311461,9.59971645 C20.5293067,9.48205351 20.5871478,3.91765163 20.5297154,3.86210516 Z" id="Shape" fill="#00618A"></path>
                                    <path d="M35.0513119,12.0797964 L42.5972281,12.0797964 C43.4805826,12.0797964 44.3387977,11.8996188 45.0202193,11.5880409 C46.1557857,11.0801591 46.7111013,10.3919006 46.7111013,9.49021625 L46.7111013,7.62194378 C46.7111013,6.88431063 46.080163,6.19585302 44.8434258,5.73714674 C44.1871436,5.49106993 43.3796162,5.36006787 42.5972281,5.36006787 L39.4171926,5.36006787 C38.3574533,5.36006787 37.8526209,5.04868913 37.726515,4.36043061 C37.7011712,4.27840501 37.7011712,4.21270489 37.7011712,4.13087838 L37.7011712,2.967389 C37.7011712,2.90168888 37.7011712,2.83598876 37.726515,2.75416225 C37.8526209,2.22975585 38.1303809,2.08203013 39.0640143,2.00020362 C39.1398414,2.00020362 39.2406035,1.98367904 39.3164305,1.98367904 L46.8120678,1.98367904 L46.8120678,0.279457778 L39.4425364,0.279457778 C38.3825927,0.279457778 37.8272771,0.344958805 37.3226491,0.492286345 C35.7578729,0.967716295 35.0764514,1.72167493 35.0764514,3.03289003 L35.0764514,4.52428272 C35.0764514,5.67164571 36.4141551,6.65495749 38.6601484,6.88431063 C38.912769,6.90063611 39.1649808,6.9169616 39.4171926,6.9169616 L42.1428789,6.9169616 C42.2440498,6.9169616 42.3450163,6.9169616 42.4206389,6.93348617 C43.2535102,6.99918629 43.6066885,7.14651383 43.8593091,7.44156709 C44.0105545,7.58889463 44.0610377,7.73662035 44.0610377,7.90047246 L44.0610377,9.39186516 C44.0610377,9.57224185 43.9349318,9.80179408 43.68272,9.99829717 C43.4554432,10.1949993 43.0769211,10.3262005 42.5720887,10.3590505 C42.4711222,10.3590505 42.3954995,10.375376 42.294533,10.375376 L35.0513119,10.375376 L35.0513119,12.0797964 Z" id="Shape" fill="#E48E00"></path>
                                    <path d="M63.0848401,9.11333648 C63.0848401,10.8669324 64.4223394,11.8504432 67.1228863,12.0471454 C67.3750981,12.0634709 67.6277187,12.0797964 67.8799305,12.0797964 L74.7194901,12.0797964 L74.7194901,10.375376 L67.8294473,10.375376 C66.290015,10.375376 65.7095599,9.99829717 65.7095599,9.09701099 L65.7095599,0.279457778 L63.0848401,0.279457778 L63.0848401,9.11333648 Z" id="Shape" fill="#E48E00"></path>
                                    <path d="M48.3862457,9.20272846 L48.3862457,3.12606474 C48.3862457,1.58231104 49.4991252,0.645984804 51.6991318,0.35033427 C51.9268173,0.317683302 52.1798467,0.301158726 52.4073279,0.301158726 L57.3894311,0.301158726 C57.6422561,0.301158726 57.870146,0.317683302 58.122971,0.35033427 C60.323182,0.645984804 61.4358571,1.58231104 61.4358571,3.12606474 L61.4358571,9.20272846 C61.4358571,10.4552116 60.9633176,11.1255519 59.8741468,11.5623582 L62.4596246,13.8355823 L59.412031,13.8355823 L57.3203488,11.9963771 L55.214564,12.1263837 L52.4073279,12.1263837 C51.9268173,12.1263837 51.4211674,12.0604845 50.8646254,11.9127588 C49.1956126,11.4693826 48.3862457,10.615281 48.3862457,9.20272846 Z M51.2192344,9.05500273 C51.2192344,9.13722743 51.2443738,9.21925303 51.2697177,9.31780321 C51.4213718,10.0239799 52.104224,10.4181807 53.1410722,10.4181807 L55.5256389,10.4181807 L53.3352385,8.49197262 L56.3828321,8.49197262 L58.2932242,10.1719048 C58.6451762,9.98913897 58.8769495,9.70961483 58.9578862,9.35065327 C58.9830256,9.26862767 58.9830256,9.18640297 58.9830256,9.10437737 L58.9830256,3.27398956 C58.9830256,3.20828944 58.9830256,3.12606474 58.9578862,3.04384005 C58.8060277,2.38703795 58.1231754,2.00936181 57.1116711,2.00936181 L53.1410722,2.00936181 C51.9779137,2.00936181 51.2192344,2.50211271 51.2192344,3.27398956 L51.2192344,9.05500273 Z" id="Shape" fill="#E48E00"></path>
                                </g>
                            </g>
                        </g>
                    </g>
                </g>
            </g>
        </g>
    </g>
</svg>