<?xml version="1.0" encoding="UTF-8"?>
<svg width="55px" height="15px" viewBox="0 0 55 15" version="1.1" xmlns="http://www.w3.org/2000/svg" xmlns:xlink="http://www.w3.org/1999/xlink">
    <!-- Generator: Sketch 49 (51002) - http://www.bohemiancoding.com/sketch -->
    <title>paypal</title>
    <desc>Created with Sketch.</desc>
    <defs></defs>
    <g id="Home" stroke="none" stroke-width="1" fill="none" fill-rule="evenodd">
        <g id="1-Home-[Opt-1]-[desktop]" transform="translate(-805.000000, -2627.000000)" fill-rule="nonzero">
            <g id="Technologies" transform="translate(0.000000, 1704.000000)">
                <g id="T4" transform="translate(755.000000, 676.000000)">
                    <g id="body" transform="translate(0.000000, 80.000000)">
                        <g id="tech-logos" transform="translate(50.000000, 156.000000)">
                            <g id="logos" transform="translate(0.000000, 6.000000)">
                                <g id="paypal" transform="translate(0.000000, 5.000000)">
                                    <path d="M36.9384615,0.261538462 L32.7538462,0.261538462 C32.5076923,0.261538462 32.2615385,0.507692308 32.1384615,0.753846154 L30.4153846,11.5846154 C30.4153846,11.8307692 30.5384615,11.9538462 30.7846154,11.9538462 L33,11.9538462 C33.2461538,11.9538462 33.3692308,11.8307692 33.3692308,11.5846154 L33.8615385,8.50769231 C33.8615385,8.26153846 34.1076923,8.01538462 34.4769231,8.01538462 L35.8307692,8.01538462 C38.6615385,8.01538462 40.2615385,6.66153846 40.6307692,3.95384615 C40.8769231,2.84615385 40.6307692,1.86153846 40.1384615,1.24615385 C39.4,0.630769231 38.2923077,0.261538462 36.9384615,0.261538462 M37.4307692,4.32307692 C37.1846154,5.8 36.0769231,5.8 34.9692308,5.8 L34.2307692,5.8 L34.7230769,2.96923077 C34.7230769,2.84615385 34.8461538,2.72307692 35.0923077,2.72307692 L35.3384615,2.72307692 C36.0769231,2.72307692 36.8153846,2.72307692 37.1846154,3.21538462 C37.4307692,3.33846154 37.4307692,3.70769231 37.4307692,4.32307692" id="Shape" fill="#139AD6"></path>
                                    <g id="Group" transform="translate(0.230769, 0.230769)" fill="#263B80">
                                        <path d="M6.55384615,0.0307692308 L2.36923077,0.0307692308 C2.12307692,0.0307692308 1.87692308,0.276923077 1.75384615,0.523076923 L0.0307692308,11.3538462 C0.0307692308,11.6 0.153846154,11.7230769 0.4,11.7230769 L2.36923077,11.7230769 C2.61538462,11.7230769 2.86153846,11.4769231 2.98461538,11.2307692 L3.47692308,8.27692308 C3.47692308,8.03076923 3.72307692,7.78461538 4.09230769,7.78461538 L5.44615385,7.78461538 C8.27692308,7.78461538 9.87692308,6.43076923 10.2461538,3.72307692 C10.4923077,2.61538462 10.2461538,1.63076923 9.75384615,1.01538462 C9.01538462,0.4 8.03076923,0.0307692308 6.55384615,0.0307692308 M7.04615385,4.09230769 C6.8,5.56923077 5.69230769,5.56923077 4.58461538,5.56923077 L3.96923077,5.56923077 L4.46153846,2.73846154 C4.46153846,2.61538462 4.58461538,2.49230769 4.83076923,2.49230769 L5.07692308,2.49230769 C5.81538462,2.49230769 6.55384615,2.49230769 6.92307692,2.98461538 C7.04615385,3.10769231 7.16923077,3.47692308 7.04615385,4.09230769" id="Shape"></path>
                                        <path d="M19.2307692,3.96923077 L17.2615385,3.96923077 C17.1384615,3.96923077 16.8923077,4.09230769 16.8923077,4.21538462 L16.7692308,4.83076923 L16.6461538,4.58461538 C16.1538462,3.96923077 15.2923077,3.72307692 14.3076923,3.72307692 C12.0923077,3.72307692 10.1230769,5.44615385 9.75384615,7.78461538 C9.50769231,9.01538462 9.87692308,10.1230769 10.4923077,10.8615385 C11.1076923,11.6 11.9692308,11.8461538 13.0769231,11.8461538 C14.9230769,11.8461538 15.9076923,10.7384615 15.9076923,10.7384615 L15.7846154,11.3538462 C15.7846154,11.6 15.9076923,11.7230769 16.1538462,11.7230769 L18,11.7230769 C18.2461538,11.7230769 18.4923077,11.4769231 18.6153846,11.2307692 L19.7230769,4.33846154 C19.6,4.21538462 19.3538462,3.96923077 19.2307692,3.96923077 M16.4,7.90769231 C16.1538462,9.01538462 15.2923077,9.87692308 14.0615385,9.87692308 C13.4461538,9.87692308 12.9538462,9.63076923 12.7076923,9.38461538 C12.4615385,9.01538462 12.3384615,8.52307692 12.3384615,7.90769231 C12.4615385,6.8 13.4461538,5.93846154 14.5538462,5.93846154 C15.1692308,5.93846154 15.5384615,6.18461538 15.9076923,6.43076923 C16.2769231,6.8 16.4,7.41538462 16.4,7.90769231" id="Shape"></path>
                                    </g>
                                    <path d="M49.4923077,4.2 L47.5230769,4.2 C47.4,4.2 47.1538462,4.32307692 47.1538462,4.44615385 L47.0307692,5.06153846 L46.9076923,4.81538462 C46.4153846,4.2 45.5538462,3.95384615 44.5692308,3.95384615 C42.3538462,3.95384615 40.3846154,5.67692308 40.0153846,8.01538462 C39.7692308,9.24615385 40.1384615,10.3538462 40.7538462,11.0923077 C41.3692308,11.8307692 42.2307692,12.0769231 43.3384615,12.0769231 C45.1846154,12.0769231 46.1692308,10.9692308 46.1692308,10.9692308 L46.0461538,11.5846154 C46.0461538,11.8307692 46.1692308,11.9538462 46.4153846,11.9538462 L48.2615385,11.9538462 C48.5076923,11.9538462 48.7538462,11.7076923 48.8769231,11.4615385 L49.9846154,4.56923077 C49.8615385,4.44615385 49.7384615,4.2 49.4923077,4.2 M46.6615385,8.13846154 C46.4153846,9.24615385 45.5538462,10.1076923 44.3230769,10.1076923 C43.7076923,10.1076923 43.2153846,9.86153846 42.9692308,9.61538462 C42.7230769,9.24615385 42.6,8.75384615 42.6,8.13846154 C42.7230769,7.03076923 43.7076923,6.16923077 44.8153846,6.16923077 C45.4307692,6.16923077 45.8,6.41538462 46.1692308,6.66153846 C46.6615385,7.03076923 46.7846154,7.64615385 46.6615385,8.13846154" id="Shape" fill="#139AD6"></path>
                                    <path d="M30.1692308,4.2 L28.0769231,4.2 C27.8307692,4.2 27.7076923,4.32307692 27.5846154,4.44615385 L24.8769231,8.63076923 L23.6461538,4.69230769 C23.5230769,4.44615385 23.4,4.32307692 23.0307692,4.32307692 L21.0615385,4.32307692 C20.8153846,4.32307692 20.6923077,4.56923077 20.6923077,4.81538462 L22.9076923,11.3384615 L20.8153846,14.2923077 C20.6923077,14.5384615 20.8153846,14.9076923 21.0615385,14.9076923 L23.0307692,14.9076923 C23.2769231,14.9076923 23.4,14.7846154 23.5230769,14.6615385 L30.2923077,4.93846154 C30.6615385,4.56923077 30.4153846,4.2 30.1692308,4.2" id="Shape" fill="#263B80"></path>
                                    <path d="M51.8307692,0.630769231 L50.1076923,11.7076923 C50.1076923,11.9538462 50.2307692,12.0769231 50.4769231,12.0769231 L52.2,12.0769231 C52.4461538,12.0769231 52.6923077,11.8307692 52.8153846,11.5846154 L54.5384615,0.753846154 C54.5384615,0.507692308 54.4153846,0.384615385 54.1692308,0.384615385 L52.2,0.384615385 C52.0769231,0.261538462 51.9538462,0.384615385 51.8307692,0.630769231" id="Shape" fill="#139AD6"></path>
                                </g>
                            </g>
                        </g>
                    </g>
                </g>
            </g>
        </g>
    </g>
</svg>