<?xml version="1.0" encoding="UTF-8"?>
<svg width="34px" height="31px" viewBox="0 0 34 31" version="1.1" xmlns="http://www.w3.org/2000/svg" xmlns:xlink="http://www.w3.org/1999/xlink">
    <!-- Generator: Sketch 49 (51002) - http://www.bohemiancoding.com/sketch -->
    <title>react-js</title>
    <desc>Created with Sketch.</desc>
    <defs></defs>
    <g id="Home" stroke="none" stroke-width="1" fill="none" fill-rule="evenodd">
        <g id="1-Home-[Opt-1]-[desktop]" transform="translate(-531.000000, -2246.000000)" fill="#67DAF9" fill-rule="nonzero">
            <g id="Technologies" transform="translate(0.000000, 1704.000000)">
                <g id="T1" transform="translate(140.000000, 303.793750)">
                    <g id="descr" transform="translate(0.000000, 80.000000)">
                        <g id="tech-logos" transform="translate(50.000000, 156.000000)">
                            <g id="logos" transform="translate(0.966343, 0.000000)">
                                <g id="react-js" transform="translate(340.033657, 3.000000)">
                                    <path d="M16.6818549,17.8746444 C18.3495746,17.8746444 19.7015284,16.5241212 19.7015284,14.8581664 C19.7015284,13.1922117 18.3495746,11.8416885 16.6818549,11.8416885 C15.0141353,11.8416885 13.6621814,13.1922117 13.6621814,14.8581664 C13.6621814,16.5241212 15.0141353,17.8746444 16.6818549,17.8746444 Z M8.3105978,29.2687097 C7.40096185,28.7439602 6.81294112,27.7956627 6.54238988,26.5278826 C6.29683622,25.377239 6.31066846,23.9569879 6.5704341,22.3413241 C7.08955514,19.112548 8.56781629,15.2318606 10.7521294,11.45161 C12.9364425,7.67135939 15.5608336,4.45184981 18.0997613,2.38825705 C19.3702284,1.35564525 20.5942914,0.633550429 21.7143696,0.270710609 C22.9484727,-0.129066623 24.0644041,-0.0943904614 24.9740401,0.43035907 C25.883676,0.955108602 26.4716968,1.90340603 26.742248,3.17118617 C26.9878017,4.32182978 26.9739694,5.74208086 26.7142038,7.35774471 C26.1950827,10.5865207 24.7168216,14.4672082 22.5325085,18.2474588 C20.3481953,22.0277094 17.7238043,25.247219 15.1848766,27.3108117 C13.9144095,28.3434235 12.6903465,29.0655183 11.5702683,29.4283582 C10.3361652,29.8281354 9.22023376,29.7934592 8.3105978,29.2687097 Z M9.03324708,28.0180669 C10.1141837,28.6416361 12.0145504,28.0260284 14.2728434,26.1905303 C16.6658746,24.2455196 19.1798303,21.1614881 21.2808432,17.5253998 C23.3818561,13.8893116 24.7979115,10.1719249 25.2872018,7.12868673 C25.748943,4.25679631 25.3323274,2.30457103 24.2513908,1.68100183 C23.1704542,1.05743262 21.2700874,1.67304032 19.0117945,3.50853842 C16.6187633,5.45354922 14.1048076,8.53758066 12.0037947,12.1736689 C9.90278178,15.8097572 8.4867264,19.5271439 7.99743605,22.570382 C7.5356949,25.4422725 7.95231049,27.3944977 9.03324708,28.0180669 Z M0,14.853919 C0,13.80442 0.527910746,12.8214464 1.49146259,11.9534435 C2.36598708,11.1656397 3.60388234,10.4674834 5.13411507,9.88443136 C8.19216382,8.71924809 12.294816,8.05807025 16.6634423,8.05807025 C21.0320685,8.05807025 25.1347207,8.71924809 28.1927695,9.88443136 C29.7230022,10.4674834 30.9608975,11.1656397 31.835422,11.9534435 C32.7989738,12.8214464 33.3268846,13.80442 33.3268846,14.853919 C33.3268846,15.9034181 32.7989738,16.8863917 31.835422,17.7543946 C30.9608975,18.5421984 29.7230022,19.2403546 28.1927695,19.8234067 C25.1347207,20.98859 21.0320685,21.6497678 16.6634423,21.6497678 C12.294816,21.6497678 8.19216382,20.98859 5.13411507,19.8234067 C3.60388234,19.2403546 2.36598708,18.5421984 1.49146259,17.7543946 C0.527910746,16.8863917 0,15.9034181 0,14.853919 Z M1.44529857,14.853919 C1.44529857,16.1010574 2.92904974,17.437675 5.64908384,18.4740673 C8.53140535,19.5722947 12.4614165,20.2056499 16.6634423,20.2056499 C20.8654681,20.2056499 24.7954792,19.5722947 27.6778007,18.4740673 C30.3978348,17.437675 31.881586,16.1010574 31.881586,14.853919 C31.881586,13.6067806 30.3978348,12.270163 27.6778007,11.2337707 C24.7954792,10.1355433 20.8654681,9.50218811 16.6634423,9.50218811 C12.4614165,9.50218811 8.53140535,10.1355433 5.64908384,11.2337707 C2.92904974,12.270163 1.44529857,13.6067806 1.44529857,14.853919 Z M11.5770297,0.291181332 C12.6971078,0.654021152 13.9211708,1.37611598 15.1916379,2.40872777 C17.7305656,4.47232053 20.3549567,7.69183011 22.5392698,11.4720807 C24.7235829,15.2523313 26.2018441,19.1330187 26.7209651,22.3617948 C26.9807308,23.9774586 26.994563,25.3977097 26.7490094,26.5483533 C26.4784581,27.8161335 25.8904374,28.7644309 24.9808014,29.2891804 C24.0711655,29.81393 22.955234,29.8486061 21.7211309,29.4488289 C20.6010528,29.0859891 19.3769898,28.3638942 18.1065227,27.3312824 C15.567595,25.2676897 12.9432039,22.0481801 10.7588908,18.2679295 C8.57457765,14.4876789 7.0963165,10.6069915 6.57719546,7.37821543 C6.31742981,5.76255159 6.30359757,4.3423005 6.54915124,3.19165689 C6.81970248,1.92387675 7.4077232,0.975579324 8.31735916,0.450829793 C9.22699511,-0.0739197388 10.3429266,-0.1085959 11.5770297,0.291181332 Z M8.00419741,7.14915746 C8.49348776,10.1923956 9.90954314,13.9097823 12.010556,17.5458706 C14.111569,21.1819588 16.6255247,24.2659903 19.0185558,26.2110011 C21.2768488,28.0464992 23.1772156,28.6621069 24.2581522,28.0385377 C25.3390887,27.4149685 25.7557043,25.4627432 25.2939632,22.5908528 C24.8046728,19.5476146 23.3886175,15.8302279 21.2876045,12.1941397 C19.1865916,8.55805138 16.6726359,5.47401994 14.2796047,3.52900915 C12.0213118,1.69351104 10.120945,1.07790334 9.04000844,1.70147255 C7.95907185,2.32504176 7.54245626,4.27726703 8.00419741,7.14915746 Z" id="Combined-Shape"></path>
                                </g>
                            </g>
                        </g>
                    </g>
                </g>
            </g>
        </g>
    </g>
</svg>