<?xml version="1.0" encoding="UTF-8"?>
<svg width="63px" height="21px" viewBox="0 0 63 21" version="1.1" xmlns="http://www.w3.org/2000/svg" xmlns:xlink="http://www.w3.org/1999/xlink">
    <!-- Generator: Sketch 49 (51002) - http://www.bohemiancoding.com/sketch -->
    <title>redis</title>
    <desc>Created with Sketch.</desc>
    <defs></defs>
    <g id="Home" stroke="none" stroke-width="1" fill="none" fill-rule="evenodd">
        <g id="1-Home-[Opt-1]-[desktop]" transform="translate(-572.000000, -2623.000000)" fill-rule="nonzero">
            <g id="Technologies" transform="translate(0.000000, 1704.000000)">
                <g id="T3" transform="translate(140.000000, 675.793750)">
                    <g id="body" transform="translate(0.000000, 80.000000)">
                        <g id="tech-logos" transform="translate(50.000000, 156.000000)">
                            <g id="logos" transform="translate(0.000000, 4.000000)">
                                <g id="redis" transform="translate(382.000000, 4.000000)">
                                    <path d="M34.1945329,6.23256414 C34.1945329,6.72916817 33.7863952,7.17239309 33.2541552,7.17239309 C32.8460176,7.17239309 32.4912824,7.27887685 32.1896751,7.5094087 C31.8526492,7.72237622 31.5864606,8.02371428 31.3736744,8.36059267 C30.9478274,8.92814013 30.7351785,9.60189691 30.6463575,9.84999309 L30.6463575,13.2193259 C30.6463575,13.7336314 30.2029385,14.159292 29.6706985,14.159292 C29.1561677,14.159292 28.730458,13.7336314 28.730458,13.2193259 L28.730458,6.23256414 C28.730458,5.71825856 29.1561677,5.31043674 29.6706985,5.31043674 C30.2029385,5.31043674 30.6463575,5.71839578 30.6463575,6.23256414 L30.6463575,6.35674945 C30.7527506,6.23256414 30.8946995,6.09081449 31.0189392,6.00203229 C31.6044445,5.61204924 32.36718,5.29273518 33.2541552,5.31043674 C33.7863952,5.31043674 34.1945329,5.71839578 34.1945329,6.23256414 L34.1945329,6.23256414 Z" id="Shape" fill="#636466"></path>
                                    <path d="M33.6657515,9.55765909 C33.6836655,7.15050603 35.5712522,5.13274336 38.0107286,5.13274336 C40.3257715,5.13274336 42.1598917,6.84959478 42.3025149,9.23894244 L42.3025149,9.32742158 C42.3025149,9.36289541 42.3025149,9.45123758 42.2847387,9.48671142 C42.2311344,9.91157565 41.8572826,10.1948185 41.3585838,10.1948185 L35.6958236,10.1948185 C35.7848425,10.6020143 35.9806565,11.0620784 36.3013175,11.3629896 C36.6753072,11.7878539 37.3875962,12.1061596 38.0107286,12.1593019 C38.651775,12.2123072 39.4175306,12.0531543 39.8627629,11.7169062 C40.2366148,11.3273788 40.9668179,11.3806581 41.1983222,11.663627 C41.4298264,11.9116699 41.6078643,12.4426817 41.1983222,12.8141297 C40.3256337,13.610442 39.2750452,13.9823009 38.0105908,13.9823009 C35.5712522,13.9649064 33.6836655,11.9648121 33.6657515,9.55765909 Z M35.6068046,8.69039916 L40.6462947,8.69039916 C40.4682569,7.98242908 39.5600159,6.93821088 38.0107286,6.81425791 C36.4972693,6.88493165 35.74929,7.96476065 35.6068046,8.69039916 L35.6068046,8.69039916 Z" id="Shape" fill="#636466"></path>
                                    <path d="M51.2917993,13.0264692 C51.2917993,13.5397888 50.8652212,13.9823009 50.3320673,13.9823009 C49.85227,13.9823009 49.479186,13.6460684 49.3902124,13.2212239 C48.7150033,13.6812666 47.8619846,13.9823009 46.9733488,13.9823009 C44.5743625,13.9823009 42.6550359,11.9646319 42.6550359,9.57525822 C42.6550359,7.15041235 44.5743625,5.13274336 46.9733488,5.13274336 C47.8442448,5.13274336 48.6971261,5.41583607 49.3545955,5.8760158 L49.3545955,2.548752 C49.3545955,2.03543247 49.7811736,1.59292035 50.3319298,1.59292035 C50.8650837,1.59292035 51.2916618,2.03543247 51.2916618,2.548752 L51.2916618,9.55745364 L51.2916618,9.57525822 L51.2916618,13.0264692 L51.2917993,13.0264692 Z M46.9734864,7.06193732 C46.3337567,7.06193732 45.7472461,7.32736241 45.3032033,7.78754214 C44.8588854,8.23005426 44.5922397,8.86704709 44.5922397,9.57512126 C44.5922397,10.2475863 44.8587479,10.8847161 45.3032033,11.3272282 C45.7472461,11.7875449 46.3337567,12.05297 46.9734864,12.05297 C47.6309558,12.05297 48.1997266,11.7875449 48.643907,11.3272282 C49.0880873,10.884853 49.354733,10.2475863 49.354733,9.57512126 C49.354733,8.86704709 49.0882248,8.23005426 48.643907,7.78754214 C48.1997266,7.32736241 47.6309558,7.06193732 46.9734864,7.06193732 Z" id="Shape" fill="#636466"></path>
                                    <path d="M54.6407484,2.9204567 C54.6407484,3.45144385 54.227887,3.89381901 53.6712463,3.89381901 C53.1326649,3.89381901 52.7018832,3.45144385 52.7018832,2.9204567 L52.7018832,2.548752 C52.7018832,2.01776486 53.1326649,1.59292035 53.6712463,1.59292035 C54.227887,1.59292035 54.6407484,2.01776486 54.6407484,2.548752 L54.6407484,2.9204567 Z M54.6407484,6.12391024 L54.6407484,13.0264692 C54.6407484,13.5574564 54.227887,13.9823009 53.6712463,13.9823009 C53.1326649,13.9823009 52.7018832,13.5574564 52.7018832,13.0264692 L52.7018832,6.12391024 C52.7018832,5.55758786 53.1326649,5.15041098 53.6712463,5.15041098 C54.2280259,5.15041098 54.6407484,5.55758786 54.6407484,6.12391024 Z" id="Shape" fill="#636466"></path>
                                    <path d="M55.7289124,11.451234 C56.0463768,11.0266503 56.6638354,10.9735089 57.051726,11.3097518 C57.5103159,11.6992731 58.3041133,12.1060517 58.9918617,12.0885205 C59.4680582,12.0885205 59.9090416,11.9293701 60.1912927,11.7522776 C60.4381943,11.5398488 60.5086206,11.3630302 60.5086206,11.221274 C60.5086206,11.1327962 60.491014,11.0974599 60.4558009,11.0441815 C60.4380578,10.991177 60.3676315,10.9203674 60.2263694,10.8320266 C59.9794679,10.6549341 59.4503151,10.4601734 58.8153865,10.3363593 L58.7977799,10.3363593 C58.2508841,10.2302134 57.7217314,10.0885942 57.2632779,9.8760284 C56.7870814,9.64606838 56.3637046,9.32749362 56.0462403,8.84963148 C55.852295,8.53105672 55.746519,8.14167236 55.746519,7.73461983 C55.746519,6.92037781 56.205109,6.23008685 56.7870814,5.78756104 C57.4044035,5.36284035 58.1452446,5.13274336 58.9566485,5.13274336 C60.1735497,5.13274336 61.0377733,5.71688839 61.6022757,6.1061358 C62.0256525,6.38937423 62.149035,6.97351926 61.8843904,7.41577115 C61.6022757,7.8406288 61.0201667,7.96457986 60.5793199,7.66367326 C60.014954,7.29209402 59.5210144,7.00871862 58.9566485,7.00871862 C58.5156652,7.00871862 58.127638,7.15033784 57.8983431,7.32729338 C57.6690481,7.48671772 57.6162284,7.6460051 57.6162284,7.73448287 C57.6162284,7.80515551 57.6162284,7.82296064 57.6514415,7.87596512 C57.6691846,7.91130145 57.7220043,7.98211105 57.8455234,8.05292066 C58.0749548,8.21220804 58.5334082,8.37149542 59.1331238,8.47777831 L59.1507303,8.49558344 L59.1684734,8.49558344 C59.7505824,8.60159241 60.2973417,8.76101675 60.8087513,9.0087819 C61.2849478,9.22121072 61.7612808,9.55745364 62.0611386,10.0529839 C62.272827,10.406895 62.3962095,10.8140845 62.3962095,11.221137 C62.3962095,12.0883835 61.920013,12.8141478 61.2849478,13.2742048 C60.6500192,13.7165936 59.8562218,13.9823009 58.9919982,13.9823009 C57.6163649,13.9646327 56.5580594,13.3274832 55.8525679,12.7611433 C55.4644043,12.4425685 55.4115846,11.8406184 55.7289124,11.451234 L55.7289124,11.451234 Z" id="Shape" fill="#636466"></path>
                                    <path d="M22.3547993,15.420317 C21.1131852,16.0696182 14.6810822,18.7228067 13.3117232,19.4389316 C11.9423642,20.1553309 11.1816396,20.1483329 10.0999116,19.6295232 C9.01818367,19.1107134 2.17330348,16.3369129 0.940305944,15.7456537 C0.324012332,15.4500926 0,15.200773 0,14.965175 L0,12.6057637 C0,12.6057637 8.91109137,10.6595067 10.3497937,10.1417946 C11.7883592,9.62394534 12.2874394,9.60528411 13.5116835,10.055212 C14.7360644,10.5051398 22.0563633,11.8302247 23.2663832,12.2748012 C23.2663832,12.2748012 23.2658361,14.3820114 23.2658361,14.600732 C23.2659729,14.8339974 22.9868217,15.0899034 22.3547993,15.420317 L22.3547993,15.420317 Z" id="Shape" fill="#A41E11"></path>
                                    <path d="M22.354376,12.9770871 C21.1128016,13.6212039 14.6809045,16.2545928 13.3115894,16.9653001 C11.9422742,17.6762797 11.181574,17.6693347 10.0998806,17.1544498 C9.01805054,16.6398373 2.17352627,13.8864765 0.940568203,13.2999625 C-0.292389861,12.7131763 -0.318238899,12.3092756 0.89297315,11.8371502 C2.10404843,11.3647526 8.91109844,8.70562618 10.3498914,8.19169455 C11.7884109,7.67803527 12.2874751,7.65924285 13.5116801,8.1059031 C14.7360218,8.55242716 21.1294872,11.0862708 22.3393316,11.527484 C23.5494495,11.9691057 23.5959504,12.332698 22.354376,12.9770871 L22.354376,12.9770871 Z" id="Shape" fill="#D82C20"></path>
                                    <path d="M22.3547993,11.526475 C21.1131852,12.1757775 14.6810822,14.8289715 13.3117232,15.5453724 C11.9423642,16.2614987 11.1816396,16.2545008 10.0999116,15.7356899 C9.0180469,15.2171535 2.17330348,12.4430728 0.940305944,11.8518123 C0.324012332,11.5562507 0,11.307205 0,11.0716064 L0,8.71191583 C0,8.71191583 8.91109137,6.76579198 10.3497937,6.24794164 C11.7883592,5.73022851 12.2874394,5.71143002 13.5116835,6.16135881 C14.7360644,6.61128761 22.0563633,7.93610082 23.2663832,8.38081544 C23.2663832,8.38081544 23.2658361,10.48803 23.2658361,10.7070255 C23.2659729,10.9401542 22.9868217,11.1960607 22.3547993,11.526475 L22.3547993,11.526475 Z" id="Shape" fill="#A41E11"></path>
                                    <path d="M22.354376,9.08323563 C21.1128016,9.72762746 14.6809045,12.3607552 13.3115894,13.0717378 C11.9422742,13.782448 11.181574,13.775503 10.0998806,13.260616 C9.01805054,12.7460013 2.17352627,9.99276501 0.940568203,9.40611243 C-0.292389861,8.81945985 -0.318238899,8.41555745 0.89297315,7.94315778 C2.10404843,7.47103046 8.91109844,4.81175667 10.3498914,4.29795904 C11.7884109,3.78416142 12.2874751,3.7655051 13.5116801,4.21203105 C14.7360218,4.65855701 21.1294872,7.19227517 22.3393316,7.63362637 C23.5494495,8.07511376 23.5959504,8.4388438 22.354376,9.08323563 L22.354376,9.08323563 Z" id="Shape" fill="#D82C20"></path>
                                    <path d="M22.3547993,7.63249288 C21.1131852,8.28180104 14.6810822,10.9351552 13.3117232,11.6515622 C11.9423642,12.3676948 11.1816396,12.3606967 10.0999116,11.8418814 C9.0180469,11.3233405 2.17330348,8.54909865 0.940305944,7.95797026 C0.324012332,7.66240606 0,7.41322102 0,7.17775762 L0,4.81804662 C0,4.81804662 8.91109137,2.87190596 10.3497937,2.35418835 C11.7883592,1.83633354 12.2874394,1.8176721 13.5116835,2.26760479 C14.7360644,2.71753747 22.0563633,4.04236213 23.2663832,4.48708059 C23.2663832,4.48708059 23.2658361,6.59431335 23.2658361,6.81317356 C23.2659729,7.04616706 22.9868217,7.30207571 22.3547993,7.63249288 L22.3547993,7.63249288 Z" id="Shape" fill="#A41E11"></path>
                                    <path d="M22.354376,5.18936863 C21.1128016,5.83376621 14.6809045,8.4670536 13.3115894,9.17790638 C11.9422742,9.88862298 11.181574,9.88167787 10.0998806,9.36692241 C9.01818731,8.85216695 2.17352627,6.0990423 0.940568203,5.51238449 C-0.292389861,4.92572668 -0.318238899,4.5216845 0.89297315,4.04941679 C2.10404843,3.57714908 8.91109844,0.918123917 10.3498914,0.404185529 C11.7884109,-0.10975286 12.2874751,-0.128273162 13.5116801,0.318392952 C14.7360218,0.764922887 21.1294872,3.29866366 22.3393316,3.7400188 C23.5494495,4.18123777 23.5959504,4.54510724 22.354376,5.18936863 Z" id="Shape" fill="#D82C20"></path>
                                    <polygon id="Shape" fill="#FFFFFF" points="14.6296197 2.95261464 12.6355503 3.16186645 12.1891169 4.24778761 11.4680592 3.03604183 9.1655449 2.82679002 10.8836373 2.20040225 10.3682096 1.23893805 11.9767228 1.87489944 13.4932437 1.37296862 13.0833366 2.36725664"></polygon>
                                    <polygon id="Shape" fill="#FFFFFF" points="12.0974515 8.31858407 8.2842425 6.69930765 13.7483173 5.84070796"></polygon>
                                    <ellipse id="Oval" fill="#FFFFFF" cx="6.78602843" cy="4.69026549" rx="2.9082979" ry="1.15044248"></ellipse>
                                    <polygon id="Shape" fill="#7A0C00" points="17.0972664 3.18584071 20.2699551 4.425451 17.0999863 5.66371681"></polygon>
                                    <polygon id="Shape" fill="#AD2115" points="13.5720569 4.58162828 17.0945369 3.18584071 17.0972664 5.70536715 16.7519788 5.84070796"></polygon>
                                </g>
                            </g>
                        </g>
                    </g>
                </g>
            </g>
        </g>
    </g>
</svg>