<?xml version="1.0" encoding="UTF-8"?>
<svg width="83px" height="30px" viewBox="0 0 83 30" version="1.1" xmlns="http://www.w3.org/2000/svg" xmlns:xlink="http://www.w3.org/1999/xlink">
    <!-- Generator: Sketch 49 (51002) - http://www.bohemiancoding.com/sketch -->
    <title>rspec</title>
    <desc>Created with Sketch.</desc>
    <defs></defs>
    <g id="Home" stroke="none" stroke-width="1" fill="none" fill-rule="evenodd">
        <g id="1-Home-[Opt-1]-[desktop]" transform="translate(-1167.000000, -2991.000000)">
            <g id="Technologies" transform="translate(0.000000, 1704.000000)">
                <g id="T6" transform="translate(755.000000, 1048.000000)">
                    <g id="body" transform="translate(0.000000, 80.000000)">
                        <g id="tech-logos" transform="translate(50.000000, 156.000000)">
                            <g id="logos">
                                <g id="rspec" transform="translate(362.000000, 3.000000)">
                                    <g id="Group-2" fill-rule="nonzero">
                                        <path d="M2.37697274,18.6119403 L4.85509326,19.2993854 C4.29878049,17.975417 3.99533716,16.524144 3.99533716,14.9964881 C3.99533716,8.93678665 8.87571736,3.99736611 14.919297,3.99736611 L15.1215925,3.99736611 L16.5882353,1.98595259 L15.3997489,0 L14.919297,0 C6.67575323,0 0,6.72168569 0,15.0219491 C0,16.9315189 0.354017217,18.7901668 1.01147776,20.4705882 L2.37697274,18.6119403 Z" id="Shape" fill="#5ECAE6"></path>
                                        <path d="M17.4252652,2.02662087 L15.8823529,3.97724345 C21.5139826,4.50923143 25.9369977,9.17045942 25.9369977,14.8703306 C25.9369977,16.1623014 25.7055609,17.3782739 25.2941176,18.5182482 L26.5027322,20.8235294 L28.8171006,20.6462001 C29.5628415,18.8729068 30,16.9222842 30,14.8703306 C30,7.06784027 23.9312118,0.658651782 16.1909354,0 L17.4252652,2.02662087 Z" id="Shape" fill="#A5DDEF"></path>
                                        <path d="M26.1708526,21.6824947 L25.102115,19.4883062 C23.3717779,23.3153792 19.5548579,25.9688164 15.0763384,25.9688164 C10.8522802,25.9688164 7.18803701,23.5705174 5.3559154,20.075124 L2.70951751,19.4117647 L1.41176471,21.1722183 C3.77825512,26.3770376 8.99471249,30 15.0763384,30 C21.0307336,30 26.1708526,26.5301205 28.5882353,21.5038979 L26.1708526,21.6824947 Z" id="Shape" fill="#7FD2ED"></path>
                                        <g id="Group" transform="translate(6.705882, 8.470588)">
                                            <polygon id="Shape" fill="#EF4561" points="4.03345588 0.180059821 0.0253676471 4.34715852 1.04007353 6.43070788 8.01617647 15.0735793 14.9922794 6.22492522 16.0069853 4.34715852 11.9988971 0.180059821"></polygon>
                                            <path d="M0.0253676471,4.47577268 L2.53676471,4.99022931" id="Shape" fill="#EF4561"></path>
                                            <polygon id="Shape" fill="#EF4D6E" points="14.9922794 6.25064806 12.50625 6.99661017 13.4955882 4.99022931 16.0069853 4.47577268"></polygon>
                                            <polygon id="Shape" fill="#EF4561" points="7.02683824 7.38245264 6.01213235 4.81016949 10.0202206 4.81016949 9.00551471 7.38245264"></polygon>
                                            <polygon id="Shape" fill="#EF4561" points="11.0095588 6.86799601 10.0202206 4.81016949 13.4955882 4.81016949 12.50625 6.86799601"></polygon>
                                            <polygon id="Shape" fill="#EF4D6E" points="5.02279412 6.99661017 6.01213235 4.99022931 7.02683824 7.5110668"></polygon>
                                            <polygon id="Shape" fill="#EF4D6E" points="9.00551471 7.5110668 10.0202206 4.99022931 11.0095588 6.99661017"></polygon>
                                            <polygon id="Shape" fill="#EF4561" points="13.4955882 4.86161515 11.5169118 0.180059821 11.9988971 0.180059821 16.0069853 4.26999003"></polygon>
                                            <polygon id="Shape" fill="#EF4D6E" points="10.0202206 4.81016949 10.5022059 0.180059821 11.5169118 0.180059821 13.4955882 4.81016949"></polygon>
                                            <polygon id="Shape" fill="#EF4D6E" points="1.04007353 6.50787637 3.52610294 6.99661017 2.53676471 4.99022931 0.0253676471 4.47577268"></polygon>
                                            <polygon id="Shape" fill="#EF4561" points="5.02279412 6.86799601 6.01213235 4.81016949 2.53676471 4.81016949 3.52610294 6.86799601"></polygon>
                                            <polygon id="Shape" fill="#EF4561" points="2.53676471 4.86161515 4.51544118 0.180059821 4.03345588 0.180059821 0.0253676471 4.26999003"></polygon>
                                            <polygon id="Shape" fill="#EF4D6E" points="6.01213235 4.81016949 5.53014706 0.180059821 4.51544118 0.180059821 2.53676471 4.81016949"></polygon>
                                            <polygon id="Shape" fill="#EF4561" points="6.01213235 4.733001 8.01617647 0.180059821 5.53014706 0.180059821"></polygon>
                                            <polygon id="Shape" fill="#EF4561" points="10.0202206 4.733001 10.5022059 0.180059821 8.01617647 0.180059821"></polygon>
                                            <polygon id="Shape" fill="#EF4D6E" points="10.0202206 4.81016949 8.01617647 0.257228315 6.01213235 4.81016949"></polygon>
                                            <polygon id="Shape" fill="#EF4D6E" points="3.52610294 6.86799601 8.01617647 14.9449651 5.02279412 6.86799601"></polygon>
                                            <polygon id="Shape" fill="#EF4561" points="1.04007353 6.50787637 3.52610294 6.99661017 8.01617647 15.0993021"></polygon>
                                            <polygon id="Shape" fill="#EF4561" points="5.02279412 6.99661017 7.02683824 7.5110668 8.01617647 15.0993021"></polygon>
                                            <polygon id="Shape" fill="#EF4561" points="11.0095588 6.99661017 8.01617647 15.0993021 9.00551471 7.5110668"></polygon>
                                            <polygon id="Shape" fill="#EF4D6E" points="12.50625 6.86799601 8.01617647 14.9449651 11.0095588 6.86799601"></polygon>
                                            <polygon id="Shape" fill="#EF4561" points="14.9922794 6.25064806 12.50625 6.99661017 8.01617647 15.0993021"></polygon>
                                            <polygon id="Shape" fill="#EF4D6E" points="8.01617647 14.9706879 7.02683824 7.38245264 9.00551471 7.38245264"></polygon>
                                        </g>
                                    </g>
                                    <path d="M39.3772152,17.0886076 L39.3772152,22.0141772 L38,22.0141772 L38,10.1701266 L41.2486076,10.1701266 C42.7014419,10.1701266 43.7748489,10.4482673 44.4688608,11.004557 C45.1628727,11.5608467 45.5098734,12.3979691 45.5098734,13.5159494 C45.5098734,15.0822019 44.7159573,16.1407567 43.1281013,16.6916456 L46.3443038,22.0141772 L44.7159494,22.0141772 L41.8481013,17.0886076 L39.3772152,17.0886076 Z M39.3772152,15.9058228 L41.2648101,15.9058228 C42.2369669,15.9058228 42.9498711,15.7127445 43.4035443,15.3265823 C43.8572175,14.94042 44.0840506,14.3611853 44.0840506,13.5888608 C44.0840506,12.8057345 43.8531669,12.2413519 43.3913924,11.8956962 C42.9296179,11.5500405 42.1883595,11.3772152 41.1675949,11.3772152 L39.3772152,11.3772152 L39.3772152,15.9058228 Z M54.9397468,18.8627848 C54.9397468,19.9051529 54.5616915,20.7179718 53.8055696,21.3012658 C53.0494477,21.8845599 52.0232976,22.1762025 50.7270886,22.1762025 C49.3228622,22.1762025 48.2427042,21.9952761 47.4865823,21.6334177 L47.4865823,20.3048101 C47.9726607,20.5100432 48.5019381,20.6720669 49.0744304,20.7908861 C49.6469227,20.9097052 50.2140056,20.9691139 50.7756962,20.9691139 C51.6938443,20.9691139 52.3851454,20.7949385 52.8496203,20.4465823 C53.3140951,20.0982261 53.5463291,19.6135052 53.5463291,18.9924051 C53.5463291,18.5819389 53.4639671,18.2457397 53.2992405,17.9837975 C53.1345139,17.7218552 52.8590737,17.4801699 52.4729114,17.2587342 C52.0867491,17.0372985 51.4994132,16.7861617 50.7108861,16.5053165 C49.6091084,16.1110529 48.8219433,15.6438846 48.3493671,15.1037975 C47.8767909,14.5637104 47.6405063,13.8589073 47.6405063,12.9893671 C47.6405063,12.0766199 47.9834565,11.3502137 48.6693671,10.8101266 C49.3552777,10.2700395 50.2626104,10 51.3913924,10 C52.5687823,10 53.6516406,10.2160316 54.64,10.6481013 L54.2106329,11.8470886 C53.2330753,11.4366224 52.2825363,11.2313924 51.3589873,11.2313924 C50.6298698,11.2313924 50.0600864,11.3880153 49.6496203,11.7012658 C49.2391541,12.0145163 49.0339241,12.4492799 49.0339241,13.0055696 C49.0339241,13.4160358 49.1095351,13.752235 49.2607595,14.0141772 C49.4119839,14.2761195 49.6671712,14.5164546 50.0263291,14.7351899 C50.385487,14.9539251 50.9350174,15.1956105 51.6749367,15.4602532 C52.917137,15.9031246 53.771812,16.3783941 54.2389873,16.8860759 C54.7061627,17.3937578 54.9397468,18.0526542 54.9397468,18.8627848 Z M61.2911392,22.1762025 C60.7132461,22.1762025 60.1853188,22.0695369 59.7073418,21.8562025 C59.2293647,21.6428681 58.8283561,21.3147701 58.5043038,20.8718987 L58.4070886,20.8718987 C58.4718991,21.3903823 58.5043038,21.8818542 58.5043038,22.3463291 L58.5043038,26 L57.1594937,26 L57.1594937,13.1351899 L58.2531646,13.1351899 L58.4394937,14.3503797 L58.5043038,14.3503797 C58.8499595,13.8643014 59.2523184,13.51325 59.7113924,13.2972152 C60.1704664,13.0811804 60.6970434,12.9731646 61.2911392,12.9731646 C62.4685291,12.9731646 63.377212,13.3755234 64.0172152,14.1802532 C64.6572184,14.9849829 64.9772152,16.113748 64.9772152,17.5665823 C64.9772152,19.0248174 64.6518176,20.1576331 64.0010127,20.9650633 C63.3502077,21.7724935 62.4469256,22.1762025 61.2911392,22.1762025 Z M61.0967089,14.115443 C60.1893626,14.115443 59.5331666,14.3665798 59.1281013,14.8688608 C58.7230359,15.3711418 58.5151055,16.1704587 58.5043038,17.2668354 L58.5043038,17.5665823 C58.5043038,18.8141835 58.7122342,19.706664 59.1281013,20.2440506 C59.5439683,20.7814373 60.2109659,21.0501266 61.1291139,21.0501266 C61.8960376,21.0501266 62.4968755,20.7395812 62.9316456,20.118481 C63.3664157,19.4973809 63.5837975,18.6413557 63.5837975,17.5503797 C63.5837975,16.4432012 63.3664157,15.593927 62.9316456,15.0025316 C62.4968755,14.4111363 61.885236,14.115443 61.0967089,14.115443 Z M71.0774684,22.1762025 C69.7650567,22.1762025 68.7294553,21.7765441 67.9706329,20.9772152 C67.2118106,20.1778863 66.8324051,19.068024 66.8324051,17.6475949 C66.8324051,16.2163642 67.1848066,15.0794979 67.8896203,14.236962 C68.5944339,13.3944262 69.5409223,12.9731646 70.7291139,12.9731646 C71.8416933,12.9731646 72.7220221,13.3390681 73.3701266,14.0708861 C74.0182311,14.8027041 74.3422785,15.7680953 74.3422785,16.9670886 L74.3422785,17.8177215 L68.2258228,17.8177215 C68.2528271,18.8600896 68.5161156,19.6513053 69.0156962,20.1913924 C69.5152768,20.7314795 70.2187296,21.001519 71.1260759,21.001519 C72.0820301,21.001519 73.0271683,20.8016898 73.961519,20.4020253 L73.961519,21.6010127 C73.4862423,21.8062458 73.0366266,21.9534173 72.6126582,22.0425316 C72.1886899,22.131646 71.676965,22.1762025 71.0774684,22.1762025 Z M70.7129114,14.0992405 C69.9999964,14.0992405 69.4315633,14.3314745 69.0075949,14.7959494 C68.5836266,15.2604243 68.33384,15.9031183 68.2582278,16.7240506 L72.9002532,16.7240506 C72.9002532,15.8761139 72.7112255,15.2266689 72.3331646,14.7756962 C71.9551036,14.3247235 71.4150246,14.0992405 70.7129114,14.0992405 Z M80.1832911,22.1762025 C78.8978839,22.1762025 77.9027883,21.7805947 77.1979747,20.9893671 C76.493161,20.1981395 76.1407595,19.0788258 76.1407595,17.6313924 C76.1407595,16.1461529 76.4985618,14.9984851 77.2141772,14.1883544 C77.9297926,13.3782238 78.9491917,12.9731646 80.2724051,12.9731646 C80.6990739,12.9731646 81.1257363,13.0190713 81.5524051,13.1108861 C81.9790739,13.2027009 82.3139228,13.3107167 82.556962,13.4349367 L82.1437975,14.5772152 C81.8467496,14.458396 81.5227022,14.3598316 81.1716456,14.281519 C80.820589,14.2032064 80.5100435,14.1640506 80.24,14.1640506 C78.4361091,14.1640506 77.5341772,15.3144189 77.5341772,17.6151899 C77.5341772,18.7061658 77.7542594,19.5432882 78.1944304,20.1265823 C78.6346014,20.7098763 79.2867467,21.001519 80.1508861,21.001519 C80.8908054,21.001519 81.6496164,20.8421957 82.4273418,20.5235443 L82.4273418,21.7144304 C81.833246,22.02228 81.0852366,22.1762025 80.1832911,22.1762025 Z" id="RSpec" fill="#000000"></path>
                                </g>
                            </g>
                        </g>
                    </g>
                </g>
            </g>
        </g>
    </g>
</svg>