<?xml version="1.0" encoding="UTF-8"?>
<svg width="34px" height="34px" viewBox="0 0 34 34" version="1.1" xmlns="http://www.w3.org/2000/svg" xmlns:xlink="http://www.w3.org/1999/xlink">
    <!-- Generator: Sketch 49 (51002) - http://www.bohemiancoding.com/sketch -->
    <title>ruby-on-rails</title>
    <desc>Created with Sketch.</desc>
    <defs></defs>
    <g id="Home" stroke="none" stroke-width="1" fill="none" fill-rule="evenodd">
        <g id="1-Home-[Opt-1]-[desktop]" transform="translate(-870.000000, -2245.000000)" fill="#CC0000">
            <g id="Technologies" transform="translate(0.000000, 1704.000000)">
                <g id="T2" transform="translate(755.000000, 304.000000)">
                    <g id="body" transform="translate(0.000000, 80.000000)">
                        <g id="tech-logos" transform="translate(50.000000, 156.000000)">
                            <g id="logos">
                                <g id="ruby-on-rails" transform="translate(65.000000, 1.000000)">
                                    <path d="M26.6402955,31.5083217 L26.6402955,33.668183 L30.6529056,33.668183 C31.4750612,33.668183 32.8862238,33.0834692 32.9353077,31.448657 L32.9353077,30.6133515 C32.9353077,29.2171981 31.7572937,28.3938255 30.6529056,28.3938255 L28.652736,28.3938255 L28.652736,27.3914589 L32.6162623,27.3914589 L32.6162623,25.2196647 L28.8122588,25.2196647 C27.8305804,25.2196647 26.5175857,26.0072384 26.5175857,27.4749895 L26.5175857,28.2267644 C26.5175857,29.6945155 27.8183095,30.4462904 28.8122588,30.4462904 C31.573229,30.4582234 28.1496259,30.4462904 30.7019895,30.4462904 L30.7019895,31.4963888 L26.6402955,31.5083217 Z M5.14154021,30.9832725 C5.14154021,30.9832725 7.28896154,30.8042785 7.28896154,28.1074351 C7.28896154,25.4105916 4.68751399,25.16 4.68751399,25.16 L0,25.16 L0,33.668183 L2.35602797,33.668183 L2.35602797,31.6157181 L4.39301049,33.668183 L7.87796854,33.668183 L5.14154021,30.9832725 Z M4.23348777,29.241064 L2.35602797,29.241064 L2.35602797,27.2959955 L4.24575874,27.2959955 C4.24575874,27.2959955 4.77341084,27.4869224 4.77341084,28.2625632 C4.77341084,29.038204 4.23348777,29.241064 4.23348777,29.241064 Z M13.1054056,25.2196647 L10.7125647,25.2196647 C9.00689861,25.2196647 8.43016259,26.7232146 8.43016259,27.4391907 L8.43016259,33.668183 L10.8230035,33.668183 L10.8230035,32.1765661 L13.0685927,32.1765661 L13.0685927,33.668183 L15.3878077,33.668183 L15.3878077,27.4391907 C15.3878077,25.6253845 13.6944126,25.2196647 13.1054056,25.2196647 Z M13.0685927,29.7661131 L10.8107325,29.7661131 L10.8107325,27.7017153 C10.8107325,27.7017153 10.8107325,27.2363308 11.5592622,27.2363308 L12.3814178,27.2363308 C13.0440507,27.2363308 13.0563217,27.7017153 13.0563217,27.7017153 L13.0563217,29.7661131 L13.0685927,29.7661131 Z M16.606725,25.16 L19.0977337,25.16 L19.0977337,33.6085184 L16.606725,33.6085184 L16.606725,25.16 Z M22.5213368,31.4247912 L25.8713141,31.4247912 L25.8713141,33.6085184 L22.5213368,33.6085184 L20.0425991,33.6085184 L20.0425991,31.4247912 L20.0425991,25.16 L22.5213368,25.16 L22.5213368,31.4247912 Z" id="Shape"></path>
                                    <path d="M1.04889518,20.3417143 L12.8864265,20.3417143 C12.8864265,20.3417143 10.6238098,10.302 18.1159183,6.23657143 C19.7491979,5.46428571 24.9487212,2.57914286 33.4597564,8.69914286 C33.7294723,8.48057143 33.984204,8.30571429 33.984204,8.30571429 C33.984204,8.30571429 26.1924112,0.743142857 17.5165496,1.58828571 C13.1561425,1.96714286 7.7917928,5.82857143 4.64510724,10.9285714 C1.49842169,16.0285714 1.04889518,20.3417143 1.04889518,20.3417143 Z" id="Shape"></path>
                                    <path d="M1.04889518,20.3417143 L12.8864265,20.3417143 C12.8864265,20.3417143 10.6238098,10.302 18.1159183,6.23657143 C19.7491979,5.46428571 24.9487212,2.57914286 33.4597564,8.69914286 C33.7294723,8.48057143 33.984204,8.30571429 33.984204,8.30571429 C33.984204,8.30571429 26.1924112,0.743142857 17.5165496,1.58828571 C13.1561425,1.96714286 7.7917928,5.82857143 4.64510724,10.9285714 C1.49842169,16.0285714 1.04889518,20.3417143 1.04889518,20.3417143 Z" id="Shape"></path>
                                    <path d="M1.04889518,20.3417143 L12.8864265,20.3417143 C12.8864265,20.3417143 10.6238098,10.302 18.1159183,6.23657143 C19.7491979,5.46428571 24.9487212,2.57914286 33.4597564,8.69914286 C33.7294723,8.48057143 33.984204,8.30571429 33.984204,8.30571429 C33.984204,8.30571429 26.1924112,0.743142857 17.5165496,1.58828571 C13.1411582,1.96714286 7.77680858,5.82857143 4.63012303,10.9285714 C1.48343747,16.0285714 1.04889518,20.3417143 1.04889518,20.3417143 Z M25.7129162,2.40428571 L25.7728531,1.428 C25.6379951,1.35514286 25.2633897,1.18028571 24.3193841,0.918 L24.2594472,1.87971429 C24.7539263,2.04 25.2334213,2.21485714 25.7129162,2.40428571 Z" id="Shape"></path>
                                    <path d="M24.2894156,5.49342857 L24.2294788,6.41142857 C24.7239579,6.426 25.2184371,6.48428571 25.7129162,6.58628571 L25.7728531,5.68285714 C25.2633897,5.58085714 24.7689106,5.52257143 24.2894156,5.49342857 Z M18.7452554,0.947142857 L18.8950975,0.947142857 L18.5954132,0.0582857143 C18.1309025,0.0582857143 17.6514075,0.0874285714 17.1569284,0.145714286 L17.4416285,1.00542857 C17.8761708,0.961714286 18.3107131,0.947142857 18.7452554,0.947142857 Z M19.4644978,6.30942857 L19.8091348,7.31485714 C20.2436771,7.11085714 20.6782193,6.936 21.1127616,6.80485714 L20.7831089,5.84314286 C20.2736455,5.98885714 19.8391032,6.14914286 19.4644978,6.30942857 Z M12.6616633,2.47714286 L11.9873735,1.47171429 C11.6127681,1.66114286 11.2231785,1.86514286 10.8186046,2.09828571 L11.5078786,3.11828571 C11.8974682,2.88514286 12.2720737,2.66657143 12.6616633,2.47714286 Z M15.7334278,9.03428571 L16.4526702,10.0834286 C16.7074019,9.71914286 17.0070862,9.384 17.336739,9.04885714 L16.6624492,8.058 C16.3178122,8.364 16.0031437,8.69914286 15.7334278,9.03428571 Z M13.5607163,13.7262857 L14.7744379,14.6588571 C14.8343747,14.0905714 14.9392643,13.5222857 15.0891064,12.954 L14.0102428,12.1234286 C13.815448,12.6625714 13.68059,13.2017143 13.5607163,13.7262857 Z M6.9976293,6.80485714 L5.9337499,5.90142857 C5.54416026,6.26571429 5.16955484,6.63 4.82491785,6.99428571 L5.97870255,7.956 C6.2933711,7.56257143 6.63800809,7.16914286 6.9976293,6.80485714 Z M2.47239579,13.3182857 L0.749210846,12.7062857 C0.464510724,13.3328571 0.149842169,14.0614286 0,14.4548571 L1.72318495,15.0668571 C1.91797977,14.5714286 2.23264832,13.8574286 2.47239579,13.3182857 Z M13.3359531,17.4274286 C13.3659215,18.1997143 13.4408426,18.8262857 13.5157637,19.2634286 L15.3138697,19.89 C15.1790117,19.3217143 15.0441538,18.6805714 14.9542485,17.9957143 L13.3359531,17.4274286 Z" id="Shape"></path>
                                </g>
                            </g>
                        </g>
                    </g>
                </g>
            </g>
        </g>
    </g>
</svg>