<?xml version="1.0" encoding="UTF-8"?>
<svg width="45px" height="24px" viewBox="0 0 45 24" version="1.1" xmlns="http://www.w3.org/2000/svg" xmlns:xlink="http://www.w3.org/1999/xlink">
    <!-- Generator: Sketch 49 (51002) - http://www.bohemiancoding.com/sketch -->
    <title>skyscanner</title>
    <desc>Created with Sketch.</desc>
    <defs></defs>
    <g id="Home" stroke="none" stroke-width="1" fill="none" fill-rule="evenodd">
        <g id="1-Home-[Opt-1]-[desktop]" transform="translate(-1205.000000, -2622.000000)" fill-rule="nonzero">
            <g id="Technologies" transform="translate(0.000000, 1704.000000)">
                <g id="T4" transform="translate(755.000000, 676.000000)">
                    <g id="body" transform="translate(0.000000, 80.000000)">
                        <g id="tech-logos" transform="translate(50.000000, 156.000000)">
                            <g id="logos" transform="translate(0.000000, 6.000000)">
                                <g id="skyscanner" transform="translate(400.000000, 0.000000)">
                                    <path d="M0,21.36 C0.284954811,20.7447273 0.284954811,20.7403636 0.98245614,20.9061818 C1.37799043,20.9978182 1.77352472,21.0283636 2.15629984,20.8669091 C2.4072302,20.7621818 2.56884636,20.5789091 2.58160553,20.2865455 C2.5943647,19.9854545 2.39872408,19.8632727 2.1605529,19.776 C1.95215311,19.7018182 1.73950027,19.632 1.53110048,19.5578182 C0.523125997,19.2 0.20414673,18.0741818 0.871876661,17.2145455 C1.51408825,16.3854545 2.93035619,16.2894545 3.82349814,16.6909091 C4.16374269,16.8436364 3.86602871,17.1403636 3.83200425,17.3672727 C3.80223285,17.5636364 3.69590643,17.6509091 3.48325359,17.5723636 C3.10473153,17.4283636 2.70919724,17.376 2.30940989,17.4501818 C1.99893674,17.5069091 1.74800638,17.6552727 1.70547581,18.0174545 C1.66294524,18.3883636 1.92238171,18.5149091 2.19457735,18.6196364 C2.36044657,18.6850909 2.53056885,18.7287273 2.70069112,18.7854545 C3.7682084,19.1476364 4.07017544,20.1992727 3.38118022,21.1287273 C3.13875598,21.456 2.81977671,21.6785455 2.44125465,21.7701818 C1.6076555,21.9665455 0.77830941,21.9927273 0,21.5432727 C0,21.4821818 0,21.4210909 0,21.36 Z" id="Shape" fill="#34363E"></path>
                                    <path d="M44.2743222,16.8174545 C44.1382243,17.4458182 43.738437,17.6770909 43.1345029,17.7207273 C42.6539075,17.7556364 42.3817119,18.0392727 42.3136629,18.5978182 C42.2030835,19.5098182 41.9861776,20.4087273 41.8160553,21.3163636 C41.7862839,21.4778182 41.79479,21.6916364 41.5906433,21.7090909 C41.3014354,21.7352727 40.9994684,21.792 40.7230197,21.6698182 C40.6166932,21.6218182 40.6592238,21.4821818 40.6804891,21.3818182 C40.9526847,19.9287273 41.2418926,18.4756364 41.492823,17.0138182 C41.5863902,16.4727273 41.9564062,16.6690909 42.241361,16.6429091 C42.6241361,16.608 42.4880383,16.9221818 42.5220627,17.1534545 C43.0536948,16.7650909 43.5683147,16.32 44.2743222,16.6341818 C44.2743222,16.6952727 44.2743222,16.7563636 44.2743222,16.8174545 Z" id="Shape" fill="#34363E"></path>
                                    <path d="M20.0531632,4.81745455 C20.559277,2.29963636 21.9457735,0.641454545 24.4125465,0.122181818 C26.1988304,-0.253090909 27.7767145,0.288 29.1887294,1.632 C28.482722,1.75854545 27.8575226,1.84145455 27.2493355,1.99854545 C22.4136098,3.264 18.7517278,7.54036364 18.169059,12.6283636 C18.1222754,13.0341818 18.096757,13.44 18.0839979,13.8501818 C18.0797448,14.0814545 18.0031898,14.1730909 17.7735247,14.1687273 C16.374269,14.1294545 14.9707602,14.2516364 13.5757576,14.1032727 C12.0233918,13.9374545 10.8197767,12.5934545 10.7304625,10.9527273 C10.6454014,9.40363636 11.7809676,7.88945455 13.2610314,7.55781818 C13.8862307,7.41818182 14.4986709,7.43563636 15.0813397,7.68436364 C15.4258373,7.82836364 15.4811271,7.77163636 15.4938862,7.40072727 C15.5364168,5.74254545 17.0547581,4.30254545 18.6539075,4.38545455 C19.1472621,4.40727273 19.6065922,4.56872727 20.0531632,4.81745455 Z" id="Shape" fill="#5CE2EC"></path>
                                    <path d="M20.6656034,14.1643636 C19.7894737,14.1643636 19.7554492,14.16 19.8277512,13.2741818 C20.1424774,9.61745455 21.8394471,6.816 24.8718767,4.88727273 C26.4157363,3.90109091 28.1212121,3.41672727 29.9415205,3.36 C30.2264753,3.35127273 30.3838384,3.43418182 30.4476342,3.72218182 C30.5199362,4.06254545 30.6177565,4.39418182 30.6943115,4.73018182 C30.7708666,5.05745455 30.7028177,5.21018182 30.3115364,5.21454545 C27.7639553,5.22763636 25.5991494,6.18763636 23.8681552,8.112 C22.4816587,9.65672727 21.7161085,11.4981818 21.6225412,13.5970909 C21.6012759,14.0814545 21.4651781,14.2429091 21.0186071,14.1730909 C20.9037746,14.1512727 20.784689,14.1643636 20.6656034,14.1643636 Z" id="Shape" fill="#5CE2EC"></path>
                                    <path d="M33.5311005,10.0363636 C32.4167996,9.17672727 31.2472089,8.83636364 29.9415205,8.89309091 C27.5980861,8.98909091 25.4673046,11.0050909 25.2291334,13.392 C25.1525784,14.1643636 25.1525784,14.1643636 24.3827751,14.1643636 C24.2807018,14.1643636 24.1743753,14.1643636 24.072302,14.1643636 C23.3152578,14.1643636 23.3152578,14.1643636 23.3875598,13.4007273 C23.6810207,10.176 26.164806,7.536 29.2908028,7.08218182 C30.4901648,6.90763636 31.6384902,7.06472727 32.7655502,7.47054545 C33.0037214,7.55345455 33.1525784,7.69745455 33.2461457,7.95490909 C33.4758107,8.60072727 33.5821372,9.25527273 33.5311005,10.0363636 Z" id="Shape" fill="#5CE2EC"></path>
                                    <path d="M11.1047315,21.3207273 C10.6113769,21.6349091 10.1350346,21.8269091 9.60340245,21.8050909 C8.75279107,21.7745455 8.31472621,21.3163636 8.38277512,20.448 C8.47634237,19.2523636 8.78681552,18.096 8.99521531,16.9178182 C9.04199894,16.6516364 9.52259436,16.5250909 9.943647,16.6385455 C10.2498671,16.7214545 10.1052632,16.9527273 10.0754918,17.1229091 C9.93088783,17.9432727 9.76927166,18.7549091 9.61616162,19.5752727 C9.58213716,19.7672727 9.56512493,19.9636364 9.55236576,20.16 C9.53110048,20.5221818 9.73524721,20.6792727 10.0584795,20.7098182 C10.7602339,20.7709091 11.291866,20.352 11.4322169,19.6363636 C11.5980861,18.7767273 11.7682084,17.9170909 11.9340776,17.0574545 C12.0021265,16.704 12.7676768,16.4509091 13.0313663,16.6909091 C13.1291866,16.7781818 13.0951621,16.8829091 13.0738969,16.9832727 C12.7549176,18.5978182 12.4784689,20.2254545 12.0999468,21.8269091 C11.6874003,23.568 10.5986178,24.24 8.897395,23.9170909 C8.67198299,23.8734545 8.42530569,23.8516364 8.51887294,23.5069091 C8.59542796,23.2232727 8.54864434,22.8785455 9.06751728,22.9701818 C10.3561935,23.1970909 10.9516215,22.6996364 11.1047315,21.3207273 Z" id="Shape" fill="#34363E"></path>
                                    <path d="M5.70760234,18.5585455 C6.3328017,18.1134545 6.84742158,17.5592727 7.32801701,16.9701818 C7.55342903,16.6952727 8.26794258,16.4989091 8.56990962,16.6472727 C8.79106858,16.752 8.61244019,16.8785455 8.5528974,16.9658182 C8.12759171,17.568 7.66400851,18.1396364 7.12387028,18.6327273 C6.93248272,18.8072727 6.87719298,18.9469091 6.98777246,19.2087273 C7.2897395,19.9156364 7.54492291,20.64 7.82987772,21.3556364 C7.9404572,21.6349091 7.88516746,21.7527273 7.57894737,21.7309091 C7.41733121,21.7178182 7.25146199,21.7134545 7.09409888,21.7309091 C6.80489102,21.7658182 6.6687932,21.6261818 6.58373206,21.3556364 C6.44338118,20.9105455 6.28601808,20.4698182 6.10738969,20.0378182 C6.04784689,19.8981818 6.0861244,19.584 5.84795322,19.6581818 C5.63955343,19.7236364 5.36310473,19.8196364 5.31632111,20.1381818 C5.25677831,20.5265455 5.18022329,20.9105455 5.10792132,21.2989091 C5.03987241,21.6654545 4.29558745,21.9272727 4.01913876,21.6829091 C3.86602871,21.5432727 3.97235513,21.3643636 3.99787347,21.216 C4.32535885,19.4618182 4.65709729,17.712 4.98883573,15.9621818 C5.06113769,15.5781818 5.1291866,15.1898182 5.21424774,14.8058182 C5.28229665,14.4916364 5.61828814,14.3912727 6.14141414,14.4916364 C6.49867092,14.5614545 6.32854864,14.8058182 6.29877725,14.9847273 C6.10313663,16.0538182 5.89473684,17.1229091 5.69909623,18.192 C5.67783094,18.2967273 5.61828814,18.4145455 5.70760234,18.5585455 Z" id="Shape" fill="#34363E"></path>
                                    <path d="M38.7198299,19.6843636 C38.2902711,19.6843636 37.8649654,19.6930909 37.4354067,19.68 C37.2142477,19.6712727 37.1547049,19.7672727 37.1717172,19.9767273 C37.2057416,20.4218182 37.4141414,20.7098182 37.8394471,20.8276364 C38.3413078,20.9629091 38.8346624,20.8581818 39.328017,20.7796364 C39.4853801,20.7534545 39.7575758,20.5265455 39.8043594,20.8189091 C39.84689,21.0807273 39.9021797,21.504 39.5704413,21.6261818 C38.6177565,21.9709091 37.6395534,22.0843636 36.7038809,21.5563636 C36.3040936,21.3294545 36.108453,20.928 36.0446571,20.4741818 C35.9298246,19.6843636 35.9936204,18.9032727 36.2955875,18.1570909 C36.7974482,16.9134545 37.9457735,16.2632727 39.2216906,16.5032727 C40.0425306,16.656 40.4635832,17.1447273 40.5273791,18.0261818 C40.5571505,18.4669091 40.4805954,18.8989091 40.4253057,19.3352727 C40.3912812,19.5970909 40.2509304,19.6887273 40.0042531,19.6843636 C39.5746943,19.6756364 39.1493886,19.6843636 38.7198299,19.6843636 Z" id="Shape" fill="#34363E"></path>
                                    <path d="M23.8256247,16.4596364 C23.9574694,16.4683636 24.1063264,16.4727273 24.2509304,16.4945455 C25.2418926,16.6429091 25.5821372,17.0967273 25.4290271,18.1134545 C25.3099415,18.8901818 25.1483254,19.6581818 25.0079745,20.4349091 C24.9611909,20.6836364 24.9144072,20.9192727 25.1440723,21.1461818 C25.3354599,21.3338182 25.1908559,21.7570909 24.9399256,21.8574545 C24.5571505,22.0101818 24.1148325,21.8836364 23.9191919,21.504 C23.7958533,21.264 23.7235513,21.4167273 23.6342371,21.4909091 C23.1578947,21.8618182 22.6177565,21.9665455 22.0435938,21.8749091 C21.1461988,21.7309091 20.7251462,20.9105455 21.0398724,19.9374545 C21.235513,19.3265455 21.6735779,18.9643636 22.2307283,18.7461818 C22.7453482,18.5454545 23.2854864,18.4625455 23.8341308,18.4625455 C24.0637959,18.4625455 24.3189793,18.528 24.3189793,18.1396364 C24.3232323,17.7949091 24.225412,17.5330909 23.8681552,17.472 C23.3790537,17.3847273 22.9027113,17.4807273 22.4221159,17.5898182 C22.2732589,17.6247273 22.0095694,17.8690909 21.9670388,17.5330909 C21.9330144,17.2625455 21.7969165,16.8698182 22.2434875,16.7345455 C22.7581074,16.5687273 23.2769803,16.4770909 23.8256247,16.4596364 Z" id="Shape" fill="#34363E"></path>
                                    <path d="M27.5002658,17.1447273 C27.963849,16.8 28.41042,16.5774545 28.9122807,16.4945455 C29.9925572,16.3069091 30.6772993,16.9265455 30.5199362,18.0261818 C30.35832,19.1607273 30.1158958,20.2865455 29.9202552,21.4210909 C29.8607124,21.7745455 29.6182881,21.7309091 29.38437,21.7309091 C28.7336523,21.7309091 28.7379054,21.7352727 28.8484848,21.1069091 C29.010101,20.2167273 29.1887294,19.3265455 29.3205742,18.4276364 C29.4183945,17.7687273 29.1504519,17.5287273 28.5167464,17.616 C27.7469431,17.7207273 27.3854333,18.0741818 27.2365763,18.8509091 C27.0749601,19.6974545 26.917597,20.544 26.7602339,21.3905455 C26.7304625,21.5432727 26.7134503,21.7178182 26.5220627,21.7178182 C26.2328549,21.7178182 25.9308878,21.8181818 25.6629452,21.6567273 C25.5438596,21.5869091 25.6331738,21.4341818 25.6544391,21.3163636 C25.9181287,19.9069091 26.2073365,18.4974545 26.4327485,17.0792727 C26.5135566,16.5730909 26.8112706,16.6603636 27.1302499,16.6298182 C27.4960128,16.5949091 27.5385433,16.8087273 27.5002658,17.1447273 Z" id="Shape" fill="#34363E"></path>
                                    <path d="M32.5656566,17.1447273 C33.0377459,16.7825455 33.5013291,16.5643636 34.020202,16.4858182 C35.0324296,16.3287273 35.7044125,16.9090909 35.5768208,17.9432727 C35.4279638,19.1258182 35.1727804,20.2952727 34.9601276,21.4690909 C34.9005848,21.8007273 34.6411483,21.7221818 34.4327485,21.7221818 C33.7862839,21.7309091 33.7905369,21.7265455 33.9053695,21.0894545 C34.0669856,20.2123636 34.241361,19.3396364 34.3817119,18.4581818 C34.4922913,17.7643636 34.2073365,17.5025455 33.5268474,17.616 C32.7783094,17.7425455 32.4380649,18.0785455 32.2934609,18.8465455 C32.1360978,19.6930909 31.9744817,20.5396364 31.8171186,21.3861818 C31.7873472,21.5389091 31.7618288,21.7134545 31.5746943,21.7090909 C31.2854864,21.7047273 30.9835194,21.8094545 30.7155768,21.6436364 C30.6135035,21.5825455 30.6858054,21.4472727 30.7028177,21.3469091 C30.9750133,19.8894545 31.251462,18.4363636 31.5108985,16.9789091 C31.6087188,16.4378182 32,16.6778182 32.2807018,16.6385455 C32.6081871,16.5949091 32.5614035,16.8610909 32.5656566,17.1447273 Z" id="Shape" fill="#34363E"></path>
                                    <path d="M26.8282828,13.8458182 C27.0366826,11.3672727 29.4651781,9.90981818 31.6342371,10.8305455 C32.072302,11.0181818 32.4635832,11.2843636 32.7995747,11.6334545 C32.9569378,11.7992727 32.9569378,11.9301818 32.8378522,12.1090909 C32.5869219,12.4843636 32.297714,12.8247273 31.9659755,13.1301818 C31.8256247,13.2567273 31.7405635,13.2785455 31.6172249,13.104 C31.1706539,12.48 30.5369484,12.3185455 29.8479532,12.4887273 C29.1759702,12.6545455 28.7634237,13.1389091 28.6656034,13.8589091 C28.6315789,14.0989091 28.5167464,14.1861818 28.2785752,14.1730909 C27.9128123,14.1556364 27.5427964,14.1556364 27.1727804,14.1730909 C26.9048379,14.1818182 26.7729931,14.0945455 26.8282828,13.8458182 Z" id="Shape" fill="#5CE2EC"></path>
                                    <path d="M14.5284423,21.8967273 C14.0776183,21.888 13.6863371,21.8312727 13.3035619,21.7221818 C12.8399787,21.5912727 13.0951621,21.2858182 13.1334397,21.0327273 C13.1802233,20.7447273 13.3163211,20.6705455 13.6012759,20.7883636 C14.0308347,20.9629091 14.4774056,21.0501818 14.9452419,20.9323636 C15.2854864,20.8450909 15.5576821,20.6792727 15.5746943,20.2821818 C15.5917065,19.9112727 15.2897395,19.8283636 15.02605,19.728 C14.8729399,19.6712727 14.7198299,19.6189091 14.5667198,19.5709091 C14.0520999,19.4138182 13.6523126,19.1258182 13.5629984,18.5454545 C13.4651781,17.904 13.6140351,17.3236364 14.1499203,16.9352727 C14.9665072,16.3461818 15.8681552,16.3549091 16.7698033,16.6690909 C17.1483254,16.8 16.8676236,17.1010909 16.8335991,17.3236364 C16.8038278,17.5243636 16.7230197,17.664 16.4720893,17.568 C16.0935673,17.424 15.698033,17.3716364 15.2982456,17.4501818 C14.9920255,17.5112727 14.7368421,17.6465455 14.6943115,18.0130909 C14.651781,18.384 14.9112174,18.5105455 15.17916,18.6152727 C15.3450292,18.6807273 15.5151515,18.7243636 15.6852738,18.7810909 C16.7995747,19.1650909 17.0802764,20.3694545 16.2551834,21.2596364 C15.774588,21.7876364 15.1451356,21.8967273 14.5284423,21.8967273 Z" id="Shape" fill="#34363E"></path>
                                    <path d="M19.1089846,21.9141818 C17.7990431,21.9054545 17.1100478,21.2072727 17.0972887,19.8676364 C17.0930356,19.2523636 17.199362,18.6632727 17.4545455,18.1047273 C18.0754918,16.7389091 19.6703881,16.1018182 21.0441255,16.6341818 C21.5757576,16.8392727 21.2185008,17.1752727 21.1887294,17.4589091 C21.1547049,17.7949091 20.9505582,17.7076364 20.7379054,17.6378182 C20.0489102,17.4152727 19.3769272,17.4327273 18.8580542,18.0218182 C18.2881446,18.6632727 18.169059,19.4443636 18.3817119,20.2690909 C18.4922913,20.688 18.8325359,20.8450909 19.2280702,20.88 C19.585327,20.9105455 19.9340776,20.8450909 20.2743222,20.7403636 C20.4954811,20.6705455 20.559277,20.7490909 20.5507709,20.9803636 C20.5295056,21.5869091 20.4359383,21.7178182 19.8575226,21.8225455 C19.6065922,21.8618182 19.3556619,21.8792727 19.1089846,21.9141818 Z" id="Shape" fill="#34363E"></path>
                                    <path d="M38.3285486,18.8334545 C38.1073897,18.8334545 37.8862307,18.816 37.6693248,18.8378182 C37.2822967,18.8814545 37.307815,18.6981818 37.4141414,18.4232727 C37.6778309,17.7381818 38.1754386,17.376 38.7793727,17.4414545 C39.0558214,17.472 39.2472089,17.6072727 39.3365231,17.8778182 C39.4343434,18.1745455 39.4173312,18.4712727 39.3110048,18.7636364 C39.2727273,18.864 39.1578947,18.8290909 39.0770867,18.8334545 C38.8261563,18.8378182 38.5752259,18.8334545 38.3285486,18.8334545 Z" id="Shape" fill="#FDFDFD"></path>
                                    <path d="M23.702286,19.2829091 C24.0978203,19.2 24.1105795,19.3789091 24.0340245,19.7061818 C23.8383838,20.5483636 23.5108985,20.8974545 22.8176502,20.9149091 C22.5752259,20.9236364 22.3328017,20.8974545 22.20521,20.6487273 C22.0733652,20.3956364 22.1244019,20.1381818 22.2647528,19.9156364 C22.6049973,19.3789091 23.1664009,19.3483636 23.702286,19.2829091 Z" id="Shape" fill="#FDFDFD"></path>
                                </g>
                            </g>
                        </g>
                    </g>
                </g>
            </g>
        </g>
    </g>
</svg>