<?xml version="1.0" encoding="UTF-8"?>
<svg width="41px" height="17px" viewBox="0 0 41 17" version="1.1" xmlns="http://www.w3.org/2000/svg" xmlns:xlink="http://www.w3.org/1999/xlink">
    <!-- Generator: Sketch 49 (51002) - http://www.bohemiancoding.com/sketch -->
    <title>stripe</title>
    <desc>Created with Sketch.</desc>
    <defs></defs>
    <g id="Home" stroke="none" stroke-width="1" fill="none" fill-rule="evenodd">
        <g id="1-Home-[Opt-1]-[desktop]" transform="translate(-885.000000, -2626.000000)" fill="#6772E5">
            <g id="Technologies" transform="translate(0.000000, 1704.000000)">
                <g id="T4" transform="translate(755.000000, 676.000000)">
                    <g id="body" transform="translate(0.000000, 80.000000)">
                        <g id="tech-logos" transform="translate(50.000000, 156.000000)">
                            <g id="logos" transform="translate(0.000000, 6.000000)">
                                <g id="stripe" transform="translate(80.000000, 4.000000)">
                                    <path d="M40.8715451,8.53956729 C40.8715451,5.71511093 39.4637474,3.48643833 36.7730374,3.48643833 C34.0709741,3.48643833 32.4361123,5.71511093 32.4361123,8.51750123 C32.4361123,11.8384441 34.3661575,13.515465 37.13634,13.515465 C38.4873716,13.515465 39.5091602,13.2175732 40.2811783,12.7983179 L40.2811783,10.5917114 C39.5091602,10.9668345 38.6236101,11.1985282 37.4996426,11.1985282 C36.3983815,11.1985282 35.4220057,10.8234051 35.2971204,9.5215072 L40.8488387,9.5215072 C40.8488387,9.37807778 40.8715451,8.80436008 40.8715451,8.53956729 Z M35.2630608,7.49142919 C35.2630608,6.2446965 36.0464321,5.72614396 36.7616841,5.72614396 C37.4542298,5.72614396 38.1921882,6.2446965 38.1921882,7.49142919 L35.2630608,7.49142919 Z" id="Shape"></path>
                                    <path d="M28.0537744,3.48643833 C26.9411601,3.48643833 26.2259081,3.99395783 25.8285458,4.34701488 L25.6809541,3.66296685 L23.1832486,3.66296685 L23.1832486,16.527483 L26.0215504,15.9427322 L26.0329036,12.820384 C26.441619,13.1072428 27.043339,13.515465 28.0424212,13.515465 C30.0746452,13.515465 31.925218,11.9267083 31.925218,8.42923697 C31.9138648,5.22965749 30.0405856,3.48643833 28.0537744,3.48643833 Z M27.372582,11.0881978 C26.7027428,11.0881978 26.3053805,10.8565042 26.0329036,10.5696453 L26.0215504,6.47639018 C26.3167337,6.15643224 26.7254492,5.93577158 27.372582,5.93577158 C28.4057238,5.93577158 29.1209759,7.06114092 29.1209759,8.5064682 C29.1209759,9.98489458 28.417077,11.0881978 27.372582,11.0881978 Z" id="Shape"></path>
                                    <polygon id="Shape" points="19.2777454 2.8354894 22.1274004 2.23970563 22.1274004 0 19.2777454 0.584750732"></polygon>
                                    <rect id="Rectangle-path" x="19.2777454" y="3.67399988" width="2.84965495" height="9.6539036"></rect>
                                    <path d="M16.2237327,4.4904443 L16.0420814,3.67399988 L13.5897887,3.67399988 L13.5897887,13.3279035 L16.4280905,13.3279035 L16.4280905,6.7853151 C17.0979297,5.93577158 18.2332504,6.09023404 18.5851998,6.2115974 L18.5851998,3.67399988 C18.2218972,3.54160349 16.893572,3.29887677 16.2237327,4.4904443 Z" id="Shape"></path>
                                    <path d="M10.5471293,1.27983179 L7.77694677,1.85354949 L7.76559356,10.6910087 C7.76559356,12.3238975 9.02579954,13.5264981 10.7060742,13.5264981 C11.6370371,13.5264981 12.3182296,13.3610026 12.6928854,13.162408 L12.6928854,10.9227024 C12.3295828,11.0661318 10.5357761,11.5736513 10.5357761,9.94076245 L10.5357761,6.02403584 L12.6928854,6.02403584 L12.6928854,3.67399988 L10.5357761,3.67399988 L10.5471293,1.27983179 Z" id="Shape"></path>
                                    <path d="M2.87236136,6.47639018 C2.87236136,6.04610191 3.23566398,5.88060642 3.83738395,5.88060642 C4.70022768,5.88060642 5.79013555,6.13436617 6.65297928,6.58672051 L6.65297928,3.99395783 C5.7106631,3.62986775 4.77970013,3.48643833 3.83738395,3.48643833 C1.53268294,3.48643833 0,4.65593979 0,6.60878658 C0,9.6539036 4.31421865,9.16845016 4.31421865,10.481381 C4.31421865,10.9889005 3.86009037,11.154396 3.22431078,11.154396 C2.2819946,11.154396 1.07855466,10.7792729 0.124885277,10.2717534 L0.124885277,12.8976152 C1.18073352,13.3389365 2.24793498,13.5264981 3.22431078,13.5264981 C5.58577783,13.5264981 7.20928642,12.3900957 7.20928642,10.4151829 C7.19793321,7.12733911 2.87236136,7.71208984 2.87236136,6.47639018 Z" id="Shape"></path>
                                </g>
                            </g>
                        </g>
                    </g>
                </g>
            </g>
        </g>
    </g>
</svg>