<?xml version="1.0" encoding="UTF-8"?>
<svg width="40px" height="75px" viewBox="0 0 40 75" version="1.1" xmlns="http://www.w3.org/2000/svg" xmlns:xlink="http://www.w3.org/1999/xlink">
    <!-- Generator: sketchtool 49.1 (51147) - http://www.bohemiancoding.com/sketch -->
    <title>C4110DA5-19F2-4A7B-B823-941C8914A6E5</title>
    <desc>Created with sketchtool.</desc>
    <defs></defs>
    <g id="Home" stroke="none" stroke-width="1" fill="none" fill-rule="evenodd">
        <g id="1-Home-[Opt-1]-[desktop]" transform="translate(-110.000000, -4983.000000)" fill="#CBD1DA" fill-rule="nonzero">
            <g id="Testimonials-3" transform="translate(0.000000, 4464.000000)">
                <g id="arrow-left" transform="translate(130.000000, 556.560976) scale(-1, 1) translate(-130.000000, -556.560976) translate(110.000000, 519.000000)">
                    <path d="M34.5796123,37.4478607 L1.14505356,4.01011947 C0.339900332,3.20496406 0.339900332,1.89682686 1.14505356,1.09167144 C1.95020679,0.286516026 3.25834043,0.286516026 4.06349437,1.09167216 L38.9586866,35.987108 C39.7635194,36.7960037 39.7635791,38.0995281 38.9588346,38.9085293 L4.06178461,73.8056656 C3.66825975,74.1952393 3.14464816,74.4070882 2.60271224,74.4070882 C2.05910582,74.4070882 1.53509484,74.1940075 1.14193083,73.8008424 C0.3367776,72.995687 0.3367776,71.6875498 1.14194719,70.882378 L34.5796123,37.4478607 Z" id="Shape"></path>
                </g>
            </g>
        </g>
    </g>
</svg>