<?xml version="1.0" encoding="UTF-8"?>
<svg width="18px" height="34px" viewBox="0 0 18 34" version="1.1" xmlns="http://www.w3.org/2000/svg" xmlns:xlink="http://www.w3.org/1999/xlink">
    <!-- Generator: sketchtool 49.1 (51147) - http://www.bohemiancoding.com/sketch -->
    <title>CB3B071B-F8C6-4072-AED9-BA8D73718AA0-416-0000F5A4838BED1F</title>
    <desc>Created with sketchtool.</desc>
    <defs>
        <path d="M20.2512493,14.5012498 C20.2512493,14.2912498 20.280416,13.8377081 20.3387493,13.1435415 C20.4014576,12.4479165 20.6639576,11.7202082 21.1349993,10.9560416 C21.6016659,10.1947916 22.3585409,9.51083328 23.4114575,8.90562497 C24.4599991,8.30333332 25.9752074,8 27.9527074,8 L33.5235405,8 L33.5235405,14.0710415 L29.4445823,14.0710415 C29.040624,14.0710415 28.664374,14.2227081 28.3245823,14.5216665 C27.9877074,14.8206248 27.8141657,15.1049998 27.8141657,15.3689581 L27.8141657,19.1460413 L33.5220822,19.1460413 C33.4622905,19.8854163 33.3966655,20.6043746 33.3208322,21.2985412 L33.0947905,23.1331245 C33.0043738,23.7529161 32.9124989,24.3274995 32.8220822,24.8568744 L27.7733324,24.8568744 L27.7733324,41.6889572 L20.2512493,41.6889572 L20.2512493,24.8554161 L16.5820827,24.8554161 L16.5820827,19.1460413 L20.2512493,19.1460413 L20.2512493,14.5012498 Z" id="path-1"></path>
    </defs>
    <g id="Home" stroke="none" stroke-width="1" fill="none" fill-rule="evenodd" opacity="0.5">
        <g id="1-Home-[Opt-1]-[desktop]" transform="translate(-711.000000, -10072.000000)">
            <g id="footer-[desktop]" transform="translate(0.000000, 9092.000000)">
                <g id="Socials" transform="translate(0.000000, 922.000000)">
                    <g id="facebook" transform="translate(695.000000, 50.000000)">
                        <mask id="mask-2" fill="white">
                            <use xlink:href="#path-1"></use>
                        </mask>
                        <use id="Shape" fill="#5A6FA2" fill-rule="nonzero" xlink:href="#path-1"></use>
                        <g id="🎨-color" mask="url(#mask-2)" fill="#8DBAED">
                            <rect id="Rectangle-3" x="0" y="0" width="50" height="50"></rect>
                        </g>
                    </g>
                </g>
            </g>
        </g>
    </g>
</svg>