<?xml version="1.0" encoding="UTF-8"?>
<svg width="35px" height="36px" viewBox="0 0 35 36" version="1.1" xmlns="http://www.w3.org/2000/svg" xmlns:xlink="http://www.w3.org/1999/xlink">
    <!-- Generator: sketchtool 49.1 (51147) - http://www.bohemiancoding.com/sketch -->
    <title>EE62EE0A-1F54-4A71-B055-52E2BD8C7606-416-0000F5A482D3EFDD</title>
    <desc>Created with sketchtool.</desc>
    <defs>
        <path d="M30.232937,7.5 L21.9007723,7.5 C18.1878858,7.5 15.6177313,8.31402065 13.3044839,10.2249485 C11.4852056,11.7945362 10.399484,14.0756703 10.399484,16.3272168 C10.399484,19.796186 13.0443293,23.4827325 17.9454116,23.4827325 C18.4166487,23.4827325 18.9384013,23.434382 19.3988136,23.3914439 L19.3309786,23.5563408 C19.1339683,24.0282995 18.9474219,24.4735573 18.9474219,25.1685058 C18.9474219,26.5215986 19.6001538,27.3561863 20.2312363,28.1626296 L20.3106177,28.264743 L20.1695352,28.2744853 C18.1456693,28.413042 14.3786591,28.6713925 11.6270097,30.3625781 C8.37706137,32.2947947 8.12448406,35.1056195 8.12448406,35.9207226 C8.12448406,39.1638155 11.146752,42.4372177 17.899226,42.4372177 C25.7507722,42.4372177 29.8591226,38.1055165 29.8591226,33.8268566 C29.8598442,30.6620627 28.0041226,29.0996915 26.0343804,27.4409801 L24.3727825,26.1485058 C23.8593289,25.7230934 23.2199475,25.1937635 23.2199475,24.2130418 C23.2199475,23.2489181 23.8593289,22.6124232 24.4236588,22.0509799 L24.4824732,21.9914438 C26.2768546,20.5780932 28.3104628,18.9756705 28.3104628,15.5095879 C28.3104628,12.0247424 26.1328856,10.2238661 25.0857722,9.35824749 L27.8507721,9.35824749 C27.8846896,9.35824749 27.9186072,9.34886604 27.9467515,9.33046398 L30.3285555,7.83304125 C30.3963906,7.7901031 30.4281432,7.70747423 30.405772,7.63025774 C30.3844834,7.55304124 30.3130401,7.5 30.232937,7.5 Z M20.1287626,40.5280924 C15.3427831,40.5280924 12.1271129,38.2927832 12.1271129,34.9656183 C12.1271129,32.7930926 13.4423191,31.2144844 16.03268,30.2759793 C18.1070615,29.5777834 20.784742,29.5431442 20.811443,29.5431442 C21.2649997,29.5431442 21.493041,29.5431442 21.855309,29.5886081 C25.2041236,31.9718555 26.8141236,33.2231957 26.8141236,35.606443 C26.8137628,38.6424223 24.2519071,40.5280924 20.1287626,40.5280924 Z M20.0836593,22.2057735 C16.0669584,22.2057735 14.3999481,16.9258249 14.3999481,14.098763 C14.3999481,12.6612371 14.7268553,11.5578351 15.3994326,10.7246907 C16.1293811,9.81144326 17.3792779,9.22149479 18.5837109,9.22149479 C22.2717005,9.22149479 24.3110819,14.1785052 24.3110819,17.6045362 C24.3110819,18.1450517 24.3110819,19.7893301 23.1752056,20.9313405 C22.4113397,21.6937632 21.1690201,22.2057735 20.0836593,22.2057735 Z M41.9110307,23.8175776 C42.0109791,23.8175776 42.0914431,23.8980415 42.0914431,23.9979899 L42.0914431,25.9110828 C42.0914431,26.0110312 42.0106183,26.0914951 41.9110307,26.0914951 L37.5205154,26.0914951 L37.5205154,30.4953612 C37.5205154,30.5945881 37.4393298,30.6757736 37.340103,30.6757736 L35.4515464,30.6757736 C35.3519587,30.6757736 35.271134,30.5945881 35.271134,30.4953612 L35.271134,26.0922168 L30.902629,26.0922168 C30.8030413,26.0922168 30.7222166,26.0110312 30.7222166,25.9118044 L30.7222166,23.9979899 C30.7222166,23.8984023 30.8030413,23.8175776 30.902629,23.8175776 L35.271134,23.8175776 L35.271134,19.4425774 C35.271134,19.3429898 35.3519587,19.2621651 35.4515464,19.2621651 L37.340103,19.2621651 C37.4393298,19.2621651 37.5205154,19.3429898 37.5205154,19.4425774 L37.5205154,23.8175776 L41.9110307,23.8175776 Z" id="path-1"></path>
    </defs>
    <g id="Home" stroke="none" stroke-width="1" fill="none" fill-rule="evenodd" opacity="0.5">
        <g id="1-Home-[Opt-1]-[desktop]" transform="translate(-1278.000000, -10071.000000)">
            <g id="footer-[desktop]" transform="translate(0.000000, 9092.000000)">
                <g id="Socials" transform="translate(0.000000, 922.000000)">
                    <g id="google-plus" transform="translate(1270.000000, 50.000000)">
                        <mask id="mask-2" fill="white">
                            <use xlink:href="#path-1"></use>
                        </mask>
                        <use id="Combined-Shape" fill="#DD4B39" fill-rule="nonzero" xlink:href="#path-1"></use>
                        <g id="🎨-color" mask="url(#mask-2)" fill="#8DBAED">
                            <rect id="Rectangle-3" x="0" y="0" width="50" height="50"></rect>
                        </g>
                    </g>
                </g>
            </g>
        </g>
    </g>
</svg>