<?xml version="1.0" encoding="UTF-8"?>
<svg width="214px" height="123px" viewBox="0 0 214 123" version="1.1" xmlns="http://www.w3.org/2000/svg" xmlns:xlink="http://www.w3.org/1999/xlink">
    <!-- Generator: sketchtool 49.1 (51147) - http://www.bohemiancoding.com/sketch -->
    <title>B0ED5614-13E2-42AB-8738-1E81631FE2B6</title>
    <desc>Created with sketchtool.</desc>
    <defs></defs>
    <g id="Home" stroke="none" stroke-width="1" fill="none" fill-rule="evenodd">
        <g id="1-Home-[Opt-1]-[desktop]" transform="translate(-1025.000000, -5786.000000)">
            <g id="Awards" transform="translate(-70.000000, 5417.000000)">
                <g id="HTP" transform="translate(190.000000, 290.000000)">
                    <g id="htp-logo-blue" transform="translate(903.000000, 79.000000)">
                        <text id="BELARUS" font-family="Roboto-Regular, Roboto" font-size="26" font-weight="normal" letter-spacing="10.6000004" fill="#617087">
                            <tspan x="0" y="122">BELARU</tspan>
                            <tspan x="158.624416" y="122">S</tspan>
                        </text>
                        <path d="M173,62.0761607 L173,92 L151,92 L151,32 C151,14.326888 165.550746,0 183.5,0 C201.449254,0 216,14.326888 216,32 C216,49.673112 201.449254,64 183.5,64 C181.375618,64 180,64 177,64 L177,43 C178.282715,43.5583529 182.011746,43 183.5,43 C189.29899,43 194,38.2989899 194,32.5 C194,26.7010101 189.29899,22 183.5,22 C177.70101,22 173,26.7010101 173,32.5 C173,32.9803923 173.037257,33.4841143 173.104852,34 L173,34 L173,62.0761607 Z" id="Combined-Shape" fill="#2E3841"></path>
                        <path d="M124,25 L124,93 L102,93 L102,25 L82,25 L82,3 L144,3 L144,25 L124,25 Z" id="Combined-Shape" fill="#2E3841"></path>
                        <path d="M24,34 L48,34 L48,3 L70,3 L70,93 L48,93 L48,56 L24,56 L24,93 L2,93 L2,3 L24,3 L24,34 Z" id="Combined-Shape" fill="#287BDD"></path>
                    </g>
                </g>
            </g>
        </g>
    </g>
</svg>