<?xml version="1.0" encoding="UTF-8"?>
<svg width="36px" height="36px" viewBox="0 0 36 36" version="1.1" xmlns="http://www.w3.org/2000/svg" xmlns:xlink="http://www.w3.org/1999/xlink">
    <!-- Generator: sketchtool 49.1 (51147) - http://www.bohemiancoding.com/sketch -->
    <title>D86707E7-E132-48CE-B97C-5D66BFEC7C68-416-0000F5A48403CA5C</title>
    <desc>Created with sketchtool.</desc>
    <defs>
        <path d="M11.2925694,7.52944422 C13.6220832,7.52944422 15.5837498,9.4911109 15.5837498,11.8206248 C15.5837498,14.2727082 13.4994443,16.1731248 11.2925694,16.1118054 C9.02437508,16.1731248 7.00138907,14.2727082 7.00138907,11.8206248 C6.94006963,9.42979145 8.90180564,7.52944422 11.2925694,7.52944422 Z M13.6834028,42.4719434 L8.77916684,42.4719434 C8.1048613,42.4719434 7.5531252,41.9202073 7.5531252,41.2459017 L7.5531252,19.7899993 C7.5531252,19.1156938 8.04354186,18.5639577 8.71784739,18.5639577 L13.6833334,18.5639577 C14.3576389,18.5639577 14.909375,19.1156938 14.909375,19.7899993 L14.909375,41.3072212 C14.9094445,41.9202073 14.3577084,42.4719434 13.6834028,42.4719434 Z M42.4956243,26.0428467 L42.5568743,26.0428467 L42.5568743,41.858888 C42.5568743,42.1040963 42.1890271,42.4719436 41.9438187,42.4719436 L35.8135412,42.4719436 C35.5683328,42.4719436 35.2004856,42.1040963 35.2004856,41.858888 L35.2004856,28.6788189 C35.2004856,27.5140967 34.8939579,26.4719439 34.1583329,25.7363189 C33.3613885,24.9393745 32.3192357,24.5102773 31.1545136,24.5102773 C28.8863192,24.5715273 27.1698609,26.4719439 27.1698609,28.7401383 L27.1698609,41.9815963 C27.1698609,42.2268047 26.8020137,42.472013 26.5568054,42.472013 L19.8135417,42.472013 C19.5683334,42.472013 19.2004862,42.2268047 19.2004862,41.9815963 L19.2004862,19.1156941 C19.2004862,18.8091663 19.5683334,18.563958 19.8135417,18.563958 L25.9438193,18.563958 C26.1890276,18.563958 26.5568748,18.9318052 26.5568748,19.1770135 L26.5568748,21.6290968 L27.1699304,21.0160413 C28.4572914,19.1156247 30.8481247,17.9509025 33.3002079,17.9509025 L34.587569,17.9509025 C39.1239577,17.9509025 42.4956243,21.5064579 42.4956243,26.0428467 Z" id="path-1"></path>
    </defs>
    <g id="Home" stroke="none" stroke-width="1" fill="none" fill-rule="evenodd" opacity="0.5">
        <g id="1-Home-[Opt-1]-[desktop]" transform="translate(-127.000000, -10071.000000)">
            <g id="footer-[desktop]" transform="translate(0.000000, 9092.000000)">
                <g id="Socials" transform="translate(0.000000, 922.000000)">
                    <g id="linkedin" transform="translate(120.000000, 50.000000)">
                        <mask id="mask-2" fill="white">
                            <use xlink:href="#path-1"></use>
                        </mask>
                        <use id="Combined-Shape" fill="#007AAA" fill-rule="nonzero" xlink:href="#path-1"></use>
                        <g id="🎨-color" mask="url(#mask-2)" fill="#8DBAED">
                            <rect id="Rectangle-3" x="0" y="0" width="50" height="50"></rect>
                        </g>
                    </g>
                </g>
            </g>
        </g>
    </g>
</svg>