<?xml version="1.0" encoding="UTF-8"?>
<svg width="237px" height="40px" viewBox="0 0 237 40" version="1.1" xmlns="http://www.w3.org/2000/svg" xmlns:xlink="http://www.w3.org/1999/xlink">
    <!-- Generator: sketchtool 49.1 (51147) - http://www.bohemiancoding.com/sketch -->
    <title>93F27FE7-31F6-486B-8E21-B2E5D9189A8E</title>
    <desc>Created with sketchtool.</desc>
    <defs></defs>
    <g id="Home" stroke="none" stroke-width="1" fill="none" fill-rule="evenodd">
        <g id="1-Home-[Opt-1]-[desktop]" transform="translate(-120.000000, -10214.000000)" fill="#6785A8">
            <g id="footer-[desktop]" transform="translate(0.000000, 9092.000000)">
                <g id="bottom" transform="translate(0.000000, 1072.000000)">
                    <g id="logo-footer" transform="translate(120.000000, 50.000000)">
                        <path d="M29.9210999,1.06850664 L39.3002073,7.77281465 L43.3214889,20.1339116 L39.0689521,32.4426325 L28.1669213,40 L14.7797088,39.91735 L3.99912994,32.1924538 L3.53604666,30.7374423 L0,19.8662742 L3.76691994,8.86416612 L4.23076707,7.52170723 L4.81663903,7.16547644 L15.1541856,0 L27.906067,0.0434608991 L28.5198195,0.0475469666 L29.9210999,1.06850664 Z M3.58646068,25.9662157 L3.71516919,13.7765478 L1.60675577,19.8800182 L3.58646068,25.9662157 Z M4.79601512,29.6841656 L4.91059242,30.0363103 L12.6743508,19.9561676 L5.129817,9.68156534 L5.00301812,10.0480113 L4.79601512,29.6841656 Z M13.4359079,20.9929144 L5.82701992,30.8715396 L17.9504448,27.1411458 L13.4359079,20.9929144 Z M15.2851857,38.434479 L22.4348096,38.4786828 L9.49845877,34.2984501 L15.2851857,38.434479 Z M6.32390351,31.9926079 L26.2382033,38.4274212 L18.7133387,28.1799356 L6.32390351,31.9926079 Z M27.618287,38.2171745 L27.8944183,1.56403518 L15.6386567,1.48844293 L5.7044222,8.37476668 L27.618287,38.2171745 Z M29.0325529,16.2363604 L28.9760281,23.7478525 L41.0305156,20.0382604 L29.0325529,16.2363604 Z M37.7784297,31.5123093 L39.7928897,25.682234 L32.6512862,35.0668165 L37.7784297,31.5123093 Z M41.0849398,21.9423679 L41.3351003,21.2185767 L28.966289,25.0245628 L28.8709989,37.6872858 L29.3619627,37.3470279 L41.0849398,21.9423679 Z M41.3007271,18.8471718 L41.1284792,18.3178403 L29.5491056,2.6459144 L29.1372002,2.35153181 L29.042101,14.9622503 L41.3007271,18.8471718 Z M32.8078752,4.97553003 L39.9187338,14.599519 L37.994026,8.68307904 L32.8078752,4.97553003 Z" id="Combined-Shape"></path>
                        <path d="M56.4173333,11.4666667 C59.3506813,11.4666667 61.5946589,12.0044391 63.1493333,13.08 C64.7040078,14.1555609 65.4813333,15.7982112 65.4813333,18.008 C65.4813333,20.7653471 64.1222358,22.632884 61.404,23.6106667 C61.7755574,24.0604467 62.1959977,24.6079968 62.6653333,25.2533333 C63.134669,25.8986699 63.6137753,26.597774 64.1026667,27.3506667 C64.591558,28.1035593 65.0608866,28.875996 65.5106667,29.668 C65.9604467,30.460004 66.3613316,31.2373295 66.7133333,32 L62.5773333,32 C62.2057759,31.2959965 61.804891,30.5871147 61.3746667,29.8733333 C60.9444423,29.159552 60.5093355,28.4653367 60.0693333,27.7906667 C59.6293311,27.1159966 59.1942244,26.4804474 58.764,25.884 C58.3337756,25.2875526 57.9328907,24.754669 57.5613333,24.2853333 C57.2875542,24.304889 57.0528899,24.3146667 56.8573333,24.3146667 L54.5106667,24.3146667 L54.5106667,32 L50.8146667,32 L50.8146667,11.9653333 C51.7142267,11.7697768 52.6724394,11.6377781 53.6893333,11.5693333 C54.7062273,11.5008885 55.6155515,11.4666667 56.4173333,11.4666667 Z M56.6813333,14.664 C55.8991072,14.664 55.1755589,14.693333 54.5106667,14.752 L54.5106667,21.3226667 L56.124,21.3226667 C57.0235601,21.3226667 57.8155521,21.2737783 58.5,21.176 C59.1844479,21.0782217 59.7564421,20.9022235 60.216,20.648 C60.6755579,20.3937765 61.0226655,20.0515577 61.2573333,19.6213333 C61.4920012,19.191109 61.6093333,18.6435589 61.6093333,17.9786667 C61.6093333,17.3528858 61.4920012,16.824891 61.2573333,16.3946667 C61.0226655,15.9644423 60.6853355,15.6222235 60.2453333,15.368 C59.8053311,15.1137765 59.2822253,14.9328894 58.676,14.8253333 C58.0697747,14.7177772 57.4048925,14.664 56.6813333,14.664 Z M77.42,32.44 C76.0315486,32.44 74.8386717,32.2395576 73.8413333,31.8386667 C72.843995,31.4377758 72.0177811,30.8755592 71.3626667,30.152 C70.7075523,29.4284408 70.2235571,28.5777827 69.9106667,27.6 C69.5977762,26.6222173 69.4413333,25.5466725 69.4413333,24.3733333 L69.4413333,11.672 L73.1666667,11.672 L73.1666667,24.0213333 C73.1666667,24.940449 73.2693323,25.7275523 73.4746667,26.3826667 C73.680001,27.0377811 73.9733314,27.5706646 74.3546667,27.9813333 C74.7360019,28.3920021 75.1857752,28.6951101 75.704,28.8906667 C76.2222248,29.0862232 76.8039968,29.184 77.4493333,29.184 C78.0946699,29.184 78.6813307,29.0862232 79.2093333,28.8906667 C79.737336,28.6951101 80.1919981,28.3920021 80.5733333,27.9813333 C80.9546686,27.5706646 81.247999,27.0377811 81.4533333,26.3826667 C81.6586677,25.7275523 81.7613333,24.940449 81.7613333,24.0213333 L81.7613333,11.672 L85.4866667,11.672 L85.4866667,24.3733333 C85.4866667,25.5466725 85.3253349,26.6222173 85.0026667,27.6 C84.6799984,28.5777827 84.1911144,29.4284408 83.536,30.152 C82.8808856,30.8755592 82.044894,31.4377758 81.028,31.8386667 C80.011106,32.2395576 78.8084514,32.44 77.42,32.44 Z M96.34,32.2346667 C95.2644391,32.2346667 94.1791166,32.2004448 93.084,32.132 C91.9888834,32.0635552 91.0306708,31.9217789 90.2093333,31.7066667 L90.2093333,11.9653333 C90.6395577,11.8871107 91.0991087,11.8137781 91.588,11.7453333 C92.0768913,11.6768885 92.575553,11.6231113 93.084,11.584 C93.592447,11.5448887 94.0959975,11.5155557 94.5946667,11.496 C95.0933358,11.4764443 95.5675533,11.4666667 96.0173333,11.4666667 C97.2493395,11.4666667 98.3933281,11.5595546 99.4493333,11.7453333 C100.505339,11.931112 101.419552,12.239109 102.192,12.6693333 C102.964448,13.0995577 103.565776,13.6666631 103.996,14.3706667 C104.426224,15.0746702 104.641333,15.9448837 104.641333,16.9813333 C104.641333,17.9395603 104.411558,18.7608855 103.952,19.4453333 C103.492442,20.1297812 102.852004,20.6773313 102.030667,21.088 C103.262673,21.4986687 104.171997,22.1048849 104.758667,22.9066667 C105.345336,23.7084485 105.638667,24.7253272 105.638667,25.9573333 C105.638667,28.0497882 104.876008,29.6191059 103.350667,30.6653333 C101.825326,31.7115608 99.4884602,32.2346667 96.34,32.2346667 Z M93.8466667,22.848 L93.8466667,29.0373333 C94.2573354,29.0764446 94.697331,29.1057777 95.1666667,29.1253333 C95.6360023,29.144889 96.0662203,29.1546667 96.4573333,29.1546667 C97.2200038,29.1546667 97.9288856,29.1057783 98.584,29.008 C99.2391144,28.9102217 99.8062198,28.7391123 100.285333,28.4946667 C100.764447,28.250221 101.145776,27.9226687 101.429333,27.512 C101.71289,27.1013313 101.854667,26.5733366 101.854667,25.928 C101.854667,24.7742165 101.434226,23.9724467 100.593333,23.5226667 C99.7524402,23.0728866 98.5888963,22.848 97.1026667,22.848 L93.8466667,22.848 Z M93.8466667,19.944 L96.4573333,19.944 C97.8653404,19.944 98.9702182,19.7435576 99.772,19.3426667 C100.573782,18.9417758 100.974667,18.2231163 100.974667,17.1866667 C100.974667,16.208884 100.559115,15.5146687 99.728,15.104 C98.8968847,14.6933313 97.8164511,14.488 96.4866667,14.488 C95.9195527,14.488 95.4160022,14.4977777 94.976,14.5173333 C94.5359978,14.536889 94.1595571,14.566222 93.8466667,14.6053333 L93.8466667,19.944 Z M116.316,20.6773333 C117.196004,19.2106593 118.05644,17.724452 118.897333,16.2186667 C119.738226,14.7128814 120.500885,13.197341 121.185333,11.672 L125.292,11.672 C124.196883,13.7448993 123.057784,15.8031009 121.874667,17.8466667 C120.69155,19.8902324 119.42534,21.9484341 118.076,24.0213333 L118.076,32 L114.38,32 L114.38,24.08 C113.03066,21.9875451 111.759562,19.9146769 110.566667,17.8613333 C109.373772,15.8079897 108.229783,13.7448993 107.134667,11.672 L111.476,11.672 C112.160448,13.197341 112.913329,14.7128814 113.734667,16.2186667 C114.556004,17.724452 115.41644,19.2106593 116.316,20.6773333 Z M133.417333,11.4666667 C136.350681,11.4666667 138.594659,12.0044391 140.149333,13.08 C141.704008,14.1555609 142.481333,15.7982112 142.481333,18.008 C142.481333,20.7653471 141.122236,22.632884 138.404,23.6106667 C138.775557,24.0604467 139.195998,24.6079968 139.665333,25.2533333 C140.134669,25.8986699 140.613775,26.597774 141.102667,27.3506667 C141.591558,28.1035593 142.060887,28.875996 142.510667,29.668 C142.960447,30.460004 143.361332,31.2373295 143.713333,32 L139.577333,32 C139.205776,31.2959965 138.804891,30.5871147 138.374667,29.8733333 C137.944442,29.159552 137.509336,28.4653367 137.069333,27.7906667 C136.629331,27.1159966 136.194224,26.4804474 135.764,25.884 C135.333776,25.2875526 134.932891,24.754669 134.561333,24.2853333 C134.287554,24.304889 134.05289,24.3146667 133.857333,24.3146667 L131.510667,24.3146667 L131.510667,32 L127.814667,32 L127.814667,11.9653333 C128.714227,11.7697768 129.672439,11.6377781 130.689333,11.5693333 C131.706227,11.5008885 132.615552,11.4666667 133.417333,11.4666667 Z M133.681333,14.664 C132.899107,14.664 132.175559,14.693333 131.510667,14.752 L131.510667,21.3226667 L133.124,21.3226667 C134.02356,21.3226667 134.815552,21.2737783 135.5,21.176 C136.184448,21.0782217 136.756442,20.9022235 137.216,20.648 C137.675558,20.3937765 138.022665,20.0515577 138.257333,19.6213333 C138.492001,19.191109 138.609333,18.6435589 138.609333,17.9786667 C138.609333,17.3528858 138.492001,16.824891 138.257333,16.3946667 C138.022665,15.9644423 137.685336,15.6222235 137.245333,15.368 C136.805331,15.1137765 136.282225,14.9328894 135.676,14.8253333 C135.069775,14.7177772 134.404893,14.664 133.681333,14.664 Z M149.609333,21.8213333 C149.609333,22.9360056 149.746221,23.9479955 150.02,24.8573333 C150.293779,25.7666712 150.689775,26.5391079 151.208,27.1746667 C151.726225,27.8102254 152.356885,28.3039982 153.1,28.656 C153.843115,29.0080018 154.683995,29.184 155.622667,29.184 C156.541782,29.184 157.372885,29.0080018 158.116,28.656 C158.859115,28.3039982 159.489775,27.8102254 160.008,27.1746667 C160.526225,26.5391079 160.922221,25.7666712 161.196,24.8573333 C161.469779,23.9479955 161.606667,22.9360056 161.606667,21.8213333 C161.606667,20.7066611 161.469779,19.6946712 161.196,18.7853333 C160.922221,17.8759955 160.526225,17.1035587 160.008,16.468 C159.489775,15.8324413 158.859115,15.3386684 158.116,14.9866667 C157.372885,14.6346649 156.541782,14.4586667 155.622667,14.4586667 C154.683995,14.4586667 153.843115,14.6346649 153.1,14.9866667 C152.356885,15.3386684 151.726225,15.8373301 151.208,16.4826667 C150.689775,17.1280032 150.293779,17.9004399 150.02,18.8 C149.746221,19.6995601 149.609333,20.7066611 149.609333,21.8213333 Z M165.478667,21.8213333 C165.478667,23.5617865 165.219558,25.0968822 164.701333,26.4266667 C164.183109,27.7564511 163.479116,28.8662178 162.589333,29.756 C161.699551,30.6457822 160.658228,31.3155533 159.465333,31.7653333 C158.272438,32.2151134 157.00134,32.44 155.652,32.44 C154.30266,32.44 153.026673,32.2151134 151.824,31.7653333 C150.621327,31.3155533 149.575116,30.6457822 148.685333,29.756 C147.795551,28.8662178 147.086669,27.7564511 146.558667,26.4266667 C146.030664,25.0968822 145.766667,23.5617865 145.766667,21.8213333 C145.766667,20.0808802 146.030664,18.5506733 146.558667,17.2306667 C147.086669,15.9106601 147.805329,14.8008934 148.714667,13.9013333 C149.624005,13.0017733 150.675105,12.3271134 151.868,11.8773333 C153.060895,11.4275533 154.322216,11.2026667 155.652,11.2026667 C156.981784,11.2026667 158.243105,11.4275533 159.436,11.8773333 C160.628895,12.3271134 161.670218,13.0017733 162.56,13.9013333 C163.449782,14.8008934 164.158664,15.9106601 164.686667,17.2306667 C165.214669,18.5506733 165.478667,20.0808802 165.478667,21.8213333 Z M169.526667,11.672 L173.222667,11.672 L173.222667,32 L169.526667,32 L169.526667,11.672 Z M181.788,28.9493333 C182.003112,28.968889 182.286665,28.9835555 182.638667,28.9933333 C182.990668,29.0031112 183.469775,29.008 184.076,29.008 C186.559568,29.008 188.412438,28.3773396 189.634667,27.116 C190.856895,25.8546604 191.468,24.0897891 191.468,21.8213333 C191.468,19.5137662 190.871562,17.7440062 189.678667,16.512 C188.485772,15.2799938 186.63779,14.664 184.134667,14.664 C183.03955,14.664 182.257336,14.693333 181.788,14.752 L181.788,28.9493333 Z M195.34,21.8213333 C195.34,23.5813421 195.066225,25.1115491 194.518667,26.412 C193.971108,27.7124509 193.193783,28.7977734 192.186667,29.668 C191.179551,30.5382266 189.967118,31.1835535 188.549333,31.604 C187.131548,32.0244465 185.562231,32.2346667 183.841333,32.2346667 C183.019996,32.2346667 182.091116,32.2004448 181.054667,32.132 C180.018217,32.0635552 179.030671,31.9217789 178.092,31.7066667 L178.092,11.9653333 C179.030671,11.7502211 180.027995,11.6133336 181.084,11.5546667 C182.140005,11.4959997 183.078663,11.4666667 183.9,11.4666667 C185.601342,11.4666667 187.155993,11.6671091 188.564,12.068 C189.972007,12.4688909 191.179551,13.0946624 192.186667,13.9453333 C193.193783,14.7960043 193.971108,15.8715491 194.518667,17.172 C195.066225,18.4724509 195.34,20.0222132 195.34,21.8213333 Z" id="Rubyroid"></path>
                        <path d="M199.972656,32 L199.972656,12.1666667 L202.80599,12.1666667 L202.80599,32 L199.972656,32 Z M209.614193,29.875 C209.813412,29.875 210.007095,29.8159728 210.195247,29.6979167 C210.383399,29.5798605 210.525434,29.4654953 210.621354,29.3548177 C210.717275,29.2441401 210.835329,29.0965721 210.975521,28.9121094 C210.997656,28.8752168 211.016102,28.8493924 211.030859,28.8346354 L211.030859,24.9166667 C210.912803,24.9978303 210.717276,25.123263 210.444271,25.2929688 C210.171266,25.4626745 209.953603,25.6010194 209.791276,25.7080078 C209.628949,25.8149962 209.433421,25.9625642 209.204688,26.1507161 C208.975954,26.3388681 208.798872,26.5196389 208.673438,26.6930339 C208.548003,26.8664288 208.437327,27.0785578 208.341406,27.3294271 C208.245486,27.5802964 208.197526,27.8422295 208.197526,28.1152344 C208.197526,29.2884173 208.669744,29.875 209.614193,29.875 Z M208.197526,32.1992188 C207.408026,32.1992188 206.738436,31.8579678 206.188737,31.1754557 C205.639038,30.4929436 205.364193,29.7237456 205.364193,28.8678385 C205.364193,28.1816372 205.480402,27.5581625 205.712826,26.9973958 C205.945249,26.4366291 206.19058,25.9883914 206.448828,25.6526693 C206.707076,25.3169471 207.138712,24.9701624 207.74375,24.6123047 C208.348788,24.254447 208.806248,24.0091152 209.116146,23.8763021 C209.426043,23.7434889 209.964666,23.5258262 210.732031,23.2233073 C210.864844,23.1716577 210.964453,23.1310765 211.030859,23.1015625 L211.030859,22.0833333 C211.030859,21.3676179 210.931251,20.8123935 210.732031,20.4176432 C210.532812,20.022893 210.160202,19.8255208 209.614193,19.8255208 C209.127211,19.8255208 208.778582,19.9933794 208.568294,20.3291016 C208.358007,20.6648237 208.238108,21.1278182 208.208594,21.718099 C208.201215,21.7992626 208.197526,21.9210061 208.197526,22.0833333 L205.364193,22.0833333 C205.37895,20.7256877 205.758937,19.6447523 206.504167,18.8404948 C207.249396,18.0362373 208.286061,17.6341146 209.614193,17.6341146 C210.934946,17.6341146 211.973455,18.0417711 212.729753,18.8570964 C213.48605,19.6724216 213.864193,20.7478232 213.864193,22.0833333 L213.864193,28.4583333 C213.864193,29.9340352 213.985936,31.1145789 214.229427,32 L211.407161,32 L211.030859,29.875 C210.883289,30.1701404 210.76339,30.3988707 210.671159,30.5611979 C210.578928,30.7235251 210.444272,30.9245865 210.267188,31.164388 C210.090103,31.4041896 209.913022,31.5886495 209.735938,31.7177734 C209.558853,31.8468973 209.337501,31.9594179 209.071875,32.0553385 C208.806249,32.1512592 208.514802,32.1992188 208.197526,32.1992188 Z M221.657422,29.875 C221.959941,29.875 222.212651,29.764324 222.41556,29.5429688 C222.618469,29.3216135 222.766037,29.0061869 222.858268,28.5966797 C222.9505,28.1871724 223.013216,27.7795159 223.046419,27.3736979 C223.079623,26.9678799 223.096224,26.4956624 223.096224,25.9570313 C223.096224,25.5585918 223.094379,25.0310363 223.09069,24.374349 C223.087001,23.7176616 223.085156,23.223309 223.085156,22.891276 C223.085156,22.5592431 223.077778,22.269641 223.063021,22.0224609 C223.048264,21.7752809 223.011372,21.5151923 222.952344,21.2421875 C222.893316,20.9691827 222.813998,20.7441415 222.714388,20.5670573 C222.614778,20.3899731 222.476433,20.2442497 222.299349,20.1298828 C222.122265,20.0155159 221.908291,19.9583333 221.657422,19.9583333 C220.8753,19.9583333 220.166974,20.1464825 219.532422,20.5227865 L219.532422,29.4322917 C220.262894,29.727432 220.971221,29.875 221.657422,29.875 Z M222.365755,32.1992188 C221.790232,32.1992188 221.281122,32.0627184 220.838411,31.7897135 C220.395701,31.5167087 219.960375,31.1588564 219.532422,30.7161458 L219.532422,32 L216.699089,32 L216.699089,12.1777344 L219.532422,12.1777344 L219.532422,19.2389323 C219.798048,18.9585489 219.997265,18.755643 220.130078,18.6302083 C220.262891,18.5047737 220.456574,18.3461381 220.711133,18.1542969 C220.965691,17.9624556 221.229469,17.8277999 221.502474,17.7503255 C221.775479,17.6728512 222.077993,17.6341146 222.410026,17.6341146 C222.889629,17.6341146 223.317576,17.7208108 223.69388,17.8942057 C224.070184,18.0676007 224.380077,18.2760404 224.623568,18.5195313 C224.867059,18.7630221 225.073654,19.113496 225.243359,19.5709635 C225.413065,20.0284311 225.540342,20.4416214 225.625195,20.8105469 C225.710048,21.1794723 225.774609,21.6775142 225.81888,22.3046875 C225.863151,22.9318608 225.888976,23.4391257 225.896354,23.8264974 C225.903733,24.2138691 225.907422,24.7469584 225.907422,25.4257813 L225.907422,25.6139323 C225.907422,26.2337271 225.876064,26.8313773 225.813346,27.406901 C225.750629,27.9824248 225.636264,28.5690074 225.470247,29.1666667 C225.304231,29.7643259 225.093947,30.2808138 224.839388,30.7161458 C224.584829,31.1514779 224.245423,31.5074856 223.821159,31.7841797 C223.396895,32.0608738 222.911765,32.1992188 222.365755,32.1992188 Z M232.350391,32.1992188 C231.184586,32.1992188 230.249374,31.852434 229.544727,31.1588542 C228.840079,30.4652743 228.358638,29.5651097 228.100391,28.4583333 L230.225391,27.75 C230.734508,29.1666738 231.442834,29.875 232.350391,29.875 C232.80048,29.875 233.149109,29.7514118 233.396289,29.5042318 C233.643469,29.2570517 233.767057,28.9084224 233.767057,28.4583333 C233.767057,27.801646 233.530949,27.2556445 233.058724,26.8203125 L230.225391,24.6953125 C229.908115,24.4813357 229.642492,24.2802744 229.428516,24.0921224 C229.214539,23.9039704 228.996876,23.6733955 228.775521,23.4003906 C228.554166,23.1273858 228.386307,22.8211823 228.27194,22.4817708 C228.157573,22.1423594 228.100391,21.7734395 228.100391,21.375 C228.100391,20.1649245 228.485912,19.2389355 229.256966,18.5970052 C230.02802,17.9550749 231.059152,17.6341146 232.350391,17.6341146 C232.962807,17.6341146 233.516187,17.7318784 234.010547,17.9274089 C234.504907,18.1229393 234.919942,18.3977847 235.255664,18.7519531 C235.591386,19.1061216 235.868076,19.4990213 236.085742,19.9306641 C236.303408,20.3623068 236.474956,20.8437473 236.600391,21.375 L234.475391,22.0833333 C234.372092,21.80295 234.268794,21.5613074 234.165495,21.3583984 C234.062196,21.1554894 233.923851,20.9359821 233.750456,20.6998698 C233.577061,20.4637575 233.37231,20.2811421 233.136198,20.1520182 C232.900086,20.0228943 232.638153,19.9583333 232.350391,19.9583333 C231.900302,19.9583333 231.551672,20.0819215 231.304492,20.3291016 C231.057312,20.5762816 230.933724,20.9249109 230.933724,21.375 C230.933724,21.8177105 231.169833,22.2161441 231.642057,22.5703125 L234.475391,24.6953125 C234.792667,24.9461818 235.063823,25.1878244 235.288867,25.4202474 C235.513912,25.6526704 235.733419,25.921982 235.947396,26.2281901 C236.161373,26.5343982 236.323697,26.8756492 236.434375,27.2519531 C236.545053,27.6282571 236.600391,28.0303798 236.600391,28.4583333 C236.600391,29.6684088 236.214869,30.5943978 235.443815,31.2363281 C234.672761,31.8782584 233.64163,32.1992188 232.350391,32.1992188 Z" id="labs"></path>
                    </g>
                </g>
            </g>
        </g>
    </g>
</svg>