<?xml version="1.0" encoding="UTF-8"?>
<svg width="12px" height="16px" viewBox="0 0 12 16" version="1.1" xmlns="http://www.w3.org/2000/svg" xmlns:xlink="http://www.w3.org/1999/xlink">
    <!-- Generator: sketchtool 49.1 (51147) - http://www.bohemiancoding.com/sketch -->
    <title>57172EE1-E91D-4B46-96E3-43A3DEC81CAF-416-0000F5A4896A7916</title>
    <desc>Created with sketchtool.</desc>
    <defs></defs>
    <g id="Home" stroke="none" stroke-width="1" fill="none" fill-rule="evenodd" opacity="0.699999988">
        <g id="1-Home-[Opt-1]-[desktop]" transform="translate(-1163.000000, -4184.000000)" fill="#FFFFFF" fill-rule="nonzero">
            <g id="Selected-Case-Studies" transform="translate(120.000000, 3274.000000)">
                <g id="2" transform="translate(807.000000, 567.000000)">
                    <g id="location" transform="translate(30.000000, 339.000000)">
                        <g transform="translate(206.000000, 3.000000)" id="pin">
                            <g transform="translate(0.000000, 1.000000)">
                                <g id="Shape">
                                    <path d="M9.58254545,1.63403636 C8.52887273,0.580363636 7.12785455,0 5.63781818,0 C4.14749091,0 2.74676364,0.580363636 1.69309091,1.63403636 C-0.256872727,3.58370909 -0.4992,7.25207273 1.16829091,9.47461818 L5.63781818,15.9293091 L10.1006545,9.48363636 C11.7748364,7.25207273 11.5325091,3.58370909 9.58254545,1.63403636 Z M5.68930909,7.56363636 C4.56669091,7.56363636 3.65294545,6.64989091 3.65294545,5.52727273 C3.65294545,4.40465455 4.56669091,3.49090909 5.68930909,3.49090909 C6.81192727,3.49090909 7.72567273,4.40465455 7.72567273,5.52727273 C7.72567273,6.64989091 6.81192727,7.56363636 5.68930909,7.56363636 Z"></path>
                                </g>
                            </g>
                        </g>
                    </g>
                </g>
            </g>
        </g>
    </g>
</svg>