<?xml version="1.0" encoding="UTF-8"?>
<svg width="50px" height="40px" viewBox="0 0 50 40" version="1.1" xmlns="http://www.w3.org/2000/svg" xmlns:xlink="http://www.w3.org/1999/xlink">
    <!-- Generator: sketchtool 49.1 (51147) - http://www.bohemiancoding.com/sketch -->
    <title>4311A510-D301-4426-AE44-3F3BC251EA40</title>
    <desc>Created with sketchtool.</desc>
    <defs></defs>
    <g id="Home" stroke="none" stroke-width="1" fill="none" fill-rule="evenodd" opacity="0.5">
        <g id="1-Home-[Opt-1]-[desktop]" transform="translate(-635.000000, -4895.000000)" fill="#E3EEFA" fill-rule="nonzero">
            <g id="Testimonials-3" transform="translate(0.000000, 4464.000000)">
                <g id="testimonials" transform="translate(190.000000, 260.000000)">
                    <g id="T1">
                        <g id="right-quote" transform="translate(445.000000, 171.000000)">
                            <path d="M28.4615385,22.05 L28.4615385,0 L50,0 L50,22.365 C50,37.485 36.1538462,39.375 36.1538462,39.375 L34.3076923,34.965 C34.3076923,34.965 40.4615385,34.02 41.6923077,28.98 C42.9230769,25.2 40.4615385,22.05 40.4615385,22.05 L28.4615385,22.05 Z" id="Shape"></path>
                            <path d="M0,22.05 L0,0 L21.5384615,0 L21.5384615,22.365 C21.5384615,37.485 7.69230769,39.375 7.69230769,39.375 L5.84615385,34.965 C5.84615385,34.965 12,34.02 13.2307692,28.98 C14.4615385,25.2 12,22.05 12,22.05 L0,22.05 Z" id="Shape"></path>
                        </g>
                    </g>
                </g>
            </g>
        </g>
    </g>
</svg>