<?xml version="1.0" encoding="UTF-8"?>
<svg width="80px" height="80px" viewBox="0 0 80 80" version="1.1" xmlns="http://www.w3.org/2000/svg" xmlns:xlink="http://www.w3.org/1999/xlink">
    <!-- Generator: sketchtool 49.1 (51147) - http://www.bohemiancoding.com/sketch -->
    <title>81FD6506-DEAB-41C6-A53F-CA43656502D2-416-0000F5A496522D0E</title>
    <desc>Created with sketchtool.</desc>
    <defs>
        <path d="M43.0573333,9.72399979 L40,12.781333 L36.9426667,9.72399979 L35.0573334,11.6093331 L38.6666667,15.2186663 L38.6666667,21.3333328 L41.3333333,21.3333328 L41.3333333,15.2186663 L44.9426666,11.6093331 L43.0573333,9.72399979 Z M64.6666667,33.3333333 C58.34,33.3333333 52.8973333,37.1853333 50.5586667,42.6666667 L45.8853333,42.6666667 L41.3333333,38.1146667 L41.3333333,32 L44,32 C44.736,32 45.3333333,31.4026667 45.3333333,30.6666667 L45.3333333,25.5426667 C50.156,23.436 53.3333333,18.644 53.3333333,13.3333333 C53.3333333,5.98133333 47.352,0 40,0 C32.648,0 26.6666667,5.98133333 26.6666667,13.3333333 C26.6666667,18.644 29.844,23.436 34.6666667,25.5426667 L34.6666667,30.6666667 C34.6666667,31.4026667 35.264,32 36,32 L38.6666667,32 L38.6666667,38.1146667 L34.1146667,42.6666667 L29.4413333,42.6666667 C27.1013333,37.1853333 21.66,33.3333333 15.3333333,33.3333333 C6.87866667,33.3333333 0,40.212 0,48.6666667 L0,78.6666667 C0,79.4026667 0.597333333,80 1.33333333,80 L17.3333333,80 C18.0693333,80 18.6666667,79.4026667 18.6666667,78.6666667 L18.6666667,72 L29.3333333,72 C30.0693333,72 30.6666667,71.4026667 30.6666667,70.6666667 L30.6666667,64 L34.6666667,64 C35.1293333,64 35.5573333,63.76 35.8013333,63.368 C36.044,62.9746667 36.0666667,62.484 35.86,62.0706667 L30.6666667,51.6853333 L30.6666667,48.6666667 C30.6666667,47.5213333 30.5306667,46.408 30.2906667,45.3333333 L34.6666667,45.3333333 C35.02,45.3333333 35.36,45.1933333 35.6093333,44.9426667 L40,40.552 L44.3906667,44.9426667 C44.64,45.1933333 44.98,45.3333333 45.3333333,45.3333333 L49.7093333,45.3333333 C49.4693333,46.408 49.3333333,47.5213333 49.3333333,48.6666667 L49.3333333,51.6853333 L44.14,62.0706667 C43.9333333,62.484 43.956,62.9746667 44.1986667,63.368 C44.4426667,63.76 44.8706667,64 45.3333333,64 L49.3333333,64 L49.3333333,70.6666667 C49.3333333,71.4026667 49.9306667,72 50.6666667,72 L61.3333333,72 L61.3333333,78.6666667 C61.3333333,79.4026667 61.9306667,80 62.6666667,80 L73.3333333,80 C77.0093333,80 80,77.0093333 80,73.3333333 L80,48.6666667 C80,40.212 73.1213333,33.3333333 64.6666667,33.3333333 Z M32.5093332,61.333334 L29.3333332,61.333334 C28.5973332,61.333334 27.9999999,61.9306673 27.9999999,62.6666673 L27.9999999,69.3333342 L17.3333332,69.3333342 C16.5973333,69.3333342 15.9999999,69.9306675 15.9999999,70.6666675 L15.9999999,77.3333344 L2.6666666,77.3333344 L2.6666666,48.666667 C2.6666666,41.6826668 8.34933326,36 15.3333333,36 C20.1479999,36 24.3426666,38.7013334 26.4853332,42.6666668 L22.4213332,42.6666668 C21.8693332,41.1186668 20.4026666,40.0000001 18.6666666,40.0000001 C16.4613333,40.0000001 14.6666666,41.7946668 14.6666666,44.0000002 C14.6666666,46.2053336 16.4613333,48.0000003 18.6666666,48.0000003 C20.4026666,48.0000003 21.8693332,46.8813336 22.4213332,45.3333336 L27.5399999,45.3333336 C27.8306666,46.3973336 27.9999999,47.5120003 27.9999999,48.666667 L27.9999999,52.0000004 C27.9999999,52.2066671 28.0479999,52.4120004 28.1399999,52.5960004 L32.5093332,61.333334 Z M19.9999994,43.999999 C19.9999994,44.7346656 19.4013328,45.3333323 18.6666661,45.3333323 C17.9319995,45.3333323 17.3333328,44.7346656 17.3333328,43.999999 C17.3333328,43.2653323 17.9319995,42.6666656 18.6666661,42.6666656 C19.4013328,42.6666656 19.9999994,43.2653323 19.9999994,43.999999 Z M37.3333342,29.3333323 L37.3333342,24.6359991 C37.3333342,24.0706658 36.9773342,23.5679991 36.4453342,23.3786658 C32.1920009,21.8733325 29.3333344,17.8359994 29.3333344,13.3333329 C29.3333344,7.45199975 34.1186676,2.6666666 40.0000008,2.6666666 C45.881334,2.6666666 50.6666672,7.45199975 50.6666672,13.3333329 C50.6666672,17.8359994 47.8080006,21.8733325 43.5546673,23.3786658 C43.0226674,23.5679991 42.6666674,24.0706658 42.6666674,24.6359991 L42.6666674,29.3333323 L37.3333342,29.3333323 Z M77.3333344,73.3333343 C77.3333344,75.5386676 75.5386677,77.3333344 73.3333344,77.3333344 L64.000001,77.3333344 L64.000001,70.6666675 C64.000001,69.9306675 63.4026677,69.3333342 62.6666677,69.3333342 L52.0000011,69.3333342 L52.0000011,62.6666673 C52.0000011,61.9306673 51.4026677,61.333334 50.6666677,61.333334 L47.4906677,61.333334 L51.8586677,52.5960004 C51.9520011,52.4120004 52.0000011,52.2066671 52.0000011,52.0000004 L52.0000011,48.666667 C52.0000011,47.5120003 52.1693344,46.3973336 52.4600011,45.3333336 L57.5786677,45.3333336 C58.1306677,46.8813336 59.5973344,48.0000003 61.3333344,48.0000003 C63.5386677,48.0000003 65.3333344,46.2053336 65.3333344,44.0000002 C65.3333344,41.7946668 63.5386677,40.0000001 61.3333344,40.0000001 C59.5973344,40.0000001 58.1306677,41.1186668 57.5786677,42.6666668 L53.5146677,42.6666668 C55.6573344,38.7013334 59.852001,36 64.6666677,36 C71.6506677,36 77.3333344,41.6826668 77.3333344,48.666667 L77.3333344,73.3333343 Z M60,43.999999 C60,43.2653323 60.5986667,42.6666656 61.3333333,42.6666656 C62.068,42.6666656 62.6666666,43.2653323 62.6666666,43.999999 C62.6666666,44.7346656 62.068,45.3333323 61.3333333,45.3333323 C60.5986667,45.3333323 60,44.7346656 60,43.999999 Z M57.3333313,12 L59.9999979,12 L59.9999979,14.6666666 L57.3333313,14.6666666 L57.3333313,12 Z M62.6666687,12 L65.3333353,12 L65.3333353,14.6666666 L62.6666687,14.6666666 L62.6666687,12 Z M62.6666687,17.3333328 L65.3333353,17.3333328 L65.3333353,19.9999994 L62.6666687,19.9999994 L62.6666687,17.3333328 Z M62.6666687,6.66666641 L65.3333353,6.66666641 L65.3333353,9.33333302 L62.6666687,9.33333302 L62.6666687,6.66666641 Z M20,12 L22.6666666,12 L22.6666666,14.6666666 L20,14.6666666 L20,12 Z M14.6666672,12 L17.3333338,12 L17.3333338,14.6666666 L14.6666672,14.6666666 L14.6666672,12 Z M14.6666672,6.66666641 L17.3333338,6.66666641 L17.3333338,9.33333302 L14.6666672,9.33333302 L14.6666672,6.66666641 Z M14.6666672,17.3333328 L17.3333338,17.3333328 L17.3333338,19.9999994 L14.6666672,19.9999994 L14.6666672,17.3333328 Z" id="path-1"></path>
    </defs>
    <g id="Home" stroke="none" stroke-width="1" fill="none" fill-rule="evenodd" opacity="0.800000012">
        <g id="1-Home-[Opt-1]-[desktop]" transform="translate(-775.000000, -1485.000000)">
            <g id="Services" transform="translate(120.000000, 1015.000000)">
                <g id="services" transform="translate(0.000000, 172.000000)">
                    <g id="service" transform="translate(655.000000, 298.000000)">
                        <g id="services-consulting">
                            <mask id="mask-2" fill="white">
                                <use xlink:href="#path-1"></use>
                            </mask>
                            <use id="Combined-Shape" fill="#000000" fill-rule="nonzero" xlink:href="#path-1"></use>
                            <g id="🎨-color" mask="url(#mask-2)" fill="#3986E0">
                                <rect id="Rectangle-3" x="0" y="0" width="80" height="80"></rect>
                            </g>
                        </g>
                    </g>
                </g>
            </g>
        </g>
    </g>
</svg>