<?xml version="1.0" encoding="UTF-8"?>
<svg width="80px" height="80px" viewBox="0 0 80 80" version="1.1" xmlns="http://www.w3.org/2000/svg" xmlns:xlink="http://www.w3.org/1999/xlink">
    <!-- Generator: sketchtool 49.1 (51147) - http://www.bohemiancoding.com/sketch -->
    <title>AA2A81AE-E153-4D78-A41A-A018E8E08AD8-416-0000F5A4946C6A33</title>
    <desc>Created with sketchtool.</desc>
    <defs>
        <path d="M73.3333333,0 L6.66666667,0 C2.99066667,0 0,2.99066667 0,6.66666667 L0,58.6666667 C0,62.3426667 2.99066667,65.3333333 6.66666667,65.3333333 L32.764,65.3333333 L28.4,77.3333333 L24,77.3333333 L24,80 L29.3333333,80 L50.6666667,80 L56,80 L56,77.3333333 L51.6,77.3333333 L47.236,65.3333333 L73.3333333,65.3333333 C77.0093333,65.3333333 80,62.3426667 80,58.6666667 L80,6.66666667 C80,2.99066667 77.0093333,0 73.3333333,0 Z M48.7626648,77.3333313 L31.2373322,77.3333313 L35.5999986,65.3333313 L44.3999983,65.3333313 L48.7626648,77.3333313 Z M77.3333353,58.6666646 C77.3333353,60.8719979 75.5386686,62.6666645 73.3333352,62.6666645 L45.3333344,62.6666645 L34.6666675,62.6666645 L6.66666671,62.6666645 C4.46133332,62.6666645 2.6666666,60.8719979 2.6666666,58.6666646 L2.6666666,57.3333313 L77.3333353,57.3333313 L77.3333353,58.6666646 Z M77.3333353,54.6666666 L2.6666666,54.6666666 L2.6666666,6.6666666 C2.6666666,4.46133327 4.46133332,2.6666666 6.66666671,2.6666666 L73.3333352,2.6666666 C75.5386686,2.6666666 77.3333353,4.46133327 77.3333353,6.6666666 L77.3333353,54.6666666 Z M40.0000008,22.6666672 C36.3240009,22.6666672 33.3333344,25.6573337 33.3333344,29.3333336 C33.3333344,33.0093334 36.3240009,36 40.0000008,36 C43.6760006,36 46.6666672,33.0093334 46.6666672,29.3333336 C46.6666672,25.6573337 43.6760006,22.6666672 40.0000008,22.6666672 Z M40,33.3333328 C37.7946667,33.3333328 36,31.5386662 36,29.3333328 C36,27.1279995 37.7946667,25.3333328 40,25.3333328 C42.2053333,25.3333328 44,27.1279995 44,29.3333328 C44,31.5386662 42.2053333,33.3333328 40,33.3333328 Z M55.9999995,25.3333329 L52.7119996,25.3333329 C52.4759996,24.5826663 52.1759996,23.861333 51.8159997,23.177333 L54.1439996,20.8493331 C54.6653329,20.3279998 54.6653329,19.4853331 54.1439996,18.9639998 L50.3706664,15.1906666 C49.8706664,14.6906666 48.9853331,14.6906666 48.4853331,15.1906666 L46.1573332,17.5186665 C45.4733332,17.1573332 44.7519999,16.8586665 44.0013332,16.6213332 L44.0013332,13.3333333 C44.0013332,12.596 43.4039999,12 42.6679999,12 L37.3346667,12 C36.5986668,12 36.0013335,12.596 36.0013335,13.3333333 L36.0013335,16.6213332 C35.2506668,16.8586665 34.5293335,17.1573332 33.8453335,17.5186665 L31.5173336,15.1906666 C31.2666669,14.9399999 30.9266669,14.7999999 30.5733336,14.7999999 C30.2200003,14.7999999 29.8800003,14.9399999 29.630667,15.1906666 L25.8573337,18.9639998 C25.3360004,19.4853331 25.3360004,20.3279998 25.8573337,20.8493331 L28.1853337,23.177333 C27.8240004,23.861333 27.5253337,24.5826663 27.2893337,25.3333329 L24.0000005,25.3333329 C23.2640005,25.3333329 22.6666672,25.9293329 22.6666672,26.6666662 L22.6666672,31.9999994 C22.6666672,32.7373327 23.2640005,33.3333327 24.0000005,33.3333327 L27.2880004,33.3333327 C27.5240004,34.0839994 27.8240004,34.8053327 28.1840003,35.4893326 L25.8560004,37.8173326 C25.3346671,38.3386659 25.3346671,39.1813325 25.8560004,39.7026659 L29.6293336,43.4759991 C30.1293336,43.9759991 31.0146669,43.9759991 31.5146669,43.4759991 L33.8426668,41.1479991 C34.5266668,41.5093325 35.2480001,41.8079991 35.9986668,42.0453325 L35.9986668,45.3333324 C35.9986668,46.0706657 36.5960001,46.6666656 37.3320001,46.6666656 L42.6653333,46.6666656 C43.4013332,46.6666656 43.9986665,46.0706657 43.9986665,45.3333324 L43.9986665,42.0453325 C44.7493332,41.8079991 45.4706665,41.5093325 46.1546665,41.1479991 L48.4826664,43.4759991 C48.7333331,43.7266657 49.0719997,43.8666657 49.4253331,43.8666657 C49.7786664,43.8666657 50.1186664,43.7266657 50.3679997,43.4759991 L54.1413329,39.7026659 C54.6639996,39.1826659 54.6639996,38.3386659 54.1426663,37.8173326 L51.8146663,35.4893326 C52.1759996,34.8053327 52.4746663,34.0839994 52.7106663,33.3333327 L55.9999995,33.3333327 C56.7359995,33.3333327 57.3333328,32.7373327 57.3333328,31.9999994 L57.3333328,26.6666662 C57.3333328,25.9293329 56.7359995,25.3333329 55.9999995,25.3333329 Z M54.6666672,30.6666676 L51.6933337,30.6666676 C51.0720004,30.6666676 50.5333337,31.0960009 50.3933337,31.7000009 C50.118667,32.8946676 49.658667,34.000001 49.0240003,34.9853343 C48.6853336,35.5133344 48.7600003,36.2053344 49.2040003,36.6493344 L51.3146671,38.7600011 L49.426667,40.6480012 L47.3160003,38.5373344 C46.8733336,38.0933344 46.1813335,38.0186678 45.6520002,38.3586678 C44.6653335,38.9920011 43.5613335,39.4520011 42.3680001,39.7253345 C41.7613334,39.8640011 41.3333334,40.4040012 41.3333334,41.0253345 L41.3333334,43.9986679 L38.6666666,43.9986679 L38.6666666,41.0253345 C38.6666666,40.4040012 38.2373333,39.8653345 37.6319999,39.7253345 C36.4386665,39.4533345 35.3333332,38.9920011 34.3466665,38.3600011 C33.8186665,38.0186678 33.1253331,38.0946678 32.6826664,38.5386678 L30.5719997,40.6493345 L28.6839996,38.7613344 L30.7946663,36.6506677 C31.2386664,36.2066677 31.313333,35.5133344 30.973333,34.9866677 C30.3386663,34.0013343 29.8786663,32.896001 29.6039996,31.7013343 C29.4666663,31.0960009 28.9279996,30.6666676 28.3066663,30.6666676 L25.3333328,30.6666676 L25.3333328,28.0000008 L28.3066663,28.0000008 C28.9279996,28.0000008 29.4666663,27.5706675 29.6066663,26.9666675 C29.881333,25.7720008 30.341333,24.6666674 30.9759997,23.6813341 C31.3146664,23.1533341 31.2399997,22.461334 30.797333,22.017334 L28.6866663,19.9066673 L30.5746663,18.0186673 L32.6853331,20.129334 C33.1293331,20.5746673 33.8213331,20.6506673 34.3493331,20.3080006 C35.3359998,19.6746673 36.4399999,19.2146673 37.6333333,18.9413339 C38.2399999,18.8026673 38.668,18.2626673 38.668,17.6413339 L38.668,14.6666672 L41.3346667,14.6666672 L41.3346667,17.6400006 C41.3346667,18.2613339 41.7640001,18.8000006 42.3693334,18.9400006 C43.5613335,19.213334 44.6666668,19.6746673 45.6533335,20.3066673 C46.1813335,20.649334 46.8733336,20.573334 47.3173336,20.1280006 L49.4280003,18.0173339 L51.3160004,19.905334 L49.2053337,22.0160007 C48.7613336,22.4600007 48.686667,23.1533341 49.026667,23.6800007 C49.6613337,24.6653341 50.1213337,25.7706675 50.3960004,26.9653341 C50.5333337,27.5706675 51.0720004,28.0000008 51.6933337,28.0000008 L54.6666672,28.0000008 L54.6666672,30.6666676 Z" id="path-1"></path>
    </defs>
    <g id="Home" stroke="none" stroke-width="1" fill="none" fill-rule="evenodd" opacity="0.800000012">
        <g id="1-Home-[Opt-1]-[desktop]" transform="translate(-120.000000, -1485.000000)">
            <g id="Services" transform="translate(120.000000, 1015.000000)">
                <g id="services" transform="translate(0.000000, 172.000000)">
                    <g id="service" transform="translate(0.000000, 298.000000)">
                        <g id="services-support">
                            <mask id="mask-2" fill="white">
                                <use xlink:href="#path-1"></use>
                            </mask>
                            <use id="Combined-Shape" fill="#000000" fill-rule="nonzero" xlink:href="#path-1"></use>
                            <g id="🎨-color" mask="url(#mask-2)" fill="#3986E0">
                                <rect id="Rectangle-3" x="0" y="0" width="80" height="80"></rect>
                            </g>
                        </g>
                    </g>
                </g>
            </g>
        </g>
    </g>
</svg>