<?xml version="1.0" encoding="UTF-8"?>
<svg width="74px" height="74px" viewBox="0 0 74 74" version="1.1" xmlns="http://www.w3.org/2000/svg" xmlns:xlink="http://www.w3.org/1999/xlink">
    <!-- Generator: sketchtool 49.1 (51147) - http://www.bohemiancoding.com/sketch -->
    <title>A9884919-9C6C-45AE-A184-970718C0E205-416-0000F5A4970524D1</title>
    <desc>Created with sketchtool.</desc>
    <defs>
        <path d="M75.5733333,52.7466667 L74.3613867,52.7466667 L76.7901867,33.2721067 C76.8318933,32.94336 76.73744,32.61216 76.53136,32.3533333 L71.6504533,26.2518933 C72.6661333,25.4815467 73.53952,24.5038933 74.2105067,23.3471467 C75.9781333,20.3013333 75.9904,16.65568 74.2424,13.5976 L66.8247467,0.61824 C66.38928,-0.145973333 65.13072,-0.145973333 64.6952533,0.61824 L57.2788267,13.5976 C55.5308267,16.65568 55.5430933,20.3013333 57.31072,23.3471467 C57.9817067,24.5038933 58.8550933,25.4815467 59.8707733,26.2518933 L54.9898667,32.3533333 C54.78256,32.61216 54.6893333,32.94336 54.73104,33.2721067 L57.1696533,52.7466667 L48.6013867,52.7466667 L51.0301867,33.2721067 C51.0718933,32.94336 50.97744,32.61216 50.77136,32.3533333 L46.3982933,26.88608 L49.6391467,21.4813867 C49.844,21.1403733 49.86976,20.72208 49.71152,20.3589867 L41.1248533,0.734773333 C40.9285867,0.288266667 40.4869867,0 40,0 C39.5130133,0 39.0714133,0.288266667 38.8763733,0.736 L30.2897067,20.3626667 C30.13024,20.72576 30.1572267,21.14528 30.36208,21.4850667 L33.6029333,26.8873067 L29.2298667,32.35456 C29.02256,32.6133867 28.9293333,32.9445867 28.97104,33.2733333 L31.4096533,52.7466667 L25.28,52.7466667 L25.28,19.6266667 C25.28,19.4205867 25.2186667,19.2292267 25.12544,19.05504 L25.1352533,19.0501333 L15.32192,0.650133333 C14.89504,-0.149653333 13.5837333,-0.149653333 13.1568533,0.650133333 L3.34352,19.0501333 L3.35333333,19.05504 C3.26133333,19.2292267 3.2,19.4205867 3.2,19.6266667 L3.2,53.9733333 L3.2,72.3733333 C3.2,73.05168 3.74954667,73.6 4.42666667,73.6 L75.5733333,73.6 C76.2504533,73.6 76.8,73.05168 76.8,72.3733333 L76.8,53.9733333 C76.8,53.2949867 76.2504533,52.7466667 75.5733333,52.7466667 Z M58.4736023,17.8185603 C58.5643756,16.7844802 58.8673623,15.7614402 59.4083223,14.8144535 L65.7600025,3.69962654 L70.5844826,12.1415468 L66.7474692,19.8168003 L63.0380291,15.1800002 C62.8196824,14.9076802 62.4970691,14.7420802 62.147469,14.7224535 C61.805229,14.7077335 61.459309,14.8316268 61.212749,15.0794135 L58.4736023,17.8185603 Z M59.4328527,22.115574 C59.2022394,21.7193606 59.0255994,21.3047473 58.875946,20.8852273 L61.9781859,17.7829873 L66.0286391,22.8466673 C66.2629324,23.138614 66.6162124,23.3066673 66.9866657,23.3066673 C67.0295991,23.3066673 67.0725324,23.304214 67.1154657,23.2993073 C67.5313057,23.256374 67.8956257,23.002454 68.0833057,22.6283206 L72.0466656,14.7016006 L72.1116789,14.814454 C73.4205322,17.1046406 73.4119455,19.8352006 72.0871456,22.115574 C70.7635723,24.3984006 68.3973324,25.7600006 65.7599991,25.7600006 C63.1226659,25.7600006 60.756426,24.3984006 59.4328527,22.115574 Z M61.4421339,28.2133331 L70.0766406,28.2133331 L74.2914673,33.4818664 L71.8896539,52.746666 L59.6413873,52.746666 L57.2285339,33.4818664 L61.4421339,28.2133331 Z M40.0000004,18.4 C40.6758937,18.4 41.226667,18.9495467 41.226667,19.6266666 C41.226667,20.3037866 40.6758937,20.8533333 40.0000004,20.8533333 C39.3241071,20.8533333 38.7733337,20.3037866 38.7733337,19.6266666 C38.7733337,18.9495467 39.3241071,18.4 40.0000004,18.4 Z M32.7908813,20.7650139 L38.7733348,7.09136033 L38.7733348,16.1736005 C37.3491748,16.6814405 36.3200014,18.0307738 36.3200014,19.6278939 C36.3200014,21.6568005 37.9710948,23.3078939 40.0000015,23.3078939 C42.0289082,23.3078939 43.6800016,21.6568005 43.6800016,19.6278939 C43.6800016,18.0307738 42.6508283,16.6814405 41.2266682,16.1736005 L41.2266682,7.09013367 L47.2091217,20.7613339 L44.212375,25.7600006 L35.7876281,25.7600006 L32.7908813,20.7650139 Z M35.6821333,28.2133331 L44.31664,28.2133331 L48.5314667,33.4818664 L46.1296533,52.746666 L33.8813867,52.746666 L31.4685333,33.4818664 L35.6821333,28.2133331 Z M14.24,3.83333321 L16.7755199,8.58666649 L11.70448,8.58666649 L14.24,3.83333321 Z M10.3968533,11.0400002 L18.0843733,11.0400002 L22.5433065,19.4021867 L19.1466666,22.7988266 L15.1072533,18.7594133 C14.6276266,18.2797867 13.8523733,18.2797867 13.3727466,18.7594133 L9.33333335,22.7988266 L5.93669338,19.4021867 L10.3968533,11.0400002 Z M22.826667,22.5878403 L22.826667,52.746666 L20.3733337,52.746666 L20.3733337,25.0411735 L22.826667,22.5878403 Z M17.9199997,25.0411738 L17.9199997,52.746666 L10.5599998,52.746666 L10.5599998,25.0411738 L14.2399998,21.361174 L17.9199997,25.0411738 Z M5.65333328,22.5878403 L8.10666656,25.0411735 L8.10666656,52.746666 L5.65333328,52.746666 L5.65333328,22.5878403 Z M74.3466682,71.146666 L65.7600014,71.146666 L65.7600014,63.7866663 L63.306668,63.7866663 L63.306668,71.146666 L53.4933344,71.146666 L53.4933344,66.2399995 L51.040001,66.2399995 L51.040001,71.146666 L41.2266675,71.146666 L41.2266675,63.7866663 L38.7733341,63.7866663 L38.7733341,71.146666 L28.9600005,71.146666 L28.9600005,66.2399995 L26.5066671,66.2399995 L26.5066671,71.146666 L16.6933335,71.146666 L16.6933335,63.7866663 L14.2400002,63.7866663 L14.2400002,71.146666 L5.65333328,71.146666 L5.65333328,55.2 L74.3466682,55.2 L74.3466682,71.146666 Z M41.2266663,34.3466675 L43.6799995,34.3466675 L43.6799995,36.8000008 L41.2266663,36.8000008 L41.2266663,34.3466675 Z M41.2266663,39.2533325 L43.6799995,39.2533325 L43.6799995,50.2933327 L41.2266663,50.2933327 L41.2266663,39.2533325 Z M66.9866638,34.3466675 L69.4399971,34.3466675 L69.4399971,36.8000008 L66.9866638,36.8000008 L66.9866638,34.3466675 Z M66.9866638,39.2533325 L69.4399971,39.2533325 L69.4399971,50.2933327 L66.9866638,50.2933327 L66.9866638,39.2533325 Z" id="path-1"></path>
    </defs>
    <g id="Home" stroke="none" stroke-width="1" fill="none" fill-rule="evenodd" opacity="0.800000012">
        <g id="1-Home-[Opt-1]-[desktop]" transform="translate(-123.000000, -1336.000000)">
            <g id="Services" transform="translate(120.000000, 1015.000000)">
                <g id="services" transform="translate(0.000000, 172.000000)">
                    <g id="service" transform="translate(0.000000, 149.000000)">
                        <g id="services-design">
                            <mask id="mask-2" fill="white">
                                <use xlink:href="#path-1"></use>
                            </mask>
                            <use id="Combined-Shape" fill="#000000" fill-rule="nonzero" xlink:href="#path-1"></use>
                            <g id="🎨-color" mask="url(#mask-2)" fill="#3986E0">
                                <rect id="Rectangle-3" x="0" y="0" width="80" height="80"></rect>
                            </g>
                        </g>
                    </g>
                </g>
            </g>
        </g>
    </g>
</svg>