<?xml version="1.0" encoding="UTF-8"?>
<svg width="50px" height="51px" viewBox="0 0 50 51" version="1.1" xmlns="http://www.w3.org/2000/svg" xmlns:xlink="http://www.w3.org/1999/xlink">
    <!-- Generator: sketchtool 49.1 (51147) - http://www.bohemiancoding.com/sketch -->
    <title>B4349A73-6D0E-4BA4-8898-801F4E08A09A</title>
    <desc>Created with sketchtool.</desc>
    <defs></defs>
    <g id="Home" stroke="none" stroke-width="1" fill="none" fill-rule="evenodd" opacity="0.800000012">
        <g id="1-Home-[Opt-1]-[desktop]" transform="translate(-585.000000, -2394.000000)" fill="#FFFFFF" fill-rule="nonzero">
            <g id="Technologies" transform="translate(0.000000, 1704.000000)">
                <g id="T3" transform="translate(140.000000, 675.793750)">
                    <g id="header">
                        <g id="tech-data-bases" transform="translate(445.000000, 15.000000)">
                            <rect id="Rectangle-path" x="17.5" y="16.6666667" width="1.66666667" height="1.66666667"></rect>
                            <rect id="Rectangle-path" x="14.1666667" y="16.6666667" width="1.66666667" height="1.66666667"></rect>
                            <rect id="Rectangle-path" x="10.8333333" y="16.6666667" width="1.66666667" height="1.66666667"></rect>
                            <path d="M49.1666667,25 L46.6666667,25 L46.6666667,9.16666667 C46.6666667,6.86916667 44.7975,5 42.5,5 L22.9458333,5 L19.86,0.370833333 C19.705,0.139166667 19.445,0 19.1666667,0 L7.5,0 C7.22166667,0 6.96166667,0.139166667 6.80666667,0.370833333 L3.68833333,5.04833333 C1.61833333,5.28916667 0,7.03333333 0,9.16666667 L0,37.5 C0,39.7975 1.86916667,41.6666667 4.16666667,41.6666667 L30.845,41.6666667 C32.6508333,45.0308333 35.355,47.9075 38.7466667,49.8858333 C38.8758333,49.9616667 39.0216667,50 39.1666667,50 C39.3116667,50 39.4575,49.9616667 39.5866667,49.8858333 C46.01,46.1391667 50,39.1916667 50,31.7558333 L50,25.8333333 C50,25.3725 49.6275,25 49.1666667,25 Z M7.94583333,1.66666667 L18.7208333,1.66666667 L20.9433333,5 L5.72333333,5 L7.94583333,1.66666667 Z M4.16666667,6.66666667 L22.5,6.66666667 L42.5,6.66666667 C43.8783333,6.66666667 45,7.78833333 45,9.16666667 L45,12.5 L28.7333333,12.5 L25.6508333,8.64583333 C25.4925,8.44833333 25.2533333,8.33333333 25,8.33333333 L1.82,8.33333333 C2.165,7.36583333 3.08166667,6.66666667 4.16666667,6.66666667 Z M4.16666667,40 C2.78833333,40 1.66666667,38.8783333 1.66666667,37.5 L1.66666667,10 L24.6,10 L27.6825,13.8541667 C27.8408333,14.0516667 28.08,14.1666667 28.3333333,14.1666667 L45,14.1666667 L45,25 L29.1666667,25 C28.7058333,25 28.3333333,25.3725 28.3333333,25.8333333 L28.3333333,31.7558333 C28.3333333,32.17 28.35,32.585 28.375,32.9983333 C28.3833333,33.1375 28.3958333,33.2758333 28.4066667,33.415 C28.4291667,33.6916667 28.4566667,33.9675 28.49,34.2433333 C28.5091667,34.3991667 28.5275,34.5541667 28.55,34.7091667 C28.5925,35.0033333 28.6425,35.2966667 28.6975,35.5891667 C28.7183333,35.7025 28.7358333,35.8166667 28.7583333,35.9291667 C28.8383333,36.3233333 28.9325,36.7141667 29.035,37.1033333 C29.0641667,37.2133333 29.0975,37.3216667 29.1283333,37.4308333 C29.215,37.7383333 29.3075,38.0433333 29.4083333,38.3466667 C29.4408333,38.4458333 29.475,38.5441667 29.5091667,38.6433333 C29.635,39.005 29.7691667,39.3625 29.9141667,39.7166667 C29.9241667,39.7416667 29.9333333,39.7666667 29.9441667,39.7908333 C29.9716667,39.8608333 29.9966667,39.9316667 30.0258333,40 L4.16666667,40 Z M48.3333333,31.7558333 C48.3333333,38.4383333 44.8341667,44.6908333 39.1666667,48.195 C36.0041667,46.24 33.5183333,43.4275 31.9375,40.1625 C31.9025,40.0908333 31.87,40.0183333 31.8366667,39.9466667 C31.7066667,39.6691667 31.5825,39.3883333 31.4658333,39.1041667 C31.4225,38.9983333 31.38,38.8916667 31.3383333,38.785 C31.2416667,38.5383333 31.15,38.2891667 31.0633333,38.0383333 C31.0141667,37.8958333 30.9658333,37.7525 30.92,37.6083333 C30.8508333,37.3908333 30.7866667,37.1716667 30.725,36.9516667 C30.6766667,36.78 30.6291667,36.6083333 30.5858333,36.4358333 C30.5358333,36.2366667 30.4916667,36.0366667 30.4483333,35.8358333 C30.4075,35.6475 30.3658333,35.4591667 30.3308333,35.27 C30.2941667,35.0716667 30.2641667,34.8716667 30.2333333,34.6716667 C30.2041667,34.4833333 30.1733333,34.2958333 30.1491667,34.1066667 C30.1208333,33.8783333 30.1016667,33.6483333 30.0816667,33.4183333 C30.0675,33.2583333 30.0491667,33.0983333 30.0391667,32.9375 C30.0141667,32.5458333 30,32.1516667 30,31.7558333 L30,26.6666667 L45.8333333,26.6666667 L48.3333333,26.6666667 L48.3333333,31.7558333 Z" id="Shape"></path>
                            <path d="M44.4108333,32.7441667 L38.3333333,38.8216667 L35.5891667,36.0775 L34.4108333,37.2558333 L37.7441667,40.5891667 C37.9066667,40.7516667 38.12,40.8333333 38.3333333,40.8333333 C38.5466667,40.8333333 38.76,40.7516667 38.9225,40.5891667 L45.5891667,33.9225 L44.4108333,32.7441667 Z" id="Shape"></path>
                            <rect id="Rectangle-path" x="31.6666667" y="28.3333333" width="1.66666667" height="1.66666667"></rect>
                            <rect id="Rectangle-path" x="35" y="28.3333333" width="1.66666667" height="1.66666667"></rect>
                            <rect id="Rectangle-path" x="38.3333333" y="28.3333333" width="1.66666667" height="1.66666667"></rect>
                            <rect id="Rectangle-path" x="41.6666667" y="28.3333333" width="1.66666667" height="1.66666667"></rect>
                            <rect id="Rectangle-path" x="45" y="28.3333333" width="1.66666667" height="1.66666667"></rect>
                            <path d="M15,11.6666667 C8.925,11.6666667 4.16666667,14.2291667 4.16666667,17.5 L4.16666667,22.5 L4.16666667,27.5 L4.16666667,32.5 C4.16666667,35.7708333 8.925,38.3333333 15,38.3333333 C21.075,38.3333333 25.8333333,35.7708333 25.8333333,32.5 L25.8333333,27.5 L25.8333333,22.5 L25.8333333,17.5 C25.8333333,14.2291667 21.075,11.6666667 15,11.6666667 Z M24.1666667,32.5 C24.1666667,34.4708333 20.4016667,36.6666667 15,36.6666667 C9.59833333,36.6666667 5.83333333,34.4708333 5.83333333,32.5 L5.83333333,30.64 C7.735,32.2683333 11.0908333,33.3333333 15,33.3333333 C18.9091667,33.3333333 22.265,32.2683333 24.1666667,30.64 L24.1666667,32.5 Z M24.1666667,27.5 C24.1666667,29.4708333 20.4016667,31.6666667 15,31.6666667 C9.59833333,31.6666667 5.83333333,29.4708333 5.83333333,27.5 L5.83333333,25.64 C7.735,27.2683333 11.0908333,28.3333333 15,28.3333333 C18.9091667,28.3333333 22.265,27.2683333 24.1666667,25.64 L24.1666667,27.5 Z M24.1666667,22.5 C24.1666667,24.4708333 20.4016667,26.6666667 15,26.6666667 C9.59833333,26.6666667 5.83333333,24.4708333 5.83333333,22.5 L5.83333333,20.64 C7.735,22.2683333 11.0908333,23.3333333 15,23.3333333 C18.9091667,23.3333333 22.265,22.2683333 24.1666667,20.64 L24.1666667,22.5 Z M15,21.6666667 C9.59833333,21.6666667 5.83333333,19.4708333 5.83333333,17.5 C5.83333333,15.5291667 9.59833333,13.3333333 15,13.3333333 C20.4016667,13.3333333 24.1666667,15.5291667 24.1666667,17.5 C24.1666667,19.4708333 20.4016667,21.6666667 15,21.6666667 Z" id="Shape"></path>
                        </g>
                    </g>
                </g>
            </g>
        </g>
    </g>
</svg>