<?xml version="1.0" encoding="UTF-8"?>
<svg width="50px" height="50px" viewBox="0 0 50 50" version="1.1" xmlns="http://www.w3.org/2000/svg" xmlns:xlink="http://www.w3.org/1999/xlink">
    <!-- Generator: sketchtool 49.1 (51147) - http://www.bohemiancoding.com/sketch -->
    <title>738F61BC-1D13-4B92-B6F1-019B71185F38</title>
    <desc>Created with sketchtool.</desc>
    <defs></defs>
    <g id="Home" stroke="none" stroke-width="1" fill="none" fill-rule="evenodd" opacity="0.800000012">
        <g id="1-Home-[Opt-1]-[desktop]" transform="translate(-1200.000000, -2395.000000)" fill="#FFFFFF" fill-rule="nonzero">
            <g id="Technologies" transform="translate(0.000000, 1704.000000)">
                <g id="T4" transform="translate(755.000000, 676.000000)">
                    <g id="header">
                        <g id="tech-integrations" transform="translate(445.000000, 15.000000)">
                            <path d="M46.7058824,39.1666667 C46.1244706,39.1666667 45.5562353,39.3266667 45.0588235,39.6208333 L45.0588235,35.8333333 C45.0588235,35.3725 44.6898824,35 44.2352941,35 L38.8452941,35 C39.136,34.4966667 39.2941176,33.9216667 39.2941176,33.3333333 C39.2941176,31.495 37.8167059,30 36,30 C34.1832941,30 32.7058824,31.495 32.7058824,33.3333333 C32.7058824,33.9216667 32.864,34.4966667 33.1547059,35 L27.7647059,35 C27.3101176,35 26.9411765,35.3725 26.9411765,35.8333333 L26.9411765,39.6208333 C26.4437647,39.3266667 25.8755294,39.1666667 25.2941176,39.1666667 C23.4774118,39.1666667 22,40.6616667 22,42.5 C22,44.3383333 23.4774118,45.8333333 25.2941176,45.8333333 C25.8755294,45.8333333 26.4437647,45.6733333 26.9411765,45.3791667 L26.9411765,49.1666667 C26.9411765,49.6275 27.3101176,50 27.7647059,50 L44.2352941,50 C44.6898824,50 45.0588235,49.6275 45.0588235,49.1666667 L45.0588235,45.3791667 C45.5562353,45.6733333 46.1244706,45.8333333 46.7058824,45.8333333 C48.5225882,45.8333333 50,44.3383333 50,42.5 C50,40.6616667 48.5225882,39.1666667 46.7058824,39.1666667 Z M46.7058824,44.1666667 C46.2414118,44.1666667 45.8082353,43.9691667 45.4878824,43.6083333 C45.3322353,43.4333333 45.1098824,43.3333333 44.876,43.3333333 L44.2352941,43.3333333 C43.7807059,43.3333333 43.4117647,43.7058333 43.4117647,44.1666667 L43.4117647,48.3333333 L28.5882353,48.3333333 L28.5882353,44.1666667 C28.5882353,43.7058333 28.2192941,43.3333333 27.7647059,43.3333333 L27.124,43.3333333 C26.8909412,43.3333333 26.6685882,43.4333333 26.5121176,43.6083333 C26.1917647,43.9691667 25.7585882,44.1666667 25.2941176,44.1666667 C24.3857647,44.1666667 23.6470588,43.4191667 23.6470588,42.5 C23.6470588,41.5808333 24.3857647,40.8333333 25.2941176,40.8333333 C25.7585882,40.8333333 26.1917647,41.0308333 26.5121176,41.3916667 C26.6677647,41.5666667 26.8901176,41.6666667 27.124,41.6666667 L27.7647059,41.6666667 C28.2192941,41.6666667 28.5882353,41.2941667 28.5882353,40.8333333 L28.5882353,36.6666667 L34.3529412,36.6666667 C34.8075294,36.6666667 35.1764706,36.2941667 35.1764706,35.8333333 L35.1764706,35.185 C35.1764706,34.9491667 35.0776471,34.7241667 34.9047059,34.5666667 C34.5489412,34.2416667 34.3529412,33.8033333 34.3529412,33.3333333 C34.3529412,32.4141667 35.0916471,31.6666667 36,31.6666667 C36.9083529,31.6666667 37.6470588,32.4141667 37.6470588,33.3333333 C37.6470588,33.8033333 37.4510588,34.2416667 37.0952941,34.5658333 C36.9223529,34.7241667 36.8235294,34.9483333 36.8235294,35.185 L36.8235294,35.8333333 C36.8235294,36.2941667 37.1924706,36.6666667 37.6470588,36.6666667 L43.4117647,36.6666667 L43.4117647,40.8333333 C43.4117647,41.2941667 43.7807059,41.6666667 44.2352941,41.6666667 L44.876,41.6666667 C45.1090588,41.6666667 45.3314118,41.5666667 45.4878824,41.3916667 C45.8082353,41.0308333 46.2414118,40.8333333 46.7058824,40.8333333 C47.6142353,40.8333333 48.3529412,41.5808333 48.3529412,42.5 C48.3529412,43.4191667 47.6142353,44.1666667 46.7058824,44.1666667 Z" id="Shape"></path>
                            <path d="M49.1666667,0 L0.833333333,0 C0.373333333,0 0,0.379272727 0,0.848484848 L0,27.1515152 C0,27.6207273 0.373333333,28 0.833333333,28 L16.6666667,28 C17.1266667,28 17.5,27.6207273 17.5,27.1515152 L17.5,22.0606061 C17.5,21.5913939 17.1266667,21.2121212 16.6666667,21.2121212 L16.0183333,21.2121212 C15.7825,21.2121212 15.5575,21.3139394 15.3991667,21.4921212 C15.075,21.8595152 14.6366667,22.0606061 14.1666667,22.0606061 C13.2475,22.0606061 12.5,21.2995152 12.5,20.3636364 C12.5,19.4277576 13.2475,18.6666667 14.1666667,18.6666667 C14.6366667,18.6666667 15.075,18.8677576 15.3991667,19.2351515 C15.5566667,19.4133333 15.7816667,19.5151515 16.0183333,19.5151515 L16.6666667,19.5151515 C17.1266667,19.5151515 17.5,19.1358788 17.5,18.6666667 L17.5,14.4242424 L23.3333333,14.4242424 C23.7933333,14.4242424 24.1666667,14.0449697 24.1666667,13.5757576 L24.1666667,12.9156364 C24.1666667,12.6755152 24.0666667,12.4464242 23.8916667,12.2860606 C23.5316667,11.9551515 23.3333333,11.5088485 23.3333333,11.030303 C23.3333333,10.0944242 24.0808333,9.33333333 25,9.33333333 C25.9191667,9.33333333 26.6666667,10.0944242 26.6666667,11.030303 C26.6666667,11.5088485 26.4683333,11.9551515 26.1083333,12.2852121 C25.9333333,12.4464242 25.8333333,12.6746667 25.8333333,12.9156364 L25.8333333,13.5757576 C25.8333333,14.0449697 26.2066667,14.4242424 26.6666667,14.4242424 L32.5,14.4242424 L32.5,18.6666667 C32.5,19.1358788 32.8733333,19.5151515 33.3333333,19.5151515 L33.9816667,19.5151515 C34.2175,19.5151515 34.4425,19.4133333 34.6008333,19.2351515 C34.925,18.8677576 35.3633333,18.6666667 35.8333333,18.6666667 C36.7525,18.6666667 37.5,19.4277576 37.5,20.3636364 C37.5,21.2995152 36.7525,22.0606061 35.8333333,22.0606061 C35.3633333,22.0606061 34.925,21.8595152 34.6008333,21.4921212 C34.4433333,21.3139394 34.2183333,21.2121212 33.9816667,21.2121212 L33.3333333,21.2121212 C32.8733333,21.2121212 32.5,21.5913939 32.5,22.0606061 L32.5,27.1515152 C32.5,27.6207273 32.8733333,28 33.3333333,28 L49.1666667,28 C49.6266667,28 50,27.6207273 50,27.1515152 L50,0.848484848 C50,0.379272727 49.6266667,0 49.1666667,0 Z M48.3333333,26.3030303 L34.1666667,26.3030303 L34.1666667,23.2951515 C34.67,23.5946667 35.245,23.7575758 35.8333333,23.7575758 C37.6716667,23.7575758 39.1666667,22.2353939 39.1666667,20.3636364 C39.1666667,18.4918788 37.6716667,16.969697 35.8333333,16.969697 C35.245,16.969697 34.67,17.1326061 34.1666667,17.4321212 L34.1666667,13.5757576 C34.1666667,13.1065455 33.7933333,12.7272727 33.3333333,12.7272727 L27.8791667,12.7272727 C28.1733333,12.2147879 28.3333333,11.6293333 28.3333333,11.030303 C28.3333333,9.15854545 26.8383333,7.63636364 25,7.63636364 C23.1616667,7.63636364 21.6666667,9.15854545 21.6666667,11.030303 C21.6666667,11.6293333 21.8266667,12.2147879 22.1208333,12.7272727 L16.6666667,12.7272727 C16.2066667,12.7272727 15.8333333,13.1065455 15.8333333,13.5757576 L15.8333333,17.4321212 C15.33,17.1326061 14.755,16.969697 14.1666667,16.969697 C12.3283333,16.969697 10.8333333,18.4918788 10.8333333,20.3636364 C10.8333333,22.2353939 12.3283333,23.7575758 14.1666667,23.7575758 C14.755,23.7575758 15.33,23.5946667 15.8333333,23.2951515 L15.8333333,26.3030303 L1.66666667,26.3030303 L1.66666667,1.6969697 L48.3333333,1.6969697 L48.3333333,26.3030303 Z" id="Shape"></path>
                            <path d="M24.6008073,17.2481298 C24.2685362,16.9172901 23.7314638,16.9172901 23.3991927,17.2481298 L20,20.6326801 L21.2016146,21.8291187 L23.1502018,19.8889252 L23.1502018,28 L24.8497982,28 L24.8497982,19.8889252 L26.7983854,21.8291187 L28,20.6326801 L24.6008073,17.2481298 Z" id="Shape"></path>
                            <rect id="Rectangle-path" x="23" y="29" width="2" height="2"></rect>
                            <rect id="Rectangle-path" x="23" y="33" width="2" height="2"></rect>
                            <rect id="Rectangle-path" x="23" y="36" width="2" height="2"></rect>
                            <rect id="Rectangle-path" x="5" y="29" width="2" height="2"></rect>
                            <rect id="Rectangle-path" x="5" y="33" width="2" height="2"></rect>
                            <rect id="Rectangle-path" x="5" y="36" width="2" height="2"></rect>
                            <rect id="Rectangle-path" x="5" y="39" width="2" height="2"></rect>
                            <rect id="Rectangle-path" x="5" y="43" width="2" height="2"></rect>
                            <rect id="Rectangle-path" x="8" y="43" width="2" height="2"></rect>
                            <rect id="Rectangle-path" x="12" y="43" width="2" height="2"></rect>
                            <rect id="Rectangle-path" x="15" y="43" width="2" height="2"></rect>
                            <rect id="Rectangle-path" x="18" y="43" width="2" height="2"></rect>
                        </g>
                    </g>
                </g>
            </g>
        </g>
    </g>
</svg>