<?xml version="1.0" encoding="UTF-8"?>
<svg width="50px" height="50px" viewBox="0 0 50 50" version="1.1" xmlns="http://www.w3.org/2000/svg" xmlns:xlink="http://www.w3.org/1999/xlink">
    <!-- Generator: sketchtool 49.1 (51147) - http://www.bohemiancoding.com/sketch -->
    <title>7A06761E-88D4-4B4F-9348-93FDFA3DBF7B</title>
    <desc>Created with sketchtool.</desc>
    <defs></defs>
    <g id="Home" stroke="none" stroke-width="1" fill="none" fill-rule="evenodd" opacity="0.800000012">
        <g id="1-Home-[Opt-1]-[desktop]" transform="translate(-1200.000000, -2023.000000)" fill="#FFFFFF" fill-rule="nonzero">
            <g id="Technologies" transform="translate(0.000000, 1704.000000)">
                <g id="T2" transform="translate(755.000000, 304.000000)">
                    <g id="header">
                        <g id="tech-back-end" transform="translate(445.000000, 15.000000)">
                            <rect id="Rectangle-path" x="3" y="7" width="2" height="2"></rect>
                            <rect id="Rectangle-path" x="7" y="7" width="2" height="2"></rect>
                            <rect id="Rectangle-path" x="3" y="3" width="2" height="2"></rect>
                            <rect id="Rectangle-path" x="7" y="3" width="2" height="2"></rect>
                            <rect id="Rectangle-path" x="10" y="7" width="2" height="2"></rect>
                            <rect id="Rectangle-path" x="10" y="3" width="2" height="2"></rect>
                            <rect id="Rectangle-path" x="13" y="7" width="2" height="2"></rect>
                            <rect id="Rectangle-path" x="13" y="3" width="2" height="2"></rect>
                            <rect id="Rectangle-path" x="17" y="7" width="2" height="2"></rect>
                            <rect id="Rectangle-path" x="17" y="3" width="2" height="2"></rect>
                            <path d="M32.1818182,3 L24.8181818,3 C24.3657273,3 24,3.37333333 24,3.83333333 L24,7.16666667 C24,7.62666667 24.3657273,8 24.8181818,8 L32.1818182,8 C32.6342727,8 33,7.62666667 33,7.16666667 L33,3.83333333 C33,3.37333333 32.6342727,3 32.1818182,3 Z M31.3636364,6.33333333 L25.6363636,6.33333333 L25.6363636,4.66666667 L31.3636364,4.66666667 L31.3636364,6.33333333 Z" id="Shape"></path>
                            <rect id="Rectangle-path" x="3" y="17" width="2" height="2"></rect>
                            <rect id="Rectangle-path" x="7" y="17" width="2" height="2"></rect>
                            <rect id="Rectangle-path" x="3" y="13" width="2" height="2"></rect>
                            <rect id="Rectangle-path" x="7" y="13" width="2" height="2"></rect>
                            <rect id="Rectangle-path" x="10" y="17" width="2" height="2"></rect>
                            <rect id="Rectangle-path" x="10" y="13" width="2" height="2"></rect>
                            <rect id="Rectangle-path" x="13" y="17" width="2" height="2"></rect>
                            <rect id="Rectangle-path" x="13" y="13" width="2" height="2"></rect>
                            <rect id="Rectangle-path" x="17" y="17" width="2" height="2"></rect>
                            <rect id="Rectangle-path" x="17" y="13" width="2" height="2"></rect>
                            <path d="M32.1818182,13 L24.8181818,13 C24.3657273,13 24,13.3733333 24,13.8333333 L24,17.1666667 C24,17.6266667 24.3657273,18 24.8181818,18 L32.1818182,18 C32.6342727,18 33,17.6266667 33,17.1666667 L33,13.8333333 C33,13.3733333 32.6342727,13 32.1818182,13 Z M31.3636364,16.3333333 L25.6363636,16.3333333 L25.6363636,14.6666667 L31.3636364,14.6666667 L31.3636364,16.3333333 Z" id="Shape"></path>
                            <rect id="Rectangle-path" x="3" y="27" width="2" height="2"></rect>
                            <rect id="Rectangle-path" x="7" y="27" width="2" height="2"></rect>
                            <rect id="Rectangle-path" x="3" y="23" width="2" height="2"></rect>
                            <rect id="Rectangle-path" x="7" y="23" width="2" height="2"></rect>
                            <rect id="Rectangle-path" x="10" y="27" width="2" height="2"></rect>
                            <rect id="Rectangle-path" x="10" y="23" width="2" height="2"></rect>
                            <rect id="Rectangle-path" x="13" y="27" width="2" height="2"></rect>
                            <rect id="Rectangle-path" x="13" y="23" width="2" height="2"></rect>
                            <rect id="Rectangle-path" x="17" y="27" width="2" height="2"></rect>
                            <rect id="Rectangle-path" x="17" y="23" width="2" height="2"></rect>
                            <path d="M37.5,31 C33.9160625,31 31,33.9160625 31,37.5 C31,41.0839375 33.9160625,44 37.5,44 C41.0839375,44 44,41.0839375 44,37.5 C44,33.9160625 41.0839375,31 37.5,31 Z M37.5,42.375 C34.8114375,42.375 32.625,40.1885625 32.625,37.5 C32.625,34.8114375 34.8114375,32.625 37.5,32.625 C40.1885625,32.625 42.375,34.8114375 42.375,37.5 C42.375,40.1885625 40.1885625,42.375 37.5,42.375 Z" id="Shape"></path>
                            <path d="M49.1666667,35 L47.1775,35 C46.945,34.09 46.5883333,33.2275 46.1133333,32.4225 L47.5175,31.0175 C47.8433333,30.6916667 47.8433333,30.165 47.5175,29.8391667 L45.1608333,27.4825 C44.835,27.1566667 44.3083333,27.1566667 43.9825,27.4825 L42.5775,28.8866667 C41.7725,28.4108333 40.91,28.055 40,27.8216667 L40,25.8333333 C40,25.3733333 39.6275,25 39.1666667,25 L36.6666667,25 L36.6666667,22.5 C36.6666667,21.8575 36.4158333,21.2766667 36.0166667,20.8333333 C36.4166667,20.39 36.6666667,19.8091667 36.6666667,19.1666667 L36.6666667,12.5 C36.6666667,11.8575 36.4158333,11.2766667 36.0166667,10.8333333 C36.4166667,10.39 36.6666667,9.80916667 36.6666667,9.16666667 L36.6666667,2.5 C36.6666667,1.12166667 35.545,0 34.1666667,0 L2.5,0 C1.12166667,0 0,1.12166667 0,2.5 L0,9.16666667 C0,9.80916667 0.250833333,10.39 0.65,10.8333333 C0.250833333,11.2766667 0,11.8575 0,12.5 L0,19.1666667 C0,19.8091667 0.250833333,20.39 0.65,20.8333333 C0.250833333,21.2766667 0,21.8575 0,22.5 L0,29.1666667 C0,30.545 1.12166667,31.6666667 2.5,31.6666667 L28.1308333,31.6666667 L28.8866667,32.4225 C28.4116667,33.2275 28.055,34.09 27.8225,35 L25.8333333,35 C25.3725,35 25,35.3733333 25,35.8333333 L25,39.1666667 C25,39.6266667 25.3725,40 25.8333333,40 L27.8225,40 C28.055,40.91 28.4116667,41.7725 28.8866667,42.5775 L27.4825,43.9825 C27.1566667,44.3083333 27.1566667,44.835 27.4825,45.1608333 L29.8391667,47.5175 C30.165,47.8433333 30.6916667,47.8433333 31.0175,47.5175 L32.4225,46.1133333 C33.2275,46.5891667 34.09,46.945 35,47.1783333 L35,49.1666667 C35,49.6266667 35.3725,50 35.8333333,50 L39.1666667,50 C39.6275,50 40,49.6266667 40,49.1666667 L40,47.1775 C40.91,46.9441667 41.7725,46.5883333 42.5775,46.1125 L43.9825,47.5166667 C44.3083333,47.8425 44.835,47.8425 45.1608333,47.5166667 L47.5175,45.16 C47.8433333,44.8341667 47.8433333,44.3075 47.5175,43.9816667 L46.1133333,42.5766667 C46.5883333,41.7716667 46.945,40.9091667 47.1775,39.9991667 L49.1666667,39.9991667 C49.6275,39.9991667 50,39.6258333 50,39.1658333 L50,35.8325 C50,35.3733333 49.6275,35 49.1666667,35 Z M1.66666667,2.5 C1.66666667,2.04083333 2.04,1.66666667 2.5,1.66666667 L34.1666667,1.66666667 C34.6266667,1.66666667 35,2.04083333 35,2.5 L35,9.16666667 C35,9.62583333 34.6266667,10 34.1666667,10 L2.5,10 C2.04,10 1.66666667,9.62583333 1.66666667,9.16666667 L1.66666667,2.5 Z M1.66666667,12.5 C1.66666667,12.0408333 2.04,11.6666667 2.5,11.6666667 L34.1666667,11.6666667 C34.6266667,11.6666667 35,12.0408333 35,12.5 L35,19.1666667 C35,19.6258333 34.6266667,20 34.1666667,20 L2.5,20 C2.04,20 1.66666667,19.6258333 1.66666667,19.1666667 L1.66666667,12.5 Z M27.4825,29.84 C27.4325,29.8891667 27.3916667,29.9433333 27.3575,30 L2.5,30 C2.04,30 1.66666667,29.6258333 1.66666667,29.1666667 L1.66666667,22.5 C1.66666667,22.0408333 2.04,21.6666667 2.5,21.6666667 L34.1666667,21.6666667 C34.6266667,21.6666667 35,22.0408333 35,22.5 L35,25.8333333 L35,27.8225 C34.09,28.0558333 33.2275,28.4116667 32.4225,28.8875 L31.8683333,28.3333333 L32.5,28.3333333 C32.9608333,28.3333333 33.3333333,27.96 33.3333333,27.5 L33.3333333,24.1666667 C33.3333333,23.7066667 32.9608333,23.3333333 32.5,23.3333333 L25,23.3333333 C24.5391667,23.3333333 24.1666667,23.7066667 24.1666667,24.1666667 L24.1666667,27.5 C24.1666667,27.96 24.5391667,28.3333333 25,28.3333333 L28.9891667,28.3333333 L27.4825,29.84 Z M31.6666667,25 L31.6666667,26.6666667 L25.8333333,26.6666667 L25.8333333,25 L31.6666667,25 Z M48.3333333,38.3333333 L46.5083333,38.3333333 C46.1066667,38.3333333 45.7616667,38.62 45.6891667,39.0158333 C45.475,40.1783333 45.03,41.2558333 44.365,42.2208333 C44.1375,42.5516667 44.1775,42.9983333 44.4616667,43.2825 L45.75,44.5708333 L44.5716667,45.7491667 L43.2825,44.4608333 C42.9975,44.1766667 42.5508333,44.1358333 42.2208333,44.3641667 C41.2566667,45.0283333 40.1783333,45.4741667 39.0166667,45.6883333 C38.6208333,45.7616667 38.3333333,46.1058333 38.3333333,46.5083333 L38.3333333,48.3333333 L36.6666667,48.3333333 L36.6666667,46.5083333 C36.6666667,46.1066667 36.3791667,45.7616667 35.9841667,45.6891667 C34.8225,45.475 33.7441667,45.0291667 32.78,44.365 C32.45,44.1375 32.0025,44.1775 31.7183333,44.4616667 L30.4291667,45.75 L29.2508333,44.5716667 L30.5391667,43.2833333 C30.8233333,42.9991667 30.8641667,42.5525 30.6358333,42.2216667 C29.9708333,41.2566667 29.5258333,40.1791667 29.3116667,39.0166667 C29.2391667,38.62 28.8941667,38.3333333 28.4916667,38.3333333 L26.6666667,38.3333333 L26.6666667,36.6666667 L28.4916667,36.6666667 C28.8933333,36.6666667 29.2383333,36.38 29.3108333,35.9841667 C29.525,34.8216667 29.97,33.7441667 30.635,32.7791667 C30.8625,32.4483333 30.8225,32.0016667 30.5383333,31.7175 L29.25,30.4291667 L30.4283333,29.2508333 L31.7175,30.5391667 C32.0025,30.8233333 32.4491667,30.8641667 32.7791667,30.6358333 C33.7433333,29.9716667 34.8216667,29.5258333 35.9833333,29.3116667 C36.3791667,29.2383333 36.6666667,28.8941667 36.6666667,28.4916667 L36.6666667,26.6666667 L38.3333333,26.6666667 L38.3333333,28.4916667 C38.3333333,28.8933333 38.6208333,29.2383333 39.0158333,29.3108333 C40.1775,29.525 41.2558333,29.9708333 42.22,30.635 C42.55,30.8625 42.9975,30.8225 43.2816667,30.5383333 L44.5708333,29.25 L45.7491667,30.4283333 L44.4608333,31.7166667 C44.1766667,32.0008333 44.1358333,32.4475 44.3641667,32.7783333 C45.0291667,33.7433333 45.4741667,34.8208333 45.6883333,35.9833333 C45.7608333,36.38 46.1058333,36.6666667 46.5083333,36.6666667 L48.3333333,36.6666667 L48.3333333,38.3333333 Z" id="Shape"></path>
                            <rect id="Rectangle-path" x="45" y="24" width="2" height="2"></rect>
                            <rect id="Rectangle-path" x="45" y="21" width="2" height="2"></rect>
                            <rect id="Rectangle-path" x="45" y="18" width="2" height="2"></rect>
                            <rect id="Rectangle-path" x="45" y="14" width="2" height="2"></rect>
                            <rect id="Rectangle-path" x="45" y="11" width="2" height="2"></rect>
                            <rect id="Rectangle-path" x="45" y="8" width="2" height="2"></rect>
                            <rect id="Rectangle-path" x="45" y="4" width="2" height="2"></rect>
                            <rect id="Rectangle-path" x="42" y="4" width="2" height="2"></rect>
                            <rect id="Rectangle-path" x="38" y="4" width="2" height="2"></rect>
                            <rect id="Rectangle-path" x="24" y="43" width="2" height="2"></rect>
                            <rect id="Rectangle-path" x="21" y="43" width="2" height="2"></rect>
                            <rect id="Rectangle-path" x="18" y="43" width="2" height="2"></rect>
                            <rect id="Rectangle-path" x="14" y="43" width="2" height="2"></rect>
                            <rect id="Rectangle-path" x="11" y="43" width="2" height="2"></rect>
                            <rect id="Rectangle-path" x="8" y="43" width="2" height="2"></rect>
                            <rect id="Rectangle-path" x="8" y="40" width="2" height="2"></rect>
                            <rect id="Rectangle-path" x="8" y="37" width="2" height="2"></rect>
                            <rect id="Rectangle-path" x="8" y="33" width="2" height="2"></rect>
                        </g>
                    </g>
                </g>
            </g>
        </g>
    </g>
</svg>