<?xml version="1.0" encoding="UTF-8"?>
<svg width="50px" height="51px" viewBox="0 0 50 51" version="1.1" xmlns="http://www.w3.org/2000/svg" xmlns:xlink="http://www.w3.org/1999/xlink">
    <!-- Generator: sketchtool 49.1 (51147) - http://www.bohemiancoding.com/sketch -->
    <title>9CFDB1E8-88C7-4FDE-AAB0-F64DE82EADBC</title>
    <desc>Created with sketchtool.</desc>
    <defs></defs>
    <g id="Home" stroke="none" stroke-width="1" fill="none" fill-rule="evenodd" opacity="0.800000012">
        <g id="1-Home-[Opt-1]-[desktop]" transform="translate(-585.000000, -2766.000000)" fill="#FFFFFF" fill-rule="nonzero">
            <g id="Technologies" transform="translate(0.000000, 1704.000000)">
                <g id="T3" transform="translate(140.000000, 1047.793750)">
                    <g id="header">
                        <g id="tech-mobile" transform="translate(445.000000, 15.000000)">
                            <path d="M32.5179167,20 L32.5179167,4.16666667 C32.5179167,1.86916667 30.64875,0 28.35125,0 L4.18458333,0 C1.88708333,0 0.0179166667,1.86916667 0.0179166667,4.16666667 L0.0179166667,45.8333333 C0.0179166667,48.1308333 1.88708333,50 4.18458333,50 L28.35125,50 C30.64875,50 32.5179167,48.1308333 32.5179167,45.8333333 L32.5179167,34.1666667 L30.85125,34.1666667 L30.85125,42.5 L29.1845833,42.5 L29.1845833,35 C29.1845833,34.5391667 28.81125,34.1666667 28.35125,34.1666667 L18.35125,34.1666667 C17.89125,34.1666667 17.5179167,34.5391667 17.5179167,35 L17.5179167,42.5 L15.85125,42.5 L15.85125,35 C15.85125,34.5391667 15.4779167,34.1666667 15.0179167,34.1666667 L4.18458333,34.1666667 C3.72458333,34.1666667 3.35125,34.5391667 3.35125,35 L3.35125,42.5 L1.68458333,42.5 L1.68458333,7.5 L30.85125,7.5 L30.85125,20 L32.5179167,20 Z M19.1845833,35.8333333 L27.5179167,35.8333333 L27.5179167,42.5 L19.1845833,42.5 L19.1845833,35.8333333 Z M5.01791667,35.8333333 L14.1845833,35.8333333 L14.1845833,42.5 L5.01791667,42.5 L5.01791667,35.8333333 Z M4.18458333,44.1666667 L15.0179167,44.1666667 L18.35125,44.1666667 L28.35125,44.1666667 L30.85125,44.1666667 L30.85125,45.8333333 C30.85125,47.2116667 29.7295833,48.3333333 28.35125,48.3333333 L4.18458333,48.3333333 C2.80625,48.3333333 1.68458333,47.2116667 1.68458333,45.8333333 L1.68458333,44.1666667 L4.18458333,44.1666667 Z M1.68458333,5.83333333 L1.68458333,4.16666667 C1.68458333,2.78833333 2.80625,1.66666667 4.18458333,1.66666667 L28.35125,1.66666667 C29.7295833,1.66666667 30.85125,2.78833333 30.85125,4.16666667 L30.85125,5.83333333 L1.68458333,5.83333333 Z" id="Shape"></path>
                            <path d="M15.0179167,9.16666667 L4.18458333,9.16666667 C3.72458333,9.16666667 3.35125,9.53916667 3.35125,10 L3.35125,19.1666667 C3.35125,19.6275 3.72458333,20 4.18458333,20 L15.0179167,20 C15.4779167,20 15.85125,19.6275 15.85125,19.1666667 L15.85125,10 C15.85125,9.53916667 15.4779167,9.16666667 15.0179167,9.16666667 Z M14.1845833,18.3333333 L5.01791667,18.3333333 L5.01791667,10.8333333 L14.1845833,10.8333333 L14.1845833,18.3333333 Z" id="Shape"></path>
                            <path d="M47.5179167,42.5483333 C46.9879167,42.0058333 46.25125,41.6666667 45.4345833,41.6666667 C44.6179167,41.6666667 43.88125,42.0058333 43.35125,42.5483333 C42.82125,42.0058333 42.0845833,41.6666667 41.2679167,41.6666667 C40.81875,41.6666667 40.3979167,41.7775 40.0179167,41.9591667 L40.0179167,33.75 C40.0179167,32.5908333 39.3329167,31.5958333 38.35125,31.1258333 L38.35125,22.5 C38.35125,22.0391667 37.9779167,21.6666667 37.5179167,21.6666667 L15.0179167,21.6666667 C14.5579167,21.6666667 14.1845833,22.0391667 14.1845833,22.5 L14.1845833,31.6666667 C14.1845833,32.1275 14.5579167,32.5 15.0179167,32.5 L34.4770833,32.5 C34.2954167,32.88 34.1845833,33.3008333 34.1845833,33.75 L34.1845833,50 L35.85125,50 L35.85125,33.75 C35.85125,33.0608333 36.4120833,32.5 37.10125,32.5 C37.7904167,32.5 38.35125,33.0608333 38.35125,33.75 L38.35125,44.5833333 L38.35125,50 L40.0179167,50 L40.0179167,44.5833333 C40.0179167,43.8941667 40.57875,43.3333333 41.2679167,43.3333333 C41.9570833,43.3333333 42.5179167,43.8941667 42.5179167,44.5833333 L42.5179167,50 L44.1845833,50 L44.1845833,44.5833333 C44.1845833,43.8941667 44.7454167,43.3333333 45.4345833,43.3333333 C46.12375,43.3333333 46.6845833,43.8941667 46.6845833,44.5833333 L46.6845833,50 L48.35125,50 L48.35125,44.5833333 C48.35125,43.8941667 48.9120833,43.3333333 49.60125,43.3333333 L49.60125,41.6666667 C48.7845833,41.6666667 48.0479167,42.0058333 47.5179167,42.5483333 Z M36.6845833,30.8333333 L15.85125,30.8333333 L15.85125,23.3333333 L36.6845833,23.3333333 L36.6845833,30.8333333 Z" id="Shape"></path>
                            <rect id="Rectangle-path" x="10.0179167" y="25.8333333" width="1.66666667" height="1.66666667"></rect>
                            <rect id="Rectangle-path" x="6.68458333" y="25.8333333" width="1.66666667" height="1.66666667"></rect>
                            <rect id="Rectangle-path" x="3.35125" y="25.8333333" width="1.66666667" height="1.66666667"></rect>
                            <rect id="Rectangle-path" x="17.5179167" y="10" width="11.6666667" height="1.66666667"></rect>
                            <rect id="Rectangle-path" x="17.5179167" y="13.3333333" width="11.6666667" height="1.66666667"></rect>
                            <rect id="Rectangle-path" x="17.5179167" y="16.6666667" width="11.6666667" height="1.66666667"></rect>
                            <path d="M43.9404167,24.7558333 L42.7620833,23.5775 L40.2620833,26.0775 C39.93625,26.4033333 39.93625,26.93 40.2620833,27.2558333 L42.7620833,29.7558333 L43.9404167,28.5775 L42.0295833,26.6666667 L43.9404167,24.7558333 Z" id="Shape"></path>
                            <path d="M49.77375,24.7558333 L48.5954167,23.5775 L46.0954167,26.0775 C45.7695833,26.4033333 45.7695833,26.93 46.0954167,27.2558333 L48.5954167,29.7558333 L49.77375,28.5775 L47.8629167,26.6666667 L49.77375,24.7558333 Z" id="Shape"></path>
                            <rect id="Rectangle-path" x="26.6845833" y="25.8333333" width="8.33333333" height="1.66666667"></rect>
                            <rect id="Rectangle-path" x="22.5179167" y="25.8333333" width="2.5" height="1.66666667"></rect>
                            <rect id="Rectangle-path" x="19.1845833" y="25.8333333" width="1.66666667" height="1.66666667"></rect>
                        </g>
                    </g>
                </g>
            </g>
        </g>
    </g>
</svg>