<?xml version="1.0" encoding="UTF-8"?>
<svg width="50px" height="51px" viewBox="0 0 50 51" version="1.1" xmlns="http://www.w3.org/2000/svg" xmlns:xlink="http://www.w3.org/1999/xlink">
    <!-- Generator: sketchtool 49.1 (51147) - http://www.bohemiancoding.com/sketch -->
    <title>745B6DAB-72A9-43A7-8269-FCAE124C92A9</title>
    <desc>Created with sketchtool.</desc>
    <defs></defs>
    <g id="Home" stroke="none" stroke-width="1" fill="none" fill-rule="evenodd" opacity="0.800000012">
        <g id="1-Home-[Opt-1]-[desktop]" transform="translate(-585.000000, -2022.000000)" fill="#FFFFFF" fill-rule="nonzero">
            <g id="Technologies" transform="translate(0.000000, 1704.000000)">
                <g id="T1" transform="translate(140.000000, 303.793750)">
                    <g id="header">
                        <g id="tech-front-end" transform="translate(445.000000, 15.000000)">
                            <path d="M45.8333333,0 L4.16666667,0 C1.86916667,0 0,1.86916667 0,4.16666667 L0,47.5 C0,48.8783333 1.12166667,50 2.5,50 L47.5,50 C48.8783333,50 50,48.8783333 50,47.5 L50,4.16666667 C50,1.86916667 48.1308333,0 45.8333333,0 Z M13.3333333,47.5 C13.3333333,47.96 12.96,48.3333333 12.5,48.3333333 L2.5,48.3333333 C2.04,48.3333333 1.66666667,47.96 1.66666667,47.5 L1.66666667,46.6666667 L13.3333333,46.6666667 L13.3333333,47.5 Z M13.3333333,45 L1.66666667,45 L1.66666667,30.8333333 L13.3333333,30.8333333 L13.3333333,45 Z M13.3333333,29.1666667 L1.66666667,29.1666667 L1.66666667,28.3333333 C1.66666667,27.8733333 2.04,27.5 2.5,27.5 L12.5,27.5 C12.96,27.5 13.3333333,27.8733333 13.3333333,28.3333333 L13.3333333,29.1666667 Z M14.8575,48.3341667 L14.8575,48.3333333 C14.8825,48.2616667 14.8966667,48.185 14.9158333,48.1108333 C14.9275,48.0633333 14.9433333,48.0183333 14.9525,47.97 C14.9816667,47.8175 15,47.6608333 15,47.5 L15,46.6666667 L25.8333333,46.6666667 L25.8333333,47.5 C25.8333333,47.6608333 25.8516667,47.8175 25.8808333,47.97 C25.89,48.0183333 25.9058333,48.0633333 25.9175,48.1108333 C25.9366667,48.1858333 25.95,48.2625 25.9758333,48.3341667 L14.8575,48.3341667 Z M15.2916667,45 L15,45 L15,39.1666667 L17.8841667,39.1666667 L15.2916667,45 Z M19.7075,39.1666667 L25.8333333,39.1666667 L25.8333333,45 L17.1158333,45 L19.7075,39.1666667 Z M25.8333333,34.1666667 L25.8333333,37.5 L15,37.5 L15,33.3333333 L25.9866667,33.3333333 C25.8933333,33.595 25.8333333,33.8733333 25.8333333,34.1666667 Z M29.1666667,48.3333333 L28.3333333,48.3333333 C27.8733333,48.3333333 27.5,47.96 27.5,47.5 L27.5,45.8333333 L27.5,34.1666667 C27.5,33.7066667 27.8733333,33.3333333 28.3333333,33.3333333 L29.1666667,33.3333333 L29.1666667,48.3333333 Z M45,48.3333333 L30.8333333,48.3333333 L30.8333333,33.3333333 L45,33.3333333 L45,48.3333333 Z M48.3333333,47.5 C48.3333333,47.96 47.96,48.3333333 47.5,48.3333333 L46.6666667,48.3333333 L46.6666667,33.3333333 L47.5,33.3333333 C47.755,33.3333333 48,33.455 48.1641667,33.6675 C48.2766667,33.81 48.3333333,33.9775 48.3333333,34.1666667 L48.3333333,47.5 Z M48.3333333,31.6666667 L15,31.6666667 L15,30 L15,28.3333333 C15,26.955 13.8783333,25.8333333 12.5,25.8333333 L2.5,25.8333333 C2.20666667,25.8333333 1.92833333,25.8933333 1.66666667,25.9866667 L1.66666667,4.16666667 C1.66666667,2.78833333 2.78833333,1.66666667 4.16666667,1.66666667 L45.8333333,1.66666667 C47.2116667,1.66666667 48.3333333,2.78833333 48.3333333,4.16666667 L48.3333333,31.6666667 Z M20.7800903,17.8841806 L25.0443879,13.619883 L26.1734965,14.7489917 L21.9091989,19.0132892 L20.7800903,17.8841806 Z M27.1773067,16.2570056 L31.4416043,11.9927081 L32.5707129,13.1218167 L28.3064153,17.3861142 L27.1773067,16.2570056 Z M22.9045343,21.3617556 L25.7476087,18.5186811 L26.878554,19.6496264 L24.0354795,22.4927008 L22.9045343,21.3617556 Z M26.4543286,11.607008 L29.3044391,8.75689745 L30.4353719,9.88783024 L27.5852614,12.7379408 L26.4543286,11.607008 Z" id="Shape"></path>
                        </g>
                    </g>
                </g>
            </g>
        </g>
    </g>
</svg>