<?xml version="1.0" encoding="UTF-8"?>
<svg width="52px" height="72px" viewBox="0 0 52 72" version="1.1" xmlns="http://www.w3.org/2000/svg" xmlns:xlink="http://www.w3.org/1999/xlink">
    <!-- Generator: sketchtool 49.1 (51147) - http://www.bohemiancoding.com/sketch -->
    <title>1915581C-A640-4557-BBA9-CDCF50E9C17E</title>
    <desc>Created with sketchtool.</desc>
    <defs></defs>
    <g id="Home" stroke="none" stroke-width="1" fill="none" fill-rule="evenodd">
        <g id="1-Home-[Opt-1]-[desktop]" transform="translate(-1352.000000, -684.000000)" fill="#7B8AA0">
            <g id="to-top-normal" transform="translate(1352.000000, 684.000000)">
                <path d="M3.61376953,50.84375 L0.659667969,50.84375 L0.659667969,48.6523438 L9.33935547,48.6523438 L9.33935547,50.84375 L6.39599609,50.84375 L6.39599609,67 L3.61376953,67 L3.61376953,50.84375 Z M14.7749023,67.1611328 C14.4597966,67.1611328 14.1393245,67.136068 13.8134766,67.0859375 C13.4876286,67.035807 13.1725276,66.9319669 12.8681641,66.7744141 C12.5638006,66.6168612 12.2773451,66.3912775 12.0087891,66.0976562 C11.740233,65.804035 11.5056976,65.4173201 11.3051758,64.9375 C11.1046539,64.4576799 10.9471034,63.8668655 10.8325195,63.1650391 C10.7179356,62.4632126 10.6606445,61.6253304 10.6606445,60.6513672 L10.6606445,58.3310547 C10.6606445,57.3714145 10.719726,56.5496453 10.8378906,55.8657227 C10.9560553,55.1818 11.1171865,54.6070987 11.3212891,54.1416016 C11.5253916,53.6761044 11.7635078,53.3055027 12.0356445,53.0297852 C12.3077813,52.7540676 12.5960271,52.5428067 12.9003906,52.3959961 C13.2047541,52.2491855 13.5180648,52.1525067 13.840332,52.105957 C14.1625993,52.0594073 14.4777003,52.0361328 14.7856445,52.0361328 C15.0792658,52.0361328 15.3836247,52.057617 15.6987305,52.1005859 C16.0138362,52.1435549 16.3217758,52.2348626 16.6225586,52.3745117 C16.9233413,52.5141609 17.2080065,52.7218411 17.4765625,52.9975586 C17.7451185,53.2732761 17.9814443,53.6438779 18.1855469,54.109375 C18.3896495,54.5748721 18.5507807,55.1531541 18.6689453,55.8442383 C18.78711,56.5353225 18.8461914,57.364253 18.8461914,58.3310547 L18.8461914,60.6513672 C18.8461914,61.6110074 18.7853196,62.4381476 18.6635742,63.1328125 C18.5418288,63.8274774 18.3771169,64.4147111 18.1694336,64.8945312 C17.9617503,65.3743514 17.7218438,65.7628566 17.449707,66.0600586 C17.1775703,66.3572606 16.8911148,66.5882153 16.590332,66.7529297 C16.2895493,66.9176441 15.9834,67.0268552 15.671875,67.0805664 C15.36035,67.1342776 15.0613621,67.1611328 14.7749023,67.1611328 Z M14.7963867,65.0664062 C15.0398775,65.0664062 15.2457674,65.0037441 15.4140625,64.878418 C15.5823576,64.7530918 15.718424,64.547202 15.8222656,64.2607422 C15.9261073,63.9742824 16.0013019,63.5965193 16.0478516,63.1274414 C16.0944013,62.6583635 16.1176758,62.0765009 16.1176758,61.3818359 L16.1176758,57.7402344 C16.1176758,57.0455694 16.0944013,56.4619164 16.0478516,55.9892578 C16.0013019,55.5165992 15.9261073,55.1352554 15.8222656,54.8452148 C15.718424,54.5551743 15.5823576,54.3457038 15.4140625,54.2167969 C15.2457674,54.08789 15.0398775,54.0234375 14.7963867,54.0234375 C14.5385729,54.0234375 14.321941,54.08789 14.1464844,54.2167969 C13.9710278,54.3457038 13.8260097,54.5551743 13.7114258,54.8452148 C13.5968419,55.1352554 13.5144859,55.5165992 13.4643555,55.9892578 C13.414225,56.4619164 13.3891602,57.0455694 13.3891602,57.7402344 L13.3891602,61.3818359 C13.3891602,62.0765009 13.414225,62.6583635 13.4643555,63.1274414 C13.5144859,63.5965193 13.5968419,63.9742824 13.7114258,64.2607422 C13.8260097,64.547202 13.9710278,64.7530918 14.1464844,64.878418 C14.321941,65.0037441 14.5385729,65.0664062 14.7963867,65.0664062 Z M26.269043,54.1416016 L25.1196289,54.1416016 L25.1196289,52.2080078 L26.5053711,52.2080078 L27.0532227,48.3730469 L28.9868164,48.3730469 L28.9868164,52.2080078 L31.3500977,52.2080078 L31.3500977,54.1416016 L28.9868164,54.1416016 L28.9868164,63.5517578 C28.9868164,63.874025 29.0172523,64.1336253 29.078125,64.3305664 C29.1389977,64.5275075 29.223144,64.6814773 29.3305664,64.7924805 C29.4379888,64.9034836 29.5633131,64.9768878 29.706543,65.0126953 C29.8497729,65.0485028 30.000162,65.0664062 30.1577148,65.0664062 C30.4226901,65.0664062 30.6572255,65.03418 30.8613281,64.9697266 C31.0654307,64.9052731 31.2605785,64.8157558 31.4467773,64.7011719 L31.4467773,66.2050781 C31.2892245,66.3984385 31.1191415,66.555989 30.9365234,66.6777344 C30.7539053,66.7994798 30.5659189,66.8979488 30.3725586,66.9731445 C30.1791983,67.0483402 29.9822601,67.1002603 29.7817383,67.1289062 C29.5812164,67.1575522 29.3842783,67.171875 29.190918,67.171875 C28.8113588,67.171875 28.4461281,67.1217453 28.0952148,67.0214844 C27.7443016,66.9212235 27.4327813,66.7296564 27.1606445,66.4467773 C26.8885078,66.1638983 26.6718758,65.7718124 26.5107422,65.2705078 C26.3496086,64.7692032 26.269043,64.117517 26.269043,63.3154297 L26.269043,54.1416016 Z M36.9360352,67.1611328 C36.6209294,67.1611328 36.3004574,67.136068 35.9746094,67.0859375 C35.6487614,67.035807 35.3336604,66.9319669 35.0292969,66.7744141 C34.7249334,66.6168612 34.4384779,66.3912775 34.1699219,66.0976562 C33.9013658,65.804035 33.6668304,65.4173201 33.4663086,64.9375 C33.2657868,64.4576799 33.1082363,63.8668655 32.9936523,63.1650391 C32.8790684,62.4632126 32.8217773,61.6253304 32.8217773,60.6513672 L32.8217773,58.3310547 C32.8217773,57.3714145 32.8808588,56.5496453 32.9990234,55.8657227 C33.1171881,55.1818 33.2783193,54.6070987 33.4824219,54.1416016 C33.6865245,53.6761044 33.9246406,53.3055027 34.1967773,53.0297852 C34.4689141,52.7540676 34.7571599,52.5428067 35.0615234,52.3959961 C35.3658869,52.2491855 35.6791976,52.1525067 36.0014648,52.105957 C36.3237321,52.0594073 36.6388331,52.0361328 36.9467773,52.0361328 C37.2403986,52.0361328 37.5447575,52.057617 37.8598633,52.1005859 C38.174969,52.1435549 38.4829087,52.2348626 38.7836914,52.3745117 C39.0844742,52.5141609 39.3691393,52.7218411 39.6376953,52.9975586 C39.9062513,53.2732761 40.1425771,53.6438779 40.3466797,54.109375 C40.5507823,54.5748721 40.7119135,55.1531541 40.8300781,55.8442383 C40.9482428,56.5353225 41.0073242,57.364253 41.0073242,58.3310547 L41.0073242,60.6513672 C41.0073242,61.6110074 40.9464524,62.4381476 40.824707,63.1328125 C40.7029616,63.8274774 40.5382497,64.4147111 40.3305664,64.8945312 C40.1228831,65.3743514 39.8829766,65.7628566 39.6108398,66.0600586 C39.3387031,66.3572606 39.0522476,66.5882153 38.7514648,66.7529297 C38.4506821,66.9176441 38.1445328,67.0268552 37.8330078,67.0805664 C37.5214828,67.1342776 37.2224949,67.1611328 36.9360352,67.1611328 Z M36.9575195,65.0664062 C37.2010103,65.0664062 37.4069002,65.0037441 37.5751953,64.878418 C37.7434904,64.7530918 37.8795568,64.547202 37.9833984,64.2607422 C38.0872401,63.9742824 38.1624347,63.5965193 38.2089844,63.1274414 C38.2555341,62.6583635 38.2788086,62.0765009 38.2788086,61.3818359 L38.2788086,57.7402344 C38.2788086,57.0455694 38.2555341,56.4619164 38.2089844,55.9892578 C38.1624347,55.5165992 38.0872401,55.1352554 37.9833984,54.8452148 C37.8795568,54.5551743 37.7434904,54.3457038 37.5751953,54.2167969 C37.4069002,54.08789 37.2010103,54.0234375 36.9575195,54.0234375 C36.6997057,54.0234375 36.4830738,54.08789 36.3076172,54.2167969 C36.1321606,54.3457038 35.9871425,54.5551743 35.8725586,54.8452148 C35.7579747,55.1352554 35.6756187,55.5165992 35.6254883,55.9892578 C35.5753578,56.4619164 35.550293,57.0455694 35.550293,57.7402344 L35.550293,61.3818359 C35.550293,62.0765009 35.5753578,62.6583635 35.6254883,63.1274414 C35.6756187,63.5965193 35.7579747,63.9742824 35.8725586,64.2607422 C35.9871425,64.547202 36.1321606,64.7530918 36.3076172,64.878418 C36.4830738,65.0037441 36.6997057,65.0664062 36.9575195,65.0664062 Z M46.1313477,67.8378906 L46.1313477,71.7802734 L43.4135742,71.7802734 L43.4135742,52.2080078 L45.5405273,52.2080078 L45.7875977,53.765625 C45.9093431,53.5651032 46.0543611,53.3610036 46.2226562,53.1533203 C46.3909514,52.945637 46.5878895,52.7612313 46.8134766,52.6000977 C47.0390636,52.438964 47.2932929,52.3064784 47.5761719,52.2026367 C47.8590509,52.0987951 48.1759423,52.046875 48.5268555,52.046875 C48.6772468,52.046875 48.8580719,52.0611978 49.0693359,52.0898438 C49.2806,52.1184897 49.4990223,52.1901036 49.7246094,52.3046875 C49.9501964,52.4192714 50.1757801,52.5893543 50.4013672,52.8149414 C50.6269543,53.0405285 50.8274731,53.3502584 51.0029297,53.7441406 C51.1783863,54.1380228 51.321614,54.6285778 51.4326172,55.2158203 C51.5436203,55.8030628 51.5991211,56.5156208 51.5991211,57.3535156 L51.5991211,61.8330078 C51.5991211,62.6709026 51.5436203,63.3834606 51.4326172,63.9707031 C51.321614,64.5579456 51.1765959,65.0485006 50.9975586,65.4423828 C50.8185212,65.836265 50.6144217,66.1477853 50.3852539,66.3769531 C50.1560861,66.6061209 49.923341,66.7779942 49.6870117,66.8925781 C49.4506824,67.007162 49.221518,67.0805662 48.9995117,67.112793 C48.7775054,67.1450197 48.584148,67.1611328 48.4194336,67.1611328 C47.8465141,67.1611328 47.3684915,67.0501313 46.9853516,66.828125 C46.6022116,66.6061187 46.288901,66.3375667 46.0454102,66.0224609 L46.1313477,67.8378906 Z M46.1313477,63.9814453 C46.1886396,64.1246752 46.2584631,64.2607415 46.3408203,64.3896484 C46.4231775,64.5185553 46.5198562,64.6331375 46.6308594,64.7333984 C46.7418625,64.8336594 46.8671868,64.914225 47.0068359,64.9750977 C47.1464851,65.0359704 47.3094066,65.0664062 47.4956055,65.0664062 C47.6961273,65.0664062 47.8787427,65.028809 48.043457,64.9536133 C48.2081714,64.8784176 48.3513991,64.7423512 48.4731445,64.5454102 C48.5948899,64.3484691 48.6897783,64.074546 48.7578125,63.7236328 C48.8258467,63.3727196 48.8598633,62.9215522 48.8598633,62.3701172 L48.8598633,56.7089844 C48.8598633,56.1575493 48.8258467,55.7081723 48.7578125,55.3608398 C48.6897783,55.0135074 48.5966803,54.7395843 48.4785156,54.5390625 C48.360351,54.3385407 48.2189136,54.2024743 48.0541992,54.1308594 C47.8894849,54.0592444 47.7068695,54.0234375 47.5063477,54.0234375 C47.1625959,54.0234375 46.8815115,54.1254873 46.6630859,54.3295898 C46.4446604,54.5336924 46.267416,54.7718085 46.1313477,55.0439453 L46.1313477,63.9814453 Z" id="To-top"></path>
                <path d="M32.76,7.44 L25.56,0.24 C25.4,0.08 25.24,0 25,0 C24.76,0 24.6,0.08 24.44,0.24 L17.24,7.44 C17.08,7.6 17,7.76 17,8 C17,8.24 17.08,8.4 17.24,8.56 L18.36,9.68 C18.68,10 19.16,10 19.48,9.68 L22.68,6.48 C22.92,6.24 23.4,6.4 23.4,6.8 L23.4,34.5454545 C23.4,35.0254545 23.72,35.3454545 24.2,35.3454545 L25.8,35.3454545 C26.28,35.3454545 26.6,35.0254545 26.6,34.5454545 L26.6,6.72 C26.6,6.4 27,6.16 27.32,6.4 L30.52,9.6 C30.84,9.92 31.32,9.92 31.64,9.6 L32.76,8.48 C32.92,8.32 33,8.16 33,7.92 C33,7.76 32.92,7.6 32.76,7.44 Z" id="Shape" fill-rule="nonzero"></path>
            </g>
        </g>
    </g>
</svg>