<?xml version="1.0" encoding="UTF-8"?>
<svg width="39px" height="32px" viewBox="0 0 39 32" version="1.1" xmlns="http://www.w3.org/2000/svg" xmlns:xlink="http://www.w3.org/1999/xlink">
    <!-- Generator: sketchtool 49.1 (51147) - http://www.bohemiancoding.com/sketch -->
    <title>DE610A61-57A2-4605-907B-5C6F7D1E6282-416-0000F5A483CA7D9A</title>
    <desc>Created with sketchtool.</desc>
    <defs>
        <path d="M43.76562,12.7594211 C42.9129669,13.1375152 42.0278469,13.4357987 41.1196164,13.6517455 C42.1203821,12.7007562 42.8728277,11.5112709 43.2973298,10.1835909 L43.2973298,10.1835909 C43.4184958,9.80456121 43.0068121,9.47680483 42.6645532,9.67974619 L42.6645532,9.67974619 C41.4010584,10.4291977 40.0400694,10.9914267 38.6192927,11.350995 C38.5368624,11.3718598 38.4518123,11.3824326 38.3664815,11.3824326 C38.1076821,11.3824326 37.8560872,11.2863419 37.6581983,11.1119377 C36.1465705,9.77967306 34.2023941,9.0459404 32.1839275,9.0459404 C31.310503,9.0459404 30.4286578,9.18207672 29.562812,9.45060678 C26.8801311,10.2826757 24.810204,12.4955693 24.160773,15.2257808 C23.917131,16.2498441 23.8511681,17.274843 23.9645682,18.2722403 C23.9775737,18.3868568 23.9233999,18.4668544 23.8899973,18.5043738 C23.8313324,18.5701496 23.7481536,18.6078561 23.6617936,18.6078561 C23.6521564,18.6078561 23.6422386,18.6073883 23.6324143,18.6064526 C17.7601202,18.0608782 12.4647446,15.2317689 8.72169743,10.6403727 L8.72169743,10.6403727 C8.53082588,10.4061808 8.16480162,10.4349051 8.01266577,10.6958565 L8.01266577,10.6958565 C7.2796816,11.9533631 6.89232463,13.3916363 6.89232463,14.8551719 C6.89232463,17.0980996 7.79344418,19.2118148 9.35868444,20.7527283 C8.70045829,20.5966627 8.06337772,20.3508688 7.47158236,20.0221768 L7.47158236,20.0221768 C7.18527503,19.8631172 6.83300475,20.0675556 6.82898148,20.3950313 L6.82898148,20.3950313 C6.78800024,23.7270496 8.73881973,26.6919209 11.6612128,28.0269924 C11.6023608,28.0283959 11.5435087,28.0290509 11.4845631,28.0290509 C11.0213253,28.0290509 10.5522866,27.984327 10.0906394,27.8960957 L10.0906394,27.8960957 C9.76821618,27.8345303 9.497347,28.1403926 9.597461,28.4529915 L9.597461,28.4529915 C10.5460177,31.4144009 13.0958371,33.5972603 16.147162,34.0928713 C13.6147457,35.7928444 10.6656867,36.6895664 7.59630381,36.6895664 L6.63941983,36.689005 C6.34459814,36.689005 6.09524879,36.8811864 6.02011651,37.1667452 C5.94610701,37.448 6.08243046,37.744693 6.33383823,37.8909343 C9.79254295,39.903787 13.7376894,40.9676151 17.7444949,40.9676151 C21.2517596,40.9676151 24.5325047,40.271589 27.4956919,38.898998 C30.2121495,37.6406493 32.6126399,35.8418722 34.6304516,33.55263 C36.5101621,31.4201083 37.9800601,28.9583333 38.9991645,26.235794 C39.9706445,23.640596 40.4841264,20.8714616 40.4841264,18.2277036 L40.4841264,18.1017658 C40.4840329,17.6772638 40.6760272,17.277837 41.010988,17.0059386 C42.2820616,15.9739224 43.3889294,14.7590812 44.3007153,13.3951917 L44.3007153,13.3951917 C44.5414567,13.0350621 44.161772,12.583707 43.76562,12.7594211 L43.76562,12.7594211 Z" id="path-1"></path>
    </defs>
    <g id="Home" stroke="none" stroke-width="1" fill="none" fill-rule="evenodd" opacity="0.5">
        <g id="1-Home-[Opt-1]-[desktop]" transform="translate(-414.000000, -10074.000000)">
            <g id="footer-[desktop]" transform="translate(0.000000, 9092.000000)">
                <g id="Socials" transform="translate(0.000000, 922.000000)">
                    <g id="twitter" transform="translate(408.000000, 51.000000)">
                        <mask id="mask-2" fill="white">
                            <use xlink:href="#path-1"></use>
                        </mask>
                        <use id="Shape" fill="#76A9EA" fill-rule="nonzero" xlink:href="#path-1"></use>
                        <g id="🎨-color" mask="url(#mask-2)" fill="#8DBAED">
                            <rect id="Rectangle-3" x="0" y="0" width="50" height="50"></rect>
                        </g>
                    </g>
                </g>
            </g>
        </g>
    </g>
</svg>