<?xml version="1.0" encoding="UTF-8"?>
<svg width="34px" height="40px" viewBox="0 0 34 40" version="1.1" xmlns="http://www.w3.org/2000/svg" xmlns:xlink="http://www.w3.org/1999/xlink">
    <!-- Generator: sketchtool 49.1 (51147) - http://www.bohemiancoding.com/sketch -->
    <title>72BBCB36-511A-49C7-AFEF-22E94212F7C4-416-0000F5A48361F432</title>
    <desc>Created with sketchtool.</desc>
    <defs>
        <path d="M41.0931862,25.1789012 C40.6813181,23.3894506 39.2175818,22.0694506 37.4558236,21.8729671 C33.2848347,21.407033 29.0610985,21.4048352 24.8580216,21.407033 C20.6531865,21.4048352 16.4303294,21.407033 12.2580218,21.8729671 C10.4971427,22.0698901 9.03428557,23.3898902 8.622857,25.1789012 C8.03648338,27.7270332 8.02945042,30.5085717 8.02945042,33.1323081 C8.02945042,35.7560444 8.02945042,38.5371434 8.61582403,41.0852753 C9.0272526,42.8742864 10.4901097,44.1942864 12.2518679,44.3912095 C16.4232965,44.8575831 20.6461535,44.8593414 24.8505491,44.8575831 C29.0553842,44.8597809 33.2773621,44.8575831 37.4501093,44.3912095 C39.2109884,44.1942864 40.6747247,42.8742864 41.0861532,41.0852753 C41.6720873,38.5371434 41.6751642,35.7560444 41.6751642,33.1323081 C41.6747247,30.5081322 41.6791203,27.7270332 41.0931862,25.1789012 Z M17.6263735,27.1538469 L15.1912087,27.1538469 L15.1912087,40.093627 L12.9292307,40.093627 L12.9292307,27.1538469 L10.5384614,27.1538469 L10.5384614,25.0342865 L17.6263735,25.0342865 L17.6263735,27.1538469 Z M23.7701097,40.0940654 L21.7353843,40.0940654 L21.7353843,38.8698896 C20.9270327,39.796483 20.1595601,40.2483511 19.4118678,40.2483511 C18.7564832,40.2483511 18.3054941,39.9828566 18.1019776,39.414505 C17.9912084,39.0751643 17.922637,38.5380215 17.922637,37.7459336 L17.922637,28.8729668 L19.9556041,28.8729668 L19.9556041,37.134505 C19.9556041,37.6109885 19.9556041,37.858461 19.9740656,37.9252742 C20.0228568,38.2408786 20.1771425,38.4008786 20.44967,38.4008786 C20.8575821,38.4008786 21.2839557,38.0865929 21.7349448,37.4487907 L21.7349448,28.8729668 L23.7696701,28.8729668 L23.7701097,40.0940654 L23.7701097,40.0940654 Z M31.4945059,36.7261543 C31.4945059,37.7639565 31.4246158,38.5116488 31.2887916,38.9872532 C31.0171433,39.8219784 30.473407,40.2483521 29.6646158,40.2483521 C28.9410993,40.2483521 28.2430774,39.8465938 27.5630774,39.0070334 L27.5630774,40.0945059 L25.5301104,40.0945059 L25.5301104,25.0342865 L27.5630774,25.0342865 L27.5630774,29.9525281 C28.2197807,29.1441765 28.9169235,28.7353853 29.6646158,28.7353853 C30.473407,28.7353853 31.0175828,29.1613194 31.2887916,30.0013193 C31.4254949,30.4527479 31.4945059,31.1947259 31.4945059,32.2571435 L31.4945059,36.7261543 Z M39.1679112,34.8540665 L35.1015377,34.8540665 L35.1015377,36.8430774 C35.1015377,37.8817587 35.4413179,38.4004401 36.140219,38.4004401 C36.6408783,38.4004401 36.9323069,38.1283522 37.0483509,37.5850555 C37.067252,37.4747258 37.0940651,37.0228577 37.0940651,36.207473 L39.1683508,36.207473 L39.1683508,36.5041763 C39.1683508,37.1595609 39.1432958,37.6109895 39.1248343,37.8140664 C39.0567024,38.2641763 38.8967024,38.672528 38.650109,39.0320884 C38.0870321,39.8470335 37.2527464,40.2487917 36.1907685,40.2487917 C35.1270322,40.2487917 34.3173619,39.8659346 33.7296696,39.0997807 C33.2984609,38.5380225 33.0769224,37.6536269 33.0769224,36.4610994 L33.0769224,32.5309896 C33.0769224,31.3314291 33.2734059,30.4540665 33.7054938,29.8870335 C34.2927466,29.1191215 35.1019773,28.7367039 36.1406586,28.7367039 C37.1608783,28.7367039 37.9696695,29.1191215 38.5393398,29.8870335 C38.9652739,30.4540665 39.1687903,31.3314291 39.1687903,32.5309896 L39.1687903,34.8540665 L39.1679112,34.8540665 Z M36.1221972,30.5661545 C36.7947246,30.5661545 37.1345049,31.0852754 37.1349444,32.1226381 L37.1349444,33.1608799 L35.1019773,33.1608799 L35.1019773,32.1226381 C35.1019773,31.0852754 35.4426367,30.5661545 36.1221972,30.5661545 Z M28.5767023,30.5661545 C29.163076,30.5661545 29.461098,31.0852754 29.461098,32.0971435 L29.461098,36.8865941 C29.461098,37.899781 29.163076,38.4008799 28.5767023,38.4008799 C28.2417573,38.4008799 27.901977,38.2400007 27.5626364,37.899781 L27.5626364,31.06066 C27.9024166,30.7243962 28.2417573,30.5661545 28.5767023,30.5661545 Z M29.7125276,20.3727469 C29.0509891,20.3727469 28.595165,20.1046151 28.3885715,19.5301096 C28.2751649,19.1868129 28.2065935,18.6448349 28.2065935,17.8439558 L28.2065935,8.87692308 L30.2549452,8.87692308 L30.2549452,17.2259338 C30.2549452,17.7072525 30.2549452,17.9573624 30.2800002,18.0246151 C30.3248353,18.3432965 30.4865936,18.5059338 30.7617584,18.5059338 C31.1727475,18.5059338 31.6043958,18.1876921 32.0597805,17.5441756 L32.0597805,8.87692308 L34.1147256,8.87692308 L34.1147256,20.2171426 L32.0597805,20.2171426 L32.0597805,18.9802195 C31.2417585,19.9173623 30.4619782,20.3727469 29.7125276,20.3727469 Z M15.4070329,14.0540661 C15.2004395,12.9621979 14.7441758,11.3621979 14.0131868,9.24000006 C13.5327472,7.82813191 13.032967,6.41054947 12.5525274,5 L14.9503296,5 L16.567912,10.9758243 L18.1226373,5 L20.4268131,5 L17.6857142,14.0540661 L17.6857142,20.2171431 L15.4070329,20.2171431 L15.4070329,14.0540661 Z M23.4808787,20.3727472 C24.5103293,20.3727472 25.3103293,19.9854944 25.8778018,19.2118681 C26.3090106,18.6443955 26.515604,17.7503296 26.515604,16.5450549 L26.515604,12.5740659 C26.515604,11.3617582 26.3094502,10.4756044 25.8778018,9.90285711 C25.3103293,9.12703293 24.5107689,8.73978019 23.4808787,8.73978019 C22.4567029,8.73978019 21.6571425,9.12703293 21.0883513,9.90285711 C20.6518678,10.4756044 20.4452744,11.3617582 20.4452744,12.5740659 L20.4452744,16.5450549 C20.4452744,17.7503296 20.6518678,18.6443955 21.0883513,19.2118681 C21.6567029,19.9854944 22.4567029,20.3727472 23.4808787,20.3727472 Z M22.5002193,12.1621977 C22.5002193,11.1129669 22.8184611,10.58989 23.4808787,10.58989 C24.1432963,10.58989 24.4606589,11.1125274 24.4606589,12.1621977 L24.4606589,16.9323075 C24.4606589,17.9815382 24.1432963,18.5063734 23.4808787,18.5063734 C22.8184611,18.5063734 22.5002193,17.9815382 22.5002193,16.9323075 L22.5002193,12.1621977 Z" id="path-1"></path>
    </defs>
    <g id="Home" stroke="none" stroke-width="1" fill="none" fill-rule="evenodd" opacity="0.5">
        <g id="1-Home-[Opt-1]-[desktop]" transform="translate(-991.000000, -10070.000000)">
            <g id="footer-[desktop]" transform="translate(0.000000, 9092.000000)">
                <g id="Socials" transform="translate(0.000000, 922.000000)">
                    <g id="youtube" transform="translate(983.000000, 51.000000)">
                        <mask id="mask-2" fill="white">
                            <use xlink:href="#path-1"></use>
                        </mask>
                        <use id="Combined-Shape" fill="#D8362A" fill-rule="nonzero" xlink:href="#path-1"></use>
                        <g id="🎨-color" mask="url(#mask-2)" fill="#8DBAED">
                            <rect id="Rectangle-3" x="0" y="0" width="50" height="50"></rect>
                        </g>
                    </g>
                </g>
            </g>
        </g>
    </g>
</svg>