<?xml version="1.0" encoding="UTF-8"?>
<svg width="50px" height="51px" viewBox="0 0 50 51" version="1.1" xmlns="http://www.w3.org/2000/svg" xmlns:xlink="http://www.w3.org/1999/xlink">
    <!-- Generator: Sketch 49.2 (51160) - http://www.bohemiancoding.com/sketch -->
    <title>check-mark</title>
    <desc>Created with Sketch.</desc>
    <defs></defs>
    <g id="Home" stroke="none" stroke-width="1" fill="none" fill-rule="evenodd">
        <g id="1-Home-[Opt-1]-[desktop]" transform="translate(-180.000000, -5559.000000)" fill="#2172D0">
            <g id="Awards-1" transform="translate(0.000000, 5313.000000)">
                <g id="HTP" transform="translate(120.000000, 150.000000)">
                    <g id="check-mark" transform="translate(60.000000, 96.000000)">
                        <path d="M44.8241119,25.2500447 L49.3162887,29.6445655 C49.9673293,30.2956061 50.1626413,31.0605777 49.9022248,31.9394819 C49.6418082,32.818386 49.0884251,33.3554941 48.2420725,33.5508062 L42.0897434,35.1133024 L43.8475517,41.1679755 C44.1079683,42.0794312 43.9126562,42.8606793 43.2616156,43.5117199 C42.610575,44.1627605 41.8293269,44.3580726 40.9178712,44.097656 L34.8631981,42.3398477 L33.3007019,48.4921768 C33.1053898,49.4036325 32.5520052,49.9732935 31.6405496,50.2011571 C30.7290939,50.4290206 29.9803973,50.2174336 29.3944612,49.566393 L24.9999404,45.0742162 L20.6054196,49.566393 C19.954379,50.2174336 19.1894074,50.4290206 18.3105032,50.2011571 C17.4315991,49.9732935 16.894491,49.4036325 16.6991789,48.4921768 L15.1366827,42.3398477 L9.0820096,44.097656 C8.17055393,44.3580726 7.3893058,44.1627605 6.73826518,43.5117199 C6.08722457,42.8606793 5.89191254,42.0794312 6.15232908,41.1679755 L7.91013739,35.1133024 L1.75780831,33.5508062 C0.911455664,33.3554941 0.35807256,32.818386 0.0976560172,31.9394819 C-0.162760525,31.0605777 0.032551509,30.2956061 0.68359212,29.6445655 L5.17576891,25.2500447 L0.68359212,20.8555239 C0.032551509,20.2044833 -0.162760525,19.4395117 0.0976560172,18.5606075 C0.35807256,17.6817034 0.911455664,17.1445953 1.75780831,16.9492832 L7.91013739,15.386787 L6.15232908,9.3321139 C5.89191254,8.42065824 6.08722457,7.6394101 6.73826518,6.98836949 C7.3893058,6.33732888 8.17055393,6.14201685 9.0820096,6.40243339 L15.1366827,8.1602417 L16.6991789,2.00791262 C16.894491,1.09645695 17.4478756,0.52679586 18.3593312,0.298932317 C19.2707869,0.0710687734 20.0194835,0.282655817 20.6054196,0.933696428 L24.9999404,5.52352924 L29.3944612,0.933696428 C30.0455018,0.282655817 30.8104734,0.0873437828 31.6893776,0.347760325 C32.5682817,0.608176868 33.1053898,1.16155997 33.3007019,2.00791262 L34.8631981,8.1602417 L40.9178712,6.40243339 C41.8293269,6.14201685 42.610575,6.33732888 43.2616156,6.98836949 C43.9126562,7.6394101 44.1079683,8.42065824 43.8475517,9.3321139 L42.0897434,15.386787 L48.2420725,16.9492832 C49.0884251,17.1445953 49.6418082,17.6817034 49.9022248,18.5606075 C50.1626413,19.4395117 49.9673293,20.2044833 49.3162887,20.8555239 L44.8241119,25.2500447 Z M21.7968588,32.6484383 C21.9791502,32.856771 22.2135247,32.9609376 22.4999821,32.9609376 C22.7864396,32.9609376 23.020814,32.856771 23.2031054,32.6484383 L34.7265155,21.1640907 C34.9088069,20.9817993 34.9999523,20.7474248 34.9999523,20.4609674 C34.9999523,20.1745099 34.9088069,19.9401355 34.7265155,19.7578441 L33.2812064,18.3515974 C33.098915,18.1432648 32.8710511,18.0390982 32.5976143,18.0390982 C32.3241774,18.0390982 32.0832924,18.1432648 31.8749598,18.3515974 L22.4999821,27.7265751 L18.1249925,23.3515855 C17.9166599,23.1432529 17.6757749,23.0390862 17.402338,23.0390862 C17.1289012,23.0390862 16.9010373,23.1432529 16.7187459,23.3515855 L15.2734368,24.7578322 C15.0911454,24.9401236 15,25.174498 15,25.4609555 C15,25.7474129 15.0911454,25.9817874 15.2734368,26.1640788 L21.7968588,32.6484383 Z" id="Combined-Shape"></path>
                    </g>
                </g>
            </g>
        </g>
    </g>
</svg>