<?xml version="1.0" encoding="UTF-8"?>
<svg width="214px" height="123px" viewBox="0 0 214 123" version="1.1" xmlns="http://www.w3.org/2000/svg" xmlns:xlink="http://www.w3.org/1999/xlink">
    <!-- Generator: sketchtool 49.2 (51160) - http://www.bohemiancoding.com/sketch -->
    <title>B0ED5614-13E2-42AB-8738-1E81631FE2B6</title>
    <desc>Created with sketchtool.</desc>
    <defs></defs>
    <g id="Home" stroke="none" stroke-width="1" fill="none" fill-rule="evenodd">
        <g id="1-Home-[Opt-1]-[desktop]" transform="translate(-1026.000000, -5561.000000)">
            <g id="Awards-1" transform="translate(0.000000, 5313.000000)">
                <g id="HTP" transform="translate(120.000000, 150.000000)">
                    <g id="htp-logo-blue" transform="translate(904.000000, 98.000000)">
                        <path d="M2.14550781,122 L2.14550781,103.515625 L8.18847656,103.515625 C10.194346,103.515625 11.7029572,103.930334 12.7143555,104.759766 C13.7257538,105.589197 14.2314453,106.816398 14.2314453,108.441406 C14.2314453,109.304692 13.9860051,110.068519 13.4951172,110.73291 C13.0042293,111.397301 12.3356162,111.911457 11.4892578,112.275391 C12.4879607,112.554689 13.2771781,113.085771 13.8569336,113.868652 C14.4366891,114.651534 14.7265625,115.58463 14.7265625,116.667969 C14.7265625,118.326831 14.189133,119.630204 13.1142578,120.578125 C12.0393826,121.526046 10.5201921,122 8.55664062,122 L2.14550781,122 Z M4.58300781,113.354492 L4.58300781,120.006836 L8.60742188,120.006836 C9.74154213,120.006836 10.6365527,119.712731 11.2924805,119.124512 C11.9484082,118.536293 12.2763672,117.725917 12.2763672,116.693359 C12.2763672,114.467437 11.0660928,113.354492 8.64550781,113.354492 L4.58300781,113.354492 Z M4.58300781,111.399414 L8.26464844,111.399414 C9.33106002,111.399414 10.1837533,111.132815 10.8227539,110.599609 C11.4617545,110.066404 11.78125,109.342778 11.78125,108.428711 C11.78125,107.413081 11.485029,106.674644 10.8925781,106.213379 C10.3001272,105.752114 9.39876907,105.521484 8.18847656,105.521484 L4.58300781,105.521484 L4.58300781,111.399414 Z M39.3802738,113.456055 L31.3695316,113.456055 L31.3695316,120.006836 L40.6751957,120.006836 L40.6751957,122 L28.9320316,122 L28.9320316,103.515625 L40.5482426,103.515625 L40.5482426,105.521484 L31.3695316,105.521484 L31.3695316,111.462891 L39.3802738,111.462891 L39.3802738,113.456055 Z M56.7595711,120.006836 L65.5193367,120.006836 L65.5193367,122 L54.3093758,122 L54.3093758,103.515625 L56.7595711,103.515625 L56.7595711,120.006836 Z M89.3478527,117.175781 L81.6037121,117.175781 L79.8644543,122 L77.3507824,122 L84.4093761,103.515625 L86.5421886,103.515625 L93.6134777,122 L91.1125011,122 L89.3478527,117.175781 Z M82.3400402,115.169922 L88.6242199,115.169922 L85.4757824,106.524414 L82.3400402,115.169922 Z M113.481056,114.522461 L109.139259,114.522461 L109.139259,122 L106.689064,122 L106.689064,103.515625 L112.808205,103.515625 C114.890246,103.515625 116.491956,103.989579 117.61338,104.9375 C118.734805,105.885421 119.295509,107.264965 119.295509,109.076172 C119.295509,110.227219 118.984477,111.230139 118.362404,112.084961 C117.74033,112.939783 116.874942,113.578774 115.766212,114.001953 L120.108009,121.847656 L120.108009,122 L117.492775,122 L113.481056,114.522461 Z M109.139259,112.529297 L112.884377,112.529297 C114.094669,112.529297 115.057387,112.216149 115.77256,111.589844 C116.487733,110.963539 116.845314,110.125656 116.845314,109.076172 C116.845314,107.933588 116.50466,107.05762 115.823341,106.448242 C115.142023,105.838864 114.158146,105.529948 112.871681,105.521484 L109.139259,105.521484 L109.139259,112.529297 Z M146.323244,103.515625 L146.323244,116.083984 C146.314781,117.827483 145.766772,119.253575 144.679201,120.362305 C143.591631,121.471034 142.116873,122.093098 140.254885,122.228516 L139.607424,122.253906 C137.584627,122.253906 135.972339,121.708013 134.77051,120.616211 C133.568681,119.524409 132.959312,118.022145 132.942385,116.109375 L132.942385,103.515625 L135.354494,103.515625 L135.354494,116.033203 C135.354494,117.370449 135.722654,118.409339 136.458986,119.149902 C137.195318,119.890466 138.244787,120.260742 139.607424,120.260742 C140.986988,120.260742 142.042804,119.892582 142.774904,119.15625 C143.507004,118.419918 143.873049,117.383145 143.873049,116.045898 L143.873049,103.515625 L146.323244,103.515625 Z M166.216213,113.760742 C164.125708,113.159828 162.604402,112.421391 161.652248,111.54541 C160.700095,110.669429 160.224026,109.588223 160.224026,108.301758 C160.224026,106.846021 160.805888,105.642095 161.969631,104.689941 C163.133374,103.737788 164.646217,103.261719 166.508205,103.261719 C167.777743,103.261719 168.90973,103.507159 169.904202,103.998047 C170.898673,104.488935 171.668847,105.166011 172.214748,106.029297 C172.76065,106.892582 173.033596,107.836258 173.033596,108.860352 L170.583401,108.860352 C170.583401,107.743158 170.227936,106.865075 169.516994,106.226074 C168.806053,105.587074 167.803134,105.267578 166.508205,105.267578 C165.306376,105.267578 164.369049,105.532061 163.696194,106.061035 C163.023339,106.590009 162.686916,107.324214 162.686916,108.263672 C162.686916,109.016931 163.006412,109.653806 163.645412,110.174316 C164.284413,110.694827 165.371967,111.170896 166.908108,111.602539 C168.444248,112.034182 169.646059,112.510251 170.513577,113.030762 C171.381094,113.551272 172.024317,114.158525 172.443264,114.852539 C172.862211,115.546553 173.071682,116.363277 173.071682,117.302734 C173.071682,118.800789 172.487703,120.000484 171.319729,120.901855 C170.151754,121.803227 168.590246,122.253906 166.635159,122.253906 C165.365621,122.253906 164.180737,122.010582 163.080471,121.523926 C161.980205,121.03727 161.131744,120.370772 160.535061,119.524414 C159.938378,118.678056 159.640041,117.717453 159.640041,116.642578 L162.090237,116.642578 C162.090237,117.759771 162.50283,118.642087 163.32803,119.289551 C164.153229,119.937015 165.255594,120.260742 166.635159,120.260742 C167.921623,120.260742 168.907616,119.998375 169.593166,119.473633 C170.278717,118.948891 170.621487,118.233728 170.621487,117.328125 C170.621487,116.422522 170.304107,115.72217 169.669338,115.227051 C169.034569,114.731931 167.883539,114.243166 166.216213,113.760742 Z" id="BELARUS" fill="#617087"></path>
                        <path d="M173,62.0761607 L173,92 L151,92 L151,32 C151,14.326888 165.550746,0 183.5,0 C201.449254,0 216,14.326888 216,32 C216,49.673112 201.449254,64 183.5,64 C181.375618,64 180,64 177,64 L177,43 C178.282715,43.5583529 182.011746,43 183.5,43 C189.29899,43 194,38.2989899 194,32.5 C194,26.7010101 189.29899,22 183.5,22 C177.70101,22 173,26.7010101 173,32.5 C173,32.9803923 173.037257,33.4841143 173.104852,34 L173,34 L173,62.0761607 Z" id="Combined-Shape" fill="#2E3841"></path>
                        <path d="M124,25 L124,93 L102,93 L102,25 L82,25 L82,3 L144,3 L144,25 L124,25 Z" id="Combined-Shape" fill="#2E3841"></path>
                        <path d="M24,34 L48,34 L48,3 L70,3 L70,93 L48,93 L48,56 L24,56 L24,93 L2,93 L2,3 L24,3 L24,34 Z" id="Combined-Shape" fill="#287BDD"></path>
                    </g>
                </g>
            </g>
        </g>
    </g>
</svg>