<?xml version="1.0" encoding="UTF-8"?>
<svg width="50px" height="50px" viewBox="0 0 50 50" version="1.1" xmlns="http://www.w3.org/2000/svg" xmlns:xlink="http://www.w3.org/1999/xlink">
    <!-- Generator: Sketch 49.3 (51167) - http://www.bohemiancoding.com/sketch -->
    <title>Icons / Home / Service / dedicated</title>
    <desc>Created with Sketch.</desc>
    <defs>
        <path d="M11.71875,7.8125 L11.296875,7.8125 C12.0421875,6.98203125 12.5,5.8890625 12.5,4.6875 C12.5,2.10234375 10.3976563,0 7.8125,0 C5.22734375,0 3.125,2.10234375 3.125,4.6875 C3.125,5.8890625 3.5828125,6.98203125 4.328125,7.8125 L3.90625,7.8125 C1.75234375,7.8125 0,9.56484375 0,11.71875 L0,17.1875 C0,17.6195313 0.35,17.96875 0.78125,17.96875 L3.125,17.96875 L3.125,27.34375 C3.125,27.7757813 3.475,28.125 3.90625,28.125 L7.8125,28.125 L11.71875,28.125 C12.15,28.125 12.5,27.7757813 12.5,27.34375 L12.5,17.96875 L14.84375,17.96875 C15.275,17.96875 15.625,17.6195313 15.625,17.1875 L15.625,11.71875 C15.625,9.56484375 13.8726563,7.8125 11.71875,7.8125 Z M28.90625,7.8125 L28.484375,7.8125 C29.2296875,6.98203125 29.6875,5.8890625 29.6875,4.6875 C29.6875,2.10234375 27.5851562,0 25,0 C22.4148438,0 20.3125,2.10234375 20.3125,4.6875 C20.3125,5.8890625 20.7703125,6.98203125 21.515625,7.8125 L21.09375,7.8125 C18.9398437,7.8125 17.1875,9.56484375 17.1875,11.71875 L17.1875,17.1875 C17.1875,17.6195313 17.5375,17.96875 17.96875,17.96875 L20.3125,17.96875 L20.3125,27.34375 C20.3125,27.7757813 20.6625,28.125 21.09375,28.125 L25,28.125 L28.90625,28.125 C29.3375,28.125 29.6875,27.7757813 29.6875,27.34375 L29.6875,17.96875 L32.03125,17.96875 C32.4625,17.96875 32.8125,17.6195313 32.8125,17.1875 L32.8125,11.71875 C32.8125,9.56484375 31.0601562,7.8125 28.90625,7.8125 Z M46.09375,7.8125 L45.671875,7.8125 C46.4171875,6.98203125 46.875,5.8890625 46.875,4.6875 C46.875,2.10234375 44.7726562,0 42.1875,0 C39.6023438,0 37.5,2.10234375 37.5,4.6875 C37.5,5.8890625 37.9578125,6.98203125 38.703125,7.8125 L38.28125,7.8125 C36.1273438,7.8125 34.375,9.56484375 34.375,11.71875 L34.375,17.1875 C34.375,17.6195313 34.725,17.96875 35.15625,17.96875 L37.5,17.96875 L37.5,27.34375 C37.5,27.7757813 37.85,28.125 38.28125,28.125 L42.1875,28.125 L46.09375,28.125 C46.525,28.125 46.875,27.7757813 46.875,27.34375 L46.875,17.96875 L49.21875,17.96875 C49.65,17.96875 50,17.6195313 50,17.1875 L50,11.71875 C50,9.56484375 48.2476562,7.8125 46.09375,7.8125 Z M7.8125,1.5625 C9.5359375,1.5625 10.9375,2.9640625 10.9375,4.6875 C10.9375,6.4109375 9.5359375,7.8125 7.8125,7.8125 C6.0890625,7.8125 4.6875,6.4109375 4.6875,4.6875 C4.6875,2.9640625 6.0890625,1.5625 7.8125,1.5625 Z M14.0625,16.40625 L12.5,16.40625 L12.5,11.71875 L10.9375,11.71875 L10.9375,26.5625 L8.59375,26.5625 L8.59375,17.96875 L7.03125,17.96875 L7.03125,26.5625 L4.6875,26.5625 L4.6875,11.71875 L3.125,11.71875 L3.125,16.40625 L1.5625,16.40625 L1.5625,11.71875 C1.5625,10.4265625 2.6140625,9.375 3.90625,9.375 L11.71875,9.375 C13.0109375,9.375 14.0625,10.4265625 14.0625,11.71875 L14.0625,16.40625 Z M11.71875,37.5 L11.296875,37.5 C12.0421875,36.6695312 12.5,35.5765625 12.5,34.375 C12.5,31.7898438 10.3976563,29.6875 7.8125,29.6875 C5.22734375,29.6875 3.125,31.7898438 3.125,34.375 C3.125,35.5765625 3.5828125,36.6695312 4.328125,37.5 L3.90625,37.5 C1.75234375,37.5 0,39.2523438 0,41.40625 L0,46.875 C0,47.3070312 0.35,47.65625 0.78125,47.65625 L3.125,47.65625 L3.125,48.4375 L4.6875,48.4375 L4.6875,41.40625 L3.125,41.40625 L3.125,46.09375 L1.5625,46.09375 L1.5625,41.40625 C1.5625,40.1140625 2.6140625,39.0625 3.90625,39.0625 L11.71875,39.0625 C13.0109375,39.0625 14.0625,40.1140625 14.0625,41.40625 L14.0625,46.09375 L12.5,46.09375 L12.5,41.40625 L10.9375,41.40625 L10.9375,48.4375 L12.5,48.4375 L12.5,47.65625 L14.84375,47.65625 C15.275,47.65625 15.625,47.3070312 15.625,46.875 L15.625,41.40625 C15.625,39.2523438 13.8726563,37.5 11.71875,37.5 Z M7.8125,37.5 C6.0890625,37.5 4.6875,36.0984375 4.6875,34.375 C4.6875,32.6515625 6.0890625,31.25 7.8125,31.25 C9.5359375,31.25 10.9375,32.6515625 10.9375,34.375 C10.9375,36.0984375 9.5359375,37.5 7.8125,37.5 Z M25,1.5625 C26.7234375,1.5625 28.125,2.9640625 28.125,4.6875 C28.125,6.4109375 26.7234375,7.8125 25,7.8125 C23.2765625,7.8125 21.875,6.4109375 21.875,4.6875 C21.875,2.9640625 23.2765625,1.5625 25,1.5625 Z M31.25,16.40625 L29.6875,16.40625 L29.6875,11.71875 L28.125,11.71875 L28.125,26.5625 L25.78125,26.5625 L25.78125,17.96875 L24.21875,17.96875 L24.21875,26.5625 L21.875,26.5625 L21.875,11.71875 L20.3125,11.71875 L20.3125,16.40625 L18.75,16.40625 L18.75,11.71875 C18.75,10.4265625 19.8015625,9.375 21.09375,9.375 L28.90625,9.375 C30.1984375,9.375 31.25,10.4265625 31.25,11.71875 L31.25,16.40625 Z M42.1875,1.5625 C43.9109375,1.5625 45.3125,2.9640625 45.3125,4.6875 C45.3125,6.4109375 43.9109375,7.8125 42.1875,7.8125 C40.4640625,7.8125 39.0625,6.4109375 39.0625,4.6875 C39.0625,2.9640625 40.4640625,1.5625 42.1875,1.5625 Z M48.4375,16.40625 L46.875,16.40625 L46.875,11.71875 L45.3125,11.71875 L45.3125,26.5625 L42.96875,26.5625 L42.96875,17.96875 L41.40625,17.96875 L41.40625,26.5625 L39.0625,26.5625 L39.0625,11.71875 L37.5,11.71875 L37.5,16.40625 L35.9375,16.40625 L35.9375,11.71875 C35.9375,10.4265625 36.9890625,9.375 38.28125,9.375 L46.09375,9.375 C47.3859375,9.375 48.4375,10.4265625 48.4375,11.71875 L48.4375,16.40625 Z M28.90625,37.5 L28.484375,37.5 C29.2296875,36.6695312 29.6875,35.5765625 29.6875,34.375 C29.6875,31.7898438 27.5851562,29.6875 25,29.6875 C22.4148438,29.6875 20.3125,31.7898438 20.3125,34.375 C20.3125,35.5765625 20.7703125,36.6695312 21.515625,37.5 L21.09375,37.5 C18.9398437,37.5 17.1875,39.2523438 17.1875,41.40625 L17.1875,46.875 C17.1875,47.3070312 17.5375,47.65625 17.96875,47.65625 L20.3125,47.65625 L20.3125,48.4375 L21.875,48.4375 L21.875,41.40625 L20.3125,41.40625 L20.3125,46.09375 L18.75,46.09375 L18.75,41.40625 C18.75,40.1140625 19.8015625,39.0625 21.09375,39.0625 L28.90625,39.0625 C30.1984375,39.0625 31.25,40.1140625 31.25,41.40625 L31.25,46.09375 L29.6875,46.09375 L29.6875,41.40625 L28.125,41.40625 L28.125,48.4375 L29.6875,48.4375 L29.6875,47.65625 L32.03125,47.65625 C32.4625,47.65625 32.8125,47.3070312 32.8125,46.875 L32.8125,41.40625 C32.8125,39.2523438 31.0601562,37.5 28.90625,37.5 Z M25,37.5 C23.2765625,37.5 21.875,36.0984375 21.875,34.375 C21.875,32.6515625 23.2765625,31.25 25,31.25 C26.7234375,31.25 28.125,32.6515625 28.125,34.375 C28.125,36.0984375 26.7234375,37.5 25,37.5 Z M46.09375,37.5 L45.671875,37.5 C46.4171875,36.6695312 46.875,35.5765625 46.875,34.375 C46.875,31.7898438 44.7726562,29.6875 42.1875,29.6875 C39.6023438,29.6875 37.5,31.7898438 37.5,34.375 C37.5,35.5765625 37.9578125,36.6695312 38.703125,37.5 L38.28125,37.5 C36.1273438,37.5 34.375,39.2523438 34.375,41.40625 L34.375,46.875 C34.375,47.3070312 34.725,47.65625 35.15625,47.65625 L37.5,47.65625 L37.5,48.4375 L39.0625,48.4375 L39.0625,41.40625 L37.5,41.40625 L37.5,46.09375 L35.9375,46.09375 L35.9375,41.40625 C35.9375,40.1140625 36.9890625,39.0625 38.28125,39.0625 L46.09375,39.0625 C47.3859375,39.0625 48.4375,40.1140625 48.4375,41.40625 L48.4375,46.09375 L46.875,46.09375 L46.875,41.40625 L45.3125,41.40625 L45.3125,48.4375 L46.875,48.4375 L46.875,47.65625 L49.21875,47.65625 C49.65,47.65625 50,47.3070312 50,46.875 L50,41.40625 C50,39.2523438 48.2476562,37.5 46.09375,37.5 Z M42.1875,37.5 C40.4640625,37.5 39.0625,36.0984375 39.0625,34.375 C39.0625,32.6515625 40.4640625,31.25 42.1875,31.25 C43.9109375,31.25 45.3125,32.6515625 45.3125,34.375 C45.3125,36.0984375 43.9109375,37.5 42.1875,37.5 Z" id="path-1"></path>
    </defs>
    <g id="Icons-/-Home-/-Service-/-dedicated" stroke="none" stroke-width="1" fill="none" fill-rule="evenodd">
        <mask id="mask-2" fill="white">
            <use xlink:href="#path-1"></use>
        </mask>
        <use id="Combined-Shape" fill="#3986E0" fill-rule="nonzero" xlink:href="#path-1"></use>
    </g>
</svg>