<?xml version="1.0" encoding="UTF-8"?>
<svg width="50px" height="50px" viewBox="0 0 50 50" version="1.1" xmlns="http://www.w3.org/2000/svg" xmlns:xlink="http://www.w3.org/1999/xlink">
    <!-- Generator: Sketch 49.3 (51167) - http://www.bohemiancoding.com/sketch -->
    <title>Icons / Home / Service / mob</title>
    <desc>Created with Sketch.</desc>
    <defs>
        <path d="M47.5806452,11.2903226 C48.9145161,11.2903226 50,12.3758065 50,13.7096774 L50,47.5806452 C50,48.9145161 48.9145161,50 47.5806452,50 L28.2258065,50 L4.03225806,50 C1.80887097,50 8.8817842e-16,48.191129 8.8817842e-16,45.9677419 L8.8817842e-16,4.03225806 C8.8817842e-16,1.80887097 1.80887097,0 4.03225806,0 L31.4516129,0 C33.675,0 35.483871,1.80887097 35.483871,4.03225806 L35.483871,11.2903226 L47.5806452,11.2903226 Z M1.61290323,4.03225806 L1.61290323,4.83870968 L33.8709677,4.83870968 L33.8709677,4.03225806 C33.8709677,2.6983871 32.7854839,1.61290323 31.4516129,1.61290323 L4.03225806,1.61290323 C2.6983871,1.61290323 1.61290323,2.6983871 1.61290323,4.03225806 Z M1.61290323,6.4516129 L1.61290323,41.9354839 L25.8064516,41.9354839 L25.8064516,27.4193548 C25.8064516,27.4193548 25.6247346,21.6666667 25.6247346,14.6239118 C25.6247346,11.6666667 26.3852417,11.2903226 28.75,11.2903226 C31.3852417,11.2903226 33.8709677,11.2903226 33.8709677,11.2903226 L33.8709677,6.4516129 L1.61290323,6.4516129 Z M4.03225806,48.3870968 L25.9548387,48.3870968 C25.8645161,48.133871 25.8064516,47.8645161 25.8064516,47.5806452 L25.8064516,43.5483871 L1.61290323,43.5483871 L1.61290323,45.9677419 C1.61290323,47.3016129 2.6983871,48.3870968 4.03225806,48.3870968 Z M48.3870968,47.5806452 L48.3870968,45.1612903 L27.4193548,45.1612903 L27.4193548,47.5806452 C27.4193548,48.025 27.7814516,48.3870968 28.2258065,48.3870968 L47.5806452,48.3870968 C48.025,48.3870968 48.3870968,48.025 48.3870968,47.5806452 Z M48.3870968,43.5483871 L48.3870968,17.7419355 L27.4193548,17.7419355 L27.4193548,43.5483871 L48.3870968,43.5483871 Z M48.3870968,16.1290323 L48.3870968,13.7096774 C48.3870968,13.2653226 48.025,12.9032258 47.5806452,12.9032258 L28.2258065,12.9032258 C27.7814516,12.9032258 27.4193548,13.2653226 27.4193548,13.7096774 L27.4193548,16.1290323 L48.3870968,16.1290323 Z M14.516129,45.1612903 L20.9677419,45.1612903 L20.9677419,46.7741935 L14.516129,46.7741935 L14.516129,45.1612903 Z M17.1918548,21.9772722 L11.8350199,27.3341071 L10.5723413,26.0714285 L15.9291763,20.7145936 L17.1918548,21.9772722 Z M16.3945896,29.2281143 L12.8231032,32.7996007 L11.5604247,31.5369221 L15.131911,27.9654358 L16.3945896,29.2281143 Z M23.2280745,22.7629912 L17.8712396,28.1198261 L16.608561,26.8571476 L21.9653959,21.5003126 L23.2280745,22.7629912 Z M22.9460369,16.5197005 L19.3657118,20.1000256 L18.1030332,18.837347 L21.6833583,15.2570219 L22.9460369,16.5197005 Z M40.097611,25.8457704 L34.7407761,31.2026053 L33.4780976,29.9399268 L38.8349325,24.5830918 L40.097611,25.8457704 Z M41.097611,30.8457704 L35.7407761,36.2026053 L34.4780976,34.9399268 L39.8349325,29.5830918 L41.097611,30.8457704 Z" id="path-1"></path>
    </defs>
    <g id="Icons-/-Home-/-Service-/-mob" stroke="none" stroke-width="1" fill="none" fill-rule="evenodd">
        <mask id="mask-2" fill="white">
            <use xlink:href="#path-1"></use>
        </mask>
        <use id="mask" fill="#3986E0" fill-rule="nonzero" xlink:href="#path-1"></use>
    </g>
</svg>