<?xml version="1.0" encoding="UTF-8"?>
<svg width="50px" height="50px" viewBox="0 0 50 50" version="1.1" xmlns="http://www.w3.org/2000/svg" xmlns:xlink="http://www.w3.org/1999/xlink">
    <!-- Generator: Sketch 49.3 (51167) - http://www.bohemiancoding.com/sketch -->
    <title>Icons / Home / Service / support</title>
    <desc>Created with Sketch.</desc>
    <defs>
        <path d="M45.8333333,0 L4.16666667,0 C1.86916667,0 0,1.86916667 0,4.16666667 L0,36.6666667 C0,38.9641667 1.86916667,40.8333333 4.16666667,40.8333333 L20.4775,40.8333333 L17.75,48.3333333 L15,48.3333333 L15,50 L18.3333333,50 L31.6666667,50 L35,50 L35,48.3333333 L32.25,48.3333333 L29.5225,40.8333333 L45.8333333,40.8333333 C48.1308333,40.8333333 50,38.9641667 50,36.6666667 L50,4.16666667 C50,1.86916667 48.1308333,0 45.8333333,0 Z M30.4766667,48.3333333 L19.5233333,48.3333333 L22.25,40.8333333 L27.75,40.8333333 L30.4766667,48.3333333 Z M48.3333333,36.6666667 C48.3333333,38.045 47.2116667,39.1666667 45.8333333,39.1666667 L28.3333333,39.1666667 L21.6666667,39.1666667 L4.16666667,39.1666667 C2.78833333,39.1666667 1.66666667,38.045 1.66666667,36.6666667 L1.66666667,35.8333333 L48.3333333,35.8333333 L48.3333333,36.6666667 Z M48.3333333,34.1666667 L1.66666667,34.1666667 L1.66666667,4.16666667 C1.66666667,2.78833333 2.78833333,1.66666667 4.16666667,1.66666667 L45.8333333,1.66666667 C47.2116667,1.66666667 48.3333333,2.78833333 48.3333333,4.16666667 L48.3333333,34.1666667 Z M25,14.1666667 C22.7025,14.1666667 20.8333333,16.0358333 20.8333333,18.3333333 C20.8333333,20.6308333 22.7025,22.5 25,22.5 C27.2975,22.5 29.1666667,20.6308333 29.1666667,18.3333333 C29.1666667,16.0358333 27.2975,14.1666667 25,14.1666667 Z M25,20.8333333 C23.6216667,20.8333333 22.5,19.7116667 22.5,18.3333333 C22.5,16.955 23.6216667,15.8333333 25,15.8333333 C26.3783333,15.8333333 27.5,16.955 27.5,18.3333333 C27.5,19.7116667 26.3783333,20.8333333 25,20.8333333 Z M35,15.8333333 L32.945,15.8333333 C32.7975,15.3641667 32.61,14.9133333 32.385,14.4858333 L33.84,13.0308333 C34.1658333,12.705 34.1658333,12.1783333 33.84,11.8525 L31.4816667,9.49416667 C31.1691667,9.18166667 30.6158333,9.18166667 30.3033333,9.49416667 L28.8483333,10.9491667 C28.4208333,10.7233333 27.97,10.5366667 27.5008333,10.3883333 L27.5008333,8.33333333 C27.5008333,7.8725 27.1275,7.5 26.6675,7.5 L23.3341667,7.5 C22.8741667,7.5 22.5008333,7.8725 22.5008333,8.33333333 L22.5008333,10.3883333 C22.0316667,10.5366667 21.5808333,10.7233333 21.1533333,10.9491667 L19.6983333,9.49416667 C19.5416667,9.3375 19.3291667,9.25 19.1083333,9.25 C18.8875,9.25 18.675,9.3375 18.5191667,9.49416667 L16.1608333,11.8525 C15.835,12.1783333 15.835,12.705 16.1608333,13.0308333 L17.6158333,14.4858333 C17.39,14.9133333 17.2033333,15.3641667 17.0558333,15.8333333 L15,15.8333333 C14.54,15.8333333 14.1666667,16.2058333 14.1666667,16.6666667 L14.1666667,20 C14.1666667,20.4608333 14.54,20.8333333 15,20.8333333 L17.055,20.8333333 C17.2025,21.3025 17.39,21.7533333 17.615,22.1808333 L16.16,23.6358333 C15.8341667,23.9616667 15.8341667,24.4883333 16.16,24.8141667 L18.5183333,27.1725 C18.8308333,27.485 19.3841667,27.485 19.6966667,27.1725 L21.1516667,25.7175 C21.5791667,25.9433333 22.03,26.13 22.4991667,26.2783333 L22.4991667,28.3333333 C22.4991667,28.7941667 22.8725,29.1666667 23.3325,29.1666667 L26.6658333,29.1666667 C27.1258333,29.1666667 27.4991667,28.7941667 27.4991667,28.3333333 L27.4991667,26.2783333 C27.9683333,26.13 28.4191667,25.9433333 28.8466667,25.7175 L30.3016667,27.1725 C30.4583333,27.3291667 30.67,27.4166667 30.8908333,27.4166667 C31.1116667,27.4166667 31.3241667,27.3291667 31.48,27.1725 L33.8383333,24.8141667 C34.165,24.4891667 34.165,23.9616667 33.8391667,23.6358333 L32.3841667,22.1808333 C32.61,21.7533333 32.7966667,21.3025 32.9441667,20.8333333 L35,20.8333333 C35.46,20.8333333 35.8333333,20.4608333 35.8333333,20 L35.8333333,16.6666667 C35.8333333,16.2058333 35.46,15.8333333 35,15.8333333 Z M34.1666667,19.1666667 L32.3083333,19.1666667 C31.92,19.1666667 31.5833333,19.435 31.4958333,19.8125 C31.3241667,20.5591667 31.0366667,21.25 30.64,21.8658333 C30.4283333,22.1958333 30.475,22.6283333 30.7525,22.9058333 L32.0716667,24.225 L30.8916667,25.405 L29.5725,24.0858333 C29.2958333,23.8083333 28.8633333,23.7616667 28.5325,23.9741667 C27.9158333,24.37 27.2258333,24.6575 26.48,24.8283333 C26.1008333,24.915 25.8333333,25.2525 25.8333333,25.6408333 L25.8333333,27.4991667 L24.1666667,27.4991667 L24.1666667,25.6408333 C24.1666667,25.2525 23.8983333,24.9158333 23.52,24.8283333 C22.7741667,24.6583333 22.0833333,24.37 21.4666667,23.975 C21.1366667,23.7616667 20.7033333,23.8091667 20.4266667,24.0866667 L19.1075,25.4058333 L17.9275,24.2258333 L19.2466667,22.9066667 C19.5241667,22.6291667 19.5708333,22.1958333 19.3583333,21.8666667 C18.9616667,21.2508333 18.6741667,20.56 18.5025,19.8133333 C18.4166667,19.435 18.08,19.1666667 17.6916667,19.1666667 L15.8333333,19.1666667 L15.8333333,17.5 L17.6916667,17.5 C18.08,17.5 18.4166667,17.2316667 18.5041667,16.8541667 C18.6758333,16.1075 18.9633333,15.4166667 19.36,14.8008333 C19.5716667,14.4708333 19.525,14.0383333 19.2483333,13.7608333 L17.9291667,12.4416667 L19.1091667,11.2616667 L20.4283333,12.5808333 C20.7058333,12.8591667 21.1383333,12.9066667 21.4683333,12.6925 C22.085,12.2966667 22.775,12.0091667 23.5208333,11.8383333 C23.9,11.7516667 24.1675,11.4141667 24.1675,11.0258333 L24.1675,9.16666667 L25.8341667,9.16666667 L25.8341667,11.025 C25.8341667,11.4133333 26.1025,11.75 26.4808333,11.8375 C27.2258333,12.0083333 27.9166667,12.2966667 28.5333333,12.6916667 C28.8633333,12.9058333 29.2958333,12.8583333 29.5733333,12.58 L30.8925,11.2608333 L32.0725,12.4408333 L30.7533333,13.76 C30.4758333,14.0375 30.4291667,14.4708333 30.6416667,14.8 C31.0383333,15.4158333 31.3258333,16.1066667 31.4975,16.8533333 C31.5833333,17.2316667 31.92,17.5 32.3083333,17.5 L34.1666667,17.5 L34.1666667,19.1666667 Z" id="path-1"></path>
    </defs>
    <g id="Icons-/-Home-/-Service-/-support" stroke="none" stroke-width="1" fill="none" fill-rule="evenodd">
        <mask id="mask-2" fill="white">
            <use xlink:href="#path-1"></use>
        </mask>
        <use id="Combined-Shape" fill="#3986E0" fill-rule="nonzero" xlink:href="#path-1"></use>
    </g>
</svg>