<?xml version="1.0" encoding="UTF-8"?>
<svg width="50px" height="50px" viewBox="0 0 50 50" version="1.1" xmlns="http://www.w3.org/2000/svg" xmlns:xlink="http://www.w3.org/1999/xlink">
    <!-- Generator: Sketch 49.3 (51167) - http://www.bohemiancoding.com/sketch -->
    <title>Icons / Home / Service / tech-consulting</title>
    <desc>Created with Sketch.</desc>
    <defs>
        <path d="M26.9108333,6.0775 L25,7.98833333 L23.0891667,6.0775 L21.9108333,7.25583333 L24.1666667,9.51166667 L24.1666667,13.3333333 L25.8333333,13.3333333 L25.8333333,9.51166667 L28.0891667,7.25583333 L26.9108333,6.0775 Z M40.4166667,20.8333333 C36.4625,20.8333333 33.0608333,23.2408333 31.5991667,26.6666667 L28.6783333,26.6666667 L25.8333333,23.8216667 L25.8333333,20 L27.5,20 C27.96,20 28.3333333,19.6266667 28.3333333,19.1666667 L28.3333333,15.9641667 C31.3475,14.6475 33.3333333,11.6525 33.3333333,8.33333333 C33.3333333,3.73833333 29.595,0 25,0 C20.405,0 16.6666667,3.73833333 16.6666667,8.33333333 C16.6666667,11.6525 18.6525,14.6475 21.6666667,15.9641667 L21.6666667,19.1666667 C21.6666667,19.6266667 22.04,20 22.5,20 L24.1666667,20 L24.1666667,23.8216667 L21.3216667,26.6666667 L18.4008333,26.6666667 C16.9383333,23.2408333 13.5375,20.8333333 9.58333333,20.8333333 C4.29916667,20.8333333 0,25.1325 0,30.4166667 L0,49.1666667 C0,49.6266667 0.373333333,50 0.833333333,50 L10.8333333,50 C11.2933333,50 11.6666667,49.6266667 11.6666667,49.1666667 L11.6666667,45 L18.3333333,45 C18.7933333,45 19.1666667,44.6266667 19.1666667,44.1666667 L19.1666667,40 L21.6666667,40 C21.9558333,40 22.2233333,39.85 22.3758333,39.605 C22.5275,39.3591667 22.5416667,39.0525 22.4125,38.7941667 L19.1666667,32.3033333 L19.1666667,30.4166667 C19.1666667,29.7008333 19.0816667,29.005 18.9316667,28.3333333 L21.6666667,28.3333333 C21.8875,28.3333333 22.1,28.2458333 22.2558333,28.0891667 L25,25.345 L27.7441667,28.0891667 C27.9,28.2458333 28.1125,28.3333333 28.3333333,28.3333333 L31.0683333,28.3333333 C30.9183333,29.005 30.8333333,29.7008333 30.8333333,30.4166667 L30.8333333,32.3033333 L27.5875,38.7941667 C27.4583333,39.0525 27.4725,39.3591667 27.6241667,39.605 C27.7766667,39.85 28.0441667,40 28.3333333,40 L30.8333333,40 L30.8333333,44.1666667 C30.8333333,44.6266667 31.2066667,45 31.6666667,45 L38.3333333,45 L38.3333333,49.1666667 C38.3333333,49.6266667 38.7066667,50 39.1666667,50 L45.8333333,50 C48.1308333,50 50,48.1308333 50,45.8333333 L50,30.4166667 C50,25.1325 45.7008333,20.8333333 40.4166667,20.8333333 Z M20.3183333,38.3333333 L18.3333333,38.3333333 C17.8733333,38.3333333 17.5,38.7066667 17.5,39.1666667 L17.5,43.3333333 L10.8333333,43.3333333 C10.3733333,43.3333333 10,43.7066667 10,44.1666667 L10,48.3333333 L1.66666667,48.3333333 L1.66666667,30.4166667 C1.66666667,26.0516667 5.21833333,22.5 9.58333333,22.5 C12.5925,22.5 15.2141667,24.1883333 16.5533333,26.6666667 L14.0133333,26.6666667 C13.6683333,25.6991667 12.7516667,25 11.6666667,25 C10.2883333,25 9.16666667,26.1216667 9.16666667,27.5 C9.16666667,28.8783333 10.2883333,30 11.6666667,30 C12.7516667,30 13.6683333,29.3008333 14.0133333,28.3333333 L17.2125,28.3333333 C17.3941667,28.9983333 17.5,29.695 17.5,30.4166667 L17.5,32.5 C17.5,32.6291667 17.53,32.7575 17.5875,32.8725 L20.3183333,38.3333333 Z M12.5,27.5 C12.5,27.9591667 12.1258333,28.3333333 11.6666667,28.3333333 C11.2075,28.3333333 10.8333333,27.9591667 10.8333333,27.5 C10.8333333,27.0408333 11.2075,26.6666667 11.6666667,26.6666667 C12.1258333,26.6666667 12.5,27.0408333 12.5,27.5 Z M23.3333333,18.3333333 L23.3333333,15.3975 C23.3333333,15.0441667 23.1108333,14.73 22.7783333,14.6116667 C20.12,13.6708333 18.3333333,11.1475 18.3333333,8.33333333 C18.3333333,4.6575 21.3241667,1.66666667 25,1.66666667 C28.6758333,1.66666667 31.6666667,4.6575 31.6666667,8.33333333 C31.6666667,11.1475 29.88,13.6708333 27.2216667,14.6116667 C26.8891667,14.73 26.6666667,15.0441667 26.6666667,15.3975 L26.6666667,18.3333333 L23.3333333,18.3333333 Z M48.3333333,45.8333333 C48.3333333,47.2116667 47.2116667,48.3333333 45.8333333,48.3333333 L40,48.3333333 L40,44.1666667 C40,43.7066667 39.6266667,43.3333333 39.1666667,43.3333333 L32.5,43.3333333 L32.5,39.1666667 C32.5,38.7066667 32.1266667,38.3333333 31.6666667,38.3333333 L29.6816667,38.3333333 L32.4116667,32.8725 C32.47,32.7575 32.5,32.6291667 32.5,32.5 L32.5,30.4166667 C32.5,29.695 32.6058333,28.9983333 32.7875,28.3333333 L35.9866667,28.3333333 C36.3316667,29.3008333 37.2483333,30 38.3333333,30 C39.7116667,30 40.8333333,28.8783333 40.8333333,27.5 C40.8333333,26.1216667 39.7116667,25 38.3333333,25 C37.2483333,25 36.3316667,25.6991667 35.9866667,26.6666667 L33.4466667,26.6666667 C34.7858333,24.1883333 37.4075,22.5 40.4166667,22.5 C44.7816667,22.5 48.3333333,26.0516667 48.3333333,30.4166667 L48.3333333,45.8333333 Z M37.5,27.5 C37.5,27.0408333 37.8741667,26.6666667 38.3333333,26.6666667 C38.7925,26.6666667 39.1666667,27.0408333 39.1666667,27.5 C39.1666667,27.9591667 38.7925,28.3333333 38.3333333,28.3333333 C37.8741667,28.3333333 37.5,27.9591667 37.5,27.5 Z M35.8333333,7.5 L37.5,7.5 L37.5,9.16666667 L35.8333333,9.16666667 L35.8333333,7.5 Z M39.1666667,7.5 L40.8333333,7.5 L40.8333333,9.16666667 L39.1666667,9.16666667 L39.1666667,7.5 Z M39.1666667,10.8333333 L40.8333333,10.8333333 L40.8333333,12.5 L39.1666667,12.5 L39.1666667,10.8333333 Z M39.1666667,4.16666667 L40.8333333,4.16666667 L40.8333333,5.83333333 L39.1666667,5.83333333 L39.1666667,4.16666667 Z M12.5,7.5 L14.1666667,7.5 L14.1666667,9.16666667 L12.5,9.16666667 L12.5,7.5 Z M9.16666667,7.5 L10.8333333,7.5 L10.8333333,9.16666667 L9.16666667,9.16666667 L9.16666667,7.5 Z M9.16666667,4.16666667 L10.8333333,4.16666667 L10.8333333,5.83333333 L9.16666667,5.83333333 L9.16666667,4.16666667 Z M9.16666667,10.8333333 L10.8333333,10.8333333 L10.8333333,12.5 L9.16666667,12.5 L9.16666667,10.8333333 Z" id="path-1"></path>
    </defs>
    <g id="Icons-/-Home-/-Service-/-tech-consulting" stroke="none" stroke-width="1" fill="none" fill-rule="evenodd">
        <mask id="mask-2" fill="white">
            <use xlink:href="#path-1"></use>
        </mask>
        <use id="Combined-Shape" fill="#3986E0" fill-rule="nonzero" xlink:href="#path-1"></use>
    </g>
</svg>