<?xml version="1.0" encoding="UTF-8"?>
<svg width="50px" height="50px" viewBox="0 0 50 50" version="1.1" xmlns="http://www.w3.org/2000/svg" xmlns:xlink="http://www.w3.org/1999/xlink">
    <!-- Generator: Sketch 49.3 (51167) - http://www.bohemiancoding.com/sketch -->
    <title>Icons / Home / Service / ux-ui-design</title>
    <desc>Created with Sketch.</desc>
    <defs>
        <path d="M47.2333333,32.9666667 L46.4758667,32.9666667 L47.9938667,20.7950667 C48.0199333,20.5896 47.9609,20.3826 47.8321,20.2208333 L44.7815333,16.4074333 C45.4163333,15.9259667 45.9622,15.3149333 46.3815667,14.5919667 C47.4863333,12.6883333 47.494,10.4098 46.4015,8.4985 L41.7654667,0.3864 C41.4933,-0.0912333333 40.7067,-0.0912333333 40.4345333,0.3864 L35.7992667,8.4985 C34.7067667,10.4098 34.7144333,12.6883333 35.8192,14.5919667 C36.2385667,15.3149333 36.7844333,15.9259667 37.4192333,16.4074333 L34.3686667,20.2208333 C34.2391,20.3826 34.1808333,20.5896 34.2069,20.7950667 L35.7310333,32.9666667 L30.3758667,32.9666667 L31.8938667,20.7950667 C31.9199333,20.5896 31.8609,20.3826 31.7321,20.2208333 L28.9989333,16.8038 L31.0244667,13.4258667 C31.1525,13.2127333 31.1686,12.9513 31.0697,12.7243667 L25.7030333,0.459233333 C25.5803667,0.180166667 25.3043667,0 25,0 C24.6956333,0 24.4196333,0.180166667 24.2977333,0.46 L18.9310667,12.7266667 C18.8314,12.9536 18.8482667,13.2158 18.9763,13.4281667 L21.0018333,16.8045667 L18.2686667,20.2216 C18.1391,20.3833667 18.0808333,20.5903667 18.1069,20.7958333 L19.6310333,32.9666667 L15.8,32.9666667 L15.8,12.2666667 C15.8,12.1378667 15.7616667,12.0182667 15.7034,11.9094 L15.7095333,11.9063333 L9.5762,0.406333333 C9.3094,-0.0935333333 8.48983333,-0.0935333333 8.22303333,0.406333333 L2.0897,11.9063333 L2.09583333,11.9094 C2.03833333,12.0182667 2,12.1378667 2,12.2666667 L2,33.7333333 L2,45.2333333 C2,45.6573 2.34346667,46 2.76666667,46 L47.2333333,46 C47.6565333,46 48,45.6573 48,45.2333333 L48,33.7333333 C48,33.3093667 47.6565333,32.9666667 47.2333333,32.9666667 Z M36.546,11.1366 C36.6027333,10.4903 36.7921,9.8509 37.1302,9.25903333 L41.1,2.31226667 L44.1153,7.58846667 L41.7171667,12.3855 L39.3987667,9.4875 C39.2623,9.3173 39.0606667,9.2138 38.8421667,9.20153333 C38.6282667,9.19233333 38.4120667,9.26976667 38.2579667,9.42463333 L36.546,11.1366 Z M37.1455333,13.8222333 C37.0014,13.5746 36.891,13.3154667 36.7974667,13.0532667 L38.7363667,11.1143667 L41.2679,14.2791667 C41.4143333,14.4616333 41.6351333,14.5666667 41.8666667,14.5666667 C41.8935,14.5666667 41.9203333,14.5651333 41.9471667,14.5620667 C42.2070667,14.5352333 42.4347667,14.3765333 42.5520667,14.1427 L45.0291667,9.1885 L45.0698,9.25903333 C45.8878333,10.6904 45.8824667,12.397 45.0544667,13.8222333 C44.2272333,15.249 42.7483333,16.1 41.1,16.1 C39.4516667,16.1 37.9727667,15.249 37.1455333,13.8222333 Z M38.4013333,17.6333333 L43.7979,17.6333333 L46.4321667,20.9261667 L44.9310333,32.9666667 L37.2758667,32.9666667 L35.7678333,20.9261667 L38.4013333,17.6333333 Z M25,11.5 C25.4224333,11.5 25.7666667,11.8434667 25.7666667,12.2666667 C25.7666667,12.6898667 25.4224333,13.0333333 25,13.0333333 C24.5775667,13.0333333 24.2333333,12.6898667 24.2333333,12.2666667 C24.2333333,11.8434667 24.5775667,11.5 25,11.5 Z M20.4943,12.9781333 L24.2333333,4.4321 L24.2333333,10.1085 C23.3432333,10.4259 22.7,11.2692333 22.7,12.2674333 C22.7,13.5355 23.7319333,14.5674333 25,14.5674333 C26.2680667,14.5674333 27.3,13.5355 27.3,12.2674333 C27.3,11.2692333 26.6567667,10.4259 25.7666667,10.1085 L25.7666667,4.43133333 L29.5057,12.9758333 L27.6327333,16.1 L22.3672667,16.1 L20.4943,12.9781333 Z M22.3013333,17.6333333 L27.6979,17.6333333 L30.3321667,20.9261667 L28.8310333,32.9666667 L21.1758667,32.9666667 L19.6678333,20.9261667 L22.3013333,17.6333333 Z M8.9,2.39583333 L10.4847,5.36666667 L7.3153,5.36666667 L8.9,2.39583333 Z M6.49803333,6.9 L11.3027333,6.9 L14.0895667,12.1263667 L11.9666667,14.2492667 L9.44203333,11.7246333 C9.14226667,11.4248667 8.65773333,11.4248667 8.35796667,11.7246333 L5.83333333,14.2492667 L3.71043333,12.1263667 L6.49803333,6.9 Z M14.2666667,14.1174 L14.2666667,32.9666667 L12.7333333,32.9666667 L12.7333333,15.6507333 L14.2666667,14.1174 Z M11.2,15.6507333 L11.2,32.9666667 L6.6,32.9666667 L6.6,15.6507333 L8.9,13.3507333 L11.2,15.6507333 Z M3.53333333,14.1174 L5.06666667,15.6507333 L5.06666667,32.9666667 L3.53333333,32.9666667 L3.53333333,14.1174 Z M46.4666667,44.4666667 L41.1,44.4666667 L41.1,39.8666667 L39.5666667,39.8666667 L39.5666667,44.4666667 L33.4333333,44.4666667 L33.4333333,41.4 L31.9,41.4 L31.9,44.4666667 L25.7666667,44.4666667 L25.7666667,39.8666667 L24.2333333,39.8666667 L24.2333333,44.4666667 L18.1,44.4666667 L18.1,41.4 L16.5666667,41.4 L16.5666667,44.4666667 L10.4333333,44.4666667 L10.4333333,39.8666667 L8.9,39.8666667 L8.9,44.4666667 L3.53333333,44.4666667 L3.53333333,34.5 L46.4666667,34.5 L46.4666667,44.4666667 Z M25.7666667,21.4666667 L27.3,21.4666667 L27.3,23 L25.7666667,23 L25.7666667,21.4666667 Z M25.7666667,24.5333333 L27.3,24.5333333 L27.3,31.4333333 L25.7666667,31.4333333 L25.7666667,24.5333333 Z M41.8666667,21.4666667 L43.4,21.4666667 L43.4,23 L41.8666667,23 L41.8666667,21.4666667 Z M41.8666667,24.5333333 L43.4,24.5333333 L43.4,31.4333333 L41.8666667,31.4333333 L41.8666667,24.5333333 Z" id="path-1"></path>
    </defs>
    <g id="Icons-/-Home-/-Service-/-ux-ui-design" stroke="none" stroke-width="1" fill="none" fill-rule="evenodd">
        <mask id="mask-2" fill="white">
            <use xlink:href="#path-1"></use>
        </mask>
        <use id="Combined-Shape" fill="#3986E0" fill-rule="nonzero" xlink:href="#path-1"></use>
    </g>
</svg>