<?xml version="1.0" encoding="UTF-8"?>
<svg width="50px" height="50px" viewBox="0 0 50 50" version="1.1" xmlns="http://www.w3.org/2000/svg" xmlns:xlink="http://www.w3.org/1999/xlink">
    <!-- Generator: Sketch 49.3 (51167) - http://www.bohemiancoding.com/sketch -->
    <title>Icons / Home / Service / web</title>
    <desc>Created with Sketch.</desc>
    <defs>
        <path d="M47.5,22.5 L47.5,4.16666667 C47.5,1.86916667 45.6308333,0 43.3333333,0 L6.66666667,0 C4.36916667,0 2.5,1.86916667 2.5,4.16666667 L2.5,16.6666667 C1.12166667,16.6666667 0,17.7883333 0,19.1666667 L0,44.1666667 C0,45.545 1.12166667,46.6666667 2.5,46.6666667 L20.8333333,46.6666667 C22.2116667,46.6666667 23.3333333,45.545 23.3333333,44.1666667 L30.3175,44.1666667 C31.1033333,44.1666667 31.8275,43.8083333 32.3041667,43.1841667 C32.7808333,42.56 32.9358333,41.7666667 32.7291667,41.0091667 L31.0908333,35 L35.8333333,35 L35.8333333,44.1666667 C35.8333333,45.545 36.955,46.6666667 38.3333333,46.6666667 L47.5,46.6666667 C48.8783333,46.6666667 50,45.545 50,44.1666667 L50,25 C50,23.6216667 48.8783333,22.5 47.5,22.5 Z M21.6666667,44.1666667 C21.6666667,44.6258333 21.2925,45 20.8333333,45 L2.5,45 C2.04083333,45 1.66666667,44.6258333 1.66666667,44.1666667 L1.66666667,42.5 L21.6666667,42.5 L21.6666667,44.1666667 Z M21.6666667,40.8333333 L1.66666667,40.8333333 L1.66666667,22.5 L21.6666667,22.5 L21.6666667,40.8333333 Z M21.6666667,20.8333333 L1.66666667,20.8333333 L1.66666667,19.1666667 C1.66666667,18.7075 2.04083333,18.3333333 2.5,18.3333333 L20.8333333,18.3333333 C21.2925,18.3333333 21.6666667,18.7075 21.6666667,19.1666667 L21.6666667,20.8333333 Z M31.1216667,41.4475 C31.1908333,41.7 31.1391667,41.9641667 30.98,42.1725 C30.8208333,42.3808333 30.58,42.5 30.3175,42.5 L23.3333333,42.5 L23.3333333,40.8333333 L30.9541667,40.8333333 L31.1216667,41.4475 Z M23.3333333,39.1666667 L23.3333333,35 L29.3633333,35 L30.5,39.1666667 L23.3333333,39.1666667 Z M35.8333333,33.3333333 L23.3333333,33.3333333 L23.3333333,28.3333333 L35.8333333,28.3333333 L35.8333333,33.3333333 Z M35.8333333,25 L35.8333333,26.6666667 L23.3333333,26.6666667 L23.3333333,19.1666667 C23.3333333,17.7883333 22.2116667,16.6666667 20.8333333,16.6666667 L4.16666667,16.6666667 L4.16666667,4.16666667 C4.16666667,2.78833333 5.28833333,1.66666667 6.66666667,1.66666667 L43.3333333,1.66666667 C44.7116667,1.66666667 45.8333333,2.78833333 45.8333333,4.16666667 L45.8333333,22.5 L38.3333333,22.5 C36.955,22.5 35.8333333,23.6216667 35.8333333,25 Z M48.3333333,44.1666667 C48.3333333,44.6258333 47.9591667,45 47.5,45 L38.3333333,45 C37.8741667,45 37.5,44.6258333 37.5,44.1666667 L37.5,42.5 L48.3333333,42.5 L48.3333333,44.1666667 Z M48.3333333,40.8333333 L37.5,40.8333333 L37.5,28.3333333 L48.3333333,28.3333333 L48.3333333,40.8333333 Z M48.3333333,26.6666667 L37.5,26.6666667 L37.5,25 C37.5,24.5408333 37.8741667,24.1666667 38.3333333,24.1666667 L47.5,24.1666667 C47.9591667,24.1666667 48.3333333,24.5408333 48.3333333,25 L48.3333333,26.6666667 Z M4.41043735,34.4099288 L7.7438246,31.0765415 L8.9223246,32.2550415 L5.58893735,35.5884288 L4.41043735,34.4099288 Z M7.74346603,36.9100995 L17.7435541,26.9100114 L18.9220541,28.0885114 L8.92196603,38.0885995 L7.74346603,36.9100995 Z M9.40998114,29.4110471 L14.4096937,24.4113345 L15.5881937,25.5898345 L10.5884811,30.5895471 L9.40998114,29.4110471 Z M39.4089857,34.4112345 L43.5749095,30.2453107 L44.7534095,31.4238107 L40.5874857,35.5897345 L39.4089857,34.4112345 Z M41.0753315,37.748116 L45.2412553,33.5821922 L46.4197553,34.7606922 L42.2538315,38.926616 L41.0753315,37.748116 Z M21.9097483,14.4108901 L26.9094609,9.41117751 L28.0879609,10.5896775 L23.0882483,15.5893901 L21.9097483,14.4108901 Z M29.41022,12.744219 L34.4099326,7.74450641 L35.5884326,8.92300641 L30.58872,13.922719 L29.41022,12.744219 Z M24.4095683,17.7451757 L27.7429555,14.4117884 L28.9214555,15.5902884 L25.5880683,18.9236757 L24.4095683,17.7451757 Z M28.5715088,7.75478083 L31.9131455,4.41314408 L33.0916455,5.59164408 L29.7500088,8.93328083 L28.5715088,7.75478083 Z M5.83333333,3.33333333 L7.5,3.33333333 L7.5,5 L5.83333333,5 L5.83333333,3.33333333 Z M9.16666667,3.33333333 L10.8333333,3.33333333 L10.8333333,5 L9.16666667,5 L9.16666667,3.33333333 Z M12.5,3.33333333 L14.1666667,3.33333333 L14.1666667,5 L12.5,5 L12.5,3.33333333 Z" id="path-1"></path>
    </defs>
    <g id="Icons-/-Home-/-Service-/-web" stroke="none" stroke-width="1" fill="none" fill-rule="evenodd">
        <mask id="mask-2" fill="white">
            <use xlink:href="#path-1"></use>
        </mask>
        <use id="Combined-Shape" fill="#3986E0" fill-rule="nonzero" xlink:href="#path-1"></use>
    </g>
</svg>